<?xml version="1.0" encoding="utf-8"?>
<!-- Generator: Adobe Illustrator 24.1.1, SVG Export Plug-In . SVG Version: 6.00 Build 0)  -->
<svg version="1.1" id="Layer_1" xmlns="http://www.w3.org/2000/svg" xmlns:xlink="http://www.w3.org/1999/xlink" x="0px" y="0px"
	 viewBox="0 0 800 800" style="enable-background:new 0 0 800 800;" xml:space="preserve">
<style type="text/css">
	.st0{fill:#020202;}
	.st1{display:none;fill:#FDFDFD;}
	.st2{display:none;fill:#FCFCFC;}
</style>
<path class="st0" d="M446.32,770.87c-4.75,0-9.51,0-14.26,0c-19.01-1.4-38.03-1.14-57.04,0c-24.72,0-49.44,0-74.16,0
	c-1.16-2.8-3.69-1.49-5.56-1.67c-34.32-3.32-67.94-9.92-101.05-19.67c-21.32-6.28-40.8-17.56-62.64-22.23
	c-1.06-0.23-2.34-1.08-2.85-2.01c-2.7-4.87-7.67-6.85-11.89-9.8c-8.01-5.59-15.77-11.43-20.57-20.3c-2.25-4.15-0.18-8.32-0.51-12.17
	c-0.2-2.31-7.93-1.99-10.21-6.82c-3.32-7.03-7.62-13.55-9.17-21.42c-4.26-21.66-5.55-43.67-7.89-65.55
	c-0.58-5.45-1.85-11.58,4.63-15.16c1.31-0.72,0.37-2.04,0.21-3.17c-2.45-18.02,1.45-27.76,18.24-34.88
	c11.18-4.74,13.8-10.99,12.78-21.99c-0.53-5.64-1.98-8.2-7.13-10.22c-11.23-4.41-22.41-9.23-31.67-17.22
	c-5-4.31-10.28-8.95-7.72-16.89c0.42-1.29,0.16-2.11-0.81-3.09c-4.59-4.7-6.27-10.98-8.88-16.75c-6.39-14.15-10.34-29.07-14-44.08
	c0-6.66,0-13.31,0-19.97c1.12-0.26,1.44-1.08,1.39-2.09c-0.46-9.14,2.02-17.77,4.25-26.5c1.37-5.38,6.07-9.28,6.57-14.69
	c1.05-11.31,7.89-18.52,16.37-24.61c10.51-7.55,22.41-11.85,35.64-13.84c-1.5-2.64-2.87-4.82-4.02-7.11
	c-12.49-24.75-23.17-49.93-18.77-78.72c2.17-14.22,3.95-28.51,5.95-42.72c4.34-30.75,24.14-50.49,51.44-63.32
	c1.49-0.7,2.9-0.84,3.84-2.55c5.97-10.8,15.82-17.56,25.86-23.91c28.79-18.21,60.52-29.1,93.53-36.51
	c42.69-9.58,86.04-14.29,129.63-17.46c51.55-3.75,102.89-4.85,153.86,6c53.45,11.38,104.74,28.45,151.14,57.98
	c24.77,15.77,46.93,34.7,64.17,58.82c8.42,11.78,9.25,24.54,4.72,37.94c-0.75,2.22-1.9,4.28-1.09,6.82
	c3.41,10.65,4.54,21.75,6.58,32.69c5.38,28.94,2.74,57.57-2.51,86.15c-0.76,4.16-3.43,7.26-7.84,6.64
	c-4.86-0.67-6.81,1.99-8.71,5.44c-5.62,10.23-13.91,17.97-23.38,24.5c-10.36,7.14-21.05,13.79-32.37,19.29
	c-4.16,2.02-5.87,3.85-4.94,9.07c1.11,6.21,1.46,13.1-0.14,19.09c-1.77,6.65,1.49,6.84,5.9,7.75c13.66,2.81,22.99,10.61,27.06,24.2
	c0.53,1.76,0.49,3.57,2.93,4.33c5.08,1.58,6.16,6.33,7.15,10.67c1.04,4.59,1.38,9.34,2.01,14.01c3.87,28.7,4.19,57.07-7.44,84.43
	c-1.91,4.49-4.59,7.53-9.54,6.51c-4.12-0.85-5.78,0.59-7.29,4.15c-1.65,3.89-1.72,7.63-1.4,11.75c2.43,31.66,5.46,63.37-4.31,94.51
	c-1.09,3.49-1.83,6.88,1.92,10.05c2.7,2.28,2.35,6.4,0.53,9.31c-5.4,8.64-10.56,17.64-18.96,23.77
	c-15.18,11.08-31.2,20.86-49.34,26.32c-59.47,17.89-120.17,29.47-182.01,35.17C450.49,769.35,447.73,767.91,446.32,770.87z
	 M390.81,228.63c33.82-3.18,73.3-5.98,111.84-16.3c26.98-7.23,53.12-15.84,75.26-33.69c4.27-3.44,8.37-7.01,11.8-11.3
	c3.15-3.94,3.09-7.34-1.88-9.68c-4.28-2.01-8.62-3.9-12.94-5.84c-31.34-14.14-65.22-19.7-98.16-28.22
	c-10.63-2.75-22.82-4.43-34.12,0.87c-2.15,1.01-5.13,0.96-7.42-0.95c-1.72-1.43-3.79-1.68-5.99-1.74
	c-33.04-0.93-65.85,2.18-98.7,5.21c-11.61,1.07-23.08,5.96-35.01,2.32c-1.31-0.4-1.72,0.16-1.77,1.24
	c-0.31,7.38-6.73,7.64-11.45,9.8c-14.47,6.62-30.28,11.3-38.43,26.98c-0.59,1.14-1.98,2.23-3.23,2.62
	c-6.91,2.17-5.76,6.39-2.94,10.99c5.44,8.85,13.97,13.94,22.86,18.63C299.55,220.14,341.44,228.34,390.81,228.63z M566.61,381.44
	c-11.81-25.58-16.78-51.97-18.85-79c-0.25-3.3-0.67-4.64-4.44-3.83c-24.55,5.33-49.39,8.83-74.33,11.74
	c-3.32,0.39-3.58,1.54-2.51,4.56c9.03,25.64,10.53,52.06,7.5,79.43C504.88,392.33,535.38,388.89,566.61,381.44z M272.93,308.77
	c-1.19,2.79-0.68,5.4-0.31,7.93c2.83,19.43,6.57,38.8,5.54,58.56c-0.25,4.89,1.61,6.53,5.94,7.6c25.84,6.42,51.99,10.87,78.5,13.3
	c4.42,0.41,5.79,0.35,4.16-4.95c-6.65-21.66-6.77-43.82-3.48-66.08c0.92-6.25-1.39-8.98-8.46-8.9
	C327.28,316.51,299.91,314.86,272.93,308.77z M200.38,638.03c3.65,9.31,2.7,18.18,4.21,26.73c2.81,15.98,1.04,32.04,1.2,48.05
	c0.05,4.98,0.83,7.03,5.82,8.41c23.37,6.46,47.16,10.56,71.14,13.72c7.35,0.97,7.85,0.23,6.24-7.45
	c-4.69-22.26-8.7-44.58-4.25-67.41c0.65-3.35-1.31-3.33-3.6-3.56C253.98,653.68,227.56,647.49,200.38,638.03z M329,612.67
	c-1.04,5.82-1.87,11.5-9.41,11.12c-7.12-0.36-8.12-5.65-8.9-11.46c-2.74-20.4-6.64-40.69-5.54-61.42c0.24-4.59-1.64-5.54-5.78-5.45
	c-21.63,0.45-43.12-1.75-64.53-4.5c-6.13-0.79-6.22,1.51-5.13,5.84c2.85,11.34,4.24,22.89,3.21,34.49
	c-0.96,10.72,3.23,22.05-3.9,32.1c34,9.33,68.23,12.49,103.85,12.08C330.04,621.01,331.77,616.43,329,612.67z M421.21,737.68
	c0-0.29,0-0.57,0-0.86c10.44,0,20.89-0.17,31.33,0.08c4.54,0.11,5.78-1.68,5.25-5.89c-0.65-5.16-1.21-10.36-1.34-15.55
	c-0.47-19.2-1.49-38.45,3.89-57.27c1.24-4.35,0.18-6.26-5.06-5.39c-12.4,2.06-24.9,3.38-37.47,4.06
	c-10.66,0.58-21.31,1.41-31.97,2.04c-2.75,0.16-4.57,0.59-3.63,4.11c6.26,23.41,5.91,47.33,4.92,71.23
	c-0.17,4.22,1.94,3.41,4.16,3.42C401.26,737.7,411.24,737.68,421.21,737.68z M446.98,543.97c-10.91,0.48-21.82,1.03-32.74,1.39
	c-3.08,0.1-4.77,0.37-4.07,4.33c3.99,22.6,4.56,45.27,0.44,67.93c-0.87,4.81-0.18,7.05,5.74,6.35c22.84-2.67,45.73-4.84,68.31-9.4
	c11.05-2.23,10.41-2.12,7.7-13.23c-4.48-18.34-10.16-36.59-9.1-55.83c0.21-3.73-0.92-4.39-4.31-4.07
	C468.31,542.42,457.64,543.13,446.98,543.97z M177.99,423.68c2.2,4.79,2.22,8.53,1,12.19c-0.78,2.35-1.21,4.71-0.45,6.98
	c6.07,18.08,7.39,37.09,10.96,55.65c0.69,3.57,1.81,5.31,5.58,5.95c11.91,2.04,23.71,4.71,35.62,6.69c7.29,1.21,14.6,2.97,22.59,2.6
	c-3.99-12.43-5.23-24.66-5.25-37.04c-0.02-12.1,0.03-24.21,0.28-36.31c0.08-4-0.13-6.16-5.37-6.43c-9.19-0.47-18.35-2.13-27.46-3.62
	C203.38,428.36,191.32,426.07,177.99,423.68z M627.34,615.29c-15.78,5.8-31.28,10.95-47.27,14.04c-6.34,1.22-7.21,3.97-6.79,9.45
	c0.76,9.91,0.83,19.91-0.33,29.79c-1.95,16.6-4.34,33.14-6.67,50.64c23.75-5.78,47.07-10.27,67.44-18.66
	C628.38,671.84,626.21,643.99,627.34,615.29z M422.67,512.38c-2.38-2.66-4.09-4.28-4.76-6.64c-6.14-21.43-11.4-42.99-8.6-65.56
	c0.62-4.98-1.26-5.7-5.77-5.55c-15.67,0.5-31.35,0.42-46.97-1.3c-4.31-0.47-8.64-0.65-13.2-0.98c9.83,25.77,16.53,51.26,14.58,78.29
	c-0.37,5.12,0.57,6.8,6.26,6.65C383.44,516.8,402.54,515.22,422.67,512.38z M719.58,235.5c-17.64,9.47-35.39,16.64-52.99,24.15
	c-1.56,0.66-4.55,0.32-3.15,4.05c8.92,23.78,12.91,48.44,12.52,73.81c-0.07,4.84,2.01,4.03,5.2,2.54
	c16.84-7.87,31.8-18.81,47.38-28.74c2.55-1.63,3.32-3.38,2.58-6.47C725.75,282.29,722.86,259.3,719.58,235.5z M642.6,509.9
	c-3.35,1.29-6.39,2.49-9.44,3.64c-15.31,5.75-30.93,10.42-46.92,13.94c-1.58,0.35-6.66-0.92-4.66,3.75
	c7.93,18.49,7.13,38.03,7.25,57.45c0.03,4.88,2.02,3.89,5.18,3.01c18.53-5.19,36.51-11.8,53.73-20.38
	c4.71-2.35,9.66-4.45,14.36-8.77c-7.52,0.62-10.3-3.38-11.48-9.03C647.62,539.23,643.65,525.14,642.6,509.9z M106.83,320.94
	c-0.55,0.2-1.03,0.3-1.44,0.53c-10.18,5.61-20.19,11.41-28.28,20.01c-2.45,2.6-1,4.11,0.81,5.84c5.52,5.27,11.87,9.4,18.29,13.46
	c38.91,24.62,82.85,35.02,126.98,44.87c1.01,0.23,2.86-0.01,3.2-0.64c0.9-1.69-0.72-2.43-2-3.07c-0.85-0.42-1.76-0.7-2.62-1.09
	c-42.25-19.08-81.64-42.28-112.41-77.94C108.65,322.1,108.27,320.72,106.83,320.94z M529.33,488.19
	c19.62-5.84,38.96-11.71,57.81-19.24c5.07-2.02,5.15-4.16,3.02-8.19c-6.58-12.43-11.5-25.44-12.8-39.56
	c-0.4-4.39-2.63-4.69-6.19-3.86c-13.86,3.23-27.88,5.56-42.03,7.01c-4.21,0.43-5.05,1.8-4,5.82c3.53,13.53,6.5,27.18,5.27,41.33
	C529.94,476.89,528.71,482.23,529.33,488.19z M539.6,107.56c22.2,3.57,41.37,14.08,61.01,23.39c1.76,0.84,3.27,1.8,5.28,0.76
	c13.82-7.15,27.66-14.25,41.96-21.61c-29.2-15.29-59.56-25.07-90.44-33.46c-2.23-0.61-4.3-0.81-4.99,2.11
	C550,89.01,544.17,97.78,539.6,107.56z M245.76,221.22c-13.66-7.31-25.65-15.33-33.01-28.5c-2.05-3.66-4.1-1.79-6.47-0.93
	c-18.69,6.77-37.65,10.55-57.78,7.75c-9.29-1.29-18.91-0.22-28.77-0.22c13.18,14.7,29.24,24.29,45.54,33.58
	c2.07,1.18,3.93,1.8,6.63,1.02c15.42-4.47,30.96-8.51,46.41-12.84c3.75-1.05,7.55-1.59,11.21-0.61c4.36,1.17,4.59,5.52,4.99,9.73
	C238.62,226.92,241.93,224.28,245.76,221.22z M585.42,209.08c23.03,6.6,43.8,14.96,63.2,26.49c2.22,1.32,4.52,0.62,6.83-0.25
	c15.51-5.81,30.94-11.8,45.71-19.34c4.09-2.09,8.28-4.15,12.38-8.05c-6.33-0.5-11.64-1.2-16.95-1.28
	c-28.71-0.43-56.16-7.75-83.56-15.26c-2.36-0.65-3.78-0.91-5.6,0.83C601.07,198.29,593.83,203.25,585.42,209.08z M161.02,326.35
	c0.14-2.26,0.43-3.26,0.23-4.14c-3.76-16.34-1.54-32.53,1.4-48.65c0.74-4.04-1.37-5.22-4.32-6.75c-16.64-8.57-33.32-17.1-47.9-29.08
	c-0.4-0.33-1.24-0.11-1.99-0.16c-0.52,13.95-0.73,27.69,1.53,41.31c0.39,2.38,0.16,5.54,2.85,6.76c4.81,2.18,7.45,6.47,10.78,10.1
	C134.38,307.49,147.12,316.78,161.02,326.35z M336.55,69.7c4.75,10.37,10.5,19.53,16.03,28.82c1.49,2.49,3.44,1.74,5.57,1.48
	c18.13-2.26,36.31-3.88,54.61-3.91c13.37-0.02,13.24-0.12,10.23-12.92c-1.5-6.36-0.37-16.04-4.14-18.47
	c-4.69-3.03-13.21,0.02-20.08,0.18C378.17,65.38,357.73,67.73,336.55,69.7z M245.78,129.56c-17.47-9.27-35.21-16.25-50.04-28.32
	c-1-0.81-2.16-1.15-3.32-0.69c-11.21,4.42-22.31,9.05-33.37,16.12c21.29,7.63,40.47,16.75,59.3,26.65c2.55,1.34,4.75,2.69,7.58-0.07
	C231.55,137.75,238.53,134.06,245.78,129.56z M518.44,272.53c-8.97-9.05-16.66-17.1-22.3-26.79c-1.47-2.52-3.28-3.06-5.87-2.44
	c-13.82,3.34-27.95,4.94-42.49,7.01c5.45,8.52,10.96,16.51,13.79,25.83c0.86,2.84,2.57,2.91,4.83,2.64
	C483.26,276.74,500.12,274.72,518.44,272.53z M60.59,371.92c0,5.31-0.46,10.08,0.08,14.74c2.92,25.32,6.1,50.6,9.1,75.91
	c0.17,1.46,0.01,2.6,1.7,3.37c5.4,2.45,10.61,5.39,16.4,6.77c-5.67-28.16-10.59-55.77-6.35-84.07c0.32-2.16-0.45-2.99-1.87-3.93
	C73.41,380.52,67.17,376.34,60.59,371.92z M292.24,281.05c16.06,2.66,30.91,3.64,45.83,3.75c4.26,0.03,9.75,1.97,12.47,0
	c3.52-2.56-1.46-7.44-1.07-11.52c0.04-0.47-0.02-0.95-0.07-1.42c-0.64-6.66,2.65-15.83-1.67-19.38c-4.67-3.85-13.52-2.63-20.54-3.62
	c-0.94-0.13-1.99-0.05-2.79-0.45c-2.83-1.39-4.24,0.23-5.9,2.19C310.09,260.51,303.08,271.6,292.24,281.05z M449.85,312.97
	c-11.07-0.01-11.04,0-13.49,9.91c-0.68,2.75-1.62,5.43-2.38,8.15c-5.58,19.93-18.34,36.15-27.93,54c-4.99,9.29-9,10.22-17.78,4.77
	c-2.26,7.12,1.03,9.14,7.71,8.58c4.24-0.36,8.56-0.29,12.79,0.08c4.74,0.41,7.08-1.75,9.3-5.74c9.42-16.93,16.45-35.09,26.86-51.49
	c0.73-1.15,1.3-2.62,1.34-3.95C446.52,329.05,448.29,321.05,449.85,312.97z M631.74,274.58c-7.51-0.02-12.24,3.05-17.41,4.42
	c-5.52,1.47-12.65,1.92-8.55,11.09c0.47,1.06-0.49,2.73-0.7,4.13c-2.61,17.45-12.3,32.15-18.81,48.07
	c-4.99,12.19-5.68,17.67-1.76,31.09C598.82,339.98,611.16,306.14,631.74,274.58z M606.47,491.47c2.29-0.21,4.76,0.05,6.84-0.72
	c21.52-7.95,43.02-16.01,62.59-28.25c15.84-9.91,16.98-18.82,4.41-32.75c-1.62,3.21-2.27,6.65-3.26,10.01
	c-1.59,5.35-1.72,14.39-8.5,13.81c-8.22-0.7-10.62,4.02-14.69,8.43c-2.52,2.73-5.91,4.72-9.1,6.74
	C632.39,476.57,619.68,483.83,606.47,491.47z M115.28,684.53c-4.66-13.99-5.72-26.72-6.36-39.44c-0.56-10.92-3.44-22.17,2.57-32.62
	c0.74-1.29,0.42-2.01-0.85-2.81c-6.74-4.26-13.43-8.62-20.44-13.14c3.52,28.31,15.67,54.9,11.53,83.98
	C105.93,679.34,109.55,682,115.28,684.53z M148.26,585.93c1.14-2.43,0.03-4.18-0.48-5.82c-5.11-16.15-4.98-32.69-3.68-49.27
	c0.79-10.07,1.01-10.05-8.85-13c-0.68-0.2-1.34-0.47-2.01-0.7c-2.72-0.94-3.86-0.2-3.61,2.87c0.63,7.78,0.75,15.6,1.01,23.38
	c0.37,11.11,3.8,21.99,2.29,33.16c-0.26,1.95,0.6,2.48,1.95,3.11C139.32,581.72,143.75,583.81,148.26,585.93z M608.18,368.99
	c11.4-2.64,20.84-4.85,24.38-16.87c2.86-9.7,7.29-18.94,11.2-28.31c3.94-9.43,4.04-9.38,0.67-21.69
	C636.61,327.02,621.77,346.83,608.18,368.99z M213.32,356.56c12.73,6.42,25.45,11.96,39.55,16.38c-1.52-6-2.74-10.85-4.09-16.21
	c-3.69,4.98-8.2,6.89-13.17,3.68c-5.31-3.43-3.7-8.63-1.95-13.42c2.11-5.76,4.54-11.4,6.54-17.2c0.89-2.57,3.01-5.08,1.58-9.2
	C231.16,332.37,222.04,344.03,213.32,356.56z M125.34,422.77c3.75,0.6,4.63-1.81,6.25-3.05c3.83-2.93,7.89-3.38,11.81-0.44
	c4.53,3.4,4.05,8.5,3.13,13.11c-1.9,9.51-4.6,18.8-9.48,27.36c-4.67,8.18-8.91,16.6-13.42,25.06c1.75,0.69,3.1,1.12,4.36,1.73
	c5.03,2.45,7.6,1.52,8.93-4.56c1.96-8.97,3.69-18.45,8.04-26.32c6.41-11.58,6.94-23.1,4.78-35.4c-0.04-0.23-0.05-0.48-0.01-0.71
	c0.55-3.32-1.32-4.35-4.18-5.32c-11.23-3.79-11.19-3.91-17.92,5.57C127.01,420.7,126.3,421.54,125.34,422.77z M321.5,436.62
	c-6.85,21.58-20.24,38.33-31.21,56.42c-2.72,4.49-4.49,10.3-11.51,10.14c-0.59-0.01-1.46,1.12-1.77,1.9
	c-2.75,6.81,0.58,11.8,7.88,11.92c1.42,0.02,2.85,0.02,4.27,0.09c1.8,0.1,2.64-0.21,3.26-2.44c5.87-20.91,12.14-41.73,25.11-59.62
	C321.37,449.73,323.45,444.39,321.5,436.62z M198.25,348.93c9.63-18.52,17.63-37.21,31.78-52.27c-8.78-4.52-8.51-4.37-12.84,3.51
	c-8.23,14.99-16.15,30.18-26.34,44.45C193.12,345.93,195.74,347.46,198.25,348.93z M542.34,229.51
	c12.27,8.69,24.51,17.15,36.48,25.98c3.63,2.68,6.79,3.58,10.68,0.99c-1-2.77-3.71-3.48-5.79-4.89
	c-6.88-4.67-13.27-9.73-18.32-16.56c-2.71-3.67-2.06-10.74-7.55-10.92c-4.57-0.15-9.25,2.95-13.87,4.63
	C543.4,228.94,542.88,229.25,542.34,229.51z M308.52,518.35c8.47,0,15.75,0,23.03,0c1.96,0,4.45-0.12,3.41-2.85
	c-3.3-8.66-6.3-17.4-8.51-27.61C320.16,498.58,314.59,508.04,308.52,518.35z M463.76,505.38c-15.69-6.71-5.1-17.84-6.2-27.29
	c-4.33,3.87-4.75,9.07-6.74,13.34c-3.78,8.11-6.7,9.67-15.54,6.43c-0.8,4.38,0.49,9.16-4.4,13.6
	C442.79,509.26,452.74,507.42,463.76,505.38z M517.27,95.34c-3.84,5.43-8.81,7.43-14.34,4.3c-5.87-3.32-3.87-8.82-2.34-13.93
	c1.49-4.97,2.81-9.99,3.98-15.04c0.32-1.36,1.33-3.64-1.08-4.1c-2.52-0.49-2.37,1.95-2.41,3.4c-0.19,6.63-3.08,12.34-5.85,18.1
	c-2.92,6.08-4.9,10.65,3.07,15.98c5.57,3.73,10.55,4.51,15.48,2.88C518,105.55,516.78,99.77,517.27,95.34z M383.27,284.45
	c-1.85-7.41-4.61-14.39-5.12-21.53c-0.57-7.99-4.2-9.99-11.37-9.07c2.2,9.23,5.43,18.15,5.42,27.65c0,3.02,1.46,3.58,3.98,3.35
	C378.52,284.64,380.85,284.58,383.27,284.45z M533.49,573.25c-2.42,7.58-5.13,15.09-7.15,22.77c-1.43,5.43-4.21,8.3-9.91,7.92
	c-1.76-0.12-3.21-0.29-3.13,2.31c0.08,2.65,1.59,2.42,3.3,2.08c4.65-0.9,9.29-1.85,13.94-2.75c1.21-0.23,2.26-0.43,2.24-2.06
	C532.67,593.43,535.56,583.49,533.49,573.25z M487.21,473.13c-7.74,8.62-11.12,20-18.87,28.51c-0.89,0.97,0.28,1.2,0.61,1.48
	c1.41,1.23,14.14-1.85,14.02-3.49C482.25,490.45,487.51,482.39,487.21,473.13z M435.56,462.27c2.32-11.16,5.55-20.26,10.14-29.59
	c-4.3,0.25-7.6,0.49-10.9,0.62c-3.79,0.15-4.47,1.56-3.5,5.39C433.09,445.75,433.95,453.04,435.56,462.27z M657.55,415.05
	c-0.7-0.2-1.39-0.41-2.09-0.61c-4.16,7.9-8.31,15.81-12.57,23.9c3.88,0,6.97-0.31,9.98,0.08c3.72,0.47,4.95-0.64,4.76-4.46
	C657.33,427.67,657.55,421.35,657.55,415.05z M480.46,700.92c-1.41,8.05-1.82,15.96-2.63,23.84c-1.02,9.94-0.62,9.98,9.79,8.44
	C482.24,723.12,484.02,711.51,480.46,700.92z M249.77,269.33c6.1,4.18,9.89,2.65,12.29-3.94c1.27-3.5,3.5-6.65,4.93-10.11
	c1.21-2.93,4.4-5.28,3.14-10.37C262.62,253.42,255.34,260.67,249.77,269.33z M225.18,239.58c-0.22-0.39-0.44-0.78-0.65-1.17
	c-8.54,3.61-17.07,7.22-26.44,11.18c3.56,1.58,6.14,2.69,8.69,3.86c2.15,0.99,4.08,2.23,6.24-0.32
	C216.93,248.5,221.11,244.08,225.18,239.58z M116.02,578.17c0.51-0.25,1.02-0.5,1.52-0.74c-2.21-7.24-4.41-14.47-6.66-21.85
	c-11.93,7.2-12.04,8.24-2.03,17.01C111.13,574.57,113.62,576.31,116.02,578.17z M584.66,288.96c-4.79-0.28-8.6,2-12.74,2.71
	c-1.98,0.34-2.66,0.92-1.93,3.31c1.61,5.22,2.62,10.62,3.88,15.94C576.57,303.11,580.24,296.04,584.66,288.96z M449.77,378.31
	c-4.49,7.01-7.98,12.46-11.99,18.71c6.12-0.57,11.13-1.03,16.3-1.51C452.72,390.06,451.47,385.1,449.77,378.31z M401.94,254.34
	c-0.79,0.17-1.58,0.33-2.37,0.5c1.25,7.23,3.19,14.42,3.55,21.68c0.37,7.61,3.4,8.93,10.27,6
	C407.94,273.79,402.45,265.09,401.94,254.34z M188.82,281.65c-1.43,7.27,0.79,14.38,0.49,23.46c1.55-3.66,2.38-5.53,3.14-7.44
	c0.88-2.19,1.63-4.42,2.54-6.59C198.23,283.38,198.25,283.39,188.82,281.65z M113.27,456.04c2.03-11.37,7.08-19.62,11.83-29.38
	C113.04,433.74,109.06,443.35,113.27,456.04z M167.8,496.39c-1.94-5.5-3.86-10.94-5.96-16.9c-4.01,4.33-5.52,9.31-8.02,14.33
	c2.45,0.71,4.69,1.32,6.9,2.02C162.77,496.47,164.81,497.02,167.8,496.39z M675.74,495.35c-7.91,2.84-8.55,5.33-5.92,15.68
	c1.48,5.83,4.82,0.72,7.93,3C675.38,507.18,676.4,501.47,675.74,495.35z M129.98,618.66c1.61,8.56,3.12,16.61,4.65,24.71
	c4.41-4.16,1.24-9.84,2.96-14.57C139.9,622.42,137.94,618.59,129.98,618.66z M610.28,455.86c14.22-6.15,14.22-6.15,11.7-20.5
	C619.9,444.71,612.21,448.48,610.28,455.86z M181.99,581.12c-0.78-0.09-1.57-0.18-2.35-0.27c1.07,6.44-0.46,11.68-8.16,15.82
	c6.71-0.13,10.2,3.37,14.89,3.01C184.84,593.17,183.42,587.14,181.99,581.12z M527.57,641.05c-3.05,1.05-8.66-2.74-7.93,3.44
	c0.78,6.54-0.22,13.12,1.59,21.63C523.61,656.73,525.52,649.18,527.57,641.05z M667.52,559.19c5.61-5.33,12.15-7.89,16.09-13.9
	c-3.52,3.93-7.75,4.77-12.19,2.96c-2.59-1.05-2.46,0.3-3.15,1.84C667.15,552.6,667.35,555.12,667.52,559.19z M271.27,453.61
	c0.36,0.05,0.73,0.1,1.09,0.14c1.28-5.84,2.56-11.69,3.84-17.57c-8.94-0.86-8.89-0.87-7.02,7.01
	C270,446.64,270.58,450.14,271.27,453.61z M650.07,174.17c-4.98-9.25-4.98-9.25-18.18-2.59
	C638.09,172.47,643.72,173.27,650.07,174.17z M517.75,536.91c-3.32,2.96-8.13-0.86-8.63,3.91c-0.48,4.57,1.33,9.39,2.13,14.1
	c0.42-0.05,0.84-0.1,1.26-0.15C514.07,549.43,515.64,544.1,517.75,536.91z M254.45,81.67c4.02,3.36,6.85,5.73,10.02,8.38
	c1.61-4.56,4.8-7.27,8.15-10.54C266.2,78.41,261.23,80.58,254.45,81.67z M549.57,657.52c3.15-6.88,1.59-13.35,3.54-19.22
	c0.44-1.32,0.41-3.02-1.82-2.79c-1.6,0.16-4.09,0.2-3.87,2.2C548.11,643.95,546.1,650.48,549.57,657.52z M390.31,375.58
	c2.72-8.24,5.45-16.48,8.17-24.72C391.31,357.61,387.56,365.52,390.31,375.58z M307.19,672.25c3.44-4.06,4.95-8.65,3.52-13.16
	c-0.62-1.96-4.36-1.08-6.59-0.43C305.17,663.34,306.14,667.61,307.19,672.25z M177.09,646.86c1.27-5.86,4.5-12.35-0.49-17.59
	c-0.69,0.1-1.38,0.21-2.07,0.31C175.39,635.34,176.24,641.1,177.09,646.86z M148.61,136.2c-4.75-1.7-6.05-6.73-10.77-5.27
	c-1.26,0.39-2.46,1.94-1.11,3.97C139.71,139.35,143.37,137.17,148.61,136.2z M501.8,495.61c9.46-1.72,9.46-1.72,6.28-11.86
	C506.01,487.67,504.07,491.34,501.8,495.61z M676.48,591.03c-2.74,3.56-11.23,2.39-6.93,10.65
	C671.75,598.01,679.92,599.38,676.48,591.03z M515.34,707.49c-0.31,6.15-1.33,12.14-3.08,18c-0.41,1.37-1.28,3.51,1.47,3.72
	c1.89,0.14,2.27-1.27,2.27-2.85C515.99,720.09,516.86,713.8,515.34,707.49z M327.23,557.81c0.51,0.07,1.02,0.13,1.53,0.2
	c0.74-2.66,1.53-5.31,2.22-7.99c0.35-1.34,2.04-3.17-1.18-3.42c-2.39-0.19-3.56,0.51-3.25,3.1
	C326.86,552.39,327.01,555.11,327.23,557.81z M260.25,117.84c1.82,1.43,2.56,1.75,2.9,2.32c2.69,4.53,6.27,1.13,9.43,1.03
	c0.99-0.03,1.78-1.22,1.26-2.08c-1.9-3.08-5.04-1.2-7.62-1.58C264.72,117.31,263.13,117.66,260.25,117.84z M357.68,737.76
	c9.82,0.26,9.82,0.26,5.79-8.99C361.6,731.68,359.85,734.39,357.68,737.76z M469.23,441.08c2.11-3.55,5.47-6.36,5.96-10.86
	C464.65,429.39,471.49,437.86,469.23,441.08z M454.76,63.71c-8.8-0.35-8.8-0.35-6.46,8.65C450.31,69.66,452.26,67.05,454.76,63.71z
	 M543.6,260.97c2.31,5.89,5.81,6.59,10.45,4.29C551.11,263.16,547.97,261.71,543.6,260.97z M699.18,490.3
	c2.46-2.94,2.8-6.29,2.18-10.14C694.51,482.59,700.46,487.13,699.18,490.3z M180.81,701.37c1.34,4.01-2.08,7.79,1.43,10.93
	c0.29,0.25,1.78-0.27,1.77-0.35c-0.29-3.32,0.98-6.9-1.54-9.85C182.34,701.95,182.06,701.92,180.81,701.37z"/>
<path class="st1" d="M-250.46,660.4c0.99-2.07,2.92-1.06,4.38-1.2c43.26-3.99,85.73-12.09,127.33-24.61
	c12.69-3.82,23.9-10.66,34.52-18.41c5.88-4.29,9.49-10.59,13.27-16.63c1.27-2.04,1.51-4.92-0.37-6.51
	c-2.62-2.21-2.11-4.59-1.34-7.03c6.83-21.78,4.71-43.96,3.01-66.11c-0.22-2.89-0.17-5.5,0.98-8.22c1.05-2.49,2.21-3.5,5.1-2.9
	c3.46,0.71,5.34-1.41,6.67-4.55c8.14-19.15,7.92-38.99,5.21-59.07c-0.44-3.27-0.68-6.59-1.41-9.8c-0.69-3.04-1.45-6.36-5-7.47
	c-1.71-0.53-1.68-1.8-2.05-3.03c-2.85-9.51-9.37-14.97-18.93-16.93c-3.08-0.63-5.37-0.77-4.13-5.42c1.12-4.19,0.87-9.01,0.1-13.35
	c-0.65-3.65,0.55-4.93,3.46-6.34c7.92-3.85,15.4-8.5,22.64-13.5c6.63-4.57,12.42-9.98,16.36-17.14c1.33-2.42,2.69-4.28,6.09-3.81
	c3.09,0.43,4.95-1.74,5.49-4.65c3.67-19.99,5.52-40.03,1.75-60.27c-1.42-7.65-2.22-15.42-4.6-22.87c-0.57-1.78,0.23-3.22,0.76-4.77
	c3.16-9.37,2.58-18.3-3.31-26.54c-12.06-16.88-27.56-30.12-44.89-41.15c-32.46-20.66-68.34-32.6-105.73-40.56
	c-35.66-7.59-71.58-6.82-107.64-4.2c-30.5,2.22-60.82,5.51-90.69,12.22c-23.09,5.18-45.29,12.8-65.43,25.54
	c-7.02,4.44-13.91,9.17-18.09,16.73c-0.66,1.19-1.64,1.29-2.68,1.78c-19.1,8.98-32.95,22.79-35.99,44.3
	c-1.4,9.94-2.64,19.94-4.17,29.89c-3.08,20.14,4.39,37.75,13.13,55.07c0.81,1.6,1.76,3.13,2.81,4.97
	c-9.26,1.39-17.58,4.4-24.94,9.68c-5.93,4.26-10.72,9.3-11.45,17.22c-0.35,3.78-3.64,6.51-4.6,10.28
	c-1.56,6.11-3.3,12.15-2.97,18.54c0.04,0.71-0.19,1.28-0.97,1.46c0-82.45,0.02-164.9-0.08-247.35c0-3.24,0.41-4.18,3.99-4.18
	c169.05,0.12,338.1,0.11,507.15,0.03c3.11,0,3.82,0.69,3.82,3.81C-24,314.39-24,485.44-23.88,656.49c0,3.57-0.91,4-4.17,4
	C-102.19,660.38-176.32,660.4-250.46,660.4z"/>
<path class="st1" d="M-538.79,404.99c2.56,10.5,5.32,20.94,9.8,30.84c1.83,4.04,3,8.43,6.21,11.72c0.67,0.69,0.85,1.26,0.56,2.16
	c-1.79,5.55,1.9,8.8,5.4,11.82c6.48,5.59,14.3,8.97,22.16,12.05c3.6,1.41,4.62,3.21,4.99,7.15c0.72,7.69-1.12,12.06-8.94,15.38
	c-11.75,4.99-14.48,11.79-12.76,24.4c0.11,0.79,0.77,1.71-0.15,2.22c-4.53,2.51-3.65,6.79-3.24,10.61
	c1.63,15.31,2.54,30.7,5.52,45.85c1.08,5.5,4.09,10.06,6.41,14.98c1.6,3.38,7.01,3.15,7.15,4.77c0.23,2.69-1.22,5.61,0.36,8.52
	c3.36,6.2,8.79,10.29,14.39,14.2c2.95,2.06,6.43,3.45,8.32,6.85c0.36,0.65,1.25,1.25,2,1.41c15.28,3.27,28.91,11.16,43.82,15.55
	c23.17,6.82,46.68,11.44,70.69,13.76c1.31,0.13,3.08-0.79,3.89,1.17c-60.86,0-121.72-0.04-182.57,0.1
	c-3.42,0.01-4.09-0.67-4.09-4.09C-538.76,572.61-538.79,488.8-538.79,404.99z"/>
<path class="st2" d="M-300.34,660.4c13.3-0.8,26.6-0.98,39.91,0C-273.74,660.4-287.04,660.4-300.34,660.4z"/>
<path class="st2" d="M-289.29,281.07c-34.54-0.2-63.84-5.94-91.13-20.32c-6.22-3.28-12.18-6.84-15.99-13.03
	c-1.98-3.22-2.77-6.17,2.06-7.69c0.87-0.27,1.84-1.04,2.26-1.84c5.7-10.97,16.76-14.24,26.88-18.88c3.31-1.51,7.8-1.7,8.01-6.86
	c0.03-0.75,0.32-1.15,1.24-0.87c8.34,2.55,16.37-0.87,24.49-1.62c22.98-2.12,45.93-4.3,69.04-3.64c1.54,0.04,2.98,0.22,4.19,1.22
	c1.6,1.33,3.69,1.37,5.19,0.67c7.91-3.71,16.44-2.53,23.87-0.61c23.05,5.96,46.75,9.85,68.67,19.74c3.02,1.36,6.06,2.68,9.05,4.09
	c3.48,1.63,3.52,4.01,1.31,6.77c-2.4,3-5.27,5.5-8.25,7.91c-15.49,12.49-33.78,18.51-52.65,23.57
	C-238.01,276.89-265.63,278.85-289.29,281.07z M-278.47,273.47c14.11-0.19,30.28-1.49,46.32-4.26c14.35-2.47,27.96-6.76,39.75-15.75
	c3.13-2.39,5.01-5.19,3.16-8.9c-1.81-3.6-5.14-3.43-8.65-2.37c-6.8,2.05-13.65,3.92-20.5,5.79c-16.21,4.42-32.7,7.2-49.51,7.18
	c-23.14-0.03-46.04-3.11-68.77-7.17c-10.79-1.93-21.92-3.16-31.01-10.74c-3.97-3.31-9.25-0.11-9.49,5.17
	c-0.21,4.55,2.27,7.86,5.46,10.68c5.33,4.72,11.75,7.42,18.49,9.29C-329.47,268.97-305.34,273.09-278.47,273.47z"/>
<path class="st2" d="M-166.31,387.97c-21.85,5.21-43.18,7.62-64.81,9.03c2.12-19.15,1.08-37.63-5.24-55.57
	c-0.74-2.11-0.56-2.92,1.76-3.19c17.44-2.04,34.82-4.49,52-8.21c2.64-0.57,2.93,0.37,3.11,2.68
	C-178.05,351.62-174.57,370.08-166.31,387.97z"/>
<path class="st2" d="M-371.76,337.14c18.87,4.26,38.02,5.41,57.3,5.22c4.95-0.05,6.56,1.86,5.92,6.23
	c-2.3,15.57-2.21,31.07,2.44,46.23c1.14,3.71,0.18,3.74-2.91,3.46c-18.55-1.7-36.84-4.81-54.92-9.3c-3.03-0.75-4.34-1.9-4.16-5.32
	c0.72-13.82-1.9-27.37-3.88-40.96C-372.24,340.91-372.6,339.09-371.76,337.14z"/>
<path class="st2" d="M-422.52,567.48c19.02,6.62,37.5,10.94,56.5,12.93c1.6,0.17,2.97,0.15,2.52,2.49
	c-3.11,15.97-0.31,31.59,2.97,47.16c1.13,5.37,0.78,5.89-4.36,5.21c-16.78-2.21-33.42-5.08-49.77-9.6c-3.49-0.97-4.04-2.4-4.07-5.89
	c-0.11-11.2,1.12-22.44-0.84-33.61C-420.62,580.2-419.96,573.99-422.52,567.48z"/>
<path class="st2" d="M-332.53,549.74c1.94,2.63,0.73,5.83,2.69,8.95c-24.92,0.28-48.87-1.93-72.65-8.45
	c4.99-7.03,2.06-14.95,2.73-22.45c0.72-8.11-0.25-16.2-2.24-24.13c-0.76-3.03-0.7-4.64,3.59-4.09c14.97,1.92,30.01,3.47,45.14,3.15
	c2.9-0.06,4.22,0.61,4.05,3.82c-0.77,14.5,1.96,28.69,3.88,42.96c0.55,4.06,1.24,7.77,6.23,8.02
	C-333.85,557.78-333.26,553.81-332.53,549.74z"/>
<path class="st2" d="M-268.02,637.19c-6.98,0-13.96,0.01-20.94-0.01c-1.55-0.01-3.03,0.56-2.91-2.39
	c0.69-16.72,0.94-33.45-3.44-49.83c-0.66-2.46,0.62-2.76,2.54-2.88c7.46-0.44,14.91-1.02,22.36-1.43c8.79-0.48,17.54-1.4,26.21-2.84
	c3.67-0.61,4.41,0.73,3.54,3.77c-3.76,13.17-3.05,26.63-2.72,40.06c0.09,3.63,0.48,7.27,0.94,10.88c0.37,2.94-0.49,4.19-3.67,4.12
	c-7.3-0.17-14.61-0.05-21.92-0.05C-268.02,636.79-268.02,636.99-268.02,637.19z"/>
<path class="st2" d="M-250,501.67c7.45-0.58,14.91-1.07,22.36-1.77c2.38-0.22,3.16,0.24,3.02,2.85
	c-0.75,13.46,3.23,26.22,6.36,39.05c1.9,7.78,2.34,7.7-5.38,9.26c-15.79,3.19-31.81,4.71-47.79,6.58c-4.14,0.48-4.63-1.08-4.01-4.44
	c2.88-15.85,2.49-31.71-0.31-47.52c-0.49-2.77,0.69-2.96,2.85-3.03C-265.26,502.4-257.63,502.01-250,501.67z"/>
<path class="st2" d="M-438.18,417.52c9.33,1.67,17.76,3.28,26.23,4.66c6.38,1.04,12.78,2.2,19.21,2.53c3.67,0.19,3.81,1.7,3.76,4.5
	c-0.17,8.47-0.21,16.93-0.2,25.4c0.01,8.66,0.88,17.22,3.67,25.91c-5.59,0.26-10.7-0.97-15.8-1.82c-8.34-1.39-16.59-3.25-24.92-4.68
	c-2.63-0.45-3.42-1.67-3.9-4.17c-2.49-12.99-3.42-26.29-7.66-38.93c-0.53-1.58-0.23-3.24,0.31-4.88
	C-436.62,423.49-436.64,420.87-438.18,417.52z"/>
<path class="st2" d="M-123.83,551.57c-0.79,20.08,0.73,39.56,4.46,59.65c-14.25,5.87-30.56,9.01-47.18,13.05
	c1.63-12.24,3.3-23.82,4.67-35.43c0.81-6.91,0.77-13.91,0.23-20.84c-0.29-3.84,0.32-5.76,4.75-6.61
	C-145.71,559.23-134.86,555.63-123.83,551.57z"/>
<path class="st2" d="M-267,479.57c-14.08,1.99-27.45,3.09-40.9,3.44c-3.98,0.1-4.63-1.07-4.38-4.65
	c1.36-18.91-3.33-36.75-10.2-54.77c3.19,0.23,6.22,0.35,9.23,0.68c10.93,1.2,21.9,1.26,32.86,0.91c3.16-0.1,4.47,0.4,4.04,3.88
	c-1.96,15.79,1.72,30.87,6.02,45.87C-269.86,476.58-268.67,477.72-267,479.57z"/>
<path class="st2" d="M-59.29,285.88c2.29,16.65,4.32,32.73,8.07,48.51c0.51,2.16-0.02,3.39-1.81,4.53
	c-10.9,6.94-21.37,14.6-33.15,20.1c-2.23,1.04-3.69,1.61-3.64-1.78c0.27-17.75-2.51-35-8.76-51.63c-0.98-2.61,1.12-2.37,2.21-2.83
	C-84.05,297.52-71.63,292.5-59.29,285.88z"/>
<path class="st2" d="M-113.15,477.84c0.73,10.66,3.52,20.52,5.61,30.5c0.83,3.95,2.77,6.75,8.03,6.31
	c-3.29,3.02-6.75,4.49-10.04,6.14c-12.05,6.01-24.63,10.63-37.59,14.26c-2.21,0.62-3.6,1.31-3.62-2.1
	c-0.08-13.58,0.47-27.25-5.07-40.19c-1.4-3.27,2.16-2.38,3.26-2.62c11.18-2.46,22.11-5.73,32.82-9.76
	C-117.62,479.58-115.49,478.74-113.15,477.84z"/>
<path class="st2" d="M-487.96,345.65c1.01-0.16,1.28,0.81,1.77,1.38c21.52,24.94,49.08,41.18,78.64,54.52
	c0.6,0.27,1.24,0.47,1.83,0.77c0.89,0.44,2.03,0.97,1.4,2.15c-0.23,0.44-1.53,0.6-2.24,0.45c-30.87-6.89-61.61-14.17-88.83-31.39
	c-4.49-2.84-8.93-5.73-12.79-9.42c-1.27-1.21-2.28-2.26-0.57-4.08c5.66-6.02,12.66-10.08,19.78-14
	C-488.68,345.86-488.34,345.79-487.96,345.65z"/>
<path class="st2" d="M-192.39,462.65c-0.44-4.17,0.43-7.9,0.76-11.67c0.86-9.9-1.21-19.45-3.68-28.91c-0.73-2.81-0.14-3.77,2.8-4.07
	c9.9-1.01,19.71-2.65,29.4-4.91c2.49-0.58,4.05-0.37,4.33,2.7c0.91,9.88,4.35,18.98,8.95,27.67c1.49,2.81,1.44,4.31-2.11,5.73
	C-165.13,454.45-178.67,458.56-192.39,462.65z"/>
<path class="st2" d="M-185.2,196.37c3.19-6.84,7.27-12.97,8.97-20.15c0.48-2.05,1.93-1.9,3.49-1.48
	c21.6,5.86,42.84,12.71,63.27,23.4c-10,5.15-19.68,10.12-29.35,15.12c-1.4,0.73-2.46,0.05-3.69-0.53
	C-156.26,206.22-169.67,198.87-185.2,196.37z"/>
<path class="st2" d="M-390.77,275.89c-2.68,2.14-4.99,3.99-7.87,6.28c-0.28-2.95-0.45-5.99-3.49-6.81
	c-2.57-0.69-5.22-0.31-7.84,0.43c-10.81,3.03-21.69,5.85-32.47,8.98c-1.89,0.55-3.19,0.11-4.64-0.71
	c-11.4-6.49-22.64-13.21-31.86-23.49c6.9,0,13.63-0.75,20.12,0.15c14.09,1.96,27.35-0.68,40.42-5.42c1.66-0.6,3.09-1.91,4.53,0.65
	C-408.71,265.16-400.33,270.78-390.77,275.89z"/>
<path class="st2" d="M-153.15,267.39c5.89-4.07,10.95-7.55,15.4-11.79c1.28-1.22,2.27-1.04,3.92-0.58
	c19.17,5.26,38.37,10.38,58.45,10.68c3.72,0.06,7.43,0.55,11.86,0.89c-2.87,2.73-5.8,4.17-8.66,5.63
	c-10.33,5.27-21.13,9.47-31.98,13.53c-1.62,0.61-3.23,1.1-4.78,0.17C-122.51,277.86-137.04,272.01-153.15,267.39z"/>
<path class="st2" d="M-450.05,349.43c-9.72-6.69-18.64-13.2-26.18-21.41c-2.33-2.54-4.18-5.54-7.54-7.07
	c-1.88-0.85-1.72-3.06-1.99-4.73c-1.58-9.53-1.43-19.13-1.07-28.9c0.53,0.03,1.12-0.12,1.39,0.11c10.2,8.38,21.87,14.35,33.51,20.34
	c2.07,1.06,3.54,1.89,3.03,4.72c-2.06,11.28-3.62,22.6-0.98,34.03C-449.75,347.16-449.95,347.85-450.05,349.43z"/>
<path class="st2" d="M-327.25,169.89c14.82-1.38,29.12-3.02,43.53-3.37c4.81-0.12,10.77-2.25,14.05-0.13
	c2.64,1.7,1.85,8.47,2.9,12.92c2.11,8.95,2.2,9.02-7.16,9.04c-12.8,0.02-25.52,1.15-38.2,2.73c-1.49,0.19-2.86,0.71-3.9-1.03
	C-319.9,183.55-323.93,177.14-327.25,169.89z"/>
<path class="st2" d="M-390.75,211.76c-5.08,3.15-9.96,5.73-13.88,9.57c-1.97,1.93-3.52,0.99-5.3,0.05
	c-13.17-6.93-26.59-13.31-41.48-18.65c7.73-4.95,15.5-8.18,23.34-11.28c0.81-0.32,1.62-0.08,2.32,0.48
	C-415.38,200.4-402.97,205.28-390.75,211.76z"/>
<path class="st2" d="M-200.01,311.78c-12.81,1.54-24.61,2.95-36.41,4.37c-1.58,0.19-2.78,0.14-3.38-1.84
	c-1.98-6.52-5.83-12.11-9.65-18.07c10.18-1.44,20.06-2.56,29.73-4.9c1.81-0.44,3.08-0.06,4.11,1.71
	C-211.66,299.81-206.28,305.45-200.01,311.78z"/>
<path class="st2" d="M-520.31,381.31c4.61,3.09,8.97,6.02,13.34,8.94c0.99,0.66,1.53,1.24,1.31,2.75
	c-2.96,19.8,0.48,39.11,4.44,58.81c-4.05-0.96-7.69-3.02-11.47-4.74c-1.19-0.54-1.07-1.34-1.19-2.36c-2.1-17.7-4.33-35.39-6.37-53.1
	C-520.63,388.36-520.31,385.03-520.31,381.31z"/>
<path class="st2" d="M-358.25,317.74c7.58-6.61,12.49-14.37,18.37-21.3c1.16-1.37,2.15-2.51,4.13-1.53c0.57,0.28,1.3,0.22,1.95,0.31
	c4.91,0.69,11.1-0.16,14.37,2.53c3.02,2.49,0.72,8.9,1.16,13.56c0.03,0.33,0.08,0.67,0.05,0.99c-0.27,2.85,3.21,6.27,0.75,8.06
	c-1.9,1.38-5.74,0.02-8.73,0C-336.62,320.29-347.01,319.6-358.25,317.74z"/>
<path class="st2" d="M-247.99,340.07c-1.09,5.65-2.33,11.25-2.49,17.01c-0.03,0.93-0.43,1.96-0.94,2.76
	c-7.29,11.47-12.2,24.18-18.79,36.02c-1.55,2.8-3.19,4.31-6.51,4.02c-2.97-0.26-5.99-0.31-8.95-0.06c-4.67,0.39-6.98-1.02-5.39-6
	c6.14,3.81,8.94,3.16,12.44-3.34c6.71-12.49,15.63-23.84,19.54-37.78c0.53-1.91,1.19-3.78,1.66-5.7
	C-255.72,340.07-255.74,340.07-247.99,340.07z"/>
<path class="st2" d="M-120.75,313.21c-14.39,22.08-23.03,45.75-33.04,69.12c-2.74-9.39-2.26-13.22,1.23-21.75
	c4.56-11.14,11.33-21.42,13.16-33.63c0.15-0.98,0.82-2.15,0.49-2.89c-2.87-6.41,2.12-6.73,5.98-7.76
	C-129.31,315.34-126.01,313.2-120.75,313.21z"/>
<path class="st2" d="M-138.43,464.94c9.25-5.34,18.13-10.42,26.79-15.9c2.23-1.41,4.61-2.8,6.37-4.71c2.85-3.09,4.52-6.39,10.28-5.9
	c4.74,0.41,4.83-5.92,5.94-9.66c0.7-2.35,1.15-4.76,2.28-7c8.79,9.75,8,15.98-3.08,22.91c-13.69,8.56-28.73,14.2-43.79,19.77
	C-135.1,464.98-136.83,464.79-138.43,464.94z"/>
<path class="st2" d="M-482.05,600.01c-4.01-1.77-6.54-3.63-9.48-2.82c2.9-20.34-5.6-38.95-8.07-58.75c4.91,3.17,9.58,6.21,14.3,9.19
	c0.88,0.56,1.11,1.06,0.59,1.97c-4.21,7.31-2.19,15.18-1.8,22.82C-486.05,581.31-485.31,590.22-482.05,600.01z"/>
<path class="st2" d="M-458.97,531.03c-3.16-1.48-6.25-2.95-9.36-4.39c-0.95-0.44-1.55-0.81-1.36-2.18
	c1.06-7.82-1.34-15.43-1.61-23.2c-0.18-5.44-0.27-10.92-0.71-16.36c-0.17-2.15,0.62-2.67,2.52-2.01c0.47,0.16,0.93,0.35,1.41,0.49
	c6.9,2.07,6.74,2.05,6.19,9.1c-0.91,11.6-1,23.18,2.58,34.47C-458.95,528.1-458.18,529.33-458.97,531.03z"/>
<path class="st2" d="M-137.23,379.26c9.51-15.5,19.89-29.36,25.36-46.78c2.36,8.61,2.29,8.58-0.47,15.17
	c-2.74,6.56-5.84,13.02-7.84,19.81C-122.65,375.87-129.26,377.41-137.23,379.26z"/>
<path class="st2" d="M-413.46,370.56c6.1-8.76,12.48-16.92,19.9-25.16c1,2.88-0.48,4.64-1.1,6.43c-1.4,4.05-3.1,8-4.58,12.03
	c-1.23,3.35-2.35,6.99,1.36,9.39c3.48,2.25,6.63,0.91,9.22-2.57c0.95,3.74,1.8,7.14,2.86,11.34
	C-395.66,378.93-404.55,375.06-413.46,370.56z"/>
<path class="st2" d="M-475.01,416.89c0.67-0.86,1.17-1.45,1.61-2.07c4.71-6.63,4.68-6.55,12.53-3.9c2,0.68,3.31,1.4,2.92,3.72
	c-0.03,0.16-0.02,0.34,0.01,0.5c1.51,8.6,1.14,16.66-3.34,24.76c-3.05,5.5-4.25,12.14-5.63,18.41c-0.93,4.26-2.73,4.9-6.25,3.19
	c-0.88-0.43-1.83-0.73-3.05-1.21c3.15-5.92,6.12-11.81,9.39-17.53c3.42-5.99,5.3-12.48,6.63-19.14c0.64-3.22,0.98-6.79-2.19-9.17
	c-2.74-2.06-5.58-1.74-8.26,0.31C-471.77,415.62-472.39,417.3-475.01,416.89z"/>
<path class="st2" d="M-337.78,426.58c1.36,5.43-0.09,9.17-2.78,12.88c-9.07,12.51-13.46,27.08-17.57,41.71
	c-0.44,1.56-1.02,1.77-2.28,1.71c-0.99-0.05-1.99-0.05-2.99-0.06c-5.11-0.08-7.44-3.57-5.51-8.34c0.22-0.54,0.83-1.34,1.24-1.33
	c4.91,0.12,6.15-3.95,8.05-7.09C-351.93,453.39-342.57,441.67-337.78,426.58z"/>
<path class="st2" d="M-424,365.23c-1.76-1.03-3.59-2.1-5.17-3.02c7.13-9.98,12.67-20.61,18.43-31.1c3.03-5.51,2.84-5.62,8.98-2.45
	C-411.67,339.19-417.27,352.28-424,365.23z"/>
<path class="st2" d="M-183.29,281.68c0.38-0.18,0.74-0.4,1.14-0.54c3.23-1.17,6.51-3.34,9.7-3.24c3.84,0.12,3.39,5.07,5.28,7.64
	c3.54,4.78,8,8.32,12.82,11.59c1.46,0.99,3.36,1.49,4.05,3.42c-2.73,1.81-4.93,1.18-7.47-0.69
	C-166.14,293.68-174.71,287.77-183.29,281.68z"/>
<path class="st2" d="M-346.86,483.75c4.25-7.21,8.14-13.83,12.54-21.3c1.55,7.14,3.65,13.26,5.96,19.31
	c0.73,1.91-1.02,1.99-2.39,1.99C-335.84,483.75-340.94,483.75-346.86,483.75z"/>
<path class="st2" d="M-238.26,474.68c-7.71,1.43-14.67,2.72-23,4.26c3.42-3.11,2.52-6.46,3.08-9.52c6.18,2.26,8.23,1.17,10.87-4.5
	c1.39-2.99,1.68-6.63,4.71-9.33C-241.83,462.2-249.23,469.98-238.26,474.68z"/>
<path class="st2" d="M-200.82,187.83c-0.35,3.09,0.51,7.14-2.44,8.12c-3.45,1.14-6.93,0.59-10.83-2.02
	c-5.57-3.73-4.19-6.92-2.15-11.18c1.94-4.03,3.96-8.02,4.09-12.66c0.03-1.02-0.07-2.72,1.69-2.38c1.69,0.33,0.98,1.92,0.76,2.87
	c-0.82,3.53-1.74,7.04-2.79,10.52c-1.07,3.58-2.47,7.43,1.64,9.75C-206.99,193.02-203.51,191.62-200.82,187.83z"/>
<path class="st2" d="M-294.57,320.12c-1.69,0.09-3.33,0.14-4.95,0.29c-1.77,0.16-2.79-0.23-2.79-2.35
	c0.01-6.65-2.25-12.89-3.79-19.34c5.01-0.64,7.55,0.75,7.95,6.34C-297.79,310.05-295.86,314.93-294.57,320.12z"/>
<path class="st2" d="M-189.48,522.16c1.45,7.17-0.57,14.12-0.49,21.18c0.01,1.14-0.72,1.28-1.57,1.44c-3.25,0.63-6.5,1.29-9.75,1.92
	c-1.2,0.23-2.25,0.39-2.31-1.46c-0.05-1.82,0.96-1.7,2.19-1.61c3.99,0.27,5.93-1.74,6.93-5.54
	C-193.07,532.71-191.17,527.46-189.48,522.16z"/>
<path class="st2" d="M-221.86,452.11c0.21,6.48-3.47,12.12-2.97,18.54c0.09,1.14-8.82,3.3-9.81,2.44c-0.23-0.2-1.04-0.36-0.42-1.04
	C-229.63,466.11-227.27,458.14-221.86,452.11z"/>
<path class="st2" d="M-257.99,444.52c-1.12-6.46-1.73-11.56-2.98-16.5c-0.68-2.69-0.21-3.67,2.45-3.77
	c2.31-0.09,4.61-0.26,7.62-0.43C-254.11,430.34-256.37,436.71-257.99,444.52z"/>
<path class="st2" d="M-102.69,411.48c0,4.41-0.16,8.83,0.06,13.23c0.13,2.67-0.73,3.45-3.33,3.12c-2.1-0.27-4.27-0.05-6.98-0.05
	c2.98-5.66,5.89-11.19,8.8-16.72C-103.66,411.2-103.18,411.34-102.69,411.48z"/>
<path class="st2" d="M-226.57,611.47c2.49,7.41,1.24,15.53,5.01,22.58c-7.28,1.07-7.56,1.04-6.85-5.91
	C-227.85,622.64-227.56,617.1-226.57,611.47z"/>
<path class="st2" d="M-387.96,309.54c3.9-6.06,8.99-11.13,14.25-17.09c0.88,3.56-1.35,5.21-2.2,7.26c-1,2.42-2.56,4.62-3.45,7.08
	C-381.04,311.4-383.69,312.47-387.96,309.54z"/>
<path class="st2" d="M-405.16,288.73c-2.85,3.15-5.77,6.24-8.51,9.48c-1.51,1.78-2.86,0.92-4.36,0.23c-1.78-0.82-3.59-1.6-6.08-2.7
	c6.55-2.77,12.53-5.3,18.5-7.82C-405.47,288.18-405.32,288.46-405.16,288.73z"/>
<path class="st2" d="M-481.53,525.6c-1.67-1.3-3.42-2.52-5.01-3.91c-7.01-6.13-6.93-6.86,1.42-11.9c1.57,5.16,3.12,10.23,4.66,15.29
	C-480.82,525.25-481.18,525.42-481.53,525.6z"/>
<path class="st2" d="M-153.68,323.28c-3.09,4.96-5.66,9.9-7.55,15.36c-0.88-3.73-1.59-7.5-2.72-11.15
	c-0.51-1.67-0.03-2.07,1.35-2.31C-159.7,324.68-157.03,323.08-153.68,323.28z"/>
<path class="st2" d="M-248.05,385.78c1.19,4.75,2.06,8.22,3.02,12.04c-3.62,0.33-7.12,0.66-11.4,1.05
	C-253.63,394.5-251.19,390.69-248.05,385.78z"/>
<path class="st2" d="M-281.51,299.05c0.36,7.52,4.2,13.61,8.01,19.72c-4.81,2.05-6.93,1.13-7.19-4.2
	c-0.25-5.08-1.61-10.12-2.48-15.17C-282.62,299.29-282.06,299.17-281.51,299.05z"/>
<path class="st2" d="M-430.6,318.16c6.59,1.22,6.58,1.21,4.32,6.59c-0.64,1.52-1.17,3.08-1.78,4.61c-0.53,1.33-1.11,2.65-2.2,5.21
	C-430.05,328.22-431.6,323.25-430.6,318.16z"/>
<path class="st2" d="M-483.45,440.16c-2.95-8.88-0.16-15.6,8.27-20.55C-478.5,426.44-482.03,432.21-483.45,440.16z"/>
<path class="st2" d="M-445.31,468.39c-2.09,0.44-3.52,0.06-4.95-0.39c-1.55-0.49-3.11-0.91-4.83-1.41c1.75-3.51,2.8-6.99,5.61-10.02
	C-448.01,460.73-446.67,464.54-445.31,468.39z"/>
<path class="st2" d="M-89.96,467.66c0.46,4.28-0.25,8.28,1.41,13.07c-2.18-1.59-4.51,1.98-5.55-2.1
	C-95.95,471.38-95.5,469.64-89.96,467.66z"/>
<path class="st2" d="M-471.77,553.93c5.57-0.05,6.94,2.63,5.32,7.1c-1.2,3.31,1.02,7.28-2.07,10.19
	C-469.58,565.55-470.64,559.92-471.77,553.93z"/>
<path class="st2" d="M-135.76,440.03c1.35-5.16,6.73-7.8,8.19-14.34C-125.81,435.73-125.81,435.73-135.76,440.03z"/>
<path class="st2" d="M-435.38,527.66c0.99,4.21,1.99,8.43,3.07,12.99c-3.28,0.25-5.72-2.2-10.42-2.11c5.39-2.9,6.46-6.57,5.71-11.07
	C-436.47,527.54-435.92,527.6-435.38,527.66z"/>
<path class="st2" d="M-193.62,569.59c-1.44,5.68-2.77,10.97-4.43,17.54c-1.27-5.95-0.57-10.55-1.12-15.13
	C-199.68,567.68-195.75,570.32-193.62,569.59z"/>
<path class="st2" d="M-95.71,512.32c-0.12-2.85-0.26-4.61,0.52-6.36c0.48-1.08,0.39-2.02,2.2-1.29c3.1,1.26,6.07,0.68,8.53-2.07
	C-87.21,506.8-91.79,508.59-95.71,512.32z"/>
<path class="st2" d="M-372.92,438.46c-0.48-2.43-0.89-4.88-1.46-7.29c-1.31-5.52-1.34-5.51,4.91-4.91
	c-0.9,4.12-1.79,8.21-2.69,12.29C-372.41,438.53-372.67,438.49-372.92,438.46z"/>
<path class="st2" d="M-107.92,242.97c-4.45-0.63-8.39-1.19-12.72-1.81C-111.4,236.5-111.4,236.5-107.92,242.97z"/>
<path class="st2" d="M-200.49,496.74c-1.48,5.03-2.57,8.76-3.67,12.49c-0.29,0.04-0.59,0.07-0.88,0.11
	c-0.56-3.29-1.83-6.66-1.49-9.86C-206.18,496.13-202.82,498.8-200.49,496.74z"/>
<path class="st2" d="M-384.69,178.26c4.74-0.76,8.22-2.28,12.71-1.51c-2.34,2.29-4.57,4.19-5.7,7.37
	C-379.9,182.27-381.88,180.61-384.69,178.26z"/>
<path class="st2" d="M-178.23,581.11c-2.43-4.92-1.02-9.49-1.5-13.85c-0.16-1.4,1.59-1.43,2.71-1.54c1.56-0.16,1.58,1.03,1.28,1.95
	C-177.12,571.77-176.03,576.3-178.23,581.11z"/>
<path class="st2" d="M-289.65,383.87c-1.92-7.03,0.71-12.57,5.71-17.29C-285.84,372.34-287.74,378.1-289.65,383.87z"/>
<path class="st2" d="M-347.79,591.42c-0.74-3.25-1.41-6.24-2.15-9.51c1.56-0.45,4.18-1.07,4.61,0.3
	C-344.33,585.37-345.39,588.58-347.79,591.42z"/>
<path class="st2" d="M-438.81,573.65c-0.6-4.03-1.19-8.06-1.79-12.09c0.48-0.07,0.97-0.15,1.45-0.22
	C-435.66,565.01-437.92,569.55-438.81,573.65z"/>
<path class="st2" d="M-458.73,216.41c-3.67,0.68-6.23,2.2-8.31-0.91c-0.95-1.42-0.11-2.5,0.77-2.78
	C-462.96,211.71-462.05,215.22-458.73,216.41z"/>
<path class="st2" d="M-211.65,467.84c1.58-2.99,2.94-5.56,4.4-8.3C-205.03,466.64-205.03,466.64-211.65,467.84z"/>
<path class="st2" d="M-89.45,534.59c2.4,5.84-3.31,4.88-4.84,7.45C-97.3,536.26-91.37,537.09-89.45,534.59z"/>
<path class="st2" d="M-202.17,616.07c1.06,4.42,0.45,8.82,0.46,13.2c0,1.1-0.27,2.09-1.59,1.99c-1.92-0.14-1.31-1.65-1.03-2.6
	C-203.1,624.56-202.39,620.37-202.17,616.07z"/>
<path class="st2" d="M-333.77,511.36c-0.16-1.89-0.26-3.79-0.48-5.68c-0.22-1.81,0.6-2.3,2.27-2.17c2.25,0.18,1.07,1.46,0.83,2.39
	c-0.48,1.87-1.03,3.73-1.55,5.59C-333.06,511.45-333.42,511.4-333.77,511.36z"/>
<path class="st2" d="M-380.63,203.56c2.01-0.12,3.12-0.37,4.17-0.22c1.8,0.26,4-1.05,5.33,1.11c0.37,0.6-0.19,1.43-0.88,1.45
	c-2.22,0.07-4.71,2.44-6.6-0.72C-378.84,204.79-379.35,204.56-380.63,203.56z"/>
<path class="st2" d="M-312.47,637.24c1.52-2.36,2.74-4.26,4.05-6.29C-305.6,637.43-305.6,637.43-312.47,637.24z"/>
<path class="st2" d="M-234.44,429.69c1.58-2.25-3.2-8.18,4.17-7.59C-230.61,425.24-232.96,427.21-234.44,429.69z"/>
<path class="st2" d="M-244.56,165.7c-1.75,2.34-3.11,4.16-4.52,6.05C-250.71,165.45-250.71,165.45-244.56,165.7z"/>
<path class="st2" d="M-182.41,303.7c3.06,0.52,5.25,1.53,7.31,3C-178.34,308.31-180.79,307.82-182.41,303.7z"/>
<path class="st2" d="M-73.57,464.13c0.9-2.22-3.27-5.39,1.53-7.1C-71.61,459.73-71.85,462.07-73.57,464.13z"/>
<path class="st2" d="M-436.21,611.79c0.87,0.38,1.07,0.41,1.16,0.52c1.76,2.06,0.88,4.57,1.08,6.89c0,0.06-1.04,0.42-1.24,0.24
	C-437.66,617.24-435.27,614.59-436.21,611.79z"/>
<path class="st0" d="M406.28,217.76c-38.41-0.54-72.91-6.43-106.85-15.83c-9.64-2.67-18.82-6.54-26.43-13.28
	c-4.55-4.03-8.1-8.77-7.8-15.27c0.34-7.54,7.89-12.12,13.56-7.39c13,10.83,28.92,12.6,44.33,15.35c32.49,5.8,65.22,10.2,98.3,10.25
	c24.02,0.03,47.6-3.95,70.77-10.26c9.79-2.67,19.59-5.34,29.31-8.27c5.02-1.52,9.78-1.77,12.36,3.39c2.65,5.29-0.04,9.31-4.51,12.72
	c-16.85,12.86-36.31,18.98-56.82,22.52C449.56,215.63,426.45,217.5,406.28,217.76z"/>
</svg>
