<?xml version="1.0" encoding="utf-8"?>
<!-- Generator: Adobe Illustrator 24.1.1, SVG Export Plug-In . SVG Version: 6.00 Build 0)  -->
<svg version="1.1" id="Layer_1" xmlns="http://www.w3.org/2000/svg" xmlns:xlink="http://www.w3.org/1999/xlink" x="0px" y="0px"
	 viewBox="0 0 800 800" style="enable-background:new 0 0 800 800;" xml:space="preserve">
<style type="text/css">
	.st0{fill:#030303;}
	.st1{display:none;fill:#FCFCFC;}
	.st2{display:none;fill:#FEFEFE;}
</style>
<path class="st0" d="M528.06,774.59c-1.5,0-3,0-4.5,0c-1.26-1.23-2.82-0.58-4.18-0.5c-6.11,0.34-12.26-0.75-18.33,0.5c-2,0-4,0-6,0
	c-0.45-1.37-1.67-0.86-2.54-0.93c-8.97-0.69-17.94-1.34-26.92-1.94c-19.48-1.32-38.99-1.07-58.49-0.72
	c-14.01,0.25-28,0.3-41.99-0.46c-22.72-1.23-45.45-2.29-68.16-3.57c-11.22-0.63-22.44-1.44-33.64-2.41
	c-18.29-1.57-36.55-3.4-54.83-5.01c-13.18-1.16-25.82-3.82-37.6-10.31c-8.43-4.65-14.44-12.19-22.38-17.36
	c-1.76-1.15-2.67-3.28-3.45-5.28c-1.57-4.04-1.97-8.32-1.69-12.56c1.65-25.26,0.22-50.54,0.6-75.8c0.49-32.66-0.66-65.29-1.61-97.93
	c-0.02-0.77,0.44-1.81-0.74-2.24c0-20.02,0-40.04,0-60.07c1.39-0.47,0.81-1.68,0.84-2.54c1.51-40.76,2.72-81.53,3.31-122.31
	c0.31-21.51,0.68-43.02,1.6-64.52c0.86-19.99,2.23-39.94,3.89-59.87c1.46-17.44,2.73-34.89,4.1-52.33
	c1.92-24.43,3.79-48.86,5.83-73.28c1.39-16.55,2.33-33.15,5.18-49.55c3.18-18.33,21.88-28.91,38.66-21.77
	c0.68,0.29,1.15,0.25,1.7-0.09c5.27-3.2,11.23-3.13,17.05-3.39c16.99-0.77,33.97-0.12,50.97,0.44c26.89,0.87,53.68,2.93,80.47,5.19
	c22.06,1.86,43.9,5.55,65.9,7.76c31.84,3.19,63.64,6.53,95.35,10.83c18.58,2.52,37.3,3.73,56.12,2.27
	c13.08-1.01,26.17-2.61,39.32-1.7c10.95,0.76,22,1.47,31.42,8.26c0.46,0.33,1.17,0.49,1.75,0.48c2.75-0.07,4.18,1.59,4.8,3.91
	c1.03,3.83,2.13,7.69,2.63,11.61c1.33,10.29,2.08,20.62,2.57,31c2.16,45.65,1.77,91.3,0.14,136.95c-1.07,30-2.4,59.99-3.07,90
	c-0.61,27.42-2.5,54.72-5.26,81.98c-2.12,20.9-4.29,41.8-5.39,62.77c-1.16,22.11-1.22,44.26-1.52,66.4
	c-0.47,34.42-2.87,68.74-5.8,103.01c-2,23.42-3.57,46.88-6.99,70.18c-1.89,12.85-6.54,24.02-16.45,32.72
	c-1.58,1.39-3.01,3.03-4.17,4.78c-3.21,4.86-7.58,8.24-12.79,10.65c-5.77,2.67-11.92,3.61-18.2,3.9
	c-14.86,0.67-29.72,1.29-44.58,2.01C530.02,773.77,528.67,773.12,528.06,774.59z M639.11,177.99c0-21.27,0-42.54,0-63.81
	c0-10.63,0.04-21.27,0.02-31.9c0-1.24,0.59-2.7-1.46-3.27c-3.71-1.03-7.3-2.48-11.02-3.49c-11.03-2.99-22.29-2.91-33.53-1.84
	c-25.99,2.48-51.93,2.53-77.84-0.94c-15.48-2.07-30.93-4.44-46.45-6.14c-22.49-2.46-45.1-3.76-67.51-7
	c-47.82-6.92-96.02-9.43-144.16-12.62c-14.09-0.93-28.17-1.94-42.24-3.16c-3.63-0.31-7.72-0.32-10.32-3.52
	c-1.29-1.59-2.27-1.6-4.04-1.12c-5.57,1.53-9.94,5.07-14.63,8.11c-4.01,2.6-6.44,5.67-4.73,10.79c0.42,1.24,0.13,2.73,0.12,4.11
	c-0.25,23.14-1.64,46.23-2.72,69.33c-1.33,28.36-3.7,56.65-5.64,84.96c-1.39,20.33-3.06,40.64-4.1,60.98
	c-1.16,22.61-1.53,45.25-1.74,67.9c-0.44,45.79-1.9,91.57-3.3,137.34c-1.02,33.54,0.52,67.04,2.4,100.52
	c1.54,27.37,1.04,54.79,2.08,82.17c0.77,20.18-0.01,40.26-1.33,60.35c-0.11,1.7,0.34,2.39,1.7,3.17
	c11.46,6.55,23.67,10.43,36.9,11.25c10.72,0.66,21.42,1.64,32.11,2.6c14.3,1.28,28.58,2.89,42.9,3.96
	c14.7,1.1,29.46,1.44,44.16,2.58c33.29,2.57,66.56,4.86,100.01,3.51c22.89-0.92,45.71,1.3,68.54,2.66
	c25.9,1.54,51.72-1.37,77.59-1.81c9.31-0.16,17.23-2.98,24.43-8.85c3.61-2.94,6.42-5.7,5.67-10.77c-0.21-1.43,0.22-2.99,0.54-4.45
	c2.42-11.02,3.33-22.21,4.17-33.44c2.67-35.55,6.1-71.04,8.91-106.59c2.62-33.05,3.55-66.19,5.64-99.27
	c1.11-17.47,2.43-34.91,4.15-52.33c2.38-24.15,5.3-48.25,6.54-72.49c1.5-29.48,2.51-58.98,3.94-88.47
	C636.47,244.02,638.05,211.03,639.11,177.99z"/>
<path class="st1" d="M-206.68,884.5c0.82-1.96,2.61-1.08,3.9-1.15c19.77-0.95,39.54-1.77,59.31-2.67
	c8.35-0.38,16.53-1.64,24.21-5.19c6.93-3.2,12.74-7.7,17.02-14.16c1.54-2.33,3.45-4.52,5.55-6.36
	c13.19-11.57,19.37-26.43,21.88-43.52c4.55-30.98,6.64-62.2,9.3-93.35c3.9-45.59,7.09-91.25,7.71-137.03
	c0.4-29.45,0.48-58.92,2.02-88.33c1.47-27.9,4.35-55.71,7.17-83.5c3.68-36.27,6.19-72.59,7-109.06
	c0.89-39.92,2.67-79.82,4.09-119.72c2.16-60.73,2.69-121.45-0.19-182.18c-0.65-13.8-1.66-27.55-3.43-41.24
	c-0.67-5.21-2.13-10.35-3.5-15.44c-0.83-3.08-2.73-5.29-6.39-5.2c-0.78,0.02-1.71-0.19-2.33-0.63c-12.53-9.02-27.24-9.98-41.8-10.98
	c-17.49-1.21-34.91,0.92-52.3,2.26c-25.04,1.94-49.94,0.34-74.66-3.02c-42.19-5.73-84.5-10.17-126.85-14.41
	c-29.27-2.94-58.33-7.85-87.67-10.32c-35.64-3-71.27-5.74-107.04-6.9c-22.61-0.73-45.2-1.6-67.8-0.58
	c-7.74,0.35-15.67,0.26-22.68,4.52c-0.73,0.45-1.35,0.51-2.26,0.12c-22.33-9.49-47.19,4.58-51.43,28.96
	c-3.79,21.82-5.05,43.9-6.89,65.91c-2.72,32.48-5.2,64.98-7.75,97.48c-1.83,23.2-3.52,46.42-5.46,69.61
	c-2.22,26.52-4.03,53.05-5.18,79.64c-1.23,28.6-1.72,57.21-2.13,85.83c-0.78,54.25-2.39,108.49-4.4,162.71
	c-0.04,1.15,0.73,2.76-1.12,3.38c0-198.89,0.01-397.77-0.08-596.66c0-3.52,0.44-4.73,4.45-4.73c226.06,0.12,452.11,0.12,678.17,0.02
	c3.57,0,4.35,0.69,4.35,4.33c-0.11,329.04-0.11,658.07,0,987.11c0,3.83-0.97,4.55-4.63,4.55
	C-94.57,884.46-150.62,884.5-206.68,884.5z"/>
<path class="st1" d="M-720.77,569.88c1.57,0.58,0.96,1.96,0.99,2.98c1.27,43.41,2.8,86.83,2.14,130.27
	c-0.51,33.61,1.39,67.23-0.8,100.84c-0.37,5.63,0.16,11.32,2.25,16.7c1.03,2.66,2.24,5.5,4.59,7.02
	c10.56,6.87,18.56,16.91,29.77,23.09c15.67,8.64,32.5,12.18,50.02,13.72c24.32,2.13,48.62,4.56,72.94,6.66
	c14.9,1.28,29.82,2.37,44.75,3.2c30.22,1.7,60.45,3.11,90.67,4.75c18.62,1.01,37.23,0.94,55.86,0.61
	c25.94-0.46,51.89-0.8,77.81,0.96c11.94,0.81,23.88,1.67,35.81,2.59c1.15,0.09,2.78-0.58,3.38,1.23
	c-155.29,0-310.59-0.01-465.88,0.09c-3.46,0-4.4-0.54-4.4-4.28C-720.75,776.83-720.77,673.35-720.77,569.88z"/>
<path class="st1" d="M-242.62,884.5c8.09-1.67,16.26-0.21,24.39-0.67c1.81-0.1,3.89-0.97,5.56,0.67
	C-222.65,884.5-232.63,884.5-242.62,884.5z"/>
<path class="st2" d="M-58.96,90.87c-1.4,43.95-3.51,87.83-5.64,131.72c-1.9,39.22-3.25,78.47-5.24,117.68
	c-1.64,32.24-5.54,64.31-8.7,96.43c-2.28,23.17-4.05,46.37-5.52,69.61c-2.78,44-4.03,88.08-7.51,132.05
	c-3.74,47.28-8.31,94.49-11.85,141.79c-1.12,14.95-2.33,29.83-5.55,44.49c-0.43,1.94-0.99,4.02-0.72,5.92
	c0.99,6.75-2.75,10.42-7.55,14.33c-9.58,7.8-20.11,11.56-32.5,11.77c-34.41,0.59-68.76,4.45-103.21,2.41
	c-30.38-1.8-60.74-4.76-91.18-3.53c-44.49,1.79-88.75-1.25-133.04-4.67c-19.55-1.51-39.18-1.97-58.74-3.43
	c-19.05-1.42-38.04-3.57-57.06-5.27c-14.23-1.27-28.46-2.58-42.72-3.46c-17.6-1.09-33.85-6.25-49.09-14.96
	c-1.82-1.04-2.42-1.96-2.27-4.22c1.76-26.73,2.8-53.44,1.78-80.28c-1.38-36.41-0.72-72.9-2.76-109.31
	c-2.5-44.54-4.55-89.09-3.2-133.72c1.85-60.89,3.8-121.78,4.38-182.7c0.29-30.12,0.78-60.25,2.32-90.32
	c1.38-27.06,3.6-54.08,5.45-81.12c2.58-37.67,5.74-75.3,7.51-113.02c1.44-30.74,3.29-61.45,3.62-92.23c0.02-1.83,0.4-3.81-0.16-5.47
	c-2.27-6.81,0.95-10.9,6.29-14.35c6.25-4.04,12.06-8.76,19.46-10.79c2.36-0.65,3.66-0.63,5.38,1.49c3.46,4.25,8.9,4.26,13.72,4.68
	c18.71,1.62,37.45,2.97,56.19,4.2c64.05,4.24,128.17,7.58,191.78,16.78c29.81,4.31,59.89,6.04,89.81,9.31
	c20.65,2.26,41.19,5.41,61.79,8.17c34.47,4.61,68.98,4.54,103.55,1.25c14.94-1.42,29.92-1.54,44.6,2.44
	c4.94,1.34,9.72,3.27,14.66,4.64c2.72,0.76,1.94,2.71,1.94,4.35c0.03,14.15-0.03,28.29-0.03,42.44
	C-58.96,34.28-58.96,62.58-58.96,90.87z M-378.76,266.03c-4.12-4.9-7.89-9.78-12.06-14.29c-9.53-10.3-19.94-19.61-32.54-26.07
	c-29.22-14.96-55.41-6.35-80.34,10.75c-6.1,4.18-10.76,9.89-14.4,16.35c-9.27,16.44-10.03,33.95-5.48,51.74
	c9.9,38.65,28.18,73.31,51.2,105.64c13.52,19,29.57,35.95,43.77,54.4c10.04,13.04,19.56,26.44,28.73,40.1
	c7.06,10.52,16.1,11.5,25.72,3.26c1.39-1.19,2.71-2.46,3.97-3.79c18.89-19.91,37.06-40.45,54.31-61.82
	c21.92-27.16,41.81-55.94,65.23-81.89c29.23-32.39,29.45-73.98,7.96-108.71c-7.35-11.88-17.93-19.19-31.95-21.67
	c-9.62-1.7-19.17-1.55-28.81-0.91C-333.46,231.14-360.16,239.94-378.76,266.03z M-152,767.87c-4.9-1.29-9.5-1.18-14.07,0.19
	c-4.92,1.48-9.87,2.89-14.78,4.41c-2.6,0.8-4.22,0.6-4.71-2.67c-0.85-5.72-2.12-11.39-3.12-17.09c-0.55-3.15-1.73-5.8-5.09-6.67
	c-3.53-0.91-6.21,0.68-8.19,3.43c-2.16,3.01-3.46,6.39-3.73,10.15c-0.6,8.5-0.28,16.95,1.04,25.36c2.03,12.9,5.14,25.43,13.49,35.96
	c11.11,14.03,29.75,15.06,42.36,2.5c5.33-5.31,8.54-11.8,10.97-18.76c5.73-16.45,5.44-33.69,6.28-50.75
	c0.26-5.35-4.25-10.76-8.21-11.19c-4.01-0.44-8.42,3.32-10.18,8.73c-0.36,1.1-0.64,2.24-0.77,3.38
	C-151.16,758.98-151.53,763.11-152,767.87z M-551.75,22.49c0.83-14.54-3.53-27.62-12.27-39.03c-14.08-18.38-37.37-17.31-50.04,1.94
	c-2.02,3.06-3.67,6.3-5.05,9.69c-4.47,10.99-6.95,22.5-8.87,34.14c-1.27,7.67-3.1,15.3-2.11,23.19c0.58,4.64,2.9,7.9,7.62,8.55
	c4.82,0.66,7.87-2.23,9.46-6.43c1.76-4.64,3.25-9.4,4.52-14.2c0.62-2.35,1.48-3.44,3.99-2.85c8.7,2.05,17.12-0.01,25.57-1.75
	c9.51-1.96,9.51-1.89,12.98,7.89c1.11,3.12,3.07,5.15,6.66,4.76c3.29-0.36,4.76-2.38,5.28-5.59
	C-552.93,36.07-552.04,29.34-551.75,22.49z M-203.03,735.95c5.38-0.15,10.64-2.36,15.31-6.12c5.74-4.63,10.52-10.19,14.92-16.03
	c2.4-3.19,3.67-3.06,6.18-0.15c4.88,5.65,9.9,11.3,16.96,14.43c7.97,3.54,16.86,1.63,22.27-4.7c5.43-6.35,5.86-15.38,1.07-22.74
	c-2.31-3.54-5.43-6.28-8.81-8.73c-4.04-2.92-8.13-5.77-12.19-8.67c-4.02-2.87-8.15-5.41-10.84-9.99c-2.23-3.79-6.51-4.9-10.94-4.67
	c-4.14,0.22-7.76,1.95-11.04,4.23c-11.04,7.71-21.85,15.74-32.09,24.49c-4.77,4.07-8.33,9.03-9.83,15.26
	C-225.02,724.82-216.26,736-203.03,735.95z M-583.24,146.25c7.23,0.08,13.08-0.88,17.17-5.03c13.42-13.63,23.5-29.7,30.3-47.47
	c3.28-8.57-4.71-16.59-13.98-15.55c-5.5,0.62-10,3.42-14.21,6.73c-6.02,4.73-11.65,9.94-16.69,15.68c-2.58,2.94-4.22,2.99-7.03,0.33
	c-5.54-5.25-11.18-10.48-17.29-15.03c-7.06-5.26-16-4.54-22.06,0.92c-6.01,5.42-7.41,14.19-3.26,21.92
	c1.24,2.32,2.75,4.63,4.62,6.45c8.1,7.88,16.12,15.86,24.68,23.22C-595.66,143.01-589.72,147.32-583.24,146.25z"/>
<path class="st0" d="M398.7,309.67c13.98-19.62,34.05-26.23,56.62-27.74c7.25-0.49,14.42-0.6,21.66,0.68
	c10.54,1.86,18.5,7.36,24.02,16.29c16.15,26.11,15.99,57.37-5.98,81.72c-17.61,19.51-32.56,41.15-49.04,61.56
	c-12.97,16.06-26.63,31.5-40.83,46.47c-0.95,1-1.94,1.96-2.98,2.85c-7.23,6.2-14.03,5.46-19.33-2.45
	c-6.89-10.27-14.05-20.35-21.6-30.15c-10.68-13.87-22.74-26.61-32.9-40.89c-17.31-24.31-31.05-50.36-38.49-79.41
	c-3.42-13.37-2.85-26.53,4.12-38.89c2.74-4.86,6.24-9.15,10.83-12.29c18.74-12.85,38.43-19.32,60.39-8.08
	c9.47,4.85,17.29,11.85,24.46,19.59C392.77,302.32,395.6,305.98,398.7,309.67z M334.84,369.61c-3.66,0.09-6.84,3.39-11.09,1.76
	c2.6,4.84,5.19,9.68,7.82,14.58c2.71-1.98,3.87-3.63,2.25-6.74c-1.63-3.15-0.63-6.56,1.03-9.65c-0.07-0.14-0.14-0.29-0.2-0.43
	C334.72,369.29,334.78,369.45,334.84,369.61z M347.07,315.77c3.42-3.41,5.82-7.69,9.8-10.93c-7.43-4.39-14.89-4.71-22.61-2.34
	c-0.59,0.18-1.21,0.39-1.39,1.1c-0.79,3.2-1.56,6.41-2.34,9.61c2.78-2.58,4.74-5.45,6.9-8.15c1.54-1.92,3.54-3.28,6.19-2.34
	c2.66,0.94,3.93,3.01,3.88,5.77c-0.04,2.47-0.32,4.94-0.49,7.39l0.19,0L347.07,315.77z M443.38,303.94
	c-0.91,0.26-1.35,0.37-1.8,0.51c-14.41,4.6-26.32,13.47-38.18,22.4c-1.11,0.83-1.29,2-1.38,3.3c-0.45,6.87-1.69,13.64-3.51,20.25
	c-2.88,10.49-6.11,20.88-9.3,31.66c2.94-0.65,2.92-3.03,3.6-4.67c7.04-17.06,14.73-33.81,23.75-49.93
	c2.01-3.59,4.09-7.16,7.01-10.12c1.04-1.06,2.25-2.21,3.91-1.65c1.87,0.63,1.58,2.38,1.5,3.83c-0.13,2.45-0.44,4.9-0.67,7.35
	c0.2,0.04,0.4,0.08,0.61,0.12C433.66,319.47,438.38,311.92,443.38,303.94z M422.42,438.87c1.58,0.36,2.04-0.67,2.66-1.41
	c10.86-12.9,21.69-25.82,32.61-38.67c1.05-1.23,1.08-2.19,0.69-3.65c-1.35-4.99-3.59-9.79-3.2-16.27
	C443.35,399.19,432.83,418.91,422.42,438.87z M310.39,332.71c5.05-10.04,11.01-18.54,17.15-27.34
	C312.43,309.39,307.79,320.62,310.39,332.71z M326.25,335.86c-3.31,3.36-4.85,8.02-7.82,11.49c-3.42,4-2.2,7.28-0.38,10.99
	c0.07,0.14,0.26,0.22,0.35,0.29C321.02,351.03,323.63,343.44,326.25,335.86z M463.59,300.95c-2.99-0.26-5.05-0.08-7.12,0.41
	c-1.83,0.44-1.89,2.04-1.72,3.19c0.2,1.41,1.6,0.51,2.43,0.46C459.75,304.84,461.01,302.61,463.59,300.95z"/>
<path class="st0" d="M569.17,686.92c0.35-3.58,0.63-6.69,0.97-9.79c0.09-0.86,0.31-1.72,0.58-2.54c1.33-4.07,4.64-6.89,7.65-6.56
	c2.98,0.33,6.37,4.4,6.17,8.42c-0.63,12.82-0.41,25.78-4.72,38.15c-1.82,5.23-4.24,10.11-8.24,14.1
	c-9.47,9.45-23.49,8.67-31.84-1.88c-6.27-7.92-8.61-17.33-10.14-27.04c-0.99-6.32-1.24-12.68-0.78-19.06
	c0.2-2.83,1.18-5.37,2.8-7.63c1.49-2.07,3.51-3.26,6.16-2.58c2.53,0.65,3.41,2.64,3.83,5.01c0.75,4.29,1.7,8.54,2.35,12.85
	c0.37,2.45,1.59,2.61,3.54,2c3.69-1.14,7.41-2.2,11.11-3.32C562.02,686.03,565.48,685.95,569.17,686.92z M564.96,707.76
	c-3.58,0.27-6.79,0.46-10,0.76c-1.67,0.16-4.14-0.88-4.81,0.48c-0.73,1.48,1.1,3.32,1.91,4.96c0.22,0.44,0.55,0.83,0.85,1.22
	c2.6,3.28,5.35,3.37,8,0.18C562.66,713.25,563.98,710.89,564.96,707.76z"/>
<path class="st0" d="M268.66,126.59c-0.21,5.15-0.88,10.21-1.7,15.26c-0.39,2.41-1.49,3.93-3.97,4.2c-2.69,0.29-4.17-1.23-5-3.58
	c-2.61-7.35-2.61-7.4-9.76-5.93c-6.36,1.31-12.69,2.85-19.23,1.31c-1.89-0.44-2.53,0.38-3,2.14c-0.95,3.61-2.08,7.19-3.4,10.67
	c-1.2,3.16-3.49,5.33-7.11,4.84c-3.55-0.48-5.29-2.94-5.73-6.42c-0.74-5.93,0.63-11.66,1.58-17.43c1.45-8.75,3.31-17.4,6.67-25.66
	c1.04-2.55,2.28-4.99,3.8-7.29c9.53-14.47,27.04-15.27,37.62-1.46C266,105.83,269.28,115.66,268.66,126.59z M250.7,124.48
	c-0.47-1.77-0.79-3.1-1.17-4.42c-1.25-4.31-2.29-8.72-5.09-12.37c-3.06-3.98-5.77-3.8-8.38,0.45c-1.71,2.78-2.81,5.82-3.79,8.91
	c-1.63,5.17-1.66,5.14,3.67,5.17C240.79,122.26,245.43,123.88,250.7,124.48z"/>
<path class="st0" d="M530.8,662.92c-9.95,0.03-16.53-8.37-14.3-17.58c1.13-4.69,3.81-8.41,7.39-11.47
	c7.7-6.58,15.83-12.61,24.13-18.41c2.46-1.72,5.19-3.02,8.3-3.18c3.33-0.17,6.55,0.66,8.22,3.51c2.02,3.44,5.13,5.35,8.15,7.51
	c3.05,2.18,6.12,4.32,9.16,6.52c2.54,1.84,4.89,3.9,6.62,6.56c3.6,5.53,3.28,12.32-0.8,17.09c-4.07,4.76-10.75,6.19-16.74,3.54
	c-5.31-2.35-9.08-6.6-12.75-10.85c-1.89-2.19-2.84-2.28-4.65,0.11c-3.31,4.39-6.9,8.57-11.22,12.05
	C538.8,661.15,534.84,662.81,530.8,662.92z"/>
<path class="st0" d="M244.98,219.62c-4.87,0.8-9.33-2.43-13.35-5.89c-6.43-5.53-12.46-11.53-18.55-17.45
	c-1.41-1.37-2.54-3.11-3.47-4.85c-3.11-5.81-2.07-12.4,2.45-16.48c4.56-4.11,11.27-4.65,16.58-0.7c4.59,3.42,8.83,7.35,12.99,11.3
	c2.12,2,3.34,1.96,5.29-0.24c3.79-4.31,8.02-8.23,12.55-11.79c3.16-2.49,6.55-4.6,10.68-5.06c6.97-0.78,12.98,5.25,10.51,11.69
	c-5.11,13.36-12.69,25.43-22.78,35.68C254.82,218.96,250.42,219.69,244.98,219.62z"/>
<path class="st1" d="M-319.32,258.41c-6.65,10.63-12.93,20.66-19.21,30.69c-0.27-0.05-0.54-0.11-0.81-0.16
	c0.31-3.26,0.72-6.51,0.89-9.77c0.1-1.93,0.49-4.27-2-5.1c-2.22-0.74-3.82,0.79-5.21,2.2c-3.88,3.94-6.65,8.68-9.33,13.46
	c-12.01,21.43-22.23,43.72-31.6,66.41c-0.9,2.18-0.88,5.35-4.79,6.21c4.23-14.33,8.53-28.16,12.37-42.11
	c2.42-8.8,4.06-17.8,4.67-26.94c0.11-1.73,0.36-3.29,1.83-4.4c15.79-11.89,31.63-23.69,50.79-29.8
	C-321.12,258.9-320.53,258.75-319.32,258.41z"/>
<path class="st1" d="M-347.21,437.91c13.85-26.55,27.85-52.79,43.57-79.81c-0.52,8.62,2.45,15.01,4.25,21.64
	c0.53,1.95,0.48,3.22-0.91,4.86c-14.52,17.09-28.93,34.28-43.38,51.44C-344.49,437.01-345.11,438.38-347.21,437.91z"/>
<path class="st1" d="M-496.24,296.69c-3.46-16.08,2.72-31.02,22.81-36.37C-481.58,272.03-489.52,283.33-496.24,296.69z"/>
<path class="st1" d="M-447.51,274.35c0.23-3.29,0.59-6.57,0.65-9.87c0.07-3.67-1.63-6.42-5.16-7.67c-3.53-1.25-6.19,0.55-8.24,3.11
	c-2.88,3.59-5.48,7.4-9.18,10.84c1.04-4.26,2.07-8.53,3.12-12.79c0.23-0.94,1.05-1.22,1.84-1.47c10.28-3.15,20.19-2.73,30.08,3.11
	c-5.29,4.31-8.49,10-13.04,14.54L-447.51,274.35z"/>
<path class="st1" d="M-463.67,345.72c-2.21,4.1-3.55,8.63-1.38,12.82c2.14,4.13,0.61,6.33-3,8.97c-3.5-6.52-6.95-12.96-10.4-19.4
	c5.65,2.17,9.88-2.23,14.75-2.34L-463.67,345.72z"/>
<path class="st1" d="M-475.14,300.87c-3.48,10.09-6.95,20.18-10.44,30.3c-0.12-0.1-0.38-0.2-0.47-0.39
	c-2.42-4.94-4.04-9.3,0.51-14.62C-481.6,311.54-479.55,305.34-475.14,300.87z"/>
<path class="st1" d="M-292.43,254.43c-3.43,2.22-5.11,5.18-8.52,5.39c-1.11,0.07-2.97,1.26-3.24-0.61
	c-0.22-1.53-0.14-3.66,2.29-4.24C-299.15,254.32-296.41,254.09-292.43,254.43z"/>
<path class="st1" d="M-447.43,274.16l0.18,0.16c0,0-0.25,0-0.25,0.02C-447.51,274.35-447.43,274.16-447.43,274.16z"/>
<path class="st1" d="M-463.7,345.77c-0.08-0.21-0.16-0.43-0.24-0.64c0.09,0.19,0.18,0.39,0.27,0.58
	C-463.67,345.72-463.7,345.77-463.7,345.77z"/>
<path class="st1" d="M-157.59,795.6c-1.3,4.16-3.06,7.3-5.38,10.1c-3.53,4.24-7.18,4.14-10.64-0.23c-0.41-0.52-0.85-1.04-1.14-1.62
	c-1.08-2.18-3.5-4.63-2.54-6.6c0.89-1.81,4.18-0.43,6.4-0.64C-166.62,796.21-162.35,795.96-157.59,795.6z"/>
<path class="st1" d="M-575.64,19.68c-7.01-0.8-13.18-2.96-19.64-2.99c-7.09-0.04-7.05,0.01-4.88-6.88c1.3-4.12,2.77-8.16,5.04-11.86
	c3.48-5.66,7.08-5.9,11.15-0.6c3.72,4.85,5.11,10.72,6.77,16.45C-576.69,15.55-576.26,17.33-575.64,19.68z"/>
</svg>
