<?xml version="1.0" encoding="utf-8"?>
<!-- Generator: Adobe Illustrator 24.1.1, SVG Export Plug-In . SVG Version: 6.00 Build 0)  -->
<svg version="1.1" id="Layer_1" xmlns="http://www.w3.org/2000/svg" xmlns:xlink="http://www.w3.org/1999/xlink" x="0px" y="0px"
	 viewBox="0 0 800 800" style="enable-background:new 0 0 800 800;" xml:space="preserve">
<style type="text/css">
	.st0{fill:#070505;}
	.st1{display:none;fill:#FDFDFD;}
	.st2{display:none;fill:#0A0808;}
	.st3{fill:#0A0808;}
</style>
<path class="st0" d="M338.91,779.16c-1.44,0-2.88,0-4.32,0c-0.86-1.94-2.83-1.33-4.24-1.59c-9.91-1.82-19.61-4.42-29.14-7.64
	c-3.73-1.26-6.91-1.79-10.53,0.76c-3.13,2.21-7.17,2.21-10.99,1.57c-5.14-0.86-10.28-1.72-15.39-2.74
	c-60.69-12.11-112.68-39.31-152.22-88.02c-2.04-2.52-4.2-4.84-7.27-6.24c-10.44-4.73-17.74-12.48-22.45-22.97
	c-2.94-6.56-6.21-12.97-8.35-19.86c-12.39-39.86-22.75-80.04-27.63-121.75c-6.14-52.44-4.86-104.06,7.54-155.52
	c5.73-23.77,15.32-45.92,24.53-68.34c17.65-42.96,41.03-82.58,71.93-117.15c38.43-43,85.1-75,138.16-97.65
	c5.08-2.17,10.33-3.82,15-7.15c35.94-25.62,75.87-39.37,120.17-40.59c23.24-0.64,45.84,3.93,68.69,6.66
	c53.13,6.34,98.94,28.93,140.02,62.26c4.1,3.32,7.97,7.06,8.59,12.63c0.35,3.16,2.04,4.61,4.48,6.05
	c29.32,17.32,51.74,41.14,66.25,72c18.41,39.18,31.91,79.86,33.91,123.52c1.72,37.61,2.86,75.26-5.67,112.38
	c-3.74,16.28-6.76,32.95-15.23,47.56c-5.8,10.01-9.61,20.28-12.89,31.41c-18.26,62.11-49.5,117.05-95.25,163.11
	c-35.64,35.88-75.55,65.69-122.6,85.75c-35.86,15.28-72.38,26.77-111.34,30c-4.84,0.4-9.92-0.99-14.54,1.54c-2.88,0-5.77,0-8.65,0
	C352.61,777.4,345.76,777.4,338.91,779.16z M288.2,153.24c12.85-8.24,24.9-17.73,38.36-24.97c12.75-6.86,25.07-14.96,40.05-16.43
	c2.1-0.21,2.95-1.26,2.54-3.18c-0.66-3.05,1.66-7.04-1.26-9.05c-3.55-2.44-6.71,0.62-9.65,2.64c-0.74,0.51-1.55,0.9-2.32,1.37
	c-23.86,14.8-47.26,30.24-68.41,48.83c-1.14,0.79-2.29,1.59-3.74,2.59C286.12,155.54,287.33,154.74,288.2,153.24z M216.6,461.45
	c0.24,19.17,1.42,33.14,3.48,47.05c5.92,39.88,21.34,74.83,52.24,101.92c15.32,13.43,31.68,25.06,52.12,29.01
	c21.4,4.14,43.11,6.39,64.86,6.57c32.93,0.27,64.53-6.99,94.41-20.84c18.72-8.68,37.64-17.22,53.35-31.14
	c10.94-9.69,20.78-20.47,30.88-30.99c14.84-15.45,29.58-30.99,41.96-48.58c24.74-35.14,34.43-74.99,34.52-117.1
	c0.07-32.96-4.27-65.73-12.65-97.69c-7.57-28.87-24.88-50.98-51.13-65.19c-21.33-11.55-43.7-21.07-66.67-28.95
	c-26.8-9.2-53.95-13.64-82.12-5.98c-14.34,3.9-27.62,11.52-42.89,12.12c-0.65,0.03-1.31,0.55-1.92,0.91
	c-9.31,5.44-18.85,10.54-27.41,17.17c-39.42,30.54-73.94,66.08-103.04,106.36C228.72,374.68,217.76,419.32,216.6,461.45z
	 M392.33,184.68c4.31-2.03,7.96-3.96,11.76-5.51c19.01-7.75,38.84-11.75,59.3-12.67c2.67-0.12,3.86-0.29,4.06-3.68
	c1.43-23.69,4.47-47.16,11.69-69.9c0.92-2.91,0.71-4.54-3.17-4.58c-10.27-0.11-20.5,0.3-30.74,0.9c-21.26,1.25-41.9,6.38-62.85,9.55
	c-2.15,0.33-2.89,1.19-2.24,3.14c3.48,10.45,4.36,21.41,5.69,32.2C387.88,150.86,388.94,167.71,392.33,184.68z M237.06,607.34
	c-11.43,26.63-29.16,48.87-45.56,71.93c-1.41,1.98-2.09,2.77-0.08,4.63c16.93,15.63,34.27,30.68,54.8,41.59
	c2.96,1.57,3.39,0.67,4.15-1.95c2.69-9.33,6.4-18.3,10.76-26.96c8.1-16.09,15.63-32.52,27.03-46.9
	C268.67,637.96,252.22,623.29,237.06,607.34z M292.8,242.58c-1.97-1.58-2.98-2.28-3.87-3.11c-14.76-13.95-30.71-26.65-44.36-41.76
	c-2.62-2.9-3.68-2.43-5.86,0.13c-19.47,22.94-37.15,47.08-51.13,73.83c-1.94,3.71-1.08,4.87,2.35,6.36
	c16.11,7,32.35,13.77,47.19,23.32c3.22,2.07,4.27,0.32,5.78-1.93c13.47-20.1,28.7-38.71,46.69-54.96
	C290.37,243.76,291.43,243.37,292.8,242.58z M381.17,699.5c-0.03,17.09-0.48,34.17-1.37,51.23c-0.18,3.55,0.88,4.11,4.16,3.88
	c22.19-1.56,43.53-7.13,64.75-13.37c2.41-0.71,3.07-1.5,1.73-4.09c-2.71-5.28-4.62-10.94-5.44-16.85
	c-2.63-19.05-5.61-38.06-6.52-57.3c-0.11-2.26-0.52-3.33-3.01-2.77c-16.93,3.78-34.08,5.08-51.39,4.29
	c-2.47-0.11-2.98,0.89-2.96,3.15C381.23,678.29,381.17,688.9,381.17,699.5z M125.41,505.06c0.34,6.05,0.88,14.14,1.2,22.24
	c0.13,3.41,1.09,3.7,4.17,2.39c20.08-8.49,41.39-13.15,62.09-19.73c2.13-0.68,2.94-1.26,2.77-3.56
	c-1.42-19.81-0.69-39.62,0.73-59.38c0.42-5.89-1.53-6.6-6.69-6.23c-18.31,1.31-36.66,2.38-54.99,0.41
	c-2.97-0.32-3.16,1.11-3.56,3.27C127.52,463.81,125.86,483.34,125.41,505.06z M556.48,192.68c13.65,7.4,27.41,14.09,39.94,22.91
	c7.15,5.03,6.96,4.77,12.49-1.67c16.27-18.96,32.49-38.02,54.18-51.57c-0.53-0.61-1.06-1.29-1.66-1.91
	c-16.59-17.07-36.58-28.83-58.48-37.72c-3.36-1.36-3.57,0.73-4.41,2.56c-8.22,17.97-16.92,35.69-27.3,52.53
	C567.54,183.82,563.51,189.56,556.48,192.68z M204.32,150.58c-6.83,6.39-13.52,12.38-19.9,18.67
	c-23.74,23.4-42.34,50.68-59.41,79.11c-1.22,2.03-1.75,3.3,1.3,4.09c12.34,3.21,24.32,7.52,36.08,12.39
	c2.62,1.09,3.69,0.62,4.95-1.83c14.83-28.78,34.39-54.26,55.32-78.75c2.21-2.59,1.79-3.83-0.24-6.13
	C215.21,169.96,207.99,161.74,204.32,150.58z M596.48,650.17c1.93-2.52,3.24-4.75,5.03-6.48c18.69-18.08,31.92-40.21,45.95-61.74
	c3.94-6.05,3.83-6.15-2.43-9.55c-11.35-6.15-23.35-11.32-32.74-20.51c-2.31-2.26-3.29-1.97-5.26,0.29
	c-15.6,17.92-31.87,35.22-48.78,51.91c-1.84,1.82-2.56,2.81-0.11,4.89c4.37,3.73,8.43,7.84,12.44,11.97
	C579.29,629.89,589.81,637.17,596.48,650.17z M665.59,410.05c15.69-4.59,31.27-7.82,47.38-3.79c2.4,0.6,2.82-0.76,3.01-2.5
	c0.82-7.5,2.21-15,2.29-22.52c0.24-20.7-0.04-41.4-0.19-62.1c-0.01-1.28,0.67-2.87-0.65-3.74c-17.95,5.17-35.93,9.25-54.05,12.7
	c-2.89,0.55-3.27,1.07-2.91,3.9c2.3,18.01,5,35.98,5.09,54.2C665.62,394.07,665.59,401.96,665.59,410.05z M69.46,421.52
	c-1.55-0.09-1.55-0.09-1.91,3.5c-1.97,19.64-0.21,39.21,1.27,58.76c1.27,16.68,3.34,33.28,6.07,49.79c0.23,1.42-0.58,4.14,2.74,2.97
	c7.8-2.75,16-3.85,24.04-5.59c2.31-0.5,2.74-1.4,2.6-3.58c-2.13-31.05,0.32-61.83,5.95-92.39c0.4-2.17,0.17-2.84-2.12-2.83
	c-12.7,0.05-24.2-4.63-35.69-9.3C71.41,422.44,70.44,421.96,69.46,421.52z M464.83,60.7c-3.83-6.13-8.19-8.72-14.8-9.43
	c-21.66-2.33-43.07-1-64.4,2.71c-12.13,2.11-24.06,5.15-35.93,9.72c8.18,4.78,16.45,8.65,22.47,15.5c2.13,2.42,3.57,2.43,6.25,1.31
	c18.9-7.89,38.18-14.53,58.54-17.68C445.98,61.42,455.12,61.4,464.83,60.7z M133.93,680.45c10.36,12.44,54.35,39.97,63.1,39.64
	c-0.17-0.31-0.27-0.7-0.52-0.9c-14.33-12.01-28.26-24.43-40.17-38.93c-0.84-1.02-1.66-1.82-3.12-1.67
	C146.86,679.22,140.51,679.81,133.93,680.45z M144.61,385.31c2.21-1.95,5.35-2.85,5.89-6.46c4.02-27.06,13.73-52.31,24.68-77.16
	c0.55-1.24,2.81-2.86,0.51-4.05c-2.62-1.35-2.56,1.71-3.28,2.94C157.02,326.72,151.19,356.04,144.61,385.31z M642.22,548.75
	c-5.33-8.29-10.1-16.44-11.97-26.64c-4.33,5.95-8.19,11.26-12.21,16.79C626.21,542.23,634.21,545.49,642.22,548.75z M115.19,411.28
	c1.92-8.74,3.83-17.4,5.73-26.06c-4.16,5.33-7.31,11.04-10.05,16.94C107.92,408.5,108.08,408.58,115.19,411.28z M506.01,92.94
	c3.17,7.57,1.85,15.68,4.27,24.48c1.49-5.78,2.67-10.41,3.87-15.02c2.37-9.11,2.37-9.11-7.17-9.95
	C506.83,92.45,506.67,92.6,506.01,92.94z M467.38,652.8c-2.97,0.77-5.13,1.53-7.35,1.85c-1.88,0.27-2.55,1.02-2.05,2.81
	c1.99,7.2,3.99,14.4,5.98,21.59C465.91,670.49,463.64,661.67,467.38,652.8z M519.53,654.92c0.41-0.26,0.82-0.52,1.24-0.78
	c-1.46-4.75-2.88-9.51-4.38-14.24c-2.08-6.6-2.11-6.6-8.34-2.77C511.89,643.06,515.71,648.99,519.53,654.92z M340.42,156.81
	c2.26-5.47,4.5-10.88,6.83-16.5C334.61,143.71,334.31,148.96,340.42,156.81z M349.11,663.53c1.79,3.24,1.68,6.38,1.9,10
	c4.95-7.65,6.14-8.05,12.52-4.63c0.36-1.71,0.71-3.37,1.14-5.36C359.48,663.53,354.69,663.53,349.11,663.53z M328.9,662.32
	c2.42,2.61,3.82,4.83,4.52,7.36c0.51,1.85,2.09,1.79,3.35,2.11c1.84,0.47,1.69-1.21,2.16-2.3c3.03-6.99,3.05-6.98-4.26-7.17
	C333.01,662.29,331.34,662.32,328.9,662.32z M145.33,301.8c0.31,0.12,0.62,0.24,0.93,0.36c1.62-3.09,3.24-6.19,4.87-9.28
	c2.72-5.16,2.5-5.55-3.46-6.3C146.89,291.66,146.11,296.73,145.33,301.8z M80.05,559.77c2.94-2.9,5.49-5.41,8.4-8.28
	c-3.55-0.09-6.7,0.58-10.26-0.41C78.85,554.16,79.4,556.73,80.05,559.77z M272.83,200.57c0.58-4.93-3.91-6.42-5.29-9.68
	c-0.42-0.99-2.86,0.72-3.9,1.7c-1.24,1.17,0.4,1.72,1.13,2.26C267.29,196.7,269.88,198.48,272.83,200.57z M129.17,287.65
	c4.91,0.43,6.39-3.72,9.58-6.67C131.21,277.71,132.26,285.63,129.17,287.65z M110.2,276.77c3.86-1.46,5.07-4.27,7.22-6.01
	c1.12-0.9,0.88-1.69-0.41-2.31c-1.07-0.51-2.11-1.66-2.99,0.18C112.85,271.09,111.71,273.54,110.2,276.77z M669.53,170.46
	c-1.35,2.41-2.41,4.31-3.64,6.5C673.47,175.2,673.47,175.2,669.53,170.46z M222.22,601.8c7.47-2.63,7.56-2.84,3.39-7.14
	C224.54,596.93,223.49,599.13,222.22,601.8z M698.46,465.43c3.29-1.36,3.68-4.45,4.95-7.27
	C696.08,456.98,700.39,463.28,698.46,465.43z"/>
<path class="st1" d="M-357.57,765.85c4.27-2.33,8.96-1.05,13.43-1.42c35.97-2.99,69.7-13.59,102.81-27.7
	c43.45-18.52,80.3-46.05,113.2-79.18c42.24-42.53,71.09-93.26,87.95-150.61c3.02-10.28,6.55-19.76,11.9-29
	c7.81-13.49,10.6-28.88,14.06-43.92c7.88-34.27,6.83-69.04,5.24-103.76c-1.85-40.31-14.31-77.88-31.31-114.05
	c-13.39-28.49-34.09-50.48-61.17-66.48c-2.25-1.33-3.81-2.67-4.13-5.58c-0.58-5.14-4.15-8.59-7.94-11.66
	c-37.92-30.78-80.22-51.64-129.28-57.49c-21.1-2.52-41.97-6.74-63.42-6.15c-40.91,1.12-77.77,13.82-110.96,37.48
	c-4.31,3.07-9.16,4.6-13.85,6.6c-48.99,20.91-92.08,50.46-127.57,90.17c-28.53,31.92-50.12,68.51-66.42,108.17
	c-8.5,20.69-17.36,41.15-22.65,63.1c-11.45,47.51-12.63,95.18-6.96,143.6c4.51,38.52,14.08,75.61,25.52,112.42
	c1.98,6.36,4.99,12.28,7.71,18.34c4.34,9.68,11.08,16.84,20.73,21.21c2.84,1.29,4.83,3.43,6.72,5.76
	c36.51,44.97,84.51,70.09,140.55,81.27c4.72,0.94,9.47,1.74,14.21,2.53c3.53,0.59,7.25,0.59,10.15-1.45
	c3.34-2.36,6.28-1.86,9.72-0.7c8.8,2.97,17.76,5.37,26.91,7.06c1.31,0.24,3.12-0.33,3.92,1.47c-89.15,0-178.3-0.02-267.45,0.09
	c-3.31,0-4.14-0.51-4.14-4.03c0.11-230.24,0.11-460.47-0.01-690.71c0-3.79,1.01-4.26,4.42-4.25c214.73,0.09,429.45,0.09,644.18,0
	c3.46,0,4.4,0.53,4.4,4.27c-0.12,230.07-0.12,460.14,0,690.21c0,3.89-1.04,4.52-4.66,4.51
	C-127.05,765.83-242.31,765.85-357.57,765.85z"/>
<path class="st2" d="M-384.52,765.85c6.32-1.63,12.64-1.62,18.96,0C-371.88,765.85-378.2,765.85-384.52,765.85z"/>
<path class="st1" d="M-497.46,472.5c1.07-38.9,11.2-80.12,36.94-115.75c26.87-37.2,58.75-70.02,95.14-98.21
	c7.9-6.12,16.71-10.83,25.31-15.85c0.57-0.33,1.17-0.82,1.78-0.84c14.09-0.56,26.36-7.59,39.6-11.19
	c26.02-7.07,51.08-2.97,75.83,5.52c21.21,7.28,41.86,16.07,61.56,26.73c24.23,13.12,40.21,33.54,47.21,60.2
	c7.74,29.51,11.75,59.77,11.68,90.2c-0.08,38.89-9.04,75.68-31.88,108.13c-11.43,16.24-25.05,30.6-38.74,44.86
	c-9.33,9.71-18.42,19.67-28.52,28.61c-14.51,12.86-31.97,20.74-49.26,28.75c-27.59,12.79-56.76,19.49-87.17,19.25
	c-20.08-0.16-40.13-2.24-59.89-6.06c-18.87-3.66-33.98-14.39-48.12-26.79c-28.54-25.01-42.77-57.28-48.24-94.1
	C-496.15,503.09-497.24,490.2-497.46,472.5z M-119.29,382.03c0-5.49,0.04-10.98-0.01-16.47c-0.31-35.26-14.46-64.54-39.83-88.24
	c-19.2-17.93-42.47-29.47-67.31-37.52c-12.83-4.16-26.22-6.37-39.81-4.79c-15.98,1.86-31.59,5.73-47.18,9.65
	c-41.68,10.47-76.57,31.62-102.13,66.45c-18.14,24.73-35.57,50.04-50.72,76.76c-7.02,12.38-14.39,24.95-16.01,39.4
	c-3.49,30.99-4.29,62.11,2.4,92.75c5.79,26.5,13.99,52.22,31.45,73.98c8.3,10.35,17.37,19.56,30.55,22.78
	c7.83,1.91,15.08,4.94,22.34,8.1c13.78,5.99,27.8,11.04,43.06,11.15c28.26,0.2,55.5-4.61,81.01-17.3
	c26.91-13.38,51.31-30.66,74.65-49.38c16.25-13.03,31.34-27.44,41.85-45.77c8.89-15.5,18.71-30.65,24.06-47.87
	C-121.42,445.24-120.18,413.63-119.29,382.03z"/>
<path class="st1" d="M-335.2,216.95c-3.13-15.67-4.11-31.23-6.01-46.67c-1.22-9.96-2.04-20.08-5.25-29.74
	c-0.6-1.8,0.08-2.6,2.07-2.9c19.34-2.93,38.4-7.67,58.03-8.82c9.46-0.56,18.91-0.94,28.39-0.83c3.58,0.04,3.78,1.54,2.93,4.23
	c-6.67,21-9.47,42.67-10.79,64.54c-0.19,3.13-1.29,3.29-3.75,3.4c-18.89,0.85-37.21,4.54-54.76,11.7
	C-327.85,213.29-331.22,215.07-335.2,216.95z"/>
<path class="st1" d="M-478.57,607.2c14,14.73,29.19,28.27,47.19,39.09c-10.53,13.28-17.48,28.44-24.96,43.3
	c-4.03,8-7.45,16.28-9.93,24.89c-0.7,2.43-1.1,3.25-3.83,1.8c-18.96-10.08-34.97-23.97-50.6-38.4c-1.86-1.71-1.23-2.44,0.07-4.27
	C-505.49,652.33-489.12,631.79-478.57,607.2z"/>
<path class="st1" d="M-427.1,270.4c-1.26,0.73-2.24,1.08-2.95,1.73c-16.61,15.01-30.68,32.19-43.11,50.75
	c-1.39,2.08-2.36,3.7-5.33,1.78c-13.7-8.81-28.7-15.07-43.57-21.53c-3.17-1.38-3.96-2.45-2.17-5.87
	c12.91-24.7,29.24-46.99,47.21-68.17c2.01-2.36,2.99-2.8,5.41-0.12c12.6,13.95,27.33,25.68,40.96,38.56
	C-429.86,268.3-428.92,268.95-427.1,270.4z"/>
<path class="st1" d="M-345.51,692.3c0-9.8,0.05-19.59-0.04-29.39c-0.02-2.09,0.45-3.02,2.73-2.91c15.98,0.73,31.82-0.47,47.45-3.96
	c2.3-0.51,2.68,0.48,2.78,2.56c0.84,17.76,3.59,35.32,6.02,52.91c0.75,5.45,2.52,10.68,5.02,15.56c1.23,2.4,0.63,3.12-1.6,3.78
	c-19.59,5.76-39.29,10.91-59.78,12.34c-3.03,0.21-4.01-0.31-3.84-3.59C-345.95,723.85-345.53,708.08-345.51,692.3z"/>
<path class="st1" d="M-581.65,512.76c0.42-20.05,1.94-38.09,5.28-55.95c0.37-1.99,0.55-3.31,3.29-3.02
	c16.93,1.82,33.87,0.83,50.78-0.38c4.76-0.34,6.56,0.32,6.17,5.75c-1.31,18.25-1.98,36.54-0.67,54.83c0.15,2.13-0.59,2.67-2.56,3.29
	c-19.11,6.07-38.79,10.38-57.33,18.22c-2.85,1.2-3.73,0.94-3.85-2.21C-580.84,525.82-581.34,518.35-581.65,512.76z"/>
<path class="st1" d="M-183.63,224.33c6.49-2.89,10.21-8.18,13.63-13.74c9.58-15.55,17.61-31.92,25.2-48.51
	c0.77-1.69,0.97-3.62,4.07-2.36c20.22,8.21,38.67,19.07,54,34.83c0.56,0.57,1.05,1.2,1.53,1.76c-20.02,12.52-35,30.11-50.02,47.62
	c-5.11,5.95-4.93,6.19-11.53,1.55C-158.32,237.34-171.03,231.17-183.63,224.33z"/>
<path class="st1" d="M-508.8,185.46c3.39,10.31,10.06,17.89,16.7,25.44c1.87,2.13,2.27,3.27,0.22,5.66
	c-19.32,22.61-37.38,46.14-51.08,72.71c-1.16,2.26-2.15,2.69-4.57,1.69c-10.86-4.5-21.92-8.48-33.31-11.44
	c-2.81-0.73-2.33-1.9-1.2-3.78c15.77-26.24,32.93-51.44,54.86-73.04C-521.28,196.89-515.11,191.36-508.8,185.46z"/>
<path class="st1" d="M-146.7,646.75c-6.16-12-15.88-18.73-23.91-26.99c-3.7-3.81-7.45-7.61-11.48-11.05
	c-2.26-1.92-1.6-2.84,0.1-4.52c15.61-15.41,30.64-31.38,45.04-47.93c1.81-2.08,2.72-2.35,4.85-0.26
	c8.67,8.49,19.75,13.26,30.23,18.94c5.78,3.13,5.88,3.23,2.24,8.82c-12.95,19.88-25.17,40.32-42.43,57.01
	C-143.7,642.37-144.91,644.42-146.7,646.75z"/>
<path class="st1" d="M-82.89,425.03c0-7.47,0.03-14.75-0.01-22.02c-0.08-16.82-2.58-33.42-4.7-50.04c-0.33-2.61,0.01-3.09,2.69-3.6
	c16.73-3.18,33.33-6.96,49.9-11.73c1.22,0.8,0.59,2.27,0.6,3.45c0.13,19.11,0.4,38.23,0.17,57.34c-0.08,6.94-1.36,13.86-2.12,20.79
	c-0.18,1.61-0.56,2.87-2.78,2.31C-54.01,417.81-68.4,420.79-82.89,425.03z"/>
<path class="st1" d="M-633.32,435.63c0.91,0.41,1.79,0.85,2.71,1.23c10.61,4.31,21.22,8.64,32.95,8.59
	c2.11-0.01,2.32,0.62,1.95,2.62c-5.2,28.21-7.46,56.63-5.49,85.3c0.14,2.02-0.26,2.84-2.4,3.31c-7.42,1.61-14.99,2.62-22.2,5.16
	c-3.07,1.08-2.31-1.43-2.53-2.74c-2.52-15.24-4.43-30.57-5.6-45.97c-1.37-18.05-3-36.12-1.18-54.25
	C-634.76,435.55-634.75,435.55-633.32,435.63z"/>
<path class="st1" d="M-268.26,102.47c-8.96,0.64-17.4,0.66-25.74,1.96c-18.79,2.91-36.6,9.04-54.05,16.33
	c-2.47,1.03-3.8,1.03-5.77-1.21c-5.56-6.33-13.19-9.9-20.75-14.31c10.96-4.22,21.97-7.03,33.17-8.98
	c19.69-3.42,39.46-4.65,59.46-2.5C-275.83,94.41-271.8,96.81-268.26,102.47z"/>
<path class="st1" d="M-573.79,674.71c6.07-0.58,11.94-1.13,17.81-1.72c1.35-0.14,2.11,0.6,2.88,1.54
	c11,13.39,23.86,24.86,37.09,35.95c0.23,0.19,0.32,0.55,0.48,0.83C-523.61,711.61-564.22,686.19-573.79,674.71z"/>
<path class="st1" d="M-431.99,187.19c19.53-17.17,41.14-31.42,63.17-45.09c0.7-0.44,1.46-0.8,2.14-1.27
	c2.72-1.87,5.64-4.7,8.91-2.44c2.69,1.85,0.55,5.54,1.16,8.36c0.38,1.77-0.41,2.75-2.34,2.94c-13.83,1.36-25.2,8.84-36.98,15.17
	c-12.43,6.69-23.56,15.45-35.42,23.05C-431.56,187.67-431.77,187.43-431.99,187.19z"/>
<path class="st1" d="M-563.93,402.19c6.08-27.03,11.46-54.1,25.67-78.23c0.67-1.14,0.61-3.97,3.03-2.72
	c2.13,1.1,0.04,2.59-0.47,3.74c-10.11,22.95-19.08,46.26-22.79,71.24C-558.99,399.57-561.89,400.39-563.93,402.19z"/>
<path class="st1" d="M-104.46,553.11c-7.39-3.01-14.79-6.02-22.32-9.09c3.71-5.1,7.28-10.01,11.27-15.5
	C-113.79,537.93-109.39,545.45-104.46,553.11z"/>
<path class="st1" d="M-591.09,426.17c-6.56-2.5-6.71-2.57-3.99-8.43c2.53-5.44,5.44-10.71,9.28-15.64
	C-587.56,410.11-589.32,418.11-591.09,426.17z"/>
<path class="st1" d="M-230.23,132.24c0.61-0.31,0.76-0.46,0.89-0.45c8.81,0.77,8.81,0.77,6.62,9.18c-1.11,4.26-2.2,8.53-3.57,13.87
	C-228.53,146.72-227.31,139.23-230.23,132.24z"/>
<path class="st1" d="M-265.9,649.18c-3.45,8.18-1.36,16.33-3.16,24.24c-1.84-6.65-3.68-13.29-5.52-19.94
	c-0.46-1.65,0.16-2.34,1.89-2.6C-270.64,650.59-268.64,649.9-265.9,649.18z"/>
<path class="st1" d="M-217.75,651.13c-3.53-5.47-7.06-10.94-10.6-16.43c5.75-3.53,5.77-3.54,7.7,2.56c1.38,4.37,2.7,8.77,4.04,13.15
	C-216.99,650.65-217.37,650.89-217.75,651.13z"/>
<path class="st1" d="M-383.13,191.21c-5.64-7.25-5.36-12.1,6.3-15.24C-378.97,181.16-381.04,186.16-383.13,191.21z"/>
<path class="st1" d="M-375.11,659.08c5.16,0,9.58,0,14.37,0c-0.39,1.84-0.71,3.37-1.05,4.95c-5.89-3.16-6.99-2.78-11.56,4.28
	C-373.56,664.97-373.46,662.08-375.11,659.08z"/>
<path class="st1" d="M-393.77,657.97c2.25,0,3.8-0.03,5.34,0.01c6.75,0.17,6.73,0.17,3.93,6.62c-0.44,1-0.3,2.55-2,2.12
	c-1.17-0.3-2.62-0.24-3.1-1.95C-390.23,662.43-391.53,660.38-393.77,657.97z"/>
<path class="st1" d="M-563.26,325.09c0.72-4.68,1.44-9.37,2.16-14.06c5.5,0.69,5.71,1.06,3.2,5.82c-1.51,2.85-3,5.71-4.5,8.57
	C-562.69,325.31-562.98,325.2-563.26,325.09z"/>
<path class="st1" d="M-623.54,563.28c-0.6-2.8-1.11-5.18-1.72-8.03c3.29,0.91,6.2,0.3,9.48,0.38
	C-618.47,558.28-620.82,560.6-623.54,563.28z"/>
<path class="st1" d="M-445.54,231.61c-2.72-1.92-5.11-3.57-7.44-5.28c-0.67-0.5-2.19-1.01-1.04-2.09c0.97-0.91,3.22-2.49,3.6-1.57
	C-449.16,225.69-445,227.06-445.54,231.61z"/>
<path class="st1" d="M-578.19,312.02c2.86-1.86,1.89-9.17,8.85-6.16C-572.29,308.58-573.65,312.42-578.19,312.02z"/>
<path class="st1" d="M-595.7,301.98c1.4-2.98,2.45-5.25,3.53-7.51c0.81-1.7,1.77-0.64,2.76-0.17c1.19,0.57,1.41,1.3,0.38,2.13
	C-591.03,298.04-592.14,300.63-595.7,301.98z"/>
<path class="st1" d="M-79.25,203.81c3.64,4.38,3.64,4.38-3.36,6.01C-81.47,207.79-80.49,206.03-79.25,203.81z"/>
<path class="st1" d="M-492.27,602.09c1.17-2.46,2.14-4.5,3.13-6.59C-485.28,599.47-485.37,599.66-492.27,602.09z"/>
<path class="st1" d="M-52.54,476.17c1.78-1.98-2.2-7.8,4.57-6.72C-49.14,472.06-49.5,474.92-52.54,476.17z"/>
<path class="st1" d="M-431.35,187.91c-0.8,1.39-1.92,2.12-4.09,1.68c1.34-0.93,2.4-1.66,3.45-2.4
	C-431.77,187.43-431.56,187.67-431.35,187.91z"/>
<path class="st3" d="M626.16,363.48c-0.96,34.22-2.31,68.45-12.58,101.47c-5.8,18.64-16.44,35.05-26.06,51.84
	c-11.38,19.85-27.72,35.46-45.32,49.57c-25.28,20.27-51.71,38.98-80.85,53.48c-27.63,13.74-57.13,18.95-87.74,18.74
	c-16.53-0.12-31.71-5.58-46.64-12.08c-7.87-3.42-15.72-6.71-24.2-8.78c-14.27-3.48-24.1-13.46-33.09-24.67
	c-18.91-23.57-27.78-51.42-34.06-80.12c-7.25-33.19-6.38-66.89-2.6-100.45c1.76-15.65,9.74-29.26,17.34-42.67
	c16.41-28.94,35.29-56.35,54.93-83.13c27.67-37.73,65.46-60.63,110.6-71.97c16.89-4.24,33.79-8.43,51.1-10.45
	c14.72-1.72,29.22,0.68,43.11,5.19c26.9,8.72,52.11,21.21,72.9,40.64c27.48,25.67,42.8,57.37,43.14,95.56
	C626.2,351.59,626.16,357.53,626.16,363.48z M603.39,362.55c0-7.38,0.24-14.78-0.04-22.15c-1.2-31.59-15.51-56.86-38.65-77.34
	c-14.06-12.45-30.46-21.68-46.94-30.55c-16.29-8.77-34.05-11.11-52.22-10.36c-14.76,0.61-29.16,4.01-43.33,7.94
	c-28.92,8.02-57.58,16.41-80.54,37.74c-17.27,16.04-33.39,33.13-45.39,53.22c-11.46,19.19-21.78,39.22-30.42,59.96
	c-4.68,11.24-11.1,22.02-12.26,34.34c-2.69,28.73-3.77,57.67,1.43,86.11c4.75,25.96,12.08,51.39,27.86,73.47
	c8.14,11.39,17.16,21.55,31.47,24.6c9.86,2.1,19.6,4.43,29.15,7.64c16.05,5.39,32.41,8.2,49.36,5.5
	c18.44-2.93,36.86-5.5,54.09-13.71c16.76-7.99,32.97-16.93,48.57-26.85c30.22-19.23,58.56-40.7,77.49-72.16
	c5.73-9.52,12.65-18.46,16.03-29.19C600.14,435.55,603.08,399.2,603.39,362.55z"/>
<path class="st1" d="M-140.32,381.18c-0.28,33.83-3,67.4-13.24,99.91c-3.12,9.91-9.52,18.16-14.81,26.95
	c-17.47,29.05-43.64,48.88-71.55,66.63c-14.4,9.16-29.37,17.42-44.85,24.8c-15.91,7.59-32.92,9.95-49.94,12.66
	c-15.65,2.49-30.76-0.1-45.58-5.08c-8.82-2.96-17.82-5.11-26.92-7.05c-13.22-2.82-21.55-12.2-29.06-22.72
	c-14.57-20.38-21.34-43.86-25.72-67.83c-4.8-26.26-3.81-52.98-1.32-79.51c1.07-11.38,6.99-21.34,11.32-31.71
	c7.98-19.15,17.5-37.65,28.09-55.37c11.08-18.55,25.96-34.33,41.91-49.14c21.21-19.69,47.67-27.44,74.37-34.84
	c13.08-3.63,26.37-6.77,40.01-7.33c16.78-0.69,33.18,1.47,48.22,9.57c15.22,8.19,30.36,16.72,43.34,28.21
	c21.37,18.92,34.58,42.25,35.69,71.41C-140.1,367.53-140.32,374.36-140.32,381.18z M-261.24,383.78c-0.53-3.6-0.83-7.26-1.63-10.81
	c-2.95-13.09-11.73-19.13-25.02-17.74c-8.75,0.92-17.41,2.37-25.97,4.33c-17.92,4.1-35.78,8.24-52.64,16.03
	c-18.07,8.35-19.41,25.57-14.15,39.42c3.63,9.55,12,14.14,22.12,13.11c9.77-1,19.28-3.07,28.67-5.86
	c20.28-6.03,39.39-15.54,60.15-20.21c3.58-0.81,5.7-3.93,6.78-7.43C-261.85,391.11-261.25,387.51-261.24,383.78z M-345.63,553.27
	c1.99-0.1,4.02,0,5.97-0.33c26.15-4.45,52.13-9.52,77.22-18.47c5.6-2,9.2-5.44,10.37-10.97c1.7-8.05,1.44-16.22-0.97-24.11
	c-1.46-4.77-4.52-8.89-9.55-10.09c-6.21-1.49-12.53-2.87-19.04-2.38c-12.01,0.91-23.47,4.24-34.67,8.37
	c-15.37,5.67-31.41,9.6-46.09,17.04c-9.36,4.74-12.35,11.01-11.44,21.11c0.89,9.74,6.55,15.18,15.46,17.9
	C-354.22,552.61-350.01,553.48-345.63,553.27z M-379.54,470.55c0,16.6,6.89,23.02,23.64,21.98c2.15-0.13,4.3-0.4,6.42-0.78
	c4.08-0.73,8.16-1.48,12.2-2.39c21.79-4.89,43.74-9.15,65.11-15.77c9.35-2.9,14.31-9.06,14.92-18.83
	c0.73-11.64-3.63-20.16-12.6-24.45c-0.43-0.21-1.01-0.39-1.22-0.76c-4.07-7.15-10.7-5.47-16.77-4.51
	c-26.06,4.11-51.13,12.14-76.3,19.71c-7.79,2.34-12.67,7.39-14.62,15.42C-379.61,463.64-379.41,467.08-379.54,470.55z
	 M-300.31,321.43c-17.77,2.74-34.75,5.73-51.46,10.14c-10.1,2.67-20.32,4.9-30.3,7.95c-6.57,2-9.73,8.57-8.05,14.62
	c1.7,6.14,7.63,9.9,14.3,8.82c3.76-0.61,7.5-1.47,11.17-2.48c25.54-7.08,51.38-13.25,75.77-23.97c2.43-1.07,4.71-2.13,7.52-2.18
	c4.29-0.09,7.71-2.2,9.46-6.22c1.89-4.34,1.42-8.77-1.91-12.09c-7.48-7.46-16.82-11.12-27.3-11.23c-4.86-0.05-6.89,3.91-5.05,8.44
	C-304.96,316.16-302.68,318.38-300.31,321.43z"/>
<path class="st3" d="M472.43,365.37c-0.01,4.04-0.66,7.94-1.83,11.73c-1.17,3.79-3.46,7.17-7.34,8.05
	c-22.48,5.06-43.17,15.36-65.14,21.89c-10.17,3.02-20.47,5.27-31.05,6.35c-10.95,1.12-20.02-3.85-23.96-14.19
	c-5.7-14.99-4.24-33.65,15.32-42.69c18.26-8.44,37.61-12.92,57.01-17.36c9.27-2.12,18.64-3.69,28.12-4.69
	c14.39-1.52,23.9,5.03,27.09,19.21C471.53,357.51,471.85,361.47,472.43,365.37z M453.59,367.15c1.15-6.62-2.97-11.57-7.33-15.16
	c-2.46-2.03-6.39,2.51-9.9,3.53c-2.56,0.74-4.92,2.15-7.45,3.04c-20.28,7.12-40.54,14.33-60.91,21.19
	c-4.85,1.63-4.58,4.73-3.93,8.41c0.72,4.08,3.64,3.63,6.62,3.18c2.66-0.4,5.34-0.6,8.02-0.91c24.55-2.83,47.5-11.97,71.26-17.93
	C452.78,371.79,454.58,370.56,453.59,367.15z"/>
<path class="st3" d="M381.03,548.93c-4.74,0.23-9.3-0.71-13.79-2.09c-9.64-2.95-15.78-8.84-16.74-19.39
	c-1-10.94,2.25-17.73,12.38-22.87c15.9-8.06,33.27-12.31,49.92-18.45c12.13-4.47,24.54-8.08,37.55-9.07
	c7.04-0.53,13.89,0.97,20.62,2.58c5.45,1.3,8.76,5.77,10.34,10.93c2.61,8.54,2.9,17.4,1.05,26.11c-1.27,5.98-5.17,9.71-11.24,11.88
	c-27.17,9.7-55.31,15.19-83.63,20.01C385.38,548.93,383.19,548.82,381.03,548.93z M370.2,525.01c5.16,2.74,9.28,3.01,13.4,2.51
	c24.22-2.96,48.17-7.46,71.88-13.23c9.22-2.24,9.51-2.48,6.23-11.22c-1.39-3.71-3.95-7.41-6.98-9.87c-1.18-0.96-5.16,1.43-7.82,2.4
	c-22.87,8.4-45.21,18.21-68.26,26.12C376.19,522.58,373.79,523.61,370.2,525.01z"/>
<path class="st3" d="M344.31,459.34c0.14-3.76-0.07-7.49,0.85-11.25c2.11-8.69,7.4-14.16,15.84-16.7
	c27.26-8.21,54.42-16.89,82.63-21.35c6.57-1.04,13.75-2.85,18.16,4.89c0.23,0.4,0.85,0.6,1.32,0.82
	c9.71,4.64,14.43,13.86,13.64,26.47c-0.66,10.58-6.02,17.25-16.15,20.39c-23.15,7.18-46.92,11.79-70.52,17.08
	c-4.38,0.98-8.79,1.8-13.21,2.59c-2.3,0.41-4.62,0.7-6.95,0.85C351.77,484.27,344.31,477.32,344.31,459.34z M451.08,425
	c-26.41,7.74-52.2,15.28-77.96,22.9c-1.86,0.55-3.74,1.41-5.27,2.57c-3.12,2.37-3.35,6.27-2.5,9.32c0.77,2.77,4.06,1,6.14,0.66
	c8.87-1.42,17.71-3.04,26.55-4.61c17.67-3.15,35.16-7.04,52.51-11.68c5.09-1.36,6.01-3.54,3.56-7.85
	C452.22,432.99,450.98,429.46,451.08,425z"/>
<path class="st3" d="M430.12,297.84c-2.56-3.3-5.04-5.71-6.33-8.89c-2-4.91,0.21-9.2,5.46-9.14c11.35,0.12,21.47,4.08,29.57,12.16
	c3.6,3.59,4.11,8.39,2.06,13.09c-1.9,4.36-5.59,6.65-10.24,6.74c-3.03,0.06-5.51,1.21-8.14,2.36
	c-26.41,11.61-54.39,18.3-82.06,25.96c-3.98,1.1-8.02,2.03-12.1,2.69c-7.22,1.17-13.65-2.91-15.49-9.55
	c-1.81-6.55,1.61-13.66,8.72-15.83c10.81-3.3,21.88-5.72,32.81-8.61C392.48,304.05,410.87,300.81,430.12,297.84z"/>
<path class="st1" d="M-278.63,385.43c0.91,3.14-0.75,4.28-3.34,4.93c-21.94,5.51-43.13,13.95-65.8,16.56
	c-2.47,0.28-4.95,0.47-7.4,0.84c-2.76,0.42-5.45,0.84-6.12-2.93c-0.6-3.4-0.85-6.26,3.63-7.77c18.81-6.33,37.51-12.98,56.24-19.56
	c2.33-0.82,4.51-2.12,6.88-2.81c3.24-0.94,6.87-5.13,9.14-3.26C-281.37,374.75-277.57,379.31-278.63,385.43z"/>
<path class="st1" d="M-355.64,531.19c3.32-1.29,5.53-2.25,7.8-3.03c21.29-7.31,41.91-16.36,63.03-24.12c2.46-0.9,6.13-3.1,7.22-2.22
	c2.8,2.27,5.16,5.69,6.44,9.11c3.03,8.06,2.76,8.29-5.75,10.36c-21.89,5.33-44,9.49-66.37,12.22
	C-347.07,533.97-350.87,533.72-355.64,531.19z"/>
<path class="st1" d="M-280.96,438.84c-0.09,4.11,1.06,7.38,2.8,10.44c2.26,3.98,1.42,5.99-3.28,7.25
	c-16.01,4.29-32.17,7.88-48.48,10.78c-8.17,1.45-16.33,2.95-24.52,4.26c-1.92,0.31-4.96,1.95-5.67-0.61
	c-0.79-2.82-0.58-6.42,2.3-8.61c1.41-1.07,3.16-1.86,4.87-2.37C-329.15,452.95-305.35,445.99-280.96,438.84z"/>
</svg>
