<?xml version="1.0" encoding="utf-8"?>
<!-- Generator: Adobe Illustrator 24.1.1, SVG Export Plug-In . SVG Version: 6.00 Build 0)  -->
<svg version="1.1" id="Layer_1" xmlns="http://www.w3.org/2000/svg" xmlns:xlink="http://www.w3.org/1999/xlink" x="0px" y="0px"
	 viewBox="0 0 800 800" style="enable-background:new 0 0 800 800;" xml:space="preserve">
<style type="text/css">
	.st0{display:none;fill:#FEFEFE;}
	.st1{display:none;fill:#FCFCFC;}
	.st2{fill:#010101;}
</style>
<path class="st0" d="M-374.89,1128.48c-363.03,0-726.05-0.01-1089.08,0.09c-4,0-5.21-0.55-5.21-5
	c0.14-531.39,0.13-1062.78,0.01-1594.18c0-4.14,0.94-4.81,4.9-4.81c540.71,0.11,1081.42,0.11,1622.13,0.01
	c3.87,0,4.95,0.52,4.95,4.76c-0.13,531.39-0.13,1062.78,0,1594.18c0,4.33-1.03,5.06-5.15,5.06c-166.19-0.12-332.39-0.1-498.58-0.1
	c0-0.26,0-0.51,0-0.77c16.6-1.22,33.11-3.1,49.49-6.25c78.56-15.09,137.1-58.16,177.16-126.86c21.65-37.12,37.23-76.82,49.35-118
	c13.58-46.15,12.76-91.86-2.48-137.39c-0.61-1.82-0.67-3.58-0.68-5.39c-0.08-14.19-3.22-27.65-8.92-40.66
	c-7.31-16.68-16.35-32.34-26.45-47.46c-8.34-12.48-19.12-23.17-27.03-35.86c-12.69-20.35-27.75-38.65-44.7-55.49
	c-28.78-28.58-62.05-48.28-103.22-52.91c-39.79-4.47-73.75,6.12-100.49,36.94c-6.88,7.93-13.34,16.19-19.78,24.47
	c-9.52,12.23-19.28,24.24-31.6,33.89c-2.37,1.86-4.02,2.35-6.91,0.53c-11.91-7.51-21.97-17.24-32.48-26.42
	c-13.11-11.45-23.07-25.29-30.55-40.93c-26.1-54.56-48.24-110.53-61.63-169.74c-6.39-28.25-10.29-56.91-15.27-85.4
	c-7.49-42.85-10.38-86.2-14.67-129.4c-1.66-16.72-2.83-33.48-4.52-50.2c-0.8-7.99-3.38-15.85-2.37-24.01l-0.1,0.12
	c1.88,0.25,2.54,1.98,3.6,3.14c19.15,21.08,40.59,39.35,64.9,54.28c43,26.4,88.83,37.14,139,26.83
	c21.54-4.43,42.62-10.52,63.9-15.89c23.44-5.91,47.16-9.44,71.19-4.95c44.33,8.28,85.58,24.57,123.28,49.49
	c28.4,18.78,49.13,44.62,66.88,73.14c10.41,16.72,19.35,34.1,23.98,53.48c10.26,42.95,11.81,86.67,11.68,130.5
	c-0.1,34.1-2.12,68.22,1.32,102.27c0.32,3.2,1.16,6.14,2.55,9.05c9.04,18.87,22.45,34.05,38.87,46.81
	c29.08,22.59,57.29,46.2,83.8,71.79c2.77,2.67,5.84,4.99,9.36,6.59c10.35,4.71,20.28,3.99,28.97-3.49
	c8.67-7.47,11.08-17.15,7.66-28.07c-0.8-2.57-0.97-4.65,0.5-7.02c6.79-10.99,9.72-23.23,11.07-35.89
	c3.75-35.11,5.28-70.37,6.87-105.62c0.88-19.63,1.39-39.26-0.34-58.9c-3.42-38.77-15.64-75.09-31.2-110.37
	c-24.7-56.02-59.66-105.58-98.18-152.72C13.47,154.4-6.36,135.39-30.47,121.4c-37.96-22.02-79.5-32.5-122.57-38.16
	c-35.98-4.73-72.24-6.98-108.2-11.94c-25.97-3.58-50.8-10.12-73.45-23.94c-13.94-8.5-27.59-17.38-40.72-27.07
	c-21.99-16.24-44.71-31.25-69.89-42.21c-0.57-0.25-1.61-0.43-1.25-1.67c36.68-3.15,72.5-9.89,105.94-26.18
	c17.42-8.49,33.97-18.37,48.38-31.49c4.95-4.51,9.81-9.29,11.73-15.88c1.06-3.62,3.15-4.82,6.36-5.92
	c35.09-12.02,71.2-20.82,106.05-33.59c28.66-10.5,56.87-21.91,80.93-41.4c13.33-10.79,26.68-21.55,39.91-32.46
	c8.33-6.87,14.71-15.37,19.79-24.86c6.03-11.25,6.69-22.73,1.72-34.62c-8.6-20.56-16.91-41.26-25.5-61.82
	c-11.2-26.8-24.44-52.51-41.74-75.95c-16.37-22.17-35.32-41.65-59.65-55.23c-18.91-10.55-38.81-13.58-59.73-7.05
	c-6.98,2.18-13.94,4.52-20.69,7.32c-35.24,14.62-66.42,35.83-95.79,59.85c-37.36,30.55-70.18,65.75-103.29,100.71
	c-46.33,48.94-88.29,101.43-128.72,155.22c-1.63,2.17-2.32,2.55-4.23,0.33c-5.68-6.58-11.98-12.51-19.65-16.77
	c-10.47-5.82-20.7-5.6-30.44,1.58c-4.82,3.55-9.43,7.39-14.02,11.23c-2.63,2.19-5.42,3.75-8.91,4.01
	c-11.1,0.83-21.59,3.94-31.34,9.27c-2.57,1.4-4.01,1-6.02-0.8c-10.71-9.58-20.43-20.04-29.08-31.53
	c-14.94-19.85-28.23-40.77-40.3-62.47c-22.56-40.56-47.94-79-79.5-113.37c-45.22-49.26-98.74-84.59-163.47-102.64
	c-23.11-6.44-46.32-8.61-69.96-4.97c-18.83,2.9-31.76,14.44-41.25,30.27c-5.93,9.88-10.13,20.6-14.3,31.29
	c-9.18,23.55-20.9,45.66-36.37,65.73c-8.74,11.34-17.15,22.94-25.94,34.24c-15.93,20.48-16.81,41.98-6.01,65.11
	c16.49,35.3,41.8,62.53,73.96,83.94c39.88,26.54,84.16,39.96,131.4,44.92c9.51,1,18.98,2.52,28.46,3.79
	c-15.68,4.9-31.55,7.79-47.41,10.69c-39.16,7.14-78.43,13.4-118.31,14.84c-40.17,1.45-79.92,6.2-119.32,14.45
	c-38.19,8-71.58,24.2-97,54.33c-23.37,27.69-42.83,58.15-59.55,90.25c-15.42,29.6-23.98,61.46-29.84,94.24
	c-4.18,23.42-7.43,46.57-1.01,70.13c1.57,5.75,3.54,11.75,2.11,18.04c-1.64,7.24-1.13,14.56-0.39,21.86
	c2.51,24.74,11.27,47.44,22.67,69.26c11.43,21.88,25.06,42.39,39.43,62.41c2.38,3.31,3.4,6.46,2.63,10.64
	c-1.23,6.72-2.78,13.35-4.32,19.99c-7.61,32.69-20.26,62.96-42.16,88.87c-11.08,13.11-22.68,25.73-34.75,37.93
	c-6.79,6.87-13.25,14.32-21.65,19.13c-13.1,7.49-15.51,22.72,1.1,31.41c0.44,0.23,0.87,0.5,1.29,0.75
	c26.57,15.83,53.84,30.53,78.55,49.34c7.48,5.7,15.82,9.9,25.41,10.88c10.85,1.1,21.7,1.07,32.23-1.97
	c33.76-9.77,58.67-28.76,66.53-65.07c3.47-16.02,5.08-32.25,4.3-48.63c-2.57-54.04-17.51-103.82-51.24-146.99
	c-2.3-2.95-2.93-5.56-1.66-9.09c2.75-7.62,3.56-15.54,2.69-23.61c-3.94-36.57-3.5-73.12,0.14-109.68
	c4.28-42.99,15.31-84.33,30.41-124.67c10.54-28.18,25.59-53.99,41.68-79.27c1.53-2.4,3.35-2.25,5.47-2.22
	c16.86,0.23,33.57,2.01,50.07,5.36c43.85,8.92,87.53,18.3,132.34,21.94c56.69,4.6,112.73,3.21,168.15-10.6
	c37.65-9.39,75.03-19.53,110.22-36.36c0.85-0.4,1.67-1.17,3-0.34c-0.29,1.71-1.81,2.54-2.9,3.62c-23.31,23.07-47.17,45.6-69.44,69.7
	c-21.83,23.62-40.53,49.39-53.92,78.73c-18.57,40.66-35.88,81.85-51.86,123.62c-18.62,48.68-36.79,97.3-42.08,149.85
	c-3.07,30.57-6.57,60.85,0.6,91.76c-3.85-0.44-7.61-0.84-11.36-1.29c-6.6-0.79-13.82-3.01-19.62,0.44
	c-6.76,4.01-13.4,3.08-20.33,2.96c-2.99-0.05-6.02,0.04-8.97,0.46c-42.2,6.03-77.19,25.47-104.54,57.94
	c-42.96,51-63.96,110.23-62.34,176.82c1.77,72.82,23.77,138.6,71.67,194.67c38.52,45.09,88.48,73.13,142.52,94.51
	c31.26,12.37,64.67,15.11,97.96,17.48c28.59,2.03,56.92,1.07,84.77-6.37c24.59-6.57,48.96-13.91,73.3-21.39
	c36.66-11.26,67.55-31.75,94.25-58.92c7.58-7.72,14.28-16.21,20.99-24.97c10.18,10.5,20.41,20.51,30.98,30.16
	c46.69,42.66,100.33,70.82,163.73,78.84c15.86,2.01,31.79,3.12,47.7,4.58C-374.89,1127.93-374.89,1128.21-374.89,1128.48z"/>
<path class="st1" d="M-374.89,1128.48c0-0.28,0-0.55,0-0.83c11.33,0.02,22.65,0.04,33.98,0.06c0,0.26,0,0.51,0,0.77
	C-352.24,1128.48-363.56,1128.48-374.89,1128.48z"/>
<path class="st2" d="M545.33,758.32c-5.1-0.01-10.2-0.02-15.31-0.03c-7.17-0.66-14.34-1.16-21.49-2.07
	c-28.57-3.61-52.73-16.3-73.76-35.52c-4.76-4.35-9.37-8.86-13.95-13.59c-3.02,3.95-6.04,7.77-9.46,11.25
	c-12.03,12.24-25.94,21.47-42.46,26.55c-10.96,3.37-21.94,6.68-33.02,9.64c-12.54,3.35-25.31,3.78-38.19,2.87
	c-15-1.07-30.05-2.3-44.13-7.87c-24.35-9.63-46.86-22.27-64.21-42.58c-21.58-25.26-31.49-54.9-32.29-87.7
	c-0.73-30,8.73-56.68,28.09-79.66c12.32-14.63,28.09-23.38,47.1-26.1c1.33-0.19,2.69-0.23,4.04-0.21c3.12,0.05,6.12,0.47,9.16-1.34
	c2.62-1.55,5.87-0.55,8.84-0.2c1.69,0.2,3.38,0.38,5.12,0.58c-3.23-13.92-1.66-27.57-0.27-41.34c2.38-23.68,10.57-45.58,18.96-67.51
	c7.2-18.82,15-37.37,23.36-55.69c6.04-13.22,14.46-24.83,24.29-35.47c10.04-10.86,20.78-21.01,31.29-31.4
	c0.49-0.49,1.18-0.86,1.31-1.63c-0.6-0.37-0.97-0.03-1.35,0.15c-15.85,7.58-32.7,12.15-49.66,16.38
	c-24.97,6.23-50.22,6.85-75.75,4.78c-20.19-1.64-39.87-5.87-59.62-9.88c-7.43-1.51-14.96-2.31-22.56-2.42
	c-0.96-0.01-1.78-0.08-2.46,1c-7.25,11.39-14.03,23.02-18.78,35.71c-6.8,18.17-11.77,36.8-13.7,56.17
	c-1.64,16.47-1.84,32.94-0.06,49.41c0.39,3.64,0.03,7.2-1.21,10.64c-0.57,1.59-0.29,2.77,0.75,4.1
	c15.2,19.45,21.93,41.88,23.09,66.22c0.35,7.38-0.38,14.69-1.94,21.91c-3.54,16.36-14.76,24.91-29.97,29.31
	c-4.74,1.37-9.63,1.39-14.52,0.89c-4.32-0.44-8.08-2.34-11.45-4.9c-11.13-8.48-23.42-15.1-35.39-22.23
	c-0.19-0.11-0.38-0.23-0.58-0.34c-7.48-3.91-6.4-10.78-0.49-14.15c3.79-2.16,6.7-5.52,9.76-8.62c5.43-5.5,10.66-11.18,15.65-17.09
	c9.87-11.67,15.57-25.31,19-40.04c0.7-2.99,1.4-5.98,1.95-9c0.34-1.88-0.12-3.3-1.19-4.79c-6.47-9.02-12.61-18.26-17.76-28.12
	c-5.14-9.83-9.08-20.06-10.21-31.2c-0.33-3.29-0.56-6.59,0.18-9.85c0.64-2.84-0.24-5.54-0.95-8.13
	c-2.89-10.61-1.43-21.04,0.46-31.59c2.64-14.77,6.5-29.12,13.44-42.46c7.53-14.46,16.3-28.18,26.83-40.66
	c11.45-13.57,26.49-20.87,43.7-24.48c17.75-3.72,35.66-5.86,53.76-6.51c17.97-0.65,35.66-3.47,53.3-6.69
	c7.15-1.3,14.3-2.61,21.36-4.81c-4.27-0.58-8.54-1.26-12.82-1.71c-21.28-2.23-41.23-8.28-59.2-20.24
	c-14.49-9.65-25.89-21.91-33.32-37.81c-4.87-10.42-4.47-20.11,2.71-29.33c3.96-5.09,7.75-10.32,11.69-15.42
	c6.97-9.04,12.25-19,16.38-29.61c1.88-4.82,3.77-9.65,6.44-14.1c4.28-7.13,10.1-12.33,18.59-13.64c10.65-1.64,21.11-0.66,31.52,2.24
	c29.16,8.13,53.27,24.05,73.65,46.24c14.22,15.48,25.65,32.8,35.81,51.08c5.43,9.77,11.42,19.2,18.15,28.14
	c3.89,5.18,8.28,9.89,13.1,14.2c0.91,0.81,1.56,0.99,2.71,0.36c4.39-2.4,9.11-3.8,14.12-4.17c1.57-0.12,2.83-0.82,4.02-1.81
	c2.07-1.73,4.15-3.46,6.32-5.06c4.39-3.23,9-3.33,13.71-0.71c3.46,1.92,6.29,4.59,8.85,7.56c0.86,1,1.17,0.83,1.91-0.15
	c18.22-24.23,37.12-47.88,57.99-69.93c14.91-15.75,29.7-31.61,46.53-45.37c13.23-10.82,27.28-20.37,43.15-26.96
	c3.04-1.26,6.18-2.32,9.32-3.3c9.43-2.94,18.39-1.58,26.91,3.18c10.96,6.12,19.5,14.89,26.87,24.88
	c7.79,10.56,13.76,22.14,18.81,34.21c3.87,9.27,7.61,18.59,11.49,27.85c2.24,5.36,1.94,10.53-0.77,15.6
	c-2.29,4.27-5.17,8.11-8.92,11.2c-5.96,4.92-11.98,9.76-17.98,14.62c-10.84,8.78-23.55,13.92-36.46,18.65
	c-15.7,5.75-31.97,9.71-47.78,15.13c-1.44,0.49-2.39,1.04-2.86,2.67c-0.87,2.97-3.05,5.12-5.29,7.15
	c-6.49,5.91-13.95,10.36-21.79,14.19c-15.06,7.34-31.2,10.37-47.73,11.79c-0.17,0.56,0.3,0.64,0.56,0.75
	c11.34,4.94,21.58,11.7,31.49,19.02c5.91,4.37,12.06,8.37,18.34,12.2c10.2,6.22,21.39,9.17,33.09,10.78
	c16.2,2.23,32.53,3.25,48.75,5.38c19.4,2.55,38.12,7.27,55.22,17.19c10.86,6.3,19.79,14.87,27.66,24.49
	c17.35,21.24,33.1,43.56,44.23,68.8c7.01,15.9,12.52,32.26,14.06,49.72c0.78,8.84,0.55,17.69,0.15,26.53
	c-0.72,15.88-1.41,31.77-3.1,47.58c-0.61,5.71-1.93,11.22-4.99,16.17c-0.66,1.07-0.59,2.01-0.22,3.16
	c1.54,4.92,0.46,9.28-3.45,12.64c-3.91,3.37-8.39,3.69-13.05,1.57c-1.59-0.72-2.97-1.76-4.22-2.97
	c-11.94-11.53-24.65-22.16-37.75-32.34c-7.39-5.74-13.44-12.59-17.51-21.09c-0.63-1.31-1.01-2.64-1.15-4.08
	c-1.55-15.34-0.64-30.71-0.59-46.08c0.06-19.75-0.64-39.44-5.26-58.79c-2.09-8.73-6.11-16.56-10.8-24.09
	c-8-12.84-17.34-24.49-30.13-32.95c-16.98-11.23-35.57-18.57-55.54-22.3c-10.83-2.02-21.51-0.43-32.07,2.23
	c-9.59,2.42-19.08,5.16-28.79,7.16c-22.61,4.64-43.25-0.19-62.62-12.09c-10.95-6.73-20.61-14.96-29.24-24.45
	c-0.47-0.52-0.77-1.3-1.62-1.41c-0.05-0.12-0.1-0.24-0.15-0.35c-0.04,0.09-0.09,0.18-0.13,0.27c0.11,0.01,0.21,0.02,0.32,0.03
	c-0.46,3.68,0.71,7.22,1.07,10.82c0.76,7.53,1.29,15.08,2.03,22.61c1.93,19.46,3.24,38.99,6.61,58.29c2.24,12.83,4,25.74,6.88,38.47
	c6.03,26.67,16,51.89,27.76,76.47c3.37,7.04,7.86,13.28,13.76,18.44c4.74,4.14,9.27,8.52,14.63,11.9c1.3,0.82,2.04,0.6,3.11-0.24
	c5.55-4.35,9.95-9.76,14.24-15.27c2.9-3.73,5.81-7.45,8.91-11.02c12.05-13.88,27.35-18.66,45.27-16.64
	c18.55,2.09,33.54,10.96,46.5,23.84c7.64,7.58,14.42,15.83,20.14,25c3.57,5.72,8.42,10.53,12.18,16.16
	c4.55,6.81,8.62,13.86,11.92,21.38c2.57,5.86,3.98,11.92,4.02,18.32c0,0.81,0.03,1.61,0.3,2.43c6.87,20.51,7.24,41.1,1.12,61.9
	c-5.46,18.56-12.48,36.44-22.23,53.16c-18.05,30.95-44.42,50.36-79.81,57.15C560.25,756.92,552.81,757.77,545.33,758.32z
	 M494.93,199.11c0.66-0.09,1.33-0.12,1.97-0.29c6.16-1.64,12.43-2.74,18.71-3.81c13.96-2.37,28.09-4.05,41.7-8.06
	c18.97-5.59,37.84-11.52,56.63-17.66c14.34-4.69,27.68-11.36,39.16-21.47c4.03-3.55,7.91-7.01,10.43-11.86
	c0.86-1.66,1.23-2.96,0.59-4.79c-2.38-6.71-4.86-13.38-7.65-19.93c-5.77-13.52-12.81-26.28-22.71-37.28
	c-4.43-4.93-9.22-9.43-15.14-12.59c-3.09-1.65-6.23-1.91-9.55-0.76c-5.11,1.78-10.02,3.99-14.7,6.71
	c-15.97,9.29-30.18,20.89-43.68,33.43c-14.41,13.39-27.54,28.03-41.5,41.86c-11.72,11.62-22.48,24.18-34.8,35.19
	c-7.04,6.28-14.21,12.42-23.65,15.35c1.12,2.07,1.91,4.24,2.21,6.56c0.05,0.39,0.23,0.68,0.59,0.89c4.24,2.53,8,5.71,11.86,8.87
	c1.4-2.54,2.8-4.84,4.46-6.97c6.43-8.23,13.41-15.96,21.12-23.02c9.88-9.06,20.96-16.22,33.68-20.66c2.13-0.74,4.28-1.42,6.55-1.53
	c4.06-0.2,7.6,2.02,8.73,5.41c1.14,3.42-0.4,7.16-3.89,9.46c-1.52,1-3.19,1.64-4.9,2.22c-14.34,4.89-25.88,13.92-36.36,24.53
	c-0.15,0.13-0.31,0.26-0.46,0.4C494.59,199.45,494.86,199.6,494.93,199.11z M317.04,494.24c0.77-0.19,1.35-0.31,1.91-0.48
	c26.85-8.17,53-5.42,78.36,5.7c13.86,6.08,24.6,15.7,29.98,30.37c1.88,5.13,3.62,10.32,4.86,15.64c0.36,1.51,0.88,1.76,2.28,1.31
	c1.56-0.49,3.21-0.73,4.82-1.06c6.54-1.34,12.96-3.12,19.36-5.01c1.96-0.58,1.91-1.13,0.77-2.58c-1.62-2.06-3.13-4.23-4.45-6.49
	c-11.01-18.93-20.95-38.41-30.01-58.34c-15.61-34.32-23.48-70.4-24.59-108.03c-0.2-6.9-0.53-13.79-1.14-20.66
	c-0.95-10.75-2.04-21.49-2.43-32.29c-0.39-10.49-0.11-20.94,1.09-31.51c-0.32,0.13-0.4,0.44-0.58,0.67
	c-13.5,17.13-27.04,34.24-39.02,52.5c-9.41,14.34-19.18,28.46-26.77,43.92c-7.18,14.6-12.96,29.66-14.91,45.95
	c-2.24,18.7-1.9,37.43-0.6,56.17C316.3,484.73,316.67,489.43,317.04,494.24z M292.7,188.97c0.04-0.2,0.08-0.39,0.12-0.59
	c-0.37-0.22-0.74-0.46-1.12-0.67c-20.53-11.5-41.01-23.1-61.06-35.42c-6.35-3.9-12.98-7.25-20.34-8.75
	c-4.76-0.97-9.61-1.51-14.41-2.32c-2.1-0.36-4.33-0.94-4.62-3.51c-0.27-2.42,1.56-3.75,3.39-4.86c1.02-0.62,2.11-1.14,3.22-1.56
	c3.67-1.4,7.49-2.09,11.4-2.28c11.56-0.55,22.22,2.66,32.4,7.84c0.85,0.43,1.63,1.24,2.99,0.93c-0.99-1.48-2.26-2.4-3.43-3.4
	c-6.18-5.26-13.39-8.76-20.64-12.2c-1.97-0.94-3.91-1.94-5.48-3.47c-2.67-2.6-2.06-5.93,1.35-7.42c1.38-0.61,2.86-0.86,4.37-0.89
	c6.15-0.15,12.07,1.03,17.84,3.06c12.43,4.35,22.41,11.98,29.86,22.81c5.47,7.94,11.53,15.34,18.72,21.79
	c1.62,1.45,3.19,3,4.33,4.86c0.79,1.28,1.84,2.12,3.13,2.78c6.89,3.48,13.84,6.85,20.62,10.52c10.95,5.93,23.18,9.71,32.14,19
	c0.57,0.59,1.29,1.03,1.9,1.59c0.83,0.76,1.75,0.94,2.87,0.91c3.29-0.1,6.59-0.03,9.89-0.1c4.46-0.09,8.91,0.32,13.89,0.66
	c-2.88-2.99-5.34-5.67-7.6-8.53c-8.68-10.97-16.16-22.73-22.95-34.93c-10.03-18.02-21.42-35.02-35.72-50.01
	c-12.43-13.02-26.16-24.22-42.28-32.39c-9.5-4.81-19.27-8.99-29.08-13.1c-3.11-1.3-4.88-1.29-7.73,1.27
	c-5.7,5.11-9.37,11.12-11.88,18.19c-5.4,15.16-13.06,29.1-23.08,41.73c-2.94,3.7-5.65,7.58-8.65,11.23
	c-1.92,2.34-2.06,4.53-0.78,7.2c3.13,6.55,6.85,12.69,12.01,17.81c13.15,13.03,28.65,21.86,46.83,25.74
	c11.01,2.35,22.23,3.36,33.37,4.9C283.21,188.03,287.97,188.45,292.7,188.97z M304.2,234.68c3.14,0.08,5.96-0.42,8.81-0.77
	c4.58-0.55,9.04-2.02,13.79-1.16c6.82,1.23,13.59,0.39,20.3-1.11c12.29-2.74,24-7.45,36.15-10.66c0.99-0.26,1.06-0.7,0.69-1.6
	c-1.29-3.14-2.18-6.41-2.37-9.79c-0.09-1.58-0.76-1.66-1.96-1.46c-8.18,1.37-16.37,2.75-24.56,4.07
	c-17.91,2.89-35.71,6.24-53.26,10.93c-13.9,3.71-27.56,8.29-41.64,11.34c-21.51,4.65-43.13,8.39-65.18,9.14
	c-15.93,0.54-31.67,2.61-47.26,5.92c-10.52,2.23-20.62,5.43-29.08,12.41c-12.99,10.73-22.4,24.29-30.49,38.87
	c-0.17,0.31-0.39,0.65-0.09,1.02c0.14-0.01,0.34,0.04,0.41-0.04c0.26-0.27,0.48-0.57,0.7-0.87c7.19-9.37,16.26-16.26,27.14-20.85
	c18.67-7.88,38.05-8.95,57.83-6.03c9.93,1.47,19.83,3.19,29.76,4.71c11.89,1.82,23.91,2.03,35.89,2.57
	c11.77,0.53,23.54,0.56,35.3-0.52c14.18-1.3,27.92-4.67,41.59-8.41c17.07-4.67,33.54-10.74,48.37-20.66
	c7.72-5.17,15.21-10.7,23.23-15.43c4.19-2.47,4.12-2.46,1.29-6.43c-0.74-1.04-1.21-0.89-2.11-0.35c-6.17,3.72-12.64,6.84-19.35,9.45
	c-11.13,4.32-22.47,7.57-34.52,8.53C321.39,248.48,312.69,242.54,304.2,234.68z M633.6,307.31c0.79,1.16,1.54,1.36,2.18,1.68
	c18.82,9.4,33.89,22.99,45.54,40.47c6.26,9.39,12.08,18.99,15.02,30.01c2.98,11.15,3.92,22.58,4.22,34.07
	c0.48,18.41-1.45,36.69-2.79,55.01c-0.61,8.29-1.21,16.63,2.27,24.6c0.5,1.14,1.05,1.88,2.07,2.43
	c17.75,9.68,34.67,20.61,50.17,33.65c0.15,0.12,0.38,0.15,0.7,0.26c0.1-0.97,0.23-1.85,0.27-2.73c0.64-11.98,1.72-23.93,2.02-35.93
	c0.48-19.31,0.03-38.55-3.35-57.61c-2.49-14.05-6.08-27.79-12.48-40.65c-6.91-13.89-15.72-26.53-25.37-38.62
	c-15.25-19.12-33.67-33.8-57.36-41.23C649.26,310.38,641.69,308.72,633.6,307.31z M550.25,293.89c-0.54-0.36-0.76-0.55-1.02-0.67
	c-11.15-5.31-21.39-12.04-31.08-19.66c-14.24-11.19-29.22-21.17-46.03-28.17c-1.56-0.65-2.43-0.77-3.75,0.67
	c-5.37,5.87-11.65,10.58-19.08,13.56c-4.61,1.85-9.41,2.47-13.92-0.04c-2.29-1.28-4.13-0.94-6.32-0.02c0.25,0.35,0.4,0.6,0.6,0.82
	c11.07,11.98,22.84,23.16,36.72,31.9c15.89,10,32.88,13.91,51.53,9.86C528.66,299.8,539.18,296.53,550.25,293.89z M130.95,290.28
	c-0.28-0.06-0.42-0.14-0.54-0.11c-1.17,0.26-2.34,0.53-3.5,0.8c-12.72,2.98-23.74,8.86-32.66,18.6
	c-4.76,5.21-9.07,10.77-13.48,16.25c-1.4,1.74-2.31,3.62-2.64,5.82c-0.26,1.78-0.61,3.55-0.98,5.3c-1.86,8.61-2.63,17.54-7.62,25.21
	c-0.61,0.93-1,2-1.57,2.97c-0.35,0.61-0.37,1.03,0.19,1.55c1.41,1.31,2.09,3.07,2.71,4.84c3.58,10.17,7.14,20.35,12.56,29.74
	c2.6,4.5,5.27,8.96,8.52,13.64c0.05-0.85,0.09-1.2,0.08-1.54c-0.15-9.92,0.5-19.79,1.73-29.63c3.41-27.33,12.07-52.93,25.38-76.98
	C122.4,300.82,126.52,295.48,130.95,290.28z M473.08,577.6c4.86,4.6,7.72,10.25,10.19,16.12c0.48,1.14,1.07,1.39,2.21,0.99
	c6.23-2.16,12.52-4.19,18.42-7.14c23.34-11.68,44.49-26.54,63.68-44.21c0.85-0.79,1.12-1.68,1.21-2.77
	c0.34-4.03,0.67-8.07,1.16-12.08c0.14-1.16-0.26-1.58-1.18-2.02c-5.02-2.36-9.83-5.1-14.5-8.09c-1.43-0.92-1.7-0.37-2.29,0.87
	c-2.31,4.94-4,10.21-7.28,14.64c-6.03,8.13-13.09,15.28-21.59,20.81C507.7,564.76,490.94,571.95,473.08,577.6z M281.57,509.52
	c4.38-1.14,8.32-2.9,12.21-4.77c0.75-0.36,0.68-1.1,0.67-1.77c-0.04-2.25,0.01-4.51-0.15-6.75c-1.34-18.94-2.35-37.87-1.66-56.88
	c0.77-21.56,6.26-41.65,17-60.4c8.8-15.38,18.72-30,29.03-44.38c18.2-25.37,38.1-49.19,62.35-69.1c0.33-0.27,0.73-0.6,0.85-0.99
	c1.41-4.32,2.6-8.71,4.72-12.77c0.45-0.86-0.26-1.43-0.84-1.88c-0.74-0.58-1.01,0.22-1.38,0.62c-1.33,1.43-2.61,2.9-3.97,4.29
	c-8.76,8.95-17.7,17.72-26.26,26.86c-10.76,11.49-21.18,23.31-31.81,34.93c-10.46,11.44-20.16,23.39-26.73,37.6
	c-3.96,8.56-7.64,17.24-11.31,25.92c-11.48,27.12-20.26,54.97-22.01,84.59c-0.6,10.17-1.92,20.31-1.33,30.55
	C281.2,499.9,282.18,504.56,281.57,509.52z M58.96,528.53c0.34,0.24,0.55,0.45,0.8,0.55c10.36,4.17,20.48,8.83,30.2,14.35
	c1.21,0.69,2.57,0.77,3.94,0.72c12.23-0.43,21.04-8.43,22.45-20.6c1.89-16.22-0.86-31.81-6.72-46.93c-1.37-3.53-3.07-6.91-5.5-10.47
	C97.82,493.53,80.59,512.56,58.96,528.53z M463.43,601.41c-0.45,0.17-0.61,0.19-0.72,0.29c-8.16,7.45-15.08,16.04-22.35,24.31
	c-0.54,0.62-0.41,1.14-0.13,1.83c3.68,9.24,7.42,18.46,10.94,27.76c2.08,5.49,5.02,10.45,8.25,15.48c3.55-4.54,7.95-5.46,13.43-3.33
	C470.31,645.39,470.11,623.04,463.43,601.41z M412.73,256.66c-0.18,0.04-0.36,0.08-0.55,0.13c-0.08,1.61-0.13,3.22-0.25,4.83
	c-0.64,8.6-1.16,17.21-1.05,25.83c0.18,15.3,1.01,30.56,2.5,45.8c1.36,13.95,2.65,27.89,5.45,41.66
	c4.03,19.83,8.15,39.64,13.2,59.23c6.03,23.36,15.77,45.19,27.96,66.01c5.67,9.68,10.59,19.79,17.36,28.8
	c0.84,1.12,1.39,3.11,2.61,3.14c1.32,0.03,1.45-2.22,2.49-3.16c1.11-1,0.68-1.64-0.26-2.49c-2.68-2.41-5.32-4.85-7.85-7.41
	c-4.6-4.65-8.59-9.77-11.3-15.77c-2.73-6.07-5.28-12.22-8.05-18.27c-10.71-23.43-18.94-47.7-24.64-72.83
	c-2.84-12.5-4.55-25.2-6.55-37.84c-1.66-10.43-3.22-20.88-4.01-31.43c-0.79-10.62-1.61-21.23-2-31.88
	c-0.43-12.07-0.3-24.13,0.37-36.18c0.13-2.23,1.21-4.84,0.39-6.61C416.77,264.33,414.63,260.54,412.73,256.66z M429.72,208.29
	c-0.24,7.95-5.04,10.39-11.73,8.05c-2.27-0.79-3.87-2.53-5.2-4.48c-2.09-3.05-3.61-6.38-4.73-9.89c-0.3-0.93-0.56-1.63-1.82-1.36
	c-1.03,0.23-1.74,0.35-1.78,1.72c-0.07,2.6-1.17,4.9-3.31,6.36c-1.51,1.04-1.41,1.91-0.7,3.29c2.58,4.97,6.04,9.28,9.78,13.39
	c4.29,4.71,8.63,9.39,12,14.84c0.94,1.52,1.76,3.02,3.95,2.42c1.7-0.47,3.88,0.09,5.07-1.42c3.47-4.44,8.32-6.76,13.16-9.16
	c3.09-1.53,6.13-3.16,8.98-5.11c0.83-0.57,1.4-1.17,0.82-2.21c-3.31-5.92-5.83-12.39-10.97-17.07c-2.97-2.7-5.57-5.62-7.77-8.96
	c-1.19-1.81-2.53-3.54-3.89-5.22c-2.14-2.64-2.17-2.6-4.53-0.07c-0.61,0.66-1.18,1.42-1.93,1.87c-1.93,1.17-1.42,2.14-0.16,3.53
	C427.5,201.62,429.65,204.69,429.72,208.29z M220.46,655.9c-0.1-0.86-0.12-1.46-0.25-2.03c-1.28-5.94-2.22-11.93-2.79-17.97
	c-1.31-13.93-0.95-27.7,3.98-41.01c0.48-1.29-0.1-1.32-1.06-1.42c-5.67-0.57-11.29-1.48-16.76-3.1c-1.45-0.43-1.79,0.08-2.1,1.27
	c-1.45,5.51-2.68,11.05-3.47,16.7c-1.42,10.12-1.83,20.29-1.51,30.5c0.04,1.32,2.51,3.59,3.43,3.03c2.36-1.46,3.65,0.03,4.94,1.52
	C209.21,648.42,214.3,652.51,220.46,655.9z M263.74,566.44c4.66,0.15,9.3-0.13,13.94-0.5c5.76-0.46,11.46-1.36,17.12-2.56
	c0.93-0.2,1.94-0.23,0.87-1.61c-2.88-3.71-4.66-8.03-6.42-12.32c-0.48-1.16-0.97-1.4-2.16-1.06c-3.1,0.88-6.26,1.47-9.46,1.94
	c-5.66,0.82-11.36,0.72-17.05,0.97c-8.47,0.38-16.76-0.51-24.83-3.11c-2.45-0.79-3.31-0.03-2.97,2.64
	c0.48,3.79,1.27,7.59,0.33,11.39c-0.38,1.54,0.01,1.87,1.49,2.06C244.27,565.54,253.99,566.24,263.74,566.44z M531.8,213.13
	c-0.86,0-1.14-0.03-1.42,0c-12.54,1.39-25.12,1.69-37.72,1.76c-3.52,0.02-7.1,0.14-10.47-0.95c-2.18-0.71-3.72-0.4-5.35,1.17
	c-1.22,1.18-3.63,1.76-3.97,3.03c-0.37,1.37,1.11,3.2,1.67,4.87c0.54,1.61,0.54,4.32,1.46,4.65c1.38,0.5,3.36-0.69,5.1-1.09
	c11.24-2.56,22.5-5.04,33.72-7.68C520.46,217.56,525.98,215.74,531.8,213.13z M552.51,735.34c1.91-0.33,3.82-0.64,5.73-0.99
	c16.13-2.95,31.13-8.62,44.36-18.53c0.55-0.41,1.87-0.67,1.29-1.67c-0.69-1.19-1.5-0.19-2.21,0.3c-2.1,1.48-4.56,2.51-6.98,1.76
	c-2.96-0.92-5.37-0.05-7.89,1.1c-1.02,0.47-2.08,0.84-3.14,1.22c-7.56,2.72-15.33,4.62-23.21,6.14c-0.91,0.18-1.88,0.12-2.21,1.45
	C557.37,729.74,555.33,732.65,552.51,735.34z M330.56,521.44c-0.14,0.05-0.29,0.08-0.42,0.15c-3.37,1.79-6.74,3.58-9.87,5.78
	c-0.73,0.51-0.31,0.97-0.09,1.53c2.46,6.34,6.34,11.84,10.23,17.34c0.44,0.62,0.77,1.01,1.55,0.34c4.08-3.54,8.05-7.18,11.5-11.35
	c0.41-0.5,0.73-0.88-0.04-1.43c-4.58-3.22-8.15-7.48-11.81-11.65C331.32,521.84,331.12,521.38,330.56,521.44z M385.92,614.9
	c1.83-21.93,6.54-42.42,25.17-56.89c-7.11,1.08-13.49,3.26-17.45,9.87c-4.05,6.76-6.46,14.13-8.65,21.63
	c-1.79,6.15-2.73,12.21-0.52,18.48C385.26,610.19,385.46,612.59,385.92,614.9z M410.39,602.25c10.49-13.46,21.19-26.71,34.42-38.18
	c-2.77-0.19-5.1-0.19-7.37-0.55c-1.52-0.24-1.49,0.33-1.56,1.5c-0.08,1.37,1.14,2.59,0.45,4.07c-1.07-0.41-1.19-1.41-1.58-2.16
	c-0.57-1.08-0.99-1.38-2.03-0.38c-3.25,3.1-6.65,6.03-9.75,9.3C415.91,583.3,412.38,592.38,410.39,602.25z M361.7,723.6
	c12.98-2.65,24.55-9.82,35.43-18.34c0.96-0.75,0.69-1.21,0-1.91c-2.37-2.41-4.45-5.07-6.45-7.78c-0.83-1.12-1.63-2.25-2.64-3.65
	c-0.47,1.94-0.82,3.46-1.2,4.97c-1.25,4.86-2.46,9.76-5.17,14.07c-3.07,4.91-7.43,7.5-13.37,6.88c-0.69-0.07-1.37-0.18-1.88,0.39
	C364.68,720.2,362.96,722.16,361.7,723.6z M559.12,616.8c-0.94,1.2-1.74,2.16-2.48,3.17c-4.63,6.29-8.47,13.08-12.49,19.75
	c-1.66,2.76-3.39,5.48-4.94,8.3c-1.11,2.02-0.63,4.11,0.96,5.25c1.46,1.05,3.74,0.97,4.89-0.57c2.63-3.54,5.48-7.05,6.92-11.23
	c2.54-7.35,4.66-14.85,6.97-22.29C559.14,618.53,559.45,617.92,559.12,616.8z M266.36,630.11c-0.03,2.27,1.01,3.85,2.59,4.18
	c1.67,0.34,3.38-0.78,3.83-3c0.88-4.39,2.24-8.68,2.72-13.15c0.18-1.67-0.42-3.09-1.44-4.35c-0.8-0.99-1.8-1.09-2.7-0.19
	c-0.63,0.62-1.36,1.34-1.57,2.14C268.51,620.56,266.77,625.28,266.36,630.11z M88.03,302.35c-0.1-0.16-0.2-0.37-0.24-0.36
	c-0.19,0.06-0.43,0.12-0.53,0.27c-0.18,0.24,0.12,0.33,0.25,0.32C87.68,302.57,87.85,302.44,88.03,302.35z M633.48,307.4
	c-0.12-0.05-0.25-0.11-0.38-0.13c-0.05-0.01-0.12,0.07-0.18,0.11c0.13,0.06,0.26,0.12,0.4,0.16
	C633.36,307.55,633.43,307.45,633.48,307.4z M358.86,278.99c-0.05-0.05-0.1-0.11-0.15-0.16c-0.05,0.05-0.1,0.1-0.16,0.15
	c0.08,0.05,0.15,0.11,0.23,0.16C358.81,279.09,358.83,279.04,358.86,278.99z M244.91,137.93c-0.09,0.05-0.19,0.11-0.29,0.16
	c0.05,0.05,0.11,0.15,0.15,0.14c0.11-0.02,0.2-0.09,0.3-0.14C245.02,138.04,244.97,137.99,244.91,137.93z"/>
<path class="st0" d="M-847.66,541.56c-0.8-10.69-1.64-21.12-2.36-31.56c-2.88-41.6-3.63-83.18,1.34-124.69
	c4.33-36.17,17.17-69.57,33.1-101.99c16.85-34.3,38.53-65.65,59.42-97.48c26.61-40.54,56.65-78.51,86.62-116.54
	c0.4-0.51,0.58-1.21,1.28-1.5c-2.66,23.47-3.29,46.67-2.43,69.95c0.89,23.97,3.3,47.81,5.4,71.67c1.35,15.27,2.07,30.56,2.52,45.87
	c2.46,83.51,19.93,163.61,54.57,239.79c20.12,44.24,42.19,87.48,66.62,129.5c2.92,5.02,6.28,9.84,9.87,14.41
	c2.54,3.22,2.64,4.45-1.71,5.74c-14.2,4.2-28.46,8.15-42.98,11.13c-3.58,0.74-7.24,1.25-10.71,2.35c-3.1,0.98-4.26,0.44-5.05-2.92
	c-2.77-11.81-6.63-23.33-10.8-34.72c-11.93-32.57-35.79-53.93-66.54-67.42c-56.3-24.69-114.33-30.78-173.93-12.64
	C-844.66,540.88-845.95,541.14-847.66,541.56z"/>
<path class="st1" d="M-453.11-114.01c23.27-23.53,48.89-43.59,80.71-54.43c3.79-1.29,7.51-2.7,10.87-4.92
	c7.74-5.11,11.16-13.4,8.63-21c-2.5-7.52-10.36-12.46-19.37-12.01c-5.03,0.25-9.81,1.75-14.53,3.39
	c-28.25,9.85-52.83,25.73-74.77,45.85c-17.09,15.67-32.59,32.83-46.87,51.1c-3.69,4.73-6.79,9.85-9.9,15.48
	c-8.55-7.01-16.91-14.08-26.32-19.68c-0.79-0.47-1.19-1.1-1.3-1.98c-0.68-5.15-2.43-9.97-4.92-14.56
	c20.94-6.51,36.87-20.14,52.49-34.07c27.37-24.42,51.25-52.32,77.25-78.1c30.98-30.71,60.14-63.21,92.11-92.93
	c29.95-27.83,61.49-53.59,96.95-74.21c10.38-6.03,21.28-10.95,32.63-14.9c7.36-2.56,14.33-1.98,21.19,1.69
	c13.14,7.01,23.78,17.01,33.62,27.94c21.97,24.42,37.6,52.72,50.4,82.74c6.2,14.54,11.71,29.35,16.99,44.25
	c1.44,4.06,0.62,6.95-1.3,10.63c-5.59,10.77-14.21,18.46-23.15,26.34c-25.48,22.45-55.09,37.25-86.93,47.66
	c-41.72,13.64-83.61,26.8-125.71,39.21c-30.2,8.9-61.56,12.61-92.55,17.88c-13.94,2.37-27.86,4.81-41.54,8.45
	c-1.42,0.38-2.91,0.44-4.38,0.65C-452.9-113.68-453.01-113.84-453.11-114.01z"/>
<path class="st1" d="M-901.67-136.04c-10.51-1.16-21.06-2.09-31.53-3.54c-24.72-3.42-49.62-5.66-74.07-10.89
	c-40.35-8.62-74.76-28.22-103.94-57.13c-11.47-11.37-19.72-25.01-26.67-39.54c-2.84-5.94-2.53-10.81,1.72-15.99
	c6.65-8.1,12.68-16.71,19.2-24.92c22.25-28.02,39.26-58.97,51.24-92.62c5.58-15.68,13.72-29.02,26.38-40.37
	c6.33-5.68,10.25-5.7,17.15-2.81c21.78,9.13,43.46,18.4,64.54,29.09c35.78,18.14,66.26,43.01,93.85,71.9
	c31.75,33.26,57.04,70.99,79.29,111c15.06,27.08,31.67,53.19,50.94,77.53c5.02,6.34,10.48,12.29,16.87,18.93
	c-11.05-0.75-20.92-1.68-30.82-1.47c-7.31,0.15-14.64,0.01-21.95,0.23c-2.47,0.07-4.54-0.33-6.37-2.02
	c-1.34-1.24-2.95-2.21-4.21-3.52c-19.9-20.62-47.05-29.01-71.35-42.17c-15.06-8.15-30.49-15.62-45.77-23.35
	c-2.88-1.46-5.21-3.33-6.96-6.16c-2.54-4.13-6.02-7.55-9.62-10.78c-15.95-14.33-29.41-30.74-41.55-48.37
	c-16.54-24.04-38.69-40.97-66.29-50.63c-12.81-4.49-25.96-7.12-39.61-6.78c-3.36,0.08-6.63,0.64-9.71,1.98
	c-7.56,3.31-8.93,10.71-2.99,16.47c3.5,3.4,7.81,5.62,12.17,7.7c16.08,7.66,32.1,15.43,45.81,27.09c2.6,2.22,5.41,4.26,7.62,7.54
	c-3.02,0.69-4.77-1.1-6.65-2.06c-22.6-11.51-46.25-18.63-71.91-17.41c-8.68,0.41-17.17,1.96-25.31,5.06
	c-2.47,0.94-4.89,2.1-7.15,3.47c-4.06,2.46-8.12,5.41-7.52,10.78c0.64,5.7,5.59,6.99,10.25,7.78c10.65,1.82,21.41,3.01,31.98,5.16
	c16.33,3.32,31.04,10.75,45.14,19.41c44.51,27.36,89.96,53.1,135.54,78.63c0.84,0.47,1.66,0.99,2.49,1.48
	C-901.5-136.91-901.59-136.48-901.67-136.04z"/>
<path class="st1" d="M-876.15-34.58C-857.31-17.14-838-3.94-810.96-6.1c26.75-2.13,51.91-9.33,76.63-18.93
	c14.89-5.78,29.25-12.72,42.94-20.97c1.99-1.2,3.04-1.54,4.68,0.77c6.28,8.81,6.44,8.8-2.86,14.28
	c-17.81,10.48-34.42,22.76-51.57,34.24c-32.92,22.04-69.48,35.5-107.36,45.87c-30.35,8.3-60.86,15.79-92.32,18.67
	c-26.1,2.39-52.23,2.32-78.36,1.15c-26.6-1.2-53.27-1.67-79.66-5.71c-22.03-3.37-44-7.2-66.05-10.45
	c-43.9-6.47-86.92-4.09-128.36,13.39c-24.14,10.18-44.28,25.48-60.24,46.28c-0.5,0.66-0.99,1.33-1.56,1.92
	c-0.16,0.17-0.6,0.06-0.92,0.08c-0.67-0.83-0.18-1.58,0.2-2.27c17.97-32.36,38.85-62.46,67.68-86.27
	c18.77-15.5,41.18-22.6,64.54-27.55c34.61-7.33,69.55-11.93,104.91-13.13c48.95-1.67,96.94-9.97,144.68-20.29
	c31.27-6.76,61.58-16.93,92.44-25.17c38.96-10.4,78.47-17.85,118.23-24.26c18.18-2.94,36.35-6,54.51-9.03
	c2.65-0.44,4.15-0.26,4.35,3.24c0.44,7.5,2.41,14.76,5.27,21.72c0.82,1.99,0.65,2.97-1.54,3.55c-26.97,7.13-52.95,17.58-80.23,23.65
	c-14.89,3.32-29.93,5.18-45.06,2.45c-10.55-1.9-20.45,1.36-30.61,2.59C-862.92-35.52-869.19-34.41-876.15-34.58z"/>
<path class="st1" d="M-144.99,126.63c17.96,3.13,34.77,6.82,51.31,12c52.57,16.48,93.45,49.07,127.31,91.51
	c21.42,26.84,40.97,54.9,56.31,85.73c14.21,28.55,22.17,59.05,27.7,90.23c7.5,42.31,8.51,85.03,7.44,127.88
	c-0.67,26.64-3.07,53.17-4.48,79.76c-0.1,1.96-0.39,3.92-0.61,6.07c-0.72-0.26-1.23-0.31-1.55-0.59
	c-34.4-28.95-71.95-53.19-111.35-74.69c-2.26-1.23-3.49-2.87-4.59-5.39c-7.72-17.7-6.38-36.21-5.03-54.6
	c2.99-40.66,7.26-81.25,6.2-122.1C3,336.93,0.91,311.56-5.7,286.8c-6.54-24.47-19.46-45.76-33.35-66.61
	c-25.87-38.81-59.32-68.97-101.09-89.83C-141.57,129.64-143.23,129.21-144.99,126.63z"/>
<path class="st1" d="M-330,96.84c-24.58,5.87-47.91,13.12-71.82,18.32c-41.4,9-79.11,0.31-114.37-21.88
	c-30.82-19.4-56.93-44.23-81.51-70.81c-0.44-0.47-0.77-1.04-1.33-1.81c4.86-2.05,8.94-2.79,14.03,0.04
	c10.01,5.59,20.66,4.19,30.9,0.1c16.51-6.61,30.45-17.07,42.36-30.1c2.93-3.21,4.86-2.93,8.32-1.49
	c37.31,15.55,70.56,37.7,102.17,62.53c21.52,16.9,44.25,31.84,69,43.63C-331.69,95.63-331.2,96.04-330,96.84z"/>
<path class="st1" d="M-1260.71,88.83c-9.82,11.53-18.97,23.39-26.24,36.53c-29.53,53.4-48.77,110.22-56.33,170.88
	c-2.72,21.84-4.19,43.75-3.84,65.76c0.01,0.77-0.08,1.53-0.18,3.43c-7.21-10.39-13.14-20.28-18.91-30.27
	c-12.04-20.85-19.94-43.44-27.89-66.01c-1.38-3.92-2.89-7.82-6.01-10.74c-1.25-1.16-1.21-2.09-0.42-3.45
	c1.25-2.15,2.12-4.52,3.47-6.59c11.09-17.01,12.8-36.84,16.92-55.95c0.84-3.9,1.6-7.83,2.19-11.77c0.73-4.9,2.75-9.05,5.87-12.92
	c9.8-12.17,19.35-24.52,29.92-36.07c19.79-21.62,44.25-34.68,72.48-41.29c2.59-0.61,5.18-1.21,7.77-1.78
	C-1261.64,88.53-1261.33,88.69-1260.71,88.83z"/>
<path class="st1" d="M-501.29,726.58c39.64-12.52,76.84-28.49,111.07-50.78c18.86-12.28,34.52-28.15,47.92-46.19
	c7.29-9.83,11.05-21.53,16.16-32.49c1.29-2.76,1.89-3.97,5.07-1.93c10.35,6.63,21.04,12.71,32.18,17.95
	c2.04,0.96,2.93,1.9,2.62,4.47c-1.08,8.91-1.82,17.87-2.57,26.81c-0.2,2.42-0.78,4.41-2.68,6.15
	c-42.59,39.23-89.54,72.21-141.34,98.14c-13.11,6.56-27.07,11.05-40.89,15.85c-2.53,0.88-3.84,0.34-4.91-2.2
	C-484.16,749.33-490.49,736.79-501.29,726.58z"/>
<path class="st1" d="M-926.38,575.48c1.36-11.01-0.83-21.37-1.43-31.8c-1.31-22.72,1.62-45.24,2.95-67.81
	c3.89-65.76,23.38-127.58,48.87-187.76c8.16-19.27,16.32-38.54,25.11-57.54c14.58-31.54,36.11-58.07,59.33-83.45
	c23.59-25.79,46.72-52.02,70.62-77.53c18.99-20.28,38.85-39.76,58.28-59.62c3.02-3.09,5.86-6.36,8.81-9.52
	c0.82-0.88,1.43-2.66,3.07-1.38c1.28,1,2.86,2.26,1.87,4.17c-4.71,9.01-7.35,18.76-10.47,28.34c-0.28,0.85-1.15,1.58-1.89,2.19
	c-53.82,44.2-97.99,97.06-138.39,153.39c-22.89,31.92-44.89,64.36-64.44,98.5c-23.84,41.64-36.01,86.23-37.73,134.08
	c-1.52,42.19,0.72,84.21,3.69,126.25c0.35,4.98,0.25,9.98,0.34,14.98c0.03,1.5,0.17,3.14-1.48,3.94
	C-907.92,569.04-916.66,572.94-926.38,575.48z"/>
<path class="st1" d="M-1420.51,617.67c48.02-35.45,86.26-77.68,100.29-138.46c5.38,7.89,9.16,15.39,12.2,23.23
	c13,33.57,19.1,68.18,14.91,104.18c-3.14,27.02-22.7,44.77-49.84,45.73c-3.03,0.11-6.06-0.08-8.74-1.6
	c-21.57-12.25-44.04-22.61-67.04-31.86C-1419.29,618.67-1419.75,618.2-1420.51,617.67z"/>
<path class="st1" d="M-522.71,779.45c14.83,48,15.26,97.61,20.93,147.27c-12.16-4.73-21.93-2.7-29.82,7.39
	c-7.17-11.18-13.71-22.19-18.32-34.37c-7.82-20.65-16.11-41.11-24.28-61.63c-0.61-1.54-0.91-2.7,0.29-4.07
	c16.13-18.36,31.5-37.42,49.61-53.96C-524.07,779.88-523.7,779.83-522.71,779.45z"/>
<path class="st1" d="M-635.25,14.22c4.23,8.61,8.96,17.01,12.95,25.65c1.81,3.92-0.59,9.71-0.87,14.67
	c-1.5,26.75-1.78,53.52-0.83,80.3c0.85,23.63,2.67,47.19,4.43,70.76c1.75,23.4,5.22,46.6,8.89,69.76c4.45,28.07,8.25,56.25,14.55,84
	c12.65,55.77,30.92,109.64,54.69,161.65c6.14,13.43,11.79,27.08,17.86,40.55c6.01,13.32,14.86,24.69,25.07,35.01
	c5.62,5.68,11.5,11.1,17.44,16.44c2.11,1.89,3.04,3.32,0.59,5.53c-2.32,2.09-2.6,7.08-5.53,7.01c-2.71-0.06-3.93-4.47-5.8-6.96
	c-15.03-20-25.96-42.45-38.54-63.93c-27.06-46.21-48.69-94.67-62.06-146.52c-11.22-43.48-20.36-87.45-29.31-131.46
	c-6.21-30.56-9.07-61.5-12.09-92.46c-3.3-33.82-5.13-67.7-5.54-101.65c-0.23-19.13,0.91-38.25,2.34-57.34
	c0.27-3.57,0.37-7.15,0.55-10.72C-636.05,14.4-635.65,14.31-635.25,14.22z"/>
<path class="st1" d="M-597.54-93.15c-0.15-8-4.92-14.81-10.56-21.03c-2.81-3.1-3.94-5.25,0.35-7.84c1.66-1,2.93-2.69,4.29-4.15
	c5.25-5.62,5.31-5.69,10.06,0.16c3.03,3.74,5.99,7.57,8.64,11.59c4.88,7.41,10.65,13.89,17.24,19.89
	c11.41,10.39,17,24.76,24.35,37.89c1.28,2.29,0.03,3.63-1.82,4.9c-6.34,4.33-13.07,7.95-19.94,11.34
	c-10.75,5.31-21.52,10.47-29.22,20.32c-2.62,3.36-7.47,2.12-11.25,3.16c-4.85,1.33-6.67-2-8.76-5.38
	c-7.48-12.1-17.09-22.49-26.63-32.94c-8.32-9.12-15.99-18.69-21.72-29.72c-1.59-3.07-1.81-4.99,1.54-7.3
	c4.73-3.25,7.18-8.36,7.34-14.13c0.08-3.04,1.67-3.32,3.95-3.82c2.8-0.62,3.38,0.95,4.04,3.01c2.48,7.8,5.86,15.18,10.5,21.96
	c2.96,4.33,6.51,8.19,11.54,9.95C-608.74-70.08-598.07-75.5-597.54-93.15z"/>
<path class="st1" d="M-1062.02,900.39c-13.67-7.52-24.98-16.61-34.62-27.8c-2.85-3.31-5.71-6.6-10.96-3.37
	c-2.03,1.25-7.51-3.79-7.6-6.73c-0.7-22.66,0.22-45.23,3.36-67.7c1.75-12.53,4.48-24.84,7.69-37.07c0.69-2.64,1.45-3.77,4.66-2.81
	c12.14,3.59,24.62,5.61,37.21,6.88c2.15,0.22,3.42,0.29,2.36,3.16c-10.94,29.55-11.75,60.11-8.84,91.03
	c1.27,13.43,3.33,26.72,6.19,39.9C-1062.29,897.15-1062.24,898.48-1062.02,900.39z"/>
<path class="st1" d="M-965.95,701.81c-21.65-0.43-43.22-1.99-64.7-4.79c-3.27-0.43-4.15-1.16-3.3-4.58
	c2.1-8.43,0.34-16.89-0.72-25.29c-0.75-5.92,1.16-7.61,6.59-5.86c17.93,5.78,36.33,7.75,55.12,6.91
	c12.63-0.56,25.28-0.34,37.84-2.15c7.09-1.02,14.11-2.34,20.99-4.3c2.64-0.75,3.73-0.22,4.79,2.36c3.92,9.53,7.88,19.1,14.26,27.35
	c2.37,3.06,0.12,3.13-1.94,3.57c-12.55,2.66-25.21,4.64-37.99,5.67C-945.31,701.53-955.62,702.15-965.95,701.81z"/>
<path class="st1" d="M-370.96-82.43c-12.92,5.79-25.17,9.84-37.72,12.79c-24.9,5.87-49.89,11.36-74.84,17.05
	c-3.86,0.88-8.24,3.53-11.32,2.41c-2.05-0.74-2.06-6.76-3.24-10.33c-1.23-3.7-4.52-7.77-3.7-10.81c0.76-2.81,6.11-4.11,8.82-6.72
	c3.61-3.48,7.03-4.17,11.87-2.6c7.48,2.44,15.43,2.16,23.24,2.12c27.96-0.16,55.9-0.82,83.73-3.91
	C-373.49-82.49-372.86-82.43-370.96-82.43z"/>
<path class="st1" d="M-324.97,1076.73c6.25-5.98,10.78-12.43,12.75-20.42c0.73-2.95,2.87-2.83,4.9-3.23
	c17.48-3.39,34.74-7.61,51.52-13.64c2.34-0.84,4.7-1.68,6.96-2.71c5.6-2.56,10.94-4.49,17.52-2.45c5.37,1.66,10.82-0.61,15.49-3.91
	c1.57-1.1,3.36-3.32,4.9-0.67c1.28,2.21-1.64,2.78-2.87,3.7c-29.35,21.99-62.65,34.57-98.46,41.12
	C-316.49,1075.3-320.73,1075.99-324.97,1076.73z"/>
<path class="st1" d="M-817.63,601.93c1.24-0.15,1.69,0.88,2.32,1.6c8.13,9.24,16.04,18.7,26.21,25.85c1.72,1.21,1.01,2.06,0.1,3.17
	c-7.65,9.27-16.48,17.34-25.53,25.2c-1.73,1.5-2.47,0.63-3.44-0.75c-8.63-12.2-17.25-24.4-22.71-38.49
	c-0.48-1.25-1.41-2.27,0.21-3.4c6.95-4.88,14.42-8.87,21.91-12.84C-818.28,602.12-817.95,602.05-817.63,601.93z"/>
<path class="st1" d="M-694.76,809.39c-1.02-5.12-1.47-10.45-3.19-15.33c-4.9-13.92-2.83-27.37,1.15-41.03
	c4.85-16.65,10.21-33.02,19.19-48.02c8.78-14.66,22.93-19.5,38.73-21.91C-680.25,715.23-690.7,760.71-694.76,809.39z"/>
<path class="st1" d="M-640.44,781.31c4.41-21.92,12.26-42.08,27.9-58.59c6.88-7.26,14.42-13.78,21.65-20.65
	c2.32-2.21,3.23-1.55,4.5,0.85c0.87,1.65,1.14,3.87,3.52,4.78c1.54-3.28-1.16-5.99-0.99-9.04c0.15-2.61,0.09-3.88,3.46-3.34
	c5.04,0.8,10.21,0.81,16.36,1.22C-593.41,722.02-617.16,751.43-640.44,781.31z"/>
<path class="st1" d="M-748.52,1050.66c2.8-3.19,6.62-7.55,10.47-11.88c1.14-1.28,2.63-1.04,4.17-0.87
	c13.21,1.38,22.86-4.37,29.69-15.27c6-9.58,8.69-20.44,11.47-31.24c0.86-3.35,1.63-6.71,2.67-11.03c2.25,3.1,4.04,5.61,5.87,8.09
	c4.45,6.02,9.07,11.92,14.32,17.27c1.52,1.55,2.13,2.56-0.01,4.23C-694.04,1028.87-719.71,1044.78-748.52,1050.66z"/>
<path class="st1" d="M-310.31,813.6c0.73,2.48,0.05,3.84-0.39,5.27c-5.12,16.5-9.82,33.14-15.46,49.47
	c-3.21,9.29-9.54,17.08-15.37,24.94c-2.54,3.43-7.61,3.59-10.85,1.27c-3.53-2.52-4.61-7.16-2.14-11.65
	c3.45-6.26,7.28-12.3,10.97-18.42c8.92-14.82,17.46-29.88,27.73-43.84C-314.17,818.4-312.4,816.26-310.31,813.6z"/>
<path class="st1" d="M-960.14,843.13c0.91-10.71,4.76-21.2,7.6-31.9c0.47-1.78,2.1-3.37,3.49-4.75c2.01-2,4.22-1.78,6,0.42
	c2.26,2.79,3.59,5.93,3.19,9.65c-1.07,9.92-4.08,19.45-6.03,29.19c-0.99,4.93-4.79,7.41-8.49,6.66
	C-957.9,851.69-960.2,848.17-960.14,843.13z"/>
<path class="st1" d="M-1355.98,115.63c-0.39,0.19-0.76,0.49-1.15,0.51c-0.3,0.02-0.95-0.17-0.55-0.71c0.23-0.32,0.76-0.47,1.18-0.6
	C-1356.43,114.82-1356.2,115.29-1355.98,115.63z"/>
<path class="st1" d="M-452.78-113.53c-0.17,1.07-0.75,0.75-1.35,0.41c0.34-0.29,0.68-0.59,1.02-0.88
	C-453.01-113.84-452.9-113.68-452.78-113.53z"/>
<path class="st1" d="M-145.25,126.84c-0.12,0.11-0.26,0.33-0.35,0.3c-0.3-0.07-0.59-0.23-0.88-0.35c0.13-0.09,0.28-0.27,0.39-0.25
	C-145.8,126.6-145.53,126.73-145.25,126.84z"/>
<path class="st0" d="M-598.65,71.19c-0.23-0.02-0.47-0.05-0.7-0.07c0.1-0.2,0.19-0.4,0.29-0.59c0.11,0.26,0.21,0.52,0.32,0.78
	C-598.75,71.31-598.65,71.19-598.65,71.19z"/>
<path class="st0" d="M-754.82,63.76c-0.06,0.12-0.12,0.23-0.18,0.35c-0.17-0.12-0.34-0.24-0.51-0.36c0.12-0.11,0.23-0.23,0.35-0.34
	C-755.05,63.53-754.94,63.64-754.82,63.76z"/>
<path class="st1" d="M-1007.76-249.33c0.13,0.13,0.24,0.24,0.36,0.36c-0.22,0.11-0.44,0.26-0.67,0.31c-0.08,0.02-0.22-0.2-0.33-0.31
	C-1008.18-249.1-1007.97-249.22-1007.76-249.33z"/>
</svg>
