<?xml version="1.0" encoding="utf-8"?>
<!-- Generator: Adobe Illustrator 24.1.1, SVG Export Plug-In . SVG Version: 6.00 Build 0)  -->
<svg version="1.1" id="Layer_1" xmlns="http://www.w3.org/2000/svg" xmlns:xlink="http://www.w3.org/1999/xlink" x="0px" y="0px"
	 viewBox="0 0 800 800" style="enable-background:new 0 0 800 800;" xml:space="preserve">
<style type="text/css">
	.st0{fill:#040404;}
	.st1{display:none;fill:#FDFDFD;}
	.st2{display:none;fill:#FBFBFB;}
</style>
<path class="st0" d="M416.28,760.27c-3.43,0-6.85,0-10.28,0c-2.62-3.2-5.64-6.27-9.53-7.37c-4.26-1.21-7.7-3.3-10.65-6.33
	c-14.09-14.42-29.75-27.01-46.53-38.04c-30.98-20.37-58.78-44.59-85.1-70.42c-33-32.38-63.65-67.02-94.21-101.7
	c-13.98-15.87-27.1-32.5-38.05-50.72c-13.72-22.84-24.64-47.11-36.31-70.99C77.91,398.91,71.84,382.45,66,365.9
	c-0.15-0.59-0.3-1.19-0.45-1.78c0.16-1.8-0.65-3.29-1.51-4.76c0.31-1.02,0.14-1.91-0.71-2.62c-0.02-1.39-0.11-2.76-1.01-3.92
	c0.27-0.71,0.08-1.3-0.47-1.8c-0.54-4.82-1.87-9.46-3.21-14.09c0.3-0.72,0-1.29-0.48-1.81c0.13-1.33,0.19-2.65-0.68-3.8
	c0.36-0.7,0.15-1.26-0.39-1.76c0.17-1.35,0.04-2.64-0.63-3.85c0.35-0.67,0.24-1.25-0.31-1.75c0.21-0.74,0.08-1.41-0.47-1.98
	c0.35-1.27,0.17-2.48-0.42-3.65c0.26-1.05,0.12-2.03-0.57-2.9c0.39-0.97,0.21-1.87-0.35-2.72c0.26-1.64,0.13-3.23-0.61-4.75
	c0.43-0.98,0.3-1.88-0.37-2.72c0.25-1.96-0.05-3.86-0.64-5.72c0.39-0.94,0.34-1.85-0.22-2.72c0.34-2.28-0.06-4.47-0.74-6.63
	c0.38-0.95,0.32-1.86-0.19-2.75c0.12-3.78,0.3-7.56-0.62-11.28c0.09-12.77,0.17-25.53,0.26-38.3c0.66-2.06,0.61-4.17,0.4-6.28
	c0.46-0.68,0.57-1.38,0.17-2.13c0.61-1.53,1.02-3.09,0.7-4.75c0.54-0.54,0.59-1.14,0.23-1.79c0.6-1.53,0.9-3.11,0.69-4.76
	c0.55-0.51,0.69-1.1,0.4-1.79c0.68-0.87,0.75-1.85,0.5-2.89c0.57-0.83,0.81-1.72,0.57-2.72c0.56-0.55,0.65-1.2,0.44-1.93
	c0.72-1.78,1.47-3.55,1.25-5.54c0.17-0.66,0.33-1.31,0.5-1.97c0.52-0.49,0.88-1.03,0.52-1.77c0.16-0.65,0.32-1.29,0.47-1.94
	c0.19-0.6,0.37-1.2,0.56-1.8c0.25-0.55,0.57-1.08,0.74-1.66c5.13-18,11.52-35.49,21-51.72c12.34-21.14,28.2-39.42,45.54-56.58
	c23.02-22.78,49.65-36.59,82.83-37.34c30.17-0.69,56.98,7.11,80.86,25.79c40.96,32.06,75.65,69.33,99.08,116.27
	c0.32,0.65,0.6,1.48,1.95,1.3c8.09-17,18.06-33.11,29.12-48.53c16.48-22.96,34.69-44.35,56.41-62.62
	c10.47-8.81,22.43-15.03,34.5-21.14c0.98,0.17,1.72-0.23,2.28-1.01c3.16-0.68,6.12-1.89,8.93-3.46c0.6-0.21,1.2-0.42,1.8-0.62
	c3.14-1.04,6.28-2.07,9.41-3.11c0.59-0.23,1.19-0.46,1.78-0.69c0.75,0.15,1.43,0.05,1.96-0.56c2.58-0.33,5.13-0.79,7.42-2.13
	c1.02,0.17,2,0.16,2.85-0.56c0.73,0.27,1.29,0.02,1.77-0.54c3.56-0.24,6.98-1.17,10.38-2.19c1.02,0.34,1.89,0.01,2.7-0.61
	c1.03,0.21,2.02,0.15,2.91-0.48c0.99,0.38,1.89,0.27,2.7-0.44c1.06,0.28,2.03,0.07,2.91-0.58c0.96,0.37,1.87,0.27,2.73-0.27
	c1.32,0.29,2.61,0.29,3.79-0.5c3.18-0.46,6.77,0.93,9.37-2.1c10.9,0,21.81,0,32.71,0c-0.19,3.1,2.34,1.73,3.53,1.9
	c20.31,2.84,38.69,10.03,54.47,23.43c23.63,20.08,40.24,44.73,51.14,73.87c14.46,38.66,22.59,78.15,20.48,119.53
	c-0.13,2.47,0.03,4.95,0.06,7.42c-0.59,0.94-0.65,1.94-0.32,2.97c-0.72,1.45-0.81,2.97-0.49,4.54c-0.86,3.42-0.63,6.89-0.54,10.35
	c-0.52,0.85-0.74,1.74-0.39,2.72c-1.02,1.8-0.91,3.73-0.62,5.67c-0.57,3.39-1.88,6.68-1.34,10.22c-0.15,0.65-0.29,1.31-0.44,1.96
	c-0.56,0.49-0.76,1.07-0.42,1.78c-0.8,1.19-0.71,2.5-0.54,3.82c-0.45,0.52-0.71,1.09-0.42,1.79c-0.82,0.82-0.82,1.82-0.6,2.86
	c-0.08,0.6-0.16,1.21-0.24,1.81c-1.41,3.31-2.17,6.79-2.5,10.36c-0.17,0.6-0.34,1.2-0.51,1.8c-0.57,0.54-0.66,1.19-0.49,1.92
	c-0.69,1.46-1.49,2.89-1.16,4.61c-0.88,1.48-1.64,2.99-1.44,4.79c-0.52,0.48-0.76,1.05-0.54,1.76c-1.02,1.11-1.05,2.51-1.14,3.89
	c-1.01,1.68-1.56,3.52-1.78,5.46c-2.04,5.34-4.25,10.62-5.52,16.22c-1.32,1.51-1.85,3.32-1.98,5.27c-0.87,1.81-1.84,3.58-2.58,5.44
	c-8.25,20.65-16.99,41.06-27.34,60.77c-12.61,23.99-27.4,46.65-41.98,69.44c-23.91,37.35-47.68,74.79-75.36,109.53
	c-21.55,27.06-43.99,53.3-70.42,75.85c-16.37,13.97-34.21,25.91-51.9,38.05c-10.41,7.15-19.67,15.74-29.87,23.14
	C422.82,756.89,418.65,757.01,416.28,760.27z M78.45,260.79c0.62,32.53,4.91,64.51,14.42,95.7c8.61,28.27,22.22,54.34,35.41,80.59
	c9.16,18.23,19.04,36.02,31.56,52.26c20.18,26.2,42.74,50.29,65.39,74.3c15.92,16.87,30.93,34.59,47.7,50.67
	c29.94,28.72,61.88,54.94,95.93,78.68c13.78,9.6,26.7,20.48,37.77,33.26c2.18,2.51,3.43,2.66,5.93,0.69
	c8.19-6.45,16.49-12.76,25.24-18.45c21.79-14.19,43.39-28.69,62.41-46.55c30.55-28.69,56.58-61.27,80.72-95.39
	c20.41-28.85,39.05-58.88,58.13-88.61c18.84-29.36,36.4-59.34,50.41-91.42c15.71-35.97,29.01-72.49,31.24-112.12
	c1.04-18.34,1.19-36.71-0.26-55.06c-1.66-20.97-7.8-40.84-14.33-60.67c-6.33-19.22-14.7-37.22-27.28-53.28
	c-17.84-22.76-39.99-36.89-69.69-37.74c-25.54-0.73-50.18,3.68-74.32,11.59c-17.77,5.82-34.16,14.21-48.2,26.7
	c-28.72,25.54-52.02,55.63-73.27,87.44c-4.83,7.24-9.19,14.83-15.09,21.31c-3.45,3.79-7.17,4.48-10.17,1.61
	c-3.69-3.53-7.47-6.98-10.14-11.5c-19.12-32.32-40.95-62.45-69.84-86.98c-12.59-10.69-25.3-21.09-39.76-29.26
	c-21.11-11.93-43.89-12.64-67.1-10.72c-11.12,0.92-21.82,3.71-31.3,9.83c-27.48,17.75-49.13,41.37-65.42,69.38
	C85.99,188.91,77.69,223.84,78.45,260.79z"/>
<path class="st1" d="M-741.92,320.02c0.72,1.29,0.86,2.68,0.68,4.12c-0.95,0.87-0.57,1.44,0.42,1.88c0.93,1.23,0.87,2.64,0.72,4.06
	c-1.16,1-0.63,1.55,0.51,1.94c1.43,4.96,2.85,9.92,3.43,15.07c-1.09,0.97-0.59,1.52,0.5,1.92c0.96,1.24,1.06,2.71,1.08,4.19
	c-0.32,1.09-0.44,2.12,0.76,2.8c0.92,1.58,1.79,3.17,1.62,5.1c-1.02,0.94-0.57,1.5,0.49,1.91c6.25,17.7,12.74,35.32,20.99,52.2
	c12.49,25.55,24.17,51.51,38.85,75.94c11.71,19.49,25.74,37.28,40.7,54.26c32.69,37.1,65.48,74.15,100.78,108.79
	c28.16,27.63,57.89,53.54,91.04,75.33c17.94,11.8,34.7,25.27,49.77,40.69c3.16,3.24,6.84,5.48,11.4,6.77
	c4.16,1.18,7.39,4.47,10.19,7.89c-125.56,0-251.13-0.02-376.69,0.1c-3.7,0-4.3-0.88-4.3-4.39c0.1-166.2,0.09-332.39,0.09-498.59
	c0.66,0,1.31-0.01,1.97-0.01c0.73,2.31,1.16,4.66,0.79,7.1c-1.05,1.06-0.98,2.03,0.24,2.91c0.63,1.99,0.95,4.02,0.68,6.12
	c-0.98,1.12-0.87,2.09,0.39,2.91c0.79,1.62,0.93,3.32,0.65,5.08c-1.05,1.12-1.03,2.1,0.38,2.9c0.73,0.93,0.89,1.97,0.61,3.1
	c-1,1.43-1.25,2.78,0.45,3.9c0.58,0.61,0.72,1.32,0.5,2.12C-743.12,318.94-742.82,319.53-741.92,320.02z"/>
<path class="st1" d="M-7.87,308.09c-0.23-1.11-0.23-2.18,0.64-3.06c1.06-0.42,1.43-1.01,0.45-1.91c-0.18-1.41-0.27-2.82,0.58-4.09
	c1.03-0.43,1.4-1.01,0.45-1.9c0.16-0.7,0.32-1.4,0.47-2.1c1.56-3.5,2.78-7.05,1.43-10.93c-0.32-2.08-0.43-4.14,0.66-6.07
	c1.42-0.79,1.4-1.78,0.42-2.91c-0.11-3.71-0.35-7.42,0.57-11.07c0.7-0.01,1.4-0.02,2.11-0.02c0,172.19-0.01,344.38,0.09,516.57
	c0,3.48-0.55,4.4-4.29,4.4c-117.57-0.13-235.14-0.11-352.71-0.11c2.53-3.48,6.99-3.61,10.27-5.99
	c10.91-7.92,20.82-17.11,31.95-24.76c18.92-12.99,38.01-25.76,55.52-40.71c28.27-24.12,52.27-52.19,75.33-81.14
	c29.61-37.17,55.04-77.22,80.61-117.17c15.61-24.38,31.43-48.62,44.91-74.29c11.07-21.08,20.42-42.92,29.25-65.01
	c0.8-1.99,1.84-3.88,2.76-5.82c2-1.4,2.02-3.53,2.11-5.64c1.36-5.99,3.73-11.64,5.91-17.35c1.92-1.53,2.19-3.59,1.9-5.84
	c0.1-1.48,0.13-2.98,1.22-4.16c1.02-0.37,1.43-0.93,0.58-1.88c-0.22-1.93,0.6-3.55,1.54-5.13c1.12-1.47,2.31-2.92,1.24-4.93
	c-0.18-0.78-0.09-1.48,0.52-2.05c1.11-0.38,1.6-0.93,0.55-1.92c0.36-3.82,1.16-7.54,2.67-11.08
	C-7.09,309.51-6.84,308.88-7.87,308.09z"/>
<path class="st1" d="M-185.07,16.34c-1.27,0.84-2.64,0.84-4.06,0.53c-1.09-1.1-2.08-1.09-2.92,0.29c-0.94,0.7-1.97,0.92-3.11,0.62
	c-1.15-1.01-2.14-0.98-2.89,0.47c-0.95,0.68-2.01,0.74-3.11,0.51c-1.24-1.01-2.24-0.95-2.89,0.65c-3.64,1.09-7.29,2.09-11.11,2.34
	c-0.99-0.99-1.52-0.46-1.89,0.58c-0.91,0.76-1.96,0.77-3.05,0.6c-3.1-0.81-5.53,0.69-7.94,2.27c-0.57,0.65-1.29,0.76-2.1,0.6
	c-1.15-1.09-1.6-0.37-1.91,0.74c-3.36,1.11-6.71,2.22-10.07,3.33c-1.12-1.17-1.6-0.47-1.93,0.67c-3.01,1.68-6.18,2.97-9.56,3.7
	c-1.03-0.14-1.98-0.08-2.44,1.08c-12.91,6.54-25.7,13.19-36.9,22.61c-23.24,19.55-42.72,42.42-60.35,66.99
	c-11.84,16.5-22.5,33.73-31.15,51.92c-1.45,0.19-1.74-0.7-2.08-1.39c-25.07-50.21-62.18-90.08-106-124.38
	c-25.54-19.99-54.22-28.32-86.5-27.59c-35.5,0.81-63.98,15.57-88.61,39.94c-18.55,18.35-35.51,37.91-48.72,60.52
	c-10.14,17.36-16.98,36.07-22.47,55.33c-0.18,0.62-0.52,1.19-0.79,1.78c-1.12,0.36-1.64,0.9-0.6,1.92
	c-0.17,0.69-0.34,1.38-0.51,2.08c-1.06,0.37-1.51,0.93-0.56,1.9c-0.18,0.7-0.36,1.4-0.53,2.11c-1.39,1.76-2.71,3.54-1.34,5.93
	c0.23,0.78,0.13,1.48-0.47,2.06c-1.61,0.68-1.62,1.69-0.61,2.91c0.27,1.11,0.19,2.16-0.54,3.09c-1.06,0.44-1.45,1.02-0.42,1.92
	c0.23,1.77-0.1,3.45-0.74,5.09c-0.95,0.53-1.14,1.15-0.24,1.91c0.33,1.78-0.1,3.45-0.75,5.08c-0.66,0-1.33,0-1.99,0
	c0-66.32,0.03-132.63-0.1-198.95c-0.01-3.42,0.67-4.1,4.1-4.09c186.62,0.11,373.24,0.09,559.86,0.09
	C-185.06,14.85-185.07,15.59-185.07,16.34z"/>
<path class="st2" d="M-1.33,256.02c-0.03-2.65-0.2-5.3-0.06-7.94c2.26-44.27-6.44-86.5-21.91-127.86
	C-34.96,89.04-52.73,62.68-78.01,41.2c-16.88-14.34-36.54-22.03-58.27-25.07c-1.28-0.18-3.99,1.28-3.78-2.03
	c45.32,0,90.64,0.05,135.96-0.1c3.42-0.01,4.1,0.67,4.1,4.1c-0.12,79.31-0.1,158.62-0.1,237.94
	C-0.51,256.03-0.92,256.02-1.33,256.02z"/>
<path class="st2" d="M-747.52,226.05c-0.09,13.66-0.18,27.31-0.27,40.97c-0.37,0-0.74,0.01-1.11,0.01c0-13.66,0-27.33,0-40.99
	C-748.44,226.04-747.98,226.05-747.52,226.05z"/>
<path class="st1" d="M-748.9,267.03c0.37,0,0.74-0.01,1.11-0.01c0.99,3.98,0.79,8.02,0.66,12.06c-0.59-0.02-1.18-0.04-1.77-0.05
	C-748.9,275.03-748.9,271.03-748.9,267.03z"/>
<path class="st2" d="M-185.07,16.34c0.01-0.75,0.02-1.5,0.03-2.24c1,0,2,0,3,0c0.67,1,1.33,0.99,2,0c1.67,0,3.33,0,5,0
	C-177.83,17.34-181.68,15.85-185.07,16.34z"/>
<path class="st2" d="M-0.1,264.03c-0.7,0.01-1.4,0.02-2.11,0.02c-0.33-1.67-0.24-3.3,0.53-4.85c0.53,0.61,1.05,1.22,1.58,1.83
	C-0.1,262.03-0.1,263.03-0.1,264.03z"/>
<path class="st1" d="M-747.52,226.05c-0.46,0-0.92,0-1.38-0.01c0-2.33,0-4.67,0-7c0.6,0.09,1.2,0.19,1.8,0.28
	C-746.87,221.59-746.82,223.84-747.52,226.05z"/>
<path class="st2" d="M-748.9,279.03c0.59,0.02,1.18,0.04,1.77,0.05c0.54,0.95,0.61,1.93,0.2,2.94c-0.66,0-1.31,0.01-1.97,0.01
	C-748.9,281.03-748.9,280.03-748.9,279.03z"/>
<path class="st1" d="M-0.1,261.03c-0.53-0.61-1.05-1.22-1.58-1.83c-0.35-1.11-0.29-2.18,0.34-3.18c0.41,0,0.82,0.01,1.24,0.01
	C-0.1,257.7-0.1,259.37-0.1,261.03z"/>
<path class="st2" d="M-747.1,219.33c-0.6-0.09-1.2-0.19-1.8-0.28c0-0.67,0-1.33,0-2c0.66,0,1.33,0,1.99,0
	C-746.49,217.85-746.61,218.6-747.1,219.33z"/>
<path class="st1" d="M-180.05,14.1c-0.67,0.99-1.33,1-2,0C-181.38,14.1-180.72,14.1-180.05,14.1z"/>
<path class="st2" d="M-718.4,250.58c-0.81-39.53,8.07-76.9,27.88-110.96c17.42-29.96,40.59-55.23,69.98-74.22
	c10.14-6.55,21.58-9.54,33.48-10.52c24.83-2.05,49.21-1.29,71.78,11.47c15.47,8.74,29.07,19.86,42.54,31.3
	c30.91,26.23,54.26,58.47,74.72,93.05c2.86,4.84,6.91,8.52,10.85,12.3c3.21,3.07,7.19,2.34,10.88-1.72
	c6.31-6.93,10.97-15.06,16.14-22.8c22.73-34.03,47.67-66.22,78.38-93.54c15.02-13.36,32.55-22.33,51.56-28.56
	c25.83-8.46,52.18-13.18,79.51-12.4c31.78,0.91,55.47,16.02,74.55,40.37c13.46,17.17,22.42,36.43,29.19,56.99
	c6.98,21.22,13.54,42.47,15.32,64.9c1.56,19.64,1.39,39.28,0.28,58.91c-2.39,42.39-16.62,81.46-33.42,119.94
	c-14.98,34.31-33.77,66.39-53.92,97.79c-20.41,31.81-40.35,63.93-62.18,94.79c-25.83,36.5-53.67,71.36-86.35,102.05
	c-20.35,19.11-43.45,34.62-66.76,49.8c-9.36,6.09-18.24,12.84-27,19.74c-2.67,2.11-4.02,1.96-6.35-0.73
	c-11.84-13.67-25.66-25.31-40.4-35.58c-36.42-25.4-70.6-53.44-102.62-84.16c-17.93-17.2-33.99-36.16-51.02-54.21
	c-24.24-25.69-48.37-51.46-69.96-79.48c-13.38-17.38-23.95-36.4-33.76-55.91c-14.11-28.08-28.67-55.97-37.88-86.22
	C-713.15,319.59-717.74,285.38-718.4,250.58z M-381.07,282.73c-0.53-0.87-1.13-1.66-1.53-2.55c-6.24-13.73-14.07-26.35-24.32-37.54
	c-23.64-25.81-51.59-39.87-87.71-35.61c-23.61,2.78-41.15,14.13-54.29,33.16c-15.23,22.04-20.21,47.2-20.87,73.35
	c-0.48,18.75,2.87,37.1,7.69,55.2c8.76,32.95,21.49,63.98,42.92,90.96c18.45,23.23,38.54,45.04,58.09,67.32
	c17.88,20.37,39.19,37.02,58.74,55.56c9.67,9.17,21.95,15.77,28.78,27.96c1.36,2.42,4.21,3.69,7.02,4.51
	c7.24,2.1,13.42-0.28,19.21-4.42c9.7-6.95,17.29-16.09,25.36-24.72c21.4-22.86,42.97-45.59,61.79-70.7
	c27.16-36.22,47.74-76.1,63.78-118.27c12.22-32.12,18.04-65.34,13.17-99.89c-4.41-31.26-19.08-55.35-47.92-69.72
	c-18.83-9.39-38.63-15.66-59.75-11.7C-331.56,223.26-360.09,247.77-381.07,282.73z M-556.81,479.2
	c0.03-23.34-24.17-33.89-42.88-27.89c-13.03,4.18-16.73,16.18-17.32,28.84c-0.96,20.58,15.34,37.38,34.88,30.99
	C-569.23,506.92-556.82,492.24-556.81,479.2z M-402.62,635.26c0.26-5.45-0.41-10.69-2.62-15.66c-5.87-13.23-20.12-17.39-32.34-9.87
	c-6.14,3.78-9.38,9.4-12.68,15.44c-6.99,12.81-4.71,31.9,5.59,42.25c7.82,7.86,18.84,9.08,27.63,2.33
	C-405.78,661.1-402.7,648.7-402.62,635.26z M-85.74,123.23c-0.27-2.66-0.26-5.37-0.86-7.94c-1.59-6.87-4.48-14.2-11.38-15.91
	c-10.01-2.49-21.11-3.79-30.44,2.14c-13.6,8.64-17.63,28.04-9.79,42.09c6.88,12.33,20.02,17.26,31.7,11.37
	C-93.62,148.47-86.67,137.77-85.74,123.23z M-628.43,338c-0.74-9.02-4.55-17.93-13.38-24.1c-6.47-4.52-15.96-4.6-21.42,0.05
	c-3.33,2.84-6.97,4.95-10.78,7c-8,4.29-13.33,10.81-13.19,20.2c0.28,19.2,16.02,31.13,34.62,26.66
	C-639.16,364.59-628.54,352.11-628.43,338z M-253.63,623.33c6.81,0.87,13.13-1.32,19.12-5.55c15-10.59,12.82-39.33,0.83-50.57
	c-11.52-10.8-25.86-7.79-31.14,7.07c-0.71,2.01-0.39,4.43-2.06,6.03c-4.85,4.65-6.34,10.69-7.48,16.99
	C-277.18,612.98-269.98,622.32-253.63,623.33z M-550.87,100.96c-0.2-11.56-4.78-20.92-14.09-27.87c-7.94-5.93-18.64-4.67-25.02,2.89
	c-1.18,1.4-2.31,2.86-3.63,4.11c-7.9,7.47-10.74,16.33-8.47,27.13c2.98,14.16,15.55,23.86,29.34,22.09
	C-560.63,127.75-550.24,114.28-550.87,100.96z M-343.11,180.9c0.13,12.36,6.42,20.17,16.63,25.05c10.83,5.18,21.03,2.83,29.68-4.67
	c8.82-7.66,11.48-17.63,7.79-28.97c-3.91-12.03-14.52-19.78-25.68-18.96c-2.15,0.16-4.04,1.23-6.35,0.97
	c-8.64-1-14.21,3.62-17.99,10.75C-341.68,170.12-342.67,175.71-343.11,180.9z M-673.81,240.37c-16.08-0.41-24.45,7.03-25.26,22.46
	c-0.71,13.48,7.84,25.82,19.86,28.69c12.59,3.01,28.03-4.52,33.25-16.35c3.09-7,2.96-14.05-1.3-20.49
	C-653.48,245.25-661.79,239.27-673.81,240.37z M-538.01,567.86c6.56-0.14,8-0.5,11.83-2.96c9.38-6.03,14.37-18.19,11.56-29.15
	c-2.7-10.53-7.38-19.39-19.93-20.44c-1.31-0.11-1.91-1.18-2.7-2.02c-2.61-2.74-5.76-3.52-9.47-2.82
	c-17.11,3.21-25.71,17.79-20.17,34.26C-562.56,557.65-547.57,569.53-538.01,567.86z M-458.55,593.27c0-1.5,0.08-3-0.01-4.49
	c-0.73-12.14-13.42-22.75-25.17-20.97c-4.11,0.62-7.58,3.09-11.44,4.41c-14.95,5.12-21.07,20.31-16.16,35.85
	c3.45,10.91,11.6,17.24,21.4,18.03C-475.68,627.23-456.96,610.02-458.55,593.27z M-422.28,175.8c-0.6-10.61-2.71-18.25-6.68-24.13
	c-6.65-9.86-18.16-11.01-26.23-2.67c-1.02,1.06-2.16,2.19-3.47,2.74c-12.11,5.03-16.88,23.47-13.24,32.76
	c4.57,11.64,20.01,20.42,32.39,17.86C-428.02,199.99-421.49,189.92-422.28,175.8z M-45.26,270.71c0.6-4.04-1.01-8.25-2.97-12.3
	c-5.46-11.27-15.8-17.9-25.33-14.89c-7.44,2.35-14.95,5.28-20.79,11.17c-7.39,7.46-8.59,16.42-5.9,25.78
	c3.77,13.14,16.4,20.48,29.88,18.26C-56.29,296.42-45.26,284.39-45.26,270.71z M-533.23,121.7c0.41,16.61,15.5,29.02,29.42,25.4
	c12.19-3.18,21.47-14.99,22.16-28.25c0.6-11.39-9.51-25.42-21.16-29.37c-10.14-3.44-17.92,0.51-20.75,10.71
	c-0.56,2.02-1.34,3.67-2.84,5.09C-531.47,110.07-532.8,116.33-533.23,121.7z M-329.92,690.09c-0.37-3.13-0.55-6.3-1.15-9.38
	c-1.95-9.96-9.24-18.59-17.04-19.39c-21.4-2.19-34.55,11.08-32.96,31.42c1.37,17.51,19.24,29.59,34.5,23.96
	C-336.32,712.93-330.2,703.02-329.92,690.09z M-123.88,390.4c-8.5,0-13.29,2.41-17.86,9.6c-2.21,3.47-3.88,7.29-5.74,10.98
	c-6.6,13.02-0.39,29.35,13.21,34.8c15.62,6.26,34.4-5.73,36.06-23.04C-96.61,406.06-109.04,390.41-123.88,390.4z M-269.88,651.3
	c-0.06-9.82-3.91-18.04-10.72-24.93c-6.52-6.6-15.89-6.8-23.49-1.41c-3.64,2.58-4.22,7.12-7.1,9.54
	c-8.23,6.91-10.04,15.74-9.1,25.58c1.24,12.85,12.86,22.7,24.46,21.07C-281.73,679.18-269.88,665.53-269.88,651.3z M-223.34,544.06
	c0.12,14.78,11.6,24.11,25.11,21.32c11.99-2.48,20.99-12.08,23.32-24.89c1.91-10.5-4.19-23.7-13.67-29.6
	c-14-8.71-28.71-0.81-29.34,15.82c-0.06,1.47-0.63,2.53-1.41,3.6C-222.49,534.71-222.63,539.92-223.34,544.06z M-609.89,134.55
	c-0.06-15.18-11.4-26.02-26.06-25.05c-1.64,0.11-3.03,1.48-4.76,0.7c-6.87-3.1-10.96,1.08-14.78,5.75
	c-2.77,3.39-4.48,7.29-5.58,11.56c-2.96,11.54,0.56,21.11,9.06,28.82c7.39,6.7,16.16,7.59,25.09,3.47
	C-616.26,154.89-609.97,146.72-609.89,134.55z M-661.79,416.76c-0.27,4.17,1.42,9.54,4,14.61c7.29,14.32,22.9,18.83,36.2,10.59
	c12.48-7.73,14.47-23.03,4.96-36.06c-5.64-7.73-14.38-10.42-22.44-13.79c-5.43-2.27-11.11,0.07-15.4,4.48
	C-659.47,401.74-661.67,408-661.79,416.76z M-81.3,214.7c11.05,0.33,19.7-4.24,27.2-11.22c3.18-2.95,5.24-6.72,6.24-11.1
	c3.59-15.64-16.64-32.33-32.29-28.46c-11.91,2.95-19.35,10.83-21.7,22.23C-105.34,203.13-96.86,215.32-81.3,214.7z M-640.34,192.69
	c0.61-6.96-1.65-13.39-6.41-18.93c-6.06-7.05-17.46-9.26-23.78-3.92c-4.82,4.07-9.02,8.79-14.05,12.79
	c-6.65,5.28-7.4,17.88-3.14,26.93c3.84,8.14,12.48,13.14,21.5,12.41C-653.23,220.91-639.1,208.95-640.34,192.69z M-190.12,116.72
	c15.36,0.01,26.54-11.1,26.54-26.32c0-7.61-3.44-13.56-8.3-19.18c-5.94-6.88-13.53-5.87-21.12-5.41
	c-14.04,0.85-24.01,10.48-24.2,25.28C-217.37,104.74-203.37,118.17-190.12,116.72z M-101,370.66c7.41,0.01,14.53-3.17,20.92-7.84
	c7.86-5.74,10.95-14.06,8.66-21.69c-2.7-9-10.17-15-19.57-16.02c-3.07-0.33-6.37-0.12-8.97-2.41c-3.1-2.73-6.35-2.13-9.72-0.46
	c-5.6,2.78-7.25,9.47-12.56,12.53c-0.28,0.16-0.4,1.01-0.26,1.42c1.63,4.76-0.23,9.49-0.09,14.24
	C-122.27,362.25-113.33,371.03-101,370.66z M-169.24,501.16c2.28-0.4,5.06,0.15,7.87-0.89c15.7-5.84,24.33-20.81,20.15-36.98
	c-3.37-13.02-15.19-22.69-29.23-15.3c-9.54,5.02-16.85,13.72-20.22,24.32C-195.6,487.85-184.88,502.16-169.24,501.16z
	 M-237.91,120.45c0.06-8.57-2.11-15-6.69-20.66c-5.15-6.35-16.89-7.47-21.19,0.68c-0.73,1.37-1.77,2.42-3.05,3.21
	c-10.87,6.66-13.84,17.07-12.73,28.78c0.8,8.34,4.78,15.26,13.35,18.21c8.18,2.82,14.52-0.95,20.15-6.35
	C-240.93,137.47-238.63,128.61-237.91,120.45z"/>
<path class="st2" d="M-3.85,284.1c1.35,3.88,0.12,7.43-1.43,10.93C-5.87,291.25-4.46,287.73-3.85,284.1z"/>
<path class="st2" d="M-228.04,25.2c2.41-1.58,4.85-3.08,7.94-2.27C-222.56,24.36-225.28,24.85-228.04,25.2z"/>
<path class="st2" d="M-743.14,194.97c-1.37-2.39-0.05-4.17,1.34-5.93C-741.57,191.17-742.37,193.07-743.14,194.97z"/>
<path class="st2" d="M-24.28,364.37c-0.09,2.11-0.11,4.25-2.11,5.64C-26.25,367.92-25.69,365.99-24.28,364.37z"/>
<path class="st2" d="M-16.46,341.18c0.28,2.24,0.01,4.31-1.9,5.84C-18.13,344.94-17.55,342.98-16.46,341.18z"/>
<path class="st2" d="M-11.88,325.08c1.07,2.02-0.13,3.47-1.24,4.93C-13.48,328.18-12.62,326.64-11.88,325.08z"/>
<path class="st2" d="M-742.75,316.03c-1.69-1.12-1.44-2.47-0.45-3.9C-742.57,313.37-742.38,314.67-742.75,316.03z"/>
<path class="st2" d="M-192.05,17.16c0.85-1.38,1.83-1.39,2.92-0.29C-190.06,17.45-191.03,17.56-192.05,17.16z"/>
<path class="st2" d="M-744.22,199.95c-1.01-1.22-1-2.23,0.61-2.91C-743.35,198.1-743.61,199.06-744.22,199.95z"/>
<path class="st2" d="M-743.81,309.03c-1.41-0.8-1.43-1.78-0.38-2.9C-743.58,307.03-743.4,307.99-743.81,309.03z"/>
<path class="st2" d="M-744.83,301.05c-1.26-0.82-1.37-1.79-0.39-2.91C-744.51,299.03-744.38,300-744.83,301.05z"/>
<path class="st2" d="M-745.91,292.02c-1.22-0.88-1.29-1.85-0.24-2.91C-745.55,290.04-745.5,291.01-745.91,292.02z"/>
<path class="st2" d="M-2.78,275.13c0.98,1.13,1.01,2.12-0.42,2.91C-3.57,276.99-3.33,276.04-2.78,275.13z"/>
<path class="st2" d="M-204.06,19.41c0.65-1.6,1.65-1.66,2.89-0.65C-202.03,19.42-202.96,19.78-204.06,19.41z"/>
<path class="st2" d="M-198.06,18.25c0.75-1.45,1.74-1.48,2.89-0.47C-196.03,18.54-197,18.66-198.06,18.25z"/>
<path class="st2" d="M-741.92,320.02c-0.89-0.49-1.2-1.08-0.33-1.87C-741.66,318.68-741.54,319.31-741.92,320.02z"/>
<path class="st2" d="M-740.83,326.02c-0.98-0.44-1.37-1.01-0.42-1.88C-740.67,324.67-740.44,325.28-740.83,326.02z"/>
<path class="st2" d="M-739.59,332.03c-1.14-0.39-1.68-0.94-0.51-1.94C-739.58,330.64-739.27,331.25-739.59,332.03z"/>
<path class="st2" d="M-741.27,186.94c-0.94-0.97-0.5-1.52,0.56-1.9C-740.33,185.84-740.71,186.42-741.27,186.94z"/>
<path class="st2" d="M-740.2,182.96c-1.05-1.03-0.52-1.57,0.6-1.92C-739.8,181.68-740,182.32-740.2,182.96z"/>
<path class="st2" d="M-14.66,335.14c0.85,0.95,0.44,1.51-0.58,1.88C-15.48,336.26-15.21,335.66-14.66,335.14z"/>
<path class="st2" d="M-10.81,321.1c1.05,0.99,0.56,1.55-0.55,1.92C-11.17,322.39-10.99,321.75-10.81,321.1z"/>
<path class="st2" d="M-735.66,349.02c-1.09-0.4-1.59-0.95-0.5-1.92C-735.58,347.63-735.37,348.26-735.66,349.02z"/>
<path class="st2" d="M-217.05,22.33c0.37-1.04,0.9-1.56,1.89-0.58C-215.67,22.36-216.28,22.62-217.05,22.33z"/>
<path class="st2" d="M-731.72,363.02c-1.05-0.41-1.51-0.97-0.49-1.91C-732.04,361.75-731.88,362.38-731.72,363.02z"/>
<path class="st2" d="M-5.76,297.13c0.95,0.89,0.58,1.47-0.45,1.9C-6.57,298.28-6.36,297.66-5.76,297.13z"/>
<path class="st2" d="M-244.05,30.53c0.32-1.14,0.8-1.83,1.93-0.67C-242.76,30.09-243.4,30.31-244.05,30.53z"/>
<path class="st2" d="M-745.18,204.96c-1.03-0.9-0.64-1.48,0.42-1.92C-744.45,203.78-744.59,204.42-745.18,204.96z"/>
<path class="st2" d="M-746.16,211.96c-0.9-0.76-0.71-1.38,0.24-1.91C-745.53,210.75-745.59,211.39-746.16,211.96z"/>
<path class="st2" d="M-256.04,35.31c0.46-1.16,1.4-1.22,2.44-1.08C-254.21,35.07-254.99,35.49-256.04,35.31z"/>
<path class="st2" d="M-232.05,26.54c0.3-1.11,0.75-1.83,1.91-0.74C-230.78,26.04-231.41,26.29-232.05,26.54z"/>
<path class="st2" d="M-6.78,303.12c0.98,0.9,0.61,1.49-0.45,1.91C-7.55,304.28-7.27,303.68-6.78,303.12z"/>
<path class="st2" d="M-7.87,308.09c1.03,0.8,0.79,1.42-0.26,1.94C-8.05,309.38-7.96,308.73-7.87,308.09z"/>
<path class="st2" d="M-733.82,356.01c-1.2-0.68-1.08-1.71-0.76-2.8C-733.67,353.97-733.49,354.92-733.82,356.01z"/>
<path class="st0" d="M393.79,290.84c19.61-32.68,46.28-55.59,84.27-62.73c19.74-3.71,38.25,2.16,55.85,10.93
	c26.95,13.44,40.67,35.95,44.79,65.18c4.56,32.3-0.88,63.35-12.31,93.38c-15,39.42-34.24,76.7-59.62,110.56
	c-17.59,23.46-37.76,44.71-57.76,66.09c-7.55,8.06-14.64,16.6-23.71,23.1c-5.41,3.87-11.19,6.1-17.96,4.14
	c-2.62-0.76-5.29-1.95-6.56-4.21c-6.38-11.39-17.86-17.56-26.9-26.13c-18.27-17.33-38.2-32.89-54.91-51.94
	c-18.28-20.83-37.06-41.21-54.31-62.93c-20.03-25.22-31.92-54.23-40.12-85.03c-4.5-16.92-7.63-34.07-7.19-51.6
	c0.63-24.45,5.27-47.96,19.51-68.57c12.29-17.78,28.68-28.39,50.75-31c33.77-3.98,59.89,9.16,81.99,33.29
	c9.58,10.46,16.9,22.26,22.74,35.09C392.73,289.29,393.29,290.03,393.79,290.84z M242.01,321.73c0,2.96,0.06,5.92-0.02,8.88
	c-0.08,2.99,0.59,5.87,1.08,8.78c5.59,32.79,16.38,63.74,36.25,90.54c22.27,30.02,48.05,57.2,73.08,84.93
	c16.18,17.93,35.91,32.21,52.77,49.49c4.56,4.67,4.95,4.71,9.7-0.06c10.77-10.81,21.4-21.76,31.91-32.81
	c18.24-19.18,36.57-38.31,51.6-60.23c17.42-25.41,30.91-52.92,42.1-81.51c10.26-26.22,16.16-53.29,11.94-81.7
	c-2-13.46-5.89-26.09-16.71-35.48c-5.84-5.07-12.51-8.67-19.6-11.55c-13.23-5.38-26.8-8.42-40.98-4.35
	c-14.23,4.08-26.61,11.6-38.39,20.54c-15.1,11.47-24.1,28.83-39.61,39.87c-2.93,2.08-4.97,2.71-7.8,0.72
	c-3.27-2.3-5.31-5.66-7.39-8.92c-7.36-11.52-13.97-23.56-23.46-33.6c-17.17-18.19-36.74-30.92-63.2-29.7
	c-18.19,0.84-31.78,8.59-40.96,24.22C244.9,285.84,241.79,303.4,242.01,321.73z"/>
<path class="st0" d="M229.5,474.51c-0.01,12.19-11.61,25.91-23.67,29.85c-18.27,5.97-33.5-9.73-32.61-28.97
	c0.55-11.83,4.01-23.05,16.19-26.96C206.9,442.83,229.53,452.69,229.5,474.51z M200.93,486.03c4.43-0.22,8.2-2.89,11.35-6.46
	c3.74-4.24,3.15-8.3-1.72-11.29c-3.3-2.02-7.01-3.38-10.27-5.46c-2.23-1.42-3.38-0.77-4.52,1.08c-2.77,4.52-4.29,9.43-3.11,14.67
	C193.53,482.49,195.43,485.96,200.93,486.03z"/>
<path class="st0" d="M373.64,620.39c-0.07,12.57-2.95,24.15-13.49,32.24c-8.22,6.31-18.51,5.17-25.82-2.18
	c-9.62-9.67-11.76-27.52-5.22-39.5c3.08-5.64,6.11-10.9,11.85-14.43c11.43-7.03,24.74-3.14,30.24,9.22
	C373.25,610.4,373.88,615.3,373.64,620.39z M343.94,619.9c0.15,5.23,0.59,9.07,2.96,12.38c2.66,3.71,4.96,3.84,7.53,0
	c2.8-4.19,4.39-8.89,4.3-14.05c-0.09-5.26-3.92-9.04-10.19-9.16c-4.64-0.09-2.61,4.33-3.71,6.65
	C344.03,617.44,343.9,619.32,343.94,619.9z"/>
<path class="st0" d="M669.86,141.75c-0.87,13.59-7.37,23.59-19.42,29.67c-10.92,5.51-23.2,0.9-29.63-10.62
	c-7.33-13.13-3.57-31.27,9.15-39.35c8.73-5.54,19.1-4.33,28.46-2c6.45,1.61,9.15,8.45,10.64,14.88
	C669.61,136.73,669.6,139.26,669.86,141.75z M636.79,145.31c-0.09,5.81,3.2,9.08,7.24,6.97c3.94-2.07,6.98-5.16,8.46-9.52
	c1.06-3.11-0.73-5.33-2.42-7.57c-1.61-2.14-3.53-1.75-5.75-0.98C639.97,135.7,636.87,140.1,636.79,145.31z"/>
<path class="st0" d="M162.55,342.51c-0.1,13.19-10.03,24.86-22.58,27.87c-17.39,4.18-32.1-6.97-32.36-24.92
	c-0.13-8.78,4.85-14.87,12.33-18.89c3.56-1.91,6.96-3.89,10.08-6.54c5.1-4.35,13.97-4.28,20.02-0.05
	C158.3,325.75,161.86,334.09,162.55,342.51z M134.24,353.05c-0.4,0-0.25,0-0.09,0c6.17-0.23,12.37-4.78,12.44-9.14
	c0.08-5.13-3.27-7.76-11.04-8.68c-1.08-0.13-2.15-0.33-3.23-0.46c-1.74-0.21-3.55-0.24-4.78,1.19c-2.61,3.02-4.8,6.45-3.05,10.54
	C126.14,350.36,128.88,353.32,134.24,353.05z"/>
<path class="st0" d="M512.91,609.24c-15.29-0.94-22.01-9.67-19.37-24.33c1.06-5.89,2.45-11.54,6.99-15.89
	c1.56-1.49,1.26-3.76,1.92-5.63c4.94-13.89,18.34-16.7,29.11-6.61c11.2,10.5,13.25,37.37-0.78,47.27
	C525.19,608,519.28,610.06,512.91,609.24z M509.94,568.17c2.09,3.36,1.78,6.37,0.67,9.61c-1.05,3.04-1.76,6.22-1.59,9.56
	c0.16,3.28,1.52,4.44,4.74,3.77c6.77-1.4,10.57-5.95,9.79-11.94C522.46,570.85,518.83,567.74,509.94,568.17z"/>
<path class="st0" d="M235.05,120.93c0.59,12.46-9.12,25.05-20.44,26.51c-12.89,1.66-24.64-7.41-27.43-20.65
	c-2.13-10.09,0.53-18.37,7.92-25.36c1.24-1.17,2.29-2.54,3.39-3.85c5.96-7.07,15.97-8.24,23.39-2.7
	C230.59,101.37,234.87,110.12,235.05,120.93z M207.21,109.6c-5.03-0.68-4.13,3.6-4.28,6.23c-0.42,7.12,2.86,11.25,8.15,11.1
	c3.34-0.09,6.86-3.7,6.84-7.02C217.88,114.77,212.61,109.58,207.21,109.6z"/>
<path class="st0" d="M429.27,195.66c0.41-4.85,1.33-10.08,3.83-14.81c3.53-6.66,8.74-10.98,16.81-10.05
	c2.15,0.25,3.92-0.76,5.93-0.9c10.43-0.77,20.35,6.48,24,17.72c3.45,10.6,0.96,19.93-7.29,27.08c-8.09,7.02-17.62,9.21-27.75,4.37
	C435.27,214.51,429.39,207.21,429.27,195.66z M455.03,203.41c4.39,0.23,7.61-1.63,8.98-5.79c1.17-3.57-1.5-7.19-6.08-9.14
	c-2.26-0.96-4.47-2.06-6.64-3.21c-1.37-0.73-2.51-1.01-3.7,0.32c-1.99,2.23-3.33,10.21-1.84,12.92
	C447.72,202.11,450.97,203.62,455.03,203.41z"/>
<path class="st0" d="M120.13,251.25c11.23-1.02,19,4.57,24.82,13.39c3.98,6.02,4.1,12.61,1.21,19.15
	c-4.88,11.05-19.31,18.09-31.08,15.28c-11.24-2.68-19.23-14.22-18.57-26.82C97.28,257.82,105.1,250.87,120.13,251.25z
	 M117.54,270.16c-3.98-0.14-4.72,0.95-3.19,4.67c2.53,6.12,7.63,7.12,13.51,2.78c2.42-1.79,2.54-3.27-0.1-4.84
	C124.61,270.89,121.1,270.43,117.54,270.16z"/>
<path class="st0" d="M247.08,557.38c-8.93,1.57-22.95-9.55-27.01-21.62c-5.18-15.4,2.86-29.03,18.85-32.03
	c3.48-0.65,6.42,0.08,8.86,2.64c0.75,0.78,1.3,1.79,2.53,1.89c11.73,0.98,16.11,9.26,18.64,19.11c2.62,10.24-2.04,21.61-10.81,27.25
	C254.55,556.92,253.21,557.26,247.08,557.38z M247.04,538.85c3.07,0.13,4.74-0.93,5.81-2.78c2.19-3.79,1.07-7.29-1.54-10.27
	c-2.23-2.55-4.97-4.65-7.35-7.09c-1.67-1.71-2.9-1.29-4.16,0.37c-1.99,2.61-5.07,4.68-3.11,8.86
	C239.07,533.04,242.43,536.96,247.04,538.85z"/>
<path class="st0" d="M321.36,581.14c1.48,15.66-16.02,31.75-29.35,30.68c-9.15-0.73-16.78-6.66-20-16.85
	c-4.59-14.52,1.13-28.72,15.11-33.51c3.61-1.24,6.85-3.54,10.69-4.12c10.98-1.66,22.85,8.26,23.53,19.6
	C321.43,578.34,321.36,579.74,321.36,581.14z M287.24,582.69c0.31,1.54,0.5,3.91,1.3,6.05c0.79,2.13,1.89,4.2,4.77,4.49
	c6.29,0.63,14.03-7.01,13.41-13.28c-0.25-2.48-1.68-4-3.7-4.98c-1.66-0.8-3.47-1.28-5.24-1.85c-5.91-1.92-8.79-0.19-10.07,6.04
	C287.54,580.06,287.47,580.99,287.24,582.69z"/>
<path class="st0" d="M355.26,190.89c0.74,13.2-5.37,22.61-16.11,24.83c-11.57,2.39-26.01-5.82-30.28-16.7
	c-3.4-8.68,1.06-25.92,12.38-30.62c1.23-0.51,2.29-1.57,3.25-2.56c7.55-7.8,18.3-6.72,24.52,2.49
	C352.73,173.83,354.7,180.97,355.26,190.89z M338.08,191.21c0.13-7.63-2.71-12.94-6.98-13.14c-3.37-0.16-7.28,5.24-7.45,10.27
	c-0.15,4.57,3.86,7.55,10.08,7.86C337.67,196.4,337.81,193.78,338.08,191.21z"/>
<path class="st0" d="M707.7,279.61c-0.01,12.79-10.31,24.03-23.47,26.19c-12.6,2.07-24.41-4.79-27.93-17.07
	c-2.51-8.75-1.4-17.12,5.51-24.1c5.46-5.51,12.47-8.25,19.43-10.44c8.91-2.81,18.58,3.38,23.68,13.92
	C706.76,271.9,708.26,275.83,707.7,279.61z M684.56,269.57c-5.56-0.03-11.87,5.45-11.91,10.35c-0.03,3.93,4.4,8.11,8.71,8.22
	c5.37,0.13,12.44-4.75,12.48-8.63C693.88,274.67,689.13,269.59,684.56,269.57z"/>
<path class="st0" d="M251.54,140.31c0.41-5.02,1.65-10.87,6.38-15.34c1.41-1.33,2.14-2.88,2.66-4.76
	c2.64-9.54,9.92-13.23,19.4-10.02c10.89,3.69,20.34,16.81,19.78,27.45c-0.65,12.39-9.32,23.43-20.72,26.4
	C266.03,167.44,251.93,155.84,251.54,140.31z M267.99,139.15c-0.07,4.44,2.33,7.02,6.63,7.13c4.45,0.11,8.35-4.09,8.5-9.16
	c0.12-4.04-4.47-8.53-8.77-8.57C271.82,128.52,268.06,134.78,267.99,139.15z"/>
<path class="st0" d="M441.6,671.65c-0.26,12.08-5.98,21.35-15.57,24.88c-14.27,5.26-30.97-6.04-32.25-22.4
	c-1.49-19.01,10.8-31.41,30.81-29.37c7.29,0.74,14.11,8.81,15.93,18.13C441.09,665.77,441.25,668.73,441.6,671.65z M425.75,670.28
	c0.07-1.97-0.08-5.02-2.12-6.66c-4.19-3.38-8,1.59-12.19,1.3c-1.47-0.1-2.74,0.69-3.01,2.36c-0.65,3.97,0.39,7.4,3.46,10.09
	c3.1,2.73,6.87,3.37,10.44,1.77C425.51,677.69,425.73,674.21,425.75,670.28z"/>
<path class="st0" d="M634.2,391.5c13.88,0,25.5,14.64,24,30.22c-1.56,16.18-19.11,27.39-33.71,21.54
	c-12.72-5.09-18.52-20.35-12.35-32.53c1.74-3.45,3.3-7.02,5.37-10.26C621.78,393.75,626.26,391.5,634.2,391.5z M634.63,407.38
	c-1.05,0.05-2.78-0.12-2.57,1.19c0.55,3.46-2.31,4.37-3.97,6.22c-2.64,2.93-2.36,6.96,0.6,9.44c2.98,2.5,7.85,2.5,11.65-0.33
	c2.51-1.86,4.67-4.08,3.45-7.81C642.18,411.18,638.29,407.36,634.63,407.38z"/>
<path class="st0" d="M497.73,635.38c0,13.31-11.08,26.06-24.25,27.9c-10.85,1.52-21.71-7.69-22.87-19.7
	c-0.88-9.19,0.81-17.45,8.5-23.91c2.69-2.26,3.24-6.51,6.64-8.92c7.1-5.03,15.86-4.85,21.96,1.32
	C494.07,618.52,497.67,626.21,497.73,635.38z M465.4,637.76c0.04,5.55,2.26,8.02,6.6,7.29c6.81-1.15,10.79-7.69,8.83-14.24
	c-0.79-2.64-1.95-5.3-4.25-6.44c-2.41-1.18-3.04,2.28-4.82,3.29C467.98,629.8,465.51,633.14,465.4,637.76z"/>
<path class="st0" d="M541.23,535.14c0.66-3.87,0.79-8.74,3.76-12.85c0.72-1,1.26-1.99,1.31-3.36c0.59-15.54,14.34-22.93,27.42-14.79
	c8.86,5.51,14.56,17.85,12.78,27.67c-2.18,11.97-10.59,20.95-21.8,23.26C552.07,557.68,541.35,548.96,541.23,535.14z M557.1,531.47
	c0.22,2.06-0.23,4.8,2.85,5.39c3.24,0.63,9.23-4.46,9.78-8.02c0.56-3.63-2.99-8.89-6.47-9.74c-1.3-0.32-2.16,0.02-2.57,1.22
	C559.45,523.97,557.45,527.35,557.1,531.47z"/>
<path class="st0" d="M179.89,152.33c-0.08,11.37-5.95,19.01-15.92,23.6c-8.35,3.85-16.55,3.02-23.46-3.24
	c-7.95-7.21-11.24-16.15-8.47-26.94c1.02-4,2.62-7.64,5.22-10.81c3.57-4.36,7.39-8.27,13.82-5.37c1.62,0.73,2.92-0.55,4.45-0.66
	C169.22,128.01,179.83,138.14,179.89,152.33z M154.18,146.47c-3.23-0.01-6.96-0.47-7.46,4.03c-0.52,4.63,3.64,9.07,7.92,9.04
	c4.16-0.03,8.6-4.05,8.47-7.66C162.98,148.54,159.64,146.52,154.18,146.47z"/>
<path class="st0" d="M131.37,416.14c0.11-8.19,2.17-14.04,6.84-18.85c4.01-4.13,9.32-6.32,14.39-4.19
	c7.54,3.15,15.71,5.67,20.98,12.89c8.89,12.18,7.02,26.49-4.64,33.71c-12.43,7.7-27.02,3.48-33.84-9.9
	C132.7,425.06,131.11,420.03,131.37,416.14z M159.16,424.24c1.14-0.62,3.1-0.39,4.1-2.08c1.12-1.89-0.25-3.24-1.15-4.63
	c-2.14-3.31-5.75-4.54-9-6.3c-1.52-0.82-1.89,0.12-2.3,1.21C148.93,417.41,153.63,424.39,159.16,424.24z"/>
<path class="st0" d="M674.01,227.25c-14.54,0.59-22.47-10.81-19.21-26.68c2.19-10.66,9.15-18.03,20.29-20.78
	c14.63-3.62,33.54,11.98,30.19,26.6c-0.94,4.1-2.86,7.62-5.83,10.38C692.42,223.29,684.34,227.55,674.01,227.25z M671.39,204.5
	c-0.31,3.33,0.78,5.59,3.96,5.24c5.06-0.56,9.99-1.82,14.18-5.06c1.71-1.33,2.03-2.5,0.36-4.11c-3.54-3.4-8.35-3.72-12.65-5.24
	c-1.1-0.39-1.94,0.73-2.63,1.58C672.73,199.23,671.29,201.75,671.39,204.5z"/>
<path class="st0" d="M151.42,206.68c1.16,15.19-12.05,26.38-24.2,27.36c-8.43,0.68-16.51-3.99-20.1-11.6
	c-3.99-8.46-3.28-20.23,2.93-25.17c4.7-3.74,8.63-8.15,13.14-11.95c5.91-4.99,16.57-2.93,22.23,3.67
	C149.87,194.16,151.99,200.17,151.42,206.68z M127.65,200.73c-5.68,0.1-7.71,1.67-7.33,6.4c0.25,3.15,0.54,6.8,5.28,6.7
	c4.13-0.08,9.18-4.25,9.26-7.74C134.96,202.38,132.62,200.64,127.65,200.73z"/>
<path class="st0" d="M572.29,135.66c-12.39,1.35-25.48-11.2-25.31-23.97c0.18-13.83,9.5-22.83,22.63-23.63
	c7.09-0.43,14.19-1.37,19.74,5.06c4.54,5.26,7.75,10.82,7.76,17.93C597.1,125.28,586.64,135.67,572.29,135.66z M582.28,110.5
	c0.02-4.57-6.15-10.42-10.8-10.23c-3.62,0.15-9.04,5.97-8.93,9.58c0.12,3.79,5.94,8.46,10.38,8.33
	C578,118.03,582.26,114.53,582.28,110.5z"/>
<path class="st0" d="M655.59,373.04c-11.52,0.35-19.88-7.86-20.19-18.91c-0.13-4.44,1.61-8.86,0.09-13.31
	c-0.13-0.38-0.02-1.17,0.25-1.32c4.96-2.86,6.51-9.12,11.74-11.71c3.15-1.57,6.19-2.13,9.09,0.43c2.43,2.14,5.52,1.94,8.39,2.25
	c8.79,0.95,15.78,6.56,18.3,14.97c2.14,7.13-0.75,14.92-8.09,20.28C669.17,370.08,662.52,373.06,655.59,373.04z M658.28,345.23
	c-2.94-0.33-5.47-0.48-5.45,3.91c0.02,4.15,1.72,5.7,5.61,5.29c3.1-0.32,6.03-1.26,8.87-2.54c1.05-0.47,2.02-1.03,2.15-2.2
	c0.17-1.49-1.1-2.38-2.14-2.74C664.42,345.94,661.51,344.73,658.28,345.23z"/>
<path class="st0" d="M591.8,495.03c-14.62,0.93-24.64-12.44-20.03-26.98c3.14-9.91,9.99-18.04,18.9-22.73
	c13.12-6.91,24.17,2.13,27.32,14.3c3.91,15.12-4.16,29.12-18.83,34.57C596.53,495.18,593.93,494.66,591.8,495.03z M594.38,457.79
	c-4.63-0.19-8.03,5.1-8.37,13.01c-0.22,5.13,2.18,8.32,6.45,8.59c7.11,0.45,14.24-5.23,14.55-11.57
	C607.29,461.99,602.42,458.12,594.38,457.79z"/>
<path class="st0" d="M527.61,139.15c-0.67,7.62-2.82,15.91-9.5,22.32c-5.27,5.05-11.19,8.57-18.84,5.94
	c-8-2.76-11.73-9.23-12.48-17.02c-1.05-10.94,1.73-20.68,11.9-26.91c1.2-0.74,2.17-1.71,2.85-3c4.02-7.62,15-6.57,19.81-0.64
	C525.63,125.13,527.66,131.14,527.61,139.15z M515.7,136.9c-0.21-0.97-0.26-2.77-0.99-4.24c-0.71-1.43-1.78-2.7-4.07-1.73
	c-6.42,2.72-11.17,10.4-10.27,17.13c0.72,5.42,4.34,7.01,8.8,3.75C513.95,148.32,515.49,143.26,515.7,136.9z"/>
<path class="st1" d="M-543.43,315.77c-0.24-19.61,3.09-38.4,13.17-55.56c9.82-16.72,24.36-25.01,43.82-25.91
	c28.31-1.31,49.24,12.32,67.61,31.77c10.14,10.74,17.22,23.62,25.09,35.94c2.23,3.49,4.41,7.07,7.91,9.54
	c3.03,2.13,5.21,1.46,8.34-0.77c16.59-11.81,26.23-30.38,42.37-42.65c12.59-9.57,25.84-17.61,41.06-21.98
	c15.17-4.35,29.69-1.1,43.84,4.66c7.58,3.09,14.72,6.93,20.97,12.36c11.57,10.05,15.74,23.56,17.88,37.96
	c4.51,30.39-1.8,59.35-12.77,87.4c-11.97,30.59-26.4,60.02-45.04,87.2c-16.08,23.45-35.68,43.92-55.2,64.43
	c-11.25,11.82-22.62,23.54-34.14,35.1c-5.08,5.1-5.5,5.06-10.37,0.06c-18.04-18.49-39.14-33.76-56.45-52.95
	c-26.77-29.67-54.35-58.73-78.17-90.85c-21.26-28.67-32.8-61.78-38.78-96.86c-0.53-3.12-1.24-6.2-1.16-9.4
	C-543.36,322.1-543.43,318.93-543.43,315.77z"/>
<path class="st2" d="M-587.38,491.53c-5.88-0.08-7.91-3.78-8.86-7.98c-1.26-5.61,0.37-10.86,3.33-15.7
	c1.21-1.98,2.45-2.67,4.83-1.15c3.49,2.22,7.46,3.68,10.99,5.84c5.21,3.19,5.85,7.54,1.84,12.07
	C-578.61,488.43-582.64,491.29-587.38,491.53z"/>
<path class="st2" d="M-434.39,634.74c-0.05-0.63,0.09-2.63,0.96-4.48c1.17-2.48-1-7.21,3.96-7.11c6.7,0.13,10.8,4.17,10.9,9.8
	c0.1,5.52-1.61,10.55-4.6,15.03c-2.74,4.11-5.21,3.98-8.05,0C-433.75,644.43-434.23,640.33-434.39,634.74z"/>
<path class="st2" d="M-121.12,127.05c0.09-5.58,3.41-10.28,8.05-11.88c2.37-0.82,4.43-1.24,6.15,1.05c1.8,2.4,3.72,4.77,2.59,8.1
	c-1.58,4.66-4.83,7.98-9.05,10.19C-117.69,136.76-121.21,133.26-121.12,127.05z"/>
<path class="st2" d="M-658.72,349.27c-5.74,0.29-8.67-2.88-10.43-7.01c-1.87-4.38,0.48-8.04,3.26-11.28
	c1.32-1.53,3.25-1.5,5.12-1.27c1.15,0.14,2.3,0.36,3.45,0.49c8.31,0.99,11.9,3.81,11.81,9.29c-0.08,4.66-6.7,9.53-13.31,9.77
	C-658.98,349.28-659.15,349.27-658.72,349.27z"/>
<path class="st2" d="M-256.81,579.39c9.51-0.46,13.39,2.87,14.55,11.77c0.84,6.41-3.22,11.28-10.47,12.78
	c-3.45,0.71-4.9-0.53-5.07-4.04c-0.17-3.57,0.59-6.97,1.71-10.23C-254.9,586.21-254.58,582.99-256.81,579.39z"/>
<path class="st2" d="M-580.66,88.84c5.78-0.02,11.41,5.53,11.45,11.03c0.02,3.55-3.73,7.41-7.31,7.51
	c-5.65,0.15-9.16-4.27-8.72-11.88C-585.08,92.69-586.04,88.1-580.66,88.84z"/>
<path class="st2" d="M-315.54,189.2c-4.35,0.22-7.83-1.4-9.94-5.24c-1.6-2.9-0.17-11.43,1.97-13.82c1.27-1.43,2.49-1.13,3.96-0.34
	c2.32,1.23,4.69,2.4,7.11,3.43c4.9,2.09,7.76,5.96,6.51,9.78C-307.4,187.45-310.85,189.44-315.54,189.2z"/>
<path class="st2" d="M-676.58,260.59c3.81,0.3,7.56,0.79,10.93,2.79c2.82,1.68,2.7,3.27,0.11,5.18c-6.3,4.65-11.75,3.57-14.45-2.97
	C-681.63,261.61-680.84,260.45-676.58,260.59z"/>
<path class="st2" d="M-538.05,548.03c-4.92-2.01-8.52-6.21-11.08-11.67c-2.09-4.47,1.2-6.68,3.33-9.48c1.35-1.77,2.67-2.22,4.45-0.4
	c2.55,2.6,5.48,4.85,7.87,7.58c2.79,3.19,3.99,6.94,1.65,10.99C-532.99,547.03-534.77,548.16-538.05,548.03z"/>
<path class="st2" d="M-495.04,594.93c0.24-1.82,0.32-2.82,0.52-3.79c1.36-6.66,4.45-8.51,10.77-6.46c1.89,0.61,3.83,1.12,5.6,1.98
	c2.16,1.05,3.69,2.68,3.95,5.33c0.67,6.71-7.62,14.88-14.35,14.21c-3.08-0.31-4.25-2.53-5.1-4.8
	C-494.5,599.11-494.71,596.58-495.04,594.93z"/>
<path class="st2" d="M-440.66,176.14c-0.28,2.75-0.43,5.55-4.65,5.34c-6.66-0.33-10.95-3.52-10.78-8.41
	c0.18-5.39,4.37-11.17,7.97-10.99C-443.57,162.3-440.52,167.98-440.66,176.14z"/>
<path class="st2" d="M-70.02,259.96c4.9,0.02,9.97,5.46,9.92,10.63c-0.04,4.15-7.6,9.38-13.35,9.23c-4.61-0.12-9.36-4.59-9.32-8.8
	C-82.72,265.79-75.97,259.93-70.02,259.96z"/>
<path class="st2" d="M-515.63,120.45c0.07-4.67,4.1-11.37,6.81-11.35c4.59,0.05,9.5,4.85,9.38,9.17c-0.16,5.43-4.33,9.92-9.09,9.8
	C-513.14,127.96-515.71,125.2-515.63,120.45z"/>
<path class="st2" d="M-346.87,688.63c-0.02,4.21-0.25,7.93-3.67,9.46c-3.82,1.72-7.84,1.03-11.16-1.89
	c-3.28-2.88-4.39-6.55-3.7-10.79c0.29-1.78,1.64-2.63,3.22-2.52c4.49,0.31,8.57-5,13.04-1.39
	C-346.96,683.26-346.8,686.52-346.87,688.63z"/>
<path class="st2" d="M-123.42,407.39c3.91-0.02,8.07,4.07,9.79,9.31c1.31,4-1,6.37-3.69,8.36c-4.07,3.03-9.28,3.02-12.47,0.35
	c-3.17-2.66-3.46-6.97-0.64-10.1c1.77-1.97,4.84-2.95,4.25-6.65C-126.39,407.26-124.54,407.44-123.42,407.39z"/>
<path class="st2" d="M-304.46,653.84c0.12-4.94,2.76-8.51,6.79-10.81c1.91-1.09,2.59-4.79,5.16-3.52c2.47,1.21,3.7,4.06,4.55,6.89
	c2.1,7.01-2.16,14-9.45,15.24C-302.03,662.42-304.42,659.78-304.46,653.84z"/>
<path class="st2" d="M-206.36,540.14c0.38-4.41,2.51-8.03,3.84-11.92c0.44-1.28,1.36-1.64,2.75-1.31c3.73,0.91,7.52,6.53,6.92,10.42
	c-0.59,3.81-7,9.24-10.46,8.57C-206.61,545.27-206.13,542.34-206.36,540.14z"/>
<path class="st2" d="M-637.38,128.29c5.84,0.05,9.41,2.21,9.54,5.79c0.14,3.87-4.61,8.17-9.06,8.2c-4.57,0.03-9.02-4.72-8.47-9.67
	C-644.83,127.78-640.84,128.28-637.38,128.29z"/>
<path class="st2" d="M-632.06,425.43c-5.92,0.16-10.95-7.3-8.93-12.63c0.44-1.17,0.84-2.17,2.46-1.3c3.48,1.88,7.34,3.2,9.63,6.74
	c0.96,1.49,2.43,2.94,1.23,4.96C-628.74,425.01-630.83,424.76-632.06,425.43z"/>
<path class="st2" d="M-84.1,190.35c-0.11-2.94,1.43-5.63,3.45-8.12c0.74-0.91,1.63-2.11,2.81-1.69c4.6,1.63,9.74,1.97,13.53,5.61
	c1.79,1.72,1.45,2.98-0.38,4.4c-4.48,3.47-9.76,4.82-15.17,5.42C-83.26,196.33-84.42,193.92-84.1,190.35z"/>
<path class="st2" d="M-665.77,186.32c5.32-0.09,7.82,1.76,7.72,5.74c-0.09,3.73-5.49,8.19-9.91,8.28c-5.07,0.1-5.38-3.8-5.65-7.17
	C-674.01,188.11-671.84,186.42-665.77,186.32z"/>
<path class="st2" d="M-179.43,89.8c-0.02,4.31-4.58,8.05-10,8.21c-4.75,0.14-10.98-4.86-11.1-8.91c-0.12-3.87,5.68-10.09,9.55-10.25
	C-186.01,78.65-179.41,84.91-179.43,89.8z"/>
<path class="st2" d="M-98.12,340.9c3.45-0.53,6.57,0.77,9.67,1.84c1.11,0.38,2.47,1.34,2.29,2.93c-0.14,1.26-1.18,1.85-2.31,2.36
	c-3.04,1.37-6.17,2.37-9.49,2.71c-4.16,0.43-5.99-1.23-6.01-5.66C-103.98,340.39-101.27,340.55-98.12,340.9z"/>
<path class="st2" d="M-166.48,461.32c8.59,0.35,13.8,4.49,13.5,10.73c-0.33,6.79-7.96,12.86-15.56,12.38
	c-4.57-0.29-7.14-3.7-6.9-9.19C-175.07,466.78-171.43,461.11-166.48,461.32z"/>
<path class="st2" d="M-250.65,118.04c-0.23,6.8-1.88,12.22-6.99,15.95c-4.77,3.49-8.65,1.78-9.42-4.01
	c-0.96-7.2,4.13-15.41,10.99-18.32c2.45-1.04,3.59,0.32,4.36,1.85C-250.93,115.08-250.87,117.01-250.65,118.04z"/>
</svg>
