<?xml version="1.0" encoding="utf-8"?>
<!-- Generator: Adobe Illustrator 24.1.1, SVG Export Plug-In . SVG Version: 6.00 Build 0)  -->
<svg version="1.1" id="Layer_1" xmlns="http://www.w3.org/2000/svg" xmlns:xlink="http://www.w3.org/1999/xlink" x="0px" y="0px"
	 viewBox="0 0 800 800" style="enable-background:new 0 0 800 800;" xml:space="preserve">
<style type="text/css">
	.st0{display:none;fill:#FEFEFE;}
	.st1{fill:#030303;}
	.st2{display:none;fill:#FDFDFD;}
</style>
<path class="st0" d="M-675.92,1438.4c-246.59,0-493.18-0.01-739.77,0.09c-3.65,0-4.65-0.66-4.65-4.53
	c0.11-689.22,0.11-1378.43-0.01-2067.65c0-4.15,0.95-4.81,4.91-4.81c445.73,0.11,891.45,0.11,1337.18,0c3.94,0,4.92,0.63,4.92,4.8
	c-0.12,689.05-0.12,1378.1,0,2067.15c0,4.35-1.05,5.06-5.16,5.05c-198.47-0.12-396.94-0.1-595.41-0.1c3.57-3.51,2.58-6.38-1.08-9.11
	c-2.86-2.13-4.17-5.6-6.49-8.18c-2.82-3.13-1.79-4.15,1.72-5.72c19.78-8.83,36.32-21.49,46.77-41.04
	c5.16-9.65,4.99-19.01-0.81-28.42c-4.81-7.79-9.36-15.75-13.75-23.78c-10.94-20.01-22.23-39.85-29.48-61.64
	c-5.81-17.45-6.26-35.66-8.21-53.69c-6.16-57.06-8.34-114.27-6.34-171.62c2.65-75.9,5.67-151.78,8.43-227.67
	c2.2-60.41,4.22-120.83,5.67-181.26c1.64-68.09,3.32-136.18,2.59-204.3c-0.01-1.39-0.54-2.89,0.41-4.26c1.42,0.44,1.5,1.74,1.9,2.73
	c3.09,7.55,5.96,15.18,9.19,22.67c18.84,43.62,41.38,85.06,72.9,121c33.92,38.69,77.11,60.06,128,63.95
	c45.72,3.49,103.42-19.17,124.95-79.29c16.93-47.27,15.65-95.43,5.71-143.85c-0.25-1.22-1.28-2.38-0.14-3.93
	c0.82,0.54,1.68,1,2.42,1.61c10.7,8.81,22.38,16.13,34.36,23.05c30.97,17.91,63.45,19.53,96.88,8.84
	c23.17-7.41,42.05-21.96,59.9-37.94c18.1-16.21,34.81-33.81,45.21-56c25-53.33,23.49-106.7-3.8-158.59
	c-21.72-41.3-55.41-72.07-92.92-98.83c-24.11-17.21-50.87-29.57-77.84-41.52c-42.38-18.78-85.52-35.32-130.76-45.94
	c-7-1.64-14.02-3.22-21-4.82c0.33-1.61,1.24-1.75,1.94-2.09c22.1-10.88,44.3-21.57,66.29-32.66
	c42.24-21.31,81.87-46.61,117.05-78.45c35.3-31.96,64.68-68.41,83.85-112.45c14-32.16,21.69-65.42,16.99-100.68
	c-4.65-34.92-19.02-64.65-49.41-84.2c-34.41-22.15-72.62-28.93-112.92-24.25c-28.99,3.37-55.89,13.43-81.39,27.36
	c-6.17,3.37-13.11,3.79-19.73,6.08c4.12-8.28,6.51-16.7,7.57-25.55c2.3-19.35,0.59-38.54-1.62-57.78
	c-4.18-36.41-21.9-64.99-50.65-86.77c-39.18-29.68-83.91-44.77-132.8-45.84c-46.91-1.02-88.28,14.71-122.92,46.68
	c-20.46,18.88-37.12,41-50.89,65.11c-30.94,54.21-52.14,112.19-65.67,173.05c-0.29,1.3-0.1,2.85-1.79,3.97
	c-0.44-1.55-0.81-2.8-1.15-4.07c-14.79-55.29-32.27-109.58-60.07-159.96c-13.18-23.88-28.51-46.21-48.63-64.88
	c-28.68-26.6-62.43-44.67-98.93-57.81c-30.97-11.15-62.81-15.07-95.33-8.3c-67.75,14.1-139.87,74.57-141.74,173.84
	c-0.55,29.25,7.26,56.65,20.55,82.55c1.55,3.02,1.71,4.45-2.05,5.6c-4.59,1.4-9.04,3.39-13.37,5.49
	c-35.52,17.27-66.03,41.05-91.79,70.97c-33.89,39.35-58.07,83.41-66.78,135.27c-6.08,36.18-2.09,70.39,18.11,101.72
	c16.13,25.01,38.59,43.45,63.28,59.34c34.04,21.9,71.16,36.56,110.06,47.38c36.9,10.26,73.8,20.05,112.27,22.14
	c0.35,0.02,0.67,0.55,2.11,1.82c-1.28,0.69-2.52,1.03-3.31,1.83c-16.8,16.92-32.28,34.99-46.44,54.18
	c-4.55,6.16-9.1,12.31-14.29,17.97c-19.04,20.77-36.72,42.66-53.27,65.43c-20.92,28.78-35.78,60.72-47.89,94.03
	c-8.22,22.6-15.67,45.37-16.5,69.69c-0.73,21.25,2.4,41.91,10.93,61.47c10.16,23.27,28.6,38.61,50.41,50.05
	c62.28,32.68,122.32,27.81,180.02-11.69c0.92-0.63,1.7-2.05,2.91-1.56c1.55,0.63,0.86,2.35,0.94,3.56c0.95,14.99,3,29.83,6.13,44.51
	c6.82,31.94,17.46,62.33,38.84,87.71c24.64,29.24,55.58,45.13,94.67,41.74c29.89-2.59,57.01-13.05,81.28-30.57
	c43.18-31.17,73.69-72.17,93.17-121.57c0.58-1.47,0.46-3.6,3.11-4.34c-0.54,6.51-1.07,12.63-1.56,18.75
	c-3.26,41.01-7.06,81.96-11.63,122.84c-6.01,53.8-14.16,107.3-22.17,160.82c-10.23,68.35-19.49,136.83-27.42,205.5
	c-8.99,77.79-11.76,155.73-6.74,233.91c2.2,34.27,8.03,67.78,21.87,99.52c6.17,14.14,13.7,27.33,24.51,38.56
	c7.85,8.16,15.66,16.35,24.13,23.88c1.01,0.9,3.32,1.41,1.18,3.74c-4.15,4.51-3.95,5.5,2.1,7.2
	C-705.65,1415.78-690.63,1426.8-675.92,1438.4z"/>
<path class="st1" d="M418.4,763.49c-5.07-4-10.24-7.79-16.6-9.58c-2.08-0.58-2.15-0.92-0.72-2.48c0.74-0.8-0.06-0.98-0.41-1.29
	c-2.92-2.59-5.61-5.42-8.32-8.23c-3.72-3.87-6.32-8.42-8.44-13.29c-4.77-10.94-6.78-22.48-7.54-34.29
	c-1.73-26.94-0.77-53.79,2.32-80.6c2.73-23.66,5.92-47.26,9.45-70.81c2.76-18.44,5.57-36.88,7.64-55.41
	c1.57-14.09,2.88-28.2,4.01-42.33c0.17-2.11,0.35-4.22,0.54-6.46c-0.91,0.26-0.87,0.99-1.07,1.5c-6.71,17.02-17.23,31.15-32.1,41.89
	c-8.36,6.04-17.71,9.64-28.01,10.53c-13.47,1.17-24.13-4.31-32.62-14.38c-7.37-8.74-11.03-19.22-13.38-30.22
	c-1.08-5.06-1.79-10.17-2.11-15.34c-0.03-0.42,0.21-1.01-0.32-1.23c-0.42-0.17-0.68,0.32-1,0.54
	c-19.88,13.61-40.57,15.29-62.03,4.03c-7.52-3.94-13.87-9.23-17.37-17.25c-2.94-6.74-4.02-13.86-3.77-21.18
	c0.29-8.38,2.85-16.23,5.68-24.01c4.17-11.48,9.29-22.48,16.5-32.4c5.7-7.85,11.8-15.39,18.35-22.55c1.79-1.95,3.36-4.07,4.93-6.19
	c4.88-6.61,10.21-12.84,16-18.67c0.27-0.27,0.7-0.39,1.14-0.63c-0.5-0.44-0.61-0.62-0.73-0.63c-13.26-0.72-25.97-4.09-38.69-7.63
	c-13.4-3.73-26.2-8.78-37.92-16.33c-8.51-5.47-16.25-11.83-21.8-20.45c-6.96-10.8-8.34-22.58-6.24-35.05
	c3-17.87,11.33-33.05,23.01-46.61c8.88-10.31,19.39-18.5,31.63-24.45c1.49-0.73,3.03-1.41,4.61-1.89c1.29-0.4,1.24-0.89,0.71-1.93
	c-4.58-8.92-7.27-18.37-7.08-28.44c0.64-34.2,25.49-55.04,48.84-59.9c11.2-2.33,22.18-0.98,32.85,2.86
	c12.58,4.53,24.21,10.75,34.09,19.92c6.94,6.43,12.22,14.13,16.76,22.35c9.58,17.36,15.6,36.07,20.7,55.12
	c0.12,0.44,0.24,0.87,0.4,1.4c0.58-0.38,0.52-0.92,0.62-1.37c4.66-20.97,11.97-40.95,22.63-59.63c4.74-8.31,10.48-15.93,17.53-22.44
	c11.94-11.01,26.19-16.44,42.35-16.08c16.85,0.37,32.26,5.57,45.76,15.79c9.91,7.51,16.01,17.35,17.45,29.9
	c0.76,6.63,1.35,13.24,0.56,19.91c-0.36,3.05-1.19,5.95-2.61,8.8c2.28-0.79,4.67-0.93,6.8-2.09c8.79-4.8,18.05-8.27,28.04-9.43
	c13.89-1.61,27.05,0.72,38.91,8.36c10.47,6.74,15.42,16.98,17.02,29.01c1.62,12.15-1.03,23.61-5.85,34.69
	c-6.61,15.18-16.73,27.73-28.89,38.75c-12.12,10.97-25.78,19.69-40.33,27.03c-7.58,3.82-15.23,7.51-22.84,11.25
	c-0.24,0.12-0.56,0.17-0.67,0.72c2.41,0.55,4.82,1.1,7.24,1.66c15.59,3.66,30.45,9.36,45.05,15.83c9.29,4.12,18.51,8.38,26.82,14.31
	c12.92,9.22,24.53,19.82,32.02,34.05c9.4,17.88,9.93,36.27,1.31,54.65c-3.58,7.64-9.34,13.71-15.58,19.3
	c-6.15,5.51-12.66,10.52-20.64,13.07c-11.52,3.68-22.71,3.12-33.38-3.05c-4.13-2.39-8.15-4.91-11.84-7.94
	c-0.25-0.21-0.55-0.37-0.83-0.55c-0.39,0.53-0.04,0.94,0.05,1.35c3.42,16.68,3.87,33.28-1.97,49.57
	c-7.42,20.72-27.3,28.52-43.05,27.32c-17.53-1.34-32.42-8.7-44.11-22.03c-10.86-12.39-18.63-26.66-25.12-41.69
	c-1.11-2.58-2.1-5.21-3.17-7.81c-0.14-0.34-0.17-0.79-0.65-0.94c-0.33,0.47-0.15,0.99-0.14,1.47c0.25,23.47-0.33,46.93-0.89,70.39
	c-0.5,20.82-1.2,41.64-1.95,62.46c-0.95,26.15-1.99,52.3-2.9,78.45c-0.69,19.76,0.06,39.47,2.18,59.13
	c0.67,6.21,0.83,12.49,2.83,18.5c2.5,7.51,6.39,14.34,10.16,21.24c1.51,2.77,3.08,5.51,4.74,8.19c2,3.24,2.06,6.47,0.28,9.79
	c-3.6,6.74-9.3,11.1-16.12,14.14c-1.21,0.54-1.56,0.89-0.59,1.97c0.8,0.89,1.25,2.08,2.24,2.82c1.26,0.94,1.6,1.93,0.37,3.14
	C418.86,763.49,418.63,763.49,418.4,763.49z M502.41,113.13c0.06-4.57-0.4-8.34-0.67-12.11c-0.74-10.12-5.81-17.65-14.02-23.12
	c-11.02-7.35-23.21-11.3-36.49-11.02c-12.14,0.26-22.66,4.75-31.27,13.47c-4.49,4.56-8.42,9.57-11.76,15.01
	c-9.31,15.18-15.65,31.63-20.6,48.66c-3.84,13.21-5.85,26.77-7.78,40.36c-0.7,4.93-0.91,9.95-2.35,14.77
	c-0.57,1.9-1.72,3.28-3.79,3.53c-2.06,0.25-3.5-0.86-4.58-2.49c-1.13-1.71-1.79-3.63-1.95-5.64c-0.24-3.12-1.16-5.99-2.25-8.92
	c-4.25-11.4-7.44-23.15-11.27-34.69c-4.76-14.38-9.68-28.71-16.57-42.25c-3.94-7.74-8.27-15.26-14.39-21.52
	c-9.2-9.41-20.51-15.35-32.9-19.33c-13.58-4.35-26.28-2.53-37.9,5.9c-14.66,10.62-20.63,25.16-19.07,42.94
	c0.58,6.66,3.3,12.74,5.95,18.79c1.16,2.64,1.91,5.3,0.64,8.14c-0.11,0.25-0.12,0.56-0.11,0.84c0.13,3.93-0.39,4.64-4.21,5.45
	c-2.55,0.54-4.94,1.46-7.22,2.7c-11.96,6.51-22.56,14.68-31.15,25.35c-8.99,11.16-15.69,23.35-18.44,37.6
	c-2.66,13.8,0.76,25.35,11.4,34.77c7.78,6.89,16.59,12.03,26.02,16.21c12.61,5.59,25.76,9.28,39.49,10.78
	c10.76,1.17,21.53,1.3,32.25-0.44c6.78-1.1,13.6-2.04,19.73-5.58c2.02-1.17,4.29-1.92,6.69-2.06c3.33-0.2,5.92,1.62,6.28,4.57
	c0.15,1.26,0.43,2.47,0.71,3.69c1.24,5.52-2.5,10.77-8.12,11.4c-1.31,0.15-2.65,0.09-3.94,0.32c-3.11,0.56-6.29,0.55-9.04,2.75
	c-13.29,10.61-26.14,21.69-37.88,34c-6.21,6.51-12.29,13.19-16.92,21c-3.31,5.57-6.62,11.14-9.74,16.82
	c-3.26,5.92-6.67,11.78-9.02,18.15c-2.57,6.94-4.45,14.03-3.61,21.53c0.55,4.88,1.24,9.85,4.95,13.46
	c8.67,8.45,19.32,11.94,31.24,11.27c8.08-0.46,15.25-3.95,22.09-8.09c2.4-1.45,4.99-2.2,7.8-2.41c2.78-0.21,5.61-0.12,8.34-0.92
	c0.8-0.23,1.63,0.34,1.52,0.96c-0.22,1.21,0.56,1.43,1.25,1.88c1.14,0.74,1.91,1.79,2.46,3.03c0.73,1.64,1.12,3.37,1.47,5.12
	c1.41,6.97,2.63,13.99,4.7,20.81c2.28,7.53,5.26,14.71,10.62,20.64c5.85,6.48,12.96,9.36,21.77,7.65c6.73-1.31,12.8-3.99,18.22-8.11
	c11.86-9.02,20.24-20.67,25.55-34.54c1.37-3.58,2.82-7.16,2.77-11.12c-0.07-4.68,0.65-9.25,1.72-13.8
	c2.87-12.23,5.54-24.51,7.48-36.93c1.49-9.52,2.9-19.05,4.42-28.57c0.5-3.11,1.17-6.19,2.89-8.94c1.61-2.58,4.1-2.71,6.67-2.51
	c2.27,0.17,3.51,1.74,4.32,3.71c0.95,2.29,1.48,4.71,1.96,7.12c4.12,20.74,9.3,41.18,17.08,60.89c5.85,14.84,13.1,28.91,22.62,41.79
	c8.26,11.17,18.98,18.36,32.63,20.94c14.08,2.67,26.4-4.96,30.48-18.6c2.67-8.91,2.48-18.02,1.92-27.15
	c-0.27-4.31-0.96-8.55-2.59-12.59c-0.7-1.76-1.52-3.47-2.16-5.25c-1.55-4.34-0.04-8.53,3.79-10.68c3.73-2.1,8.3-1.15,11.12,2.33
	c0.48,0.6,1.03,1.04,1.74,1.34c4.93,2.08,10.02,3.61,15.3,4.52c6.12,1.05,12.32,1.25,18.48,1.87c6.51,0.66,12.49-1.03,17.95-4.68
	c5.08-3.4,9.75-7.27,13.82-11.83c2.72-3.05,5.16-6.35,6.61-10.21c5.31-14.18,4.25-27.89-3.81-40.75
	c-7.8-12.45-18.69-21.8-31.12-29.41c-8-4.89-16.65-8.49-25.24-12.18c-4.73-2.03-9.35-4.32-14.47-5.37
	c-7.82-1.59-15.77-2.23-23.62-3.49c-13.91-2.23-27.87-3.52-41.93-3.96c-2.57-0.08-5.16-0.1-7.7-0.64c-1.47-0.32-2.48-1.3-3.16-2.47
	c-0.58-0.99,0.83-1.47,1.09-2.32c0.14-0.43,0.43-0.81,0.69-1.18c0.31-0.43,0.24-0.76-0.02-1.23c-1.25-2.23-0.99-3.88,0.79-5.73
	c1.27-1.32,2.87-2.19,4.57-2.64c3.63-0.95,6.96-2.64,10.48-3.86c16.66-5.78,32.7-13.03,48.51-20.8c16.68-8.2,32.18-18.11,45.25-31.5
	c9.28-9.51,16.73-20.22,21.17-32.86c2.79-7.94,4-16.03,2.23-24.37c-1.78-8.36-6.36-14.47-14.38-17.84
	c-3.78-1.59-7.68-2.68-11.7-3.39c-9.81-1.72-19.29,0.03-28.7,2.66c-7.14,1.99-13.96,4.87-20.91,7.38c-1.99,0.72-3.97,1.55-6.12,1.62
	c-0.72,0.02-1.32,0.05-1.78,0.73c-0.28,0.42-0.73,0.78-1.32,0.43c-0.52-0.31-0.94-0.73-0.81-1.39c0.18-0.85-0.12-1.57-0.47-2.3
	c-0.49-1.04-0.52-2.16-0.13-3.19c0.39-1.01,0.41-2,0.35-3.03C502.93,125.95,501.17,119.22,502.41,113.13z M397.48,602.62
	c-0.62,5.2-1.2,10.39-1.74,15.6c-2.51,24.48-3.35,49-1.79,73.58c0.69,10.89,2.42,21.55,6.56,31.72c1.62,3.98,3.26,7.96,4.61,12.05
	c0.77,2.34,1.81,4.59,2.77,6.86c0.19,0.44,0.3,1.3,1.16,0.71c2.49-1.74,5.25-3.07,7.58-5.05c0.83-0.71,1-1.27,0.37-2.3
	c-2.18-3.57-4.3-7.19-6.3-10.87c-4.25-7.77-8.32-15.67-9.84-24.49c-2.41-13.99-3.26-28.15-4.05-42.3
	c-0.85-15.26-0.31-30.52,0.41-45.77C397.37,609.09,397.37,605.84,397.48,602.62z"/>
<path class="st2" d="M-432.12-449.11c-3.58,17.67,1.51,37.23,2.56,56.96c0.16,3.01,0.1,5.87-1.03,8.81
	c-1.15,2.98-1.05,6.25,0.37,9.26c1.01,2.14,1.89,4.21,1.37,6.69c-0.4,1.9,0.84,3.13,2.34,4.02c1.71,1.02,3.02-0.06,3.83-1.26
	c1.33-1.96,3.07-2.05,5.16-2.12c6.25-0.21,12-2.63,17.77-4.71c20.18-7.27,39.98-15.62,60.69-21.41c27.31-7.63,54.83-12.7,83.3-7.72
	c11.68,2.04,23,5.21,33.96,9.83c23.27,9.79,36.58,27.51,41.73,51.78c5.14,24.21,1.62,47.69-6.46,70.73
	c-12.88,36.69-34.5,67.76-61.44,95.37c-37.92,38.87-82.9,67.62-131.31,91.43c-45.88,22.57-92.42,43.58-140.78,60.37
	c-10.2,3.54-19.88,8.45-30.41,11.21c-4.96,1.3-9.58,3.82-13.28,7.65c-5.15,5.34-5.91,10.14-2.29,16.62
	c0.77,1.37,0.97,2.31,0.06,3.57c-0.77,1.08-1.62,2.2-2.01,3.43c-0.78,2.45-4.87,3.84-3.18,6.72c1.99,3.39,4.9,6.26,9.18,7.18
	c7.37,1.58,14.89,1.63,22.34,1.87c40.81,1.28,81.33,5.02,121.7,11.49c22.79,3.65,45.87,5.5,68.56,10.13
	c14.86,3.03,28.28,9.69,42,15.58c24.93,10.69,50.04,21.13,73.24,35.34c36.07,22.08,67.67,49.22,90.31,85.35
	c23.39,37.32,26.48,77.11,11.07,118.27c-4.19,11.19-11.27,20.78-19.17,29.63c-11.81,13.23-25.37,24.46-40.11,34.33
	c-15.84,10.59-33.19,15.47-52.09,13.57c-17.88-1.8-35.88-2.36-53.63-5.41c-15.32-2.64-30.08-7.09-44.4-13.12
	c-2.07-0.87-3.65-2.17-5.05-3.9c-8.18-10.09-21.45-12.84-32.27-6.76c-11.09,6.24-15.49,18.4-10.99,31.01
	c1.85,5.16,4.21,10.14,6.26,15.24c4.71,11.73,6.72,24.04,7.5,36.55c1.65,26.5,2.2,52.92-5.56,78.8
	c-11.87,39.59-47.61,61.72-88.47,53.97c-39.62-7.51-70.73-28.36-94.7-60.78c-27.64-37.38-48.67-78.21-65.65-121.29
	c-22.56-57.21-37.61-116.53-49.56-176.72c-1.39-7.01-2.95-14.01-5.7-20.66c-2.36-5.71-5.95-10.26-12.55-10.76
	c-7.45-0.56-14.66-0.19-19.35,7.3c-5,7.99-6.94,16.93-8.39,25.95c-4.44,27.61-8.51,55.28-12.84,82.91
	c-5.65,36.05-13.39,71.68-21.72,107.19c-3.09,13.19-5.18,26.47-4.99,40.04c0.16,11.48-4.05,21.89-8.02,32.27
	c-15.41,40.27-39.73,74.07-74.16,100.25c-15.73,11.96-33.35,19.76-52.88,23.55c-25.57,4.96-46.2-3.41-63.19-22.21
	c-15.55-17.21-24.2-38.04-30.81-59.9c-6-19.81-9.55-40.16-13.63-60.39c-1.02-5.06-2.16-10.09-4.27-14.85
	c-1.59-3.59-3.82-6.64-7.13-8.78c-2-1.3-4.27-1.92-3.62-5.44c0.33-1.79-2.07-3.45-4.4-2.78c-7.92,2.3-16.13,2.05-24.21,2.66
	c-8.17,0.61-15.68,2.77-22.65,6.98c-19.85,12-40.66,22.14-64.11,23.47c-34.57,1.95-65.5-8.16-90.65-32.69
	c-10.76-10.49-12.77-24.92-14.36-39.08c-2.45-21.79,3.03-42.36,10.47-62.49c6.83-18.47,16.73-35.49,26.19-52.67
	c9.07-16.47,18.67-32.64,28.27-48.81c13.44-22.64,31.06-42.04,49.1-60.93c34.08-35.71,71.39-67.89,109.95-98.67
	c7.99-6.38,17.22-6.34,26.24-7.98c3.75-0.68,7.64-0.51,11.44-0.94c16.31-1.82,27.17-17.06,23.56-33.08
	c-0.8-3.56-1.61-7.07-2.06-10.72c-1.04-8.58-8.56-13.84-18.21-13.28c-6.96,0.41-13.56,2.6-19.42,5.99
	c-17.77,10.27-37.59,13-57.25,16.19c-31.11,5.05-62.37,4.7-93.61,1.29c-39.84-4.35-77.99-15.04-114.6-31.28
	c-27.37-12.14-52.93-27.04-75.52-47.04c-30.88-27.34-40.81-60.87-33.09-100.92c7.97-41.36,27.42-76.75,53.5-109.13
	c24.95-30.98,55.7-54.67,90.41-73.57c6.62-3.6,13.57-6.27,20.96-7.83c11.07-2.35,12.59-4.39,12.21-15.8
	c-0.03-0.81-0.01-1.72,0.31-2.44c3.7-8.22,1.51-15.96-1.85-23.61c-7.7-17.57-15.58-35.21-17.27-54.53
	c-4.52-51.61,12.79-93.81,55.34-124.63c33.74-24.44,70.59-29.75,110-17.11c35.97,11.53,68.78,28.78,95.49,56.09
	c17.78,18.17,30.33,39.99,41.77,62.46c20,39.31,34.28,80.87,48.1,122.62c11.09,33.5,20.36,67.6,32.69,100.68
	c3.17,8.49,5.83,16.83,6.53,25.89c0.45,5.85,2.37,11.42,5.65,16.38c3.13,4.73,7.32,7.94,13.28,7.22c5.98-0.71,9.33-4.71,10.99-10.24
	c4.18-13.98,4.78-28.55,6.81-42.87c5.59-39.42,11.42-78.8,22.57-117.13c14.38-49.41,32.79-97.16,59.79-141.21
	c9.68-15.79,21.08-30.35,34.12-43.57c24.96-25.32,55.51-38.33,90.74-39.09c38.55-0.83,73.94,10.66,105.91,31.98
	c23.82,15.88,38.55,37.72,40.69,67.1C-433.27-473.3-431.95-462.38-432.12-449.11z M-812.94,71.64c0.07-9.7-9.33-16.05-20.02-13.47
	c-5.77,1.4-10.71,4.52-15.46,7.92c-13.64,9.76-24.95,21.97-36.02,34.43c-32.33,36.38-53.27,79.38-72.3,123.56
	c-12.9,29.96-23.57,60.74-35.13,91.2c-0.94,2.47-0.68,4.31,1.46,5.59c2.56,1.53,4.1-0.34,5.2-2.27c1.39-2.45,2.32-5.17,3.73-7.61
	c14.94-25.98,31.04-51.23,47.95-75.98c16.17-23.66,34.63-45.62,50.91-69.19c13.44-19.46,27.05-38.8,42.3-56.9
	c6.86-8.15,14.02-16.05,20.98-24.11C-816.06,81.01-813,77.04-812.94,71.64z M-502.19-255.19c-0.15-5.02-4.35-8.44-9.79-8.25
	c-4.92,0.18-9.4,2.03-13.79,4.04c-17.24,7.91-32.41,19.01-46.71,31.24c-17.96,15.36-35.45,31.19-48.38,51.4
	c-22.45,35.11-40.97,72.29-58.81,109.85c-1.05,2.22-0.92,3.73,0.87,5.24c2.18,1.83,3.78,0.49,5.05-1.13
	c1.94-2.49,3.47-5.29,5.46-7.73c18.15-22.15,37.17-43.51,57.66-63.53c10.35-10.11,21.3-19.66,31.06-30.31
	c16.07-17.53,30.99-36.09,47.32-53.42c9.01-9.56,18.46-18.72,26.45-29.22C-503.85-249.56-502.42-252.31-502.19-255.19z
	 M-1096.22-284.66c-4.18-0.28-7.8,0.95-9.63,4.86c-1.91,4.07,1.4,6.47,3.84,8.87c2.37,2.33,5.02,4.37,7.53,6.56
	c28.81,25.05,54.59,53.18,81.6,80.07c14.15,14.09,27.29,29.26,42.83,41.87c25.85,20.98,51.5,42.16,74.82,66.01
	c1.41,1.44,2.95,2.93,5.13,1.07c2.06-1.75,1.9-3.5,0.43-5.66c-12.28-18-23.59-36.66-36.49-54.26
	c-13.08-17.85-25.41-36.35-42.89-50.44c-14.18-11.43-26.64-24.6-38.96-37.94c-19.91-21.57-42.82-39.39-68.11-54.2
	C-1082.32-281.48-1088.87-284.34-1096.22-284.66z M-601.61,101.99c-0.78,0.14-2.12,0.25-3.38,0.63c-7.95,2.34-11.8,10.04-9.02,18.27
	c2.59,7.66,8.12,13.33,13.61,18.89c14.4,14.56,28.93,28.99,43.47,43.41c8.51,8.44,15.97,18.02,25.4,25.42
	c24.47,19.21,49.63,37.56,71.67,59.69c1.45,1.45,3,2.04,4.78,0.4c1.57-1.45,2-2.98,0.74-4.84c-1.11-1.65-2.36-3.24-3.23-5.01
	c-6.84-13.88-13.83-27.69-21.54-41.11c-10.92-19.02-20.92-38.56-37.22-54.04c-22.63-21.5-45.95-42-72.97-57.9
	C-592.92,103.66-596.78,102.19-601.61,101.99z"/>
<path class="st2" d="M-736.63,971.5c-0.31,9.36-0.32,18.79-0.77,28.23c-2.09,44.26-3.67,88.56-1.19,132.85
	c2.3,41.06,4.76,82.17,11.74,122.76c4.4,25.59,16.22,48.52,28.55,71.07c5.83,10.66,11.97,21.16,18.3,31.53
	c1.82,2.99,1.34,4.62-1.07,6.67c-6.77,5.76-14.77,9.63-22,14.67c-2.48,1.73-2.82-0.77-3.36-2.05c-2.79-6.59-5.8-13.12-8.04-19.9
	c-3.92-11.87-8.66-23.41-13.37-34.97c-12.01-29.5-17.03-60.45-19.03-92.05c-4.51-71.34-2.09-142.49,5.2-213.54
	C-740.11,1001.67-738.42,986.58-736.63,971.5z"/>
<path class="st1" d="M371.19,292.56c-0.02,1.86-1.08,3.23-2.21,4.54c-2.4,2.78-4.87,5.5-7.23,8.31c-5.26,6.24-9.95,12.9-14.58,19.61
	c-5.61,8.12-11.97,15.69-17.54,23.84c-5.83,8.53-11.37,17.23-16.52,26.18c-0.48,0.84-0.81,1.78-1.28,2.62
	c-0.38,0.67-0.91,1.31-1.79,0.78c-0.74-0.44-0.83-1.08-0.5-1.93c3.98-10.49,7.66-21.1,12.11-31.42
	c6.56-15.23,13.77-30.04,24.91-42.58c3.82-4.29,7.71-8.5,12.41-11.86c1.64-1.17,3.34-2.25,5.33-2.73
	C367.97,287.03,371.21,289.22,371.19,292.56z"/>
<path class="st1" d="M478.26,179.95c-0.08,0.99-0.57,1.94-1.24,2.82c-2.75,3.62-6.01,6.77-9.11,10.07
	c-5.63,5.97-10.77,12.36-16.3,18.4c-3.36,3.67-7.14,6.96-10.7,10.44c-7.06,6.9-13.62,14.26-19.87,21.89
	c-0.69,0.84-1.22,1.81-1.88,2.66c-0.44,0.56-0.99,1.02-1.74,0.39c-0.61-0.52-0.66-1.04-0.3-1.8c6.15-12.94,12.53-25.75,20.26-37.85
	c4.45-6.96,10.48-12.42,16.67-17.71c4.93-4.22,10.15-8.04,16.1-10.76c1.51-0.69,3.06-1.33,4.75-1.39
	C476.76,177.04,478.21,178.22,478.26,179.95z"/>
<path class="st1" d="M273.58,169.79c2.53,0.11,4.79,1.1,6.93,2.35c8.71,5.1,16.61,11.24,23.47,18.67c4.24,4.6,8.54,9.13,13.42,13.07
	c6.02,4.86,10.27,11.23,14.78,17.38c4.44,6.06,8.34,12.49,12.57,18.69c0.51,0.74,0.56,1.34-0.15,1.95
	c-0.75,0.64-1.28,0.13-1.77-0.37c-8.04-8.22-16.87-15.51-25.78-22.74c-5.36-4.35-9.88-9.57-14.76-14.43
	c-9.3-9.27-18.19-18.96-28.12-27.59c-0.87-0.75-1.78-1.46-2.59-2.26c-0.84-0.83-1.98-1.65-1.32-3.06
	C270.89,170.12,272.14,169.69,273.58,169.79z"/>
<path class="st1" d="M444,303.02c1.66,0.07,2.99,0.57,4.24,1.31c9.31,5.48,17.34,12.54,25.14,19.95
	c5.62,5.33,9.06,12.07,12.83,18.62c2.65,4.63,5.06,9.38,7.42,14.17c0.3,0.61,0.73,1.16,1.11,1.73c0.43,0.64,0.29,1.17-0.26,1.67
	c-0.61,0.57-1.15,0.36-1.65-0.14c-7.59-7.63-16.26-13.95-24.69-20.57c-3.25-2.55-5.82-5.85-8.75-8.76
	c-5.01-4.97-10.02-9.94-14.98-14.96c-1.89-1.91-3.8-3.87-4.69-6.51c-0.96-2.84,0.37-5.49,3.11-6.3
	C443.27,303.1,443.74,303.06,444,303.02z"/>
</svg>
