<?xml version="1.0" encoding="UTF-8" standalone="no"?>
<!DOCTYPE svg PUBLIC "-//W3C//DTD SVG 1.1//EN" "http://www.w3.org/Graphics/SVG/1.1/DTD/svg11.dtd">
<svg width="100%" height="100%" viewBox="0 0 2129 2063" version="1.1" xmlns="http://www.w3.org/2000/svg" xmlns:xlink="http://www.w3.org/1999/xlink" xml:space="preserve" xmlns:serif="http://www.serif.com/" style="fill-rule:evenodd;clip-rule:evenodd;stroke-linejoin:round;stroke-miterlimit:2;">
    <g transform="matrix(1,0,0,1,-51752.8,-142130)">
        <g transform="matrix(6.04652,0,0,6.04652,41407.8,142157)">
            <g transform="matrix(1,0,0,1,82.706,-78.4164)">
                <g transform="matrix(1,0,0,1,1794.15,158.427)">
                    <path d="M0,2.225C-0.786,1.92 -1.266,1.195 -1.121,0.345C-0.958,0 0.219,1.964 0,2.225" style="fill-rule:nonzero;"/>
                </g>
                <g transform="matrix(1,0,0,1,1631.56,192.279)">
                    <path d="M0,1.114C-0.182,1.503 -0.898,0.1 -0.745,-0.389C-0.022,-0.206 0.102,0.443 0,1.114" style="fill-rule:nonzero;"/>
                </g>
                <g transform="matrix(1,0,0,1,1841.57,235.642)">
                    <path d="M0,3.291C-1.894,1.476 -2.304,3.338 -2.444,3.29C-3.365,2.971 -2.819,1.925 -2.437,1.417C-1.669,0.399 -1.976,1.841 -1.7,1.79C-1.161,1.691 -0.822,1.066 -0.565,0.652C-0.324,0.693 -0.363,2.117 0.375,1.41C0.571,1.223 -0.129,-0.047 1.127,0.282C1.076,0.76 1.212,1.342 1.129,1.786C0.767,1.739 0.369,1.816 0.002,1.782L0,3.291Z" style="fill-rule:nonzero;"/>
                </g>
                <g transform="matrix(1,0,0,1,1836.68,226.605)">
                    <path d="M0,183.571C-1.913,182.756 -1.913,184.753 0,183.938L0,183.571ZM20.321,182.814C20.293,182.787 19.526,182.674 19.575,183C20.296,184.959 21.132,183.608 20.321,182.814M19.194,182.816L18.069,182.818C18.201,183.141 19.129,184.084 19.193,183.941L19.194,182.816ZM17.314,184.692L16.752,182.816C16.002,183.437 16.137,184.86 17.314,184.692M12.371,182.867C12.202,182.751 11.046,182.652 10.921,182.998C11.482,184.058 11.612,185.291 13.175,185.068C12.821,184.642 12.575,183.007 12.371,182.867M48.175,182.81C48.862,182.937 49.425,182.397 49.301,181.685L48.175,182.81ZM-25.965,181.688C-26.278,181.441 -28.108,182.256 -27.469,182.812C-26.693,183.486 -25.823,181.802 -25.965,181.688M70.001,181.313C68.857,180.317 67.087,182.681 70.001,181.681L70.001,181.313ZM73.389,180.558L72.264,180.558L72.264,181.307L73.389,181.307L73.389,180.558ZM60.216,179.429C59.648,178.86 58.612,180.548 59.654,180.548C59.903,180.548 60.432,179.644 60.216,179.429M69.249,179.052C68.581,178.338 67.953,180.328 67.372,179.425L67.373,180.555C67.973,180.357 70.19,180.059 69.249,179.052M9.41,179.799C10.021,178.904 7.886,177.963 7.53,180.176C7.68,180.293 9.355,179.878 9.41,179.799M73.389,178.3L72.64,178.299L72.642,179.427C73.186,179.3 73.504,178.819 73.389,178.3M60.218,177.165C59.872,176.834 59.594,175.821 59.461,175.666C59.316,175.497 57.708,177.242 58.521,177.157L60.218,177.165ZM-53.817,170.016C-53.719,169.887 -53.846,167.08 -54.564,167.009C-54.322,167.831 -55.258,170.316 -53.817,170.016M-53.064,143.295C-52.949,142.776 -53.267,142.295 -53.811,142.168L-53.813,143.295L-53.064,143.295ZM109.403,102.774C109.252,102.593 108.675,102.404 108.395,102.273C108.756,103.47 107.697,103.352 107.649,103.419C107.517,103.602 109.956,106.2 108.771,107.542C109.418,107.717 108.869,106.391 109.703,106.795C110.797,107.324 110.339,108.857 110.276,109.8C111.066,109.943 110.185,108.288 111.208,108.677C112.131,109.028 112.715,111.732 114.032,112.06L114.416,110.934C112.449,111.25 113.331,109.716 114.411,109.24C114.188,108.74 112.725,108.95 112.324,107.911C112.11,107.353 112.586,106.939 112.441,106.515C112.207,105.831 110.715,105.13 110.308,104.693C109.807,104.153 109.736,103.172 109.403,102.774M107.636,101.897C107.948,101.566 107.024,100.496 106.513,100.394C106.409,101.043 107.092,102.476 107.636,101.897M97.851,100.015L97.667,98.89C97.268,99.233 96.98,99.461 97.102,100.015L97.851,100.015ZM105.662,98.79C105.964,98.337 106.482,96.022 105.384,95.877L105.376,98.51L104.266,97.929C104.438,98.813 104.935,99.882 105.662,98.79M103.873,90.23C103.818,88.194 102.165,89.757 102.749,90.608C102.822,90.714 103.478,90.055 103.873,90.23M101.991,88.733C101.943,88.673 100.576,88.264 100.49,88.352C100.046,88.806 101.238,89.841 101.991,89.477C101.968,89.246 102.05,88.805 101.991,88.733M112.907,87.601C111.98,87.481 111.435,88.319 112.344,88.725C112.534,88.809 112.682,87.848 112.907,87.601M106.131,88.724C106.076,86.689 104.423,88.252 105.008,89.103C105.08,89.208 105.736,88.549 106.131,88.724M104.625,88.725C104.806,88.555 104.656,86.886 103.878,86.845L103.687,88.354L103.126,87.6C102.483,88.809 104.238,89.091 104.625,88.725M-47.42,83.462L-48.542,83.082L-48.542,84.963L-47.42,83.462ZM-51.181,74.429C-52.304,74.179 -51.899,74.961 -51.93,75.931C-51.161,75.806 -51.468,75.015 -51.181,74.429M-48.174,72.168C-48.033,72.037 -47.554,68.978 -47.421,68.404L-48.918,71.985C-48.969,72.305 -48.203,72.196 -48.174,72.168M-50.054,62.761C-50.573,62.645 -51.054,62.963 -51.181,63.508L-50.054,63.509L-50.054,62.761ZM83.172,47.705C83.292,46.778 82.455,46.232 82.048,47.142C81.964,47.331 82.925,47.48 83.172,47.705M69.627,46.203L68.5,46.201L68.5,46.95C69.019,47.066 69.5,46.748 69.627,46.203M77.91,47.705C79.573,47.437 80.659,47.392 78.846,45.825L77.91,47.705ZM-2.259,46.576C-2.159,45.874 -2.256,45.272 -3.004,45.07C-3.105,45.772 -3.007,46.374 -2.259,46.576M-36.503,43.192L-37.628,42.812C-37.67,43.863 -36.889,44.323 -36.503,43.192M112.904,33.406C111.95,32.579 111.933,34.902 112.719,34.901C113.299,34.901 113.148,33.618 112.904,33.406M12.42,7.061C12.282,6.933 11.012,6.824 11.297,7.618C11.713,8.779 12.814,7.426 12.42,7.061M69.625,3.3C68.925,3.297 67.33,2.435 67.749,3.478C68.178,4.548 70.03,3.557 69.625,3.3M63.605,3.292C63.479,2.748 62.998,2.429 62.478,2.545L62.478,3.294L63.605,3.292ZM62.1,3.668L60.975,2.543C60.85,3.255 61.414,3.796 62.1,3.668M75.211,1.851C74.991,1.724 73.907,1.624 73.77,1.976L75.647,3.294C75.782,3.149 75.33,1.92 75.211,1.851M73.008,3.671C73.133,3.566 73.508,2.127 73.233,1.769C72.862,1.283 71.02,1.507 70.383,0.661C70.126,2.254 72.465,1.627 72.64,1.792C72.867,2.004 71.771,4.713 73.008,3.671M60.971,1.787C60.632,0.801 58.804,-0.561 57.962,0.287C57.62,0.632 59.869,3.485 59.846,2.351C59.831,1.649 59.225,1.598 59.089,1.041L60.971,1.787ZM57.499,0.373C57.409,0.238 56.224,-0.397 56.08,0.095C57.02,0.808 57.204,3.214 58.711,2.916C58.804,2.303 58.079,2.691 57.83,2.089C57.615,1.57 57.734,0.729 57.499,0.373M48.926,-0.089C48.882,-0.139 48.413,-0.072 48.175,-0.088L48.175,1.034C48.988,1.539 49.174,0.194 48.926,-0.089M53.819,0.289L50.817,0.097C51.239,0.782 53.469,1.087 53.819,0.289M42.154,-0.472C41.927,-1.322 40.977,-1.274 40.274,-1.217C39.809,-0.999 41.631,-0.279 42.154,-0.472M6.024,10.823C6.268,10.854 6.698,11.345 7.151,11.198C7.453,10.854 5.684,6.944 8.437,8.908C8.961,9.282 8.19,10.372 9.409,10.068L7.537,7.624L8.658,7.062C7.961,8.552 8.66,7.976 9.6,8.934C10.844,7.895 9.56,8.389 9.431,7.954C9.091,6.802 10.453,5.174 11.488,4.806C12.369,4.492 11.904,5.663 12.149,6.212C12.187,6.297 13.353,7.173 13.548,7.435C12.892,5.843 15.044,6.646 14.677,5.748C14.206,4.597 13.172,6.333 12.424,5.926C12.957,5.132 13.57,5.86 12.799,4.428L15.055,4.797L13.554,3.677C16.898,2.4 19.25,-1.037 22.565,-2.556C28.093,-5.088 41.441,-2.264 47.748,-1.45C50.15,-1.14 52.055,-1.107 54.379,-1.002C55.684,-0.943 57.696,-1.388 58.15,-0.086L58.333,-0.841C60.075,-1.081 60.734,-0.868 61.513,0.694C61.774,1.217 61.668,3.068 62.851,2.165C63.723,1.499 61.871,1.5 62.102,1.041C63.224,0.646 63.985,3.035 63.799,1.032L65.113,0.663C63.405,0.221 61.282,1.512 61.351,-0.844C63.097,-0.995 64.82,-0.363 66.484,-0.218C69.014,0.003 71.488,0.057 73.558,0.263C74.726,0.379 75.88,0.911 77.152,0.663L76.773,2.164C76.091,2.315 76.536,1.529 76.398,1.414C75.472,0.643 76.117,3.579 76.027,3.671C75.859,3.841 73.356,3.448 73.77,4.8C75.114,4.302 76.395,4.836 77.714,5.183L77.903,3.672L76.411,3.863C76.914,2.864 77.205,2.286 78.377,2.94C78.839,3.197 78.452,3.799 79.031,3.67L79.415,2.546C77.958,2.842 78.503,2.047 78.154,1.542C77.962,1.264 77.381,1.629 77.532,1.042C79.501,1.19 85.729,1.033 84.303,4.047C84.865,4.183 85.953,4.036 86.382,4.4C87.079,4.991 87.281,6.915 88.068,6.303C88.284,6.134 86.732,4.968 87.88,4.432C88.912,5.409 89.008,6.006 88.068,7.055C88.712,7.349 89.332,6.139 89.566,6.306C89.621,6.346 89.713,7.47 90.322,7.436L91.078,5.934L90.699,7.432C91.692,7.606 92.967,7.466 93.902,7.595C94.411,7.666 94.913,8.21 95.395,8.21C95.608,8.21 95.547,7.635 95.787,7.529C96.807,7.08 96.852,8.388 97.487,8.755C98.836,9.534 100.744,9.455 102.209,9.355C102.407,9.341 102.332,9.919 102.55,9.993C103.428,10.295 105.159,9.049 105.756,9.321L106.507,10.444C106.646,9.838 106.285,9.667 105.947,9.29C105.148,8.397 104.472,9.383 104.629,8.19L108.391,8.561C107.822,6.887 104.785,7.968 103.877,7.427C103.843,7.407 104.195,6.833 104.076,6.665C103.703,6.137 102.672,6.649 102.747,5.934C108.024,6.578 113.419,7.486 118.655,8.588C119.121,8.686 119.73,8.836 120.513,9.007C123.878,9.741 127.199,10.728 130.582,11.399C132.462,12.439 130.05,13.928 130.288,15.105C130.45,15.904 132.216,16.249 132.424,17.101C132.566,17.68 131.759,19.528 132.103,19.849C132.198,19.938 133.145,19.722 133.609,20.033C134.909,20.904 134.771,25.478 135.11,27.003C134.033,27.265 133.636,26.288 132.857,25.877C132.743,27.071 133.861,27.159 133.583,28.464C132.892,28.685 131.638,29.193 131.047,28.782C130.897,28.677 131.002,28.166 130.965,28.138C130.729,27.964 130.196,28.883 130.031,28.881C129.948,28.881 129.36,28.282 129.466,28.138C129.484,28.114 130.863,28.212 129.941,27.769C129.269,27.823 129.576,27.488 129.845,27.009C127.452,26.572 129.646,29.46 127.587,29.639C128.309,28.188 127.394,28.662 127.231,28.234C126.656,26.728 127.25,25.971 124.951,25.88C126.407,27.037 121.474,31.073 120.826,31.319C120.42,31.474 119.815,31.027 119.682,31.148L120.057,32.272L117.427,31.522C117.006,32.522 118.553,32.421 118.545,32.839C118.539,33.183 115.703,34.823 115.644,34.996C115.583,35.175 116.057,35.559 115.918,35.658C115.171,36.191 114.672,34.218 114.04,34.157C113.738,35.131 113.805,35.248 114.412,36.034C113.74,36.288 113.421,35.368 113.095,35.371C112.691,35.376 112.074,36.634 111.597,36.696C110.872,36.79 109.845,33.991 109.522,37.165C112.121,36.603 111.15,37.142 110.834,38.491C110.695,39.082 111.653,39.664 110.269,39.228C110.267,40.784 109.567,39.943 108.648,40.531C108.215,40.809 108.304,41.655 107.446,41.72C106.448,41.795 105.953,40.397 104.631,41.683C104.881,40.596 105.41,39.387 106.508,38.859C104.485,38.336 107.968,36.131 108.519,34.91C108.785,34.322 108.748,31.813 110.269,32.654C109.849,30.787 111.368,30.685 112.027,29.89C113.421,28.207 114.169,27.295 115.518,26.044C117.339,24.357 121.879,21.184 123.087,19.309C123.385,18.848 123.557,18.56 123.445,17.977C119.932,17.443 116.492,16.329 113.078,15.551C110.244,14.906 106.835,14.855 104.055,13.747C103.774,13.635 104.002,13.056 103.682,13.068C103.083,13.093 102.84,13.813 102.249,13.752C100.503,13.568 94.029,12.192 92.458,11.511C91.992,11.309 91.837,10.919 91.826,10.448C91.194,10.258 91.635,11.155 91.301,11.161C91.208,11.163 89.652,10.856 89.477,10.796C89.134,10.68 89.193,10.098 88.948,10.056C88.251,9.934 87.634,10.463 87.159,10.45C86.951,10.445 86.969,9.839 86.652,9.725C85.87,9.442 83.252,8.832 82.228,8.564C82.109,8.533 81.536,9.817 80.162,9.315L80.544,8.567C79.416,8.694 77.659,8.669 76.586,8.482C75.954,8.373 74.305,8.267 74.022,8.197C73.779,8.136 73.669,7.962 72.51,7.711C71.815,7.56 71.359,6.226 70.96,7.814C69.818,6.613 68.428,7.482 67.531,7.389C66.794,7.312 66.109,6.476 64.926,7.064C65.203,4.925 63.908,6.948 63.798,6.972C62.596,7.241 61.383,6.479 60.596,6.445C58.174,6.341 54.912,7.209 52.873,5.929C52.722,7.11 50.915,6.165 49.665,6.104C45.757,5.912 42.87,5.661 39.194,5.001C37.393,4.678 36.004,4.775 34.149,4.7C31.33,4.586 27.142,3.519 24.721,4.87C23.826,5.37 22.81,6.368 22.017,7.058L21.458,6.309C21.794,8.109 20.744,7.108 20.036,7.527C19.613,7.777 18.495,9.198 18.063,9.498C17.186,10.108 15.974,10.294 15.243,11.197L14.87,10.072C14.002,10.747 15.036,11.601 13.833,12.054C12.318,12.626 11.809,10.705 11.293,11.203C11.427,12.523 12.379,12.001 12.796,12.7C11.852,12.704 10.969,13.996 10.265,14.136C10.133,14.163 7.566,13.726 8.282,14.583C8.397,14.721 9.183,14.276 9.032,14.958C7.451,16.141 5.6,15.698 4.144,16.658L5.271,16.848C5.185,17.474 4.257,17.874 3.807,17.529C3.632,17.395 4.026,16.67 3.394,16.846C3.363,17.239 3.463,17.739 3.322,18.09C3.202,18.39 -1.818,21.28 -2.136,21.309C-2.599,21.351 -2.927,21.044 -3.008,20.612L-1.506,20.609L-1.506,19.102C-1.558,19.03 -2.337,19.488 -2.507,19.618C-4.731,21.331 -8.939,23.923 -11.918,25.811C-12.44,26.142 -15.401,27.447 -15.047,27.753C-14.179,27.487 -14.028,28.647 -14.362,29.207C-14.557,29.533 -17.539,30.093 -17.879,31.143C-18.997,31.34 -18.005,30.454 -18.06,30.401C-18.198,30.266 -19.576,29.948 -19.939,30.172C-24.655,32.998 -29.674,35.25 -34.527,37.808C-35.183,38.153 -34.77,38.964 -35.747,38.294L-35.747,40.93C-34.597,40.213 -34.824,38.958 -33.299,38.295L-31.799,39.806C-31.559,39.809 -31.953,37.825 -30.291,37.923L-30.481,39.045C-29.157,39.581 -28.918,38.337 -28.814,38.34C-26.979,38.393 -26.86,40.564 -24.643,38.294C-24.304,39.877 -23.996,38.143 -22.771,38.262C-22.102,38.326 -21.866,38.783 -21.82,39.423L-21.455,39.421C-21.984,38.329 -19.167,38.876 -18.722,39.064C-18.375,39.21 -18.454,39.838 -18.244,39.819C-17.749,39.773 -17.483,39.262 -17.117,39.209C-17.006,39.193 -15.134,39.736 -15.099,39.979C-15.067,40.201 -15.574,40.863 -15.426,41.305C-13.735,40.834 -11.598,41.56 -9.967,41.209C-8.787,40.956 -10.339,39.921 -10.159,39.805C-9.138,39.394 -8.321,40.574 -7.714,40.566C-7.368,40.562 -7.672,39.639 -7.338,39.802C-7.259,39.841 -6.1,40.914 -6.065,40.993C-5.91,41.343 -6.455,41.963 -6.398,42.058C-6.142,42.484 -2.419,42.222 -1.695,43.195C-0.104,42.947 -2.744,42.236 -2.934,42.156C-3.485,41.922 -3.957,42.384 -3.759,41.309L-2.259,42.061C-2.633,39.595 -0.475,41.808 -0.378,41.683L0.002,40.558C-1.102,40.584 -3.244,40.125 -3.383,38.675C3.133,39.737 9.875,39.727 16.368,41.308C16.172,43.292 16.948,41.278 17.45,41.334C18.183,41.416 18.949,42.352 18.444,42.81C18.193,43.037 15.494,42.814 15.804,41.686C15.202,41.777 15.614,42.749 14.306,42.44L15.439,43.939L15.804,43.936C15.631,42.477 17.761,43.741 18.314,43.818C19.464,43.979 19.647,42.696 19.383,44.692C20.756,41.654 21.549,45.715 22.081,45.839C22.362,45.905 24.015,45.888 24.09,45.821C24.969,45.041 23.364,44.752 23.34,44.688C23.265,44.485 23.834,43.948 23.901,43.949C24.336,43.953 24.819,46.153 25.784,46.198C26.188,46.128 25.799,45.365 26.019,45.137C26.125,45.028 28.841,44.225 28.946,44.335C29.489,44.903 29.922,47.889 31.43,45.824C31.738,46.954 32.453,46.571 33.496,46.572C32.972,45.854 32.483,46.222 32.737,44.88L33.878,44.506C33.877,44.016 28.837,44.269 28.982,42.44C29.203,42.276 33.519,42.665 33.832,42.858C34.057,42.996 33.898,44.842 34.817,45.069C34.821,42.016 35.59,44.701 36.594,45.172C36.792,45.265 40.613,46.203 40.831,46.205C41.216,46.209 40.972,45.427 41.027,45.073C39.848,45.031 38.514,44.426 37.415,43.977C36.903,43.768 36.308,43.821 37.077,43.184C50.739,45.061 64.45,44.316 78.172,45.195C78.872,45.24 79.458,45.667 80.025,45.705C81.84,45.829 84.788,45.283 86.687,45.825C87.016,45.919 86.978,46.304 86.944,46.572C87.58,46.73 87.096,46.119 87.498,45.819L88.444,46.203L88.033,47.305C86.917,46.676 85.591,48.069 85.247,46.577C83.075,48.916 86.796,47.572 87.318,48.083C87.992,48.74 86.742,49.136 86.564,49.583C87.535,50.117 87.99,48.193 88.82,48.837C89.012,48.986 87.402,50.41 89.948,49.959L89.199,49.214L91.831,49.207L91.458,48.082C93.413,49.994 92.713,45.754 94.462,48.457C94.252,45.076 94.666,46.801 95.58,46.407C96.327,46.085 96.818,43.955 97.853,44.698C97.947,44.765 96.63,46.927 98.227,46.574C98.807,45.654 97.395,44.064 97.476,43.948C97.54,43.859 99.047,43.299 99.355,42.812C99.453,43.881 98.246,44.499 99.168,45.445C100.369,43.853 102.391,43.096 103.293,41.33L106.884,42.809C104.721,42.555 104.772,45.295 101.993,43.945C102.044,44.784 103.407,44.598 103.499,44.699C104.214,45.484 102.629,45.406 102.202,45.802C102.136,45.864 101.605,47.407 101.599,47.496C101.573,47.842 102.713,47.901 102.738,48.269C102.761,48.599 101.883,48.929 101.43,48.85C101.048,48.783 101.507,47.913 100.868,48.084C100.532,49.131 100.336,49.374 101.616,49.594C101.765,50.143 101.174,49.834 100.865,50.231C100.672,50.479 98.393,54.073 98.227,52.783C98.06,51.497 98.761,51.252 99.358,50.343C99.161,50.157 97.581,51.441 97.538,51.542C97.432,51.793 98.007,53.752 97.473,54.477C96.983,54.41 96.393,52.582 95.595,53.354C95.529,53.418 96.002,54.939 96.1,55.128C96.196,55.312 96.702,55.213 96.72,55.239C96.818,55.376 94.912,56.952 95.968,58.24C95.278,58.273 94.978,55.839 94.656,55.986C94.338,56.132 93.441,57.13 93.716,57.489L94.843,57.862L93.344,58.431C94.324,59.278 94.61,59.953 92.963,59.752C92.836,60.479 93.765,59.91 94.042,60.165C94.221,60.331 93.905,62.232 95.025,62.004C96.577,61.688 94.427,60.413 94.467,60.314C95.175,58.601 96.156,60.916 96.343,61.832C96.413,62.177 95.383,61.75 95.599,62.377C97.107,62.237 96.002,63.89 96.082,64.78C96.118,65.186 96.571,66.469 96.724,67.275C96.271,65.759 95.308,68.911 95.599,69.531C96.048,69.47 96.76,67.396 96.724,67.275C97.043,68.954 97.972,71.11 97.892,73.131C97.838,74.498 97.207,73.928 97.107,74.059C97.017,74.176 97.75,74.833 97.845,75.375C98.014,76.343 97.973,79.212 97.77,80.176C97.685,80.576 96.979,80.995 97.103,81.193C97.129,81.235 97.761,81.062 97.978,81.664C98.27,82.474 97.786,85.128 98.611,86.276C97.977,86.59 95.326,85.746 97.112,87.04C98.702,88.192 100.049,85.809 99.36,84.213C99.798,84.028 100.779,84.67 100.86,84.587C101.582,83.838 99.38,83.822 100.115,83.082C100.242,82.953 101.021,83.623 101.239,83.455C100.474,82.341 101.519,82.792 101.818,82.352C101.902,82.229 101.223,79.618 102.932,81.952L103.871,81.2L104.247,82.327C104.548,80.634 103.118,81.057 103.878,79.317L104.631,80.445L105.192,79.691L105.384,80.823C106.348,80.62 105.884,78.456 106.925,79.562C107.012,79.654 108.132,81.51 108.393,80.255C108.598,79.269 107.178,79.987 107.834,79.314C110.295,79.097 109.402,80.382 109.52,80.444C109.789,80.587 110.456,79.808 110.841,80.445C110.293,82.148 111.36,81.966 111.411,82.138C111.723,83.208 110.719,83.003 110.644,83.326C110.323,84.709 111.814,85.782 111.405,87.221C112.663,86.833 112.911,84.892 113.493,84.232C114.209,83.422 115.984,83.834 115.168,81.953C117.114,83.626 116.344,82.009 117.502,81.471C118.15,81.17 122.164,80.308 122.699,80.628C123.241,81.159 123.396,82.892 123.396,83.67C123.396,83.873 122.678,83.823 122.664,84.038C122.606,84.914 123.996,85.757 122.692,86.841C125.091,86.367 124.62,92.964 122.694,93.249C122.491,93.865 123.46,93.43 123.467,93.829C123.475,94.291 122.255,97.724 121.953,97.941C121.873,97.999 119.859,97.629 121.938,98.698C119.932,99.351 120.804,99.754 120.412,100.469C120.14,100.965 119.253,100.917 119.678,102.278L118.934,101.897C118.903,103.457 117.885,104.505 117.341,105.773C116.91,106.775 117.389,108.163 115.543,108.863L116.674,109.051L115.917,110.552C116.697,110.485 116.779,110.506 116.669,111.306C114.738,111.105 114.475,111.408 114.408,113.187L113.85,112.438C113.227,112.707 113.398,113.766 113.254,113.92C113.184,113.996 111.337,113.763 111.212,113.584C110.641,112.767 111.104,111.332 110.941,111.029C110.88,110.916 110.387,110.89 110.275,110.668C109.833,109.792 108.842,107.475 108.011,106.956C107.124,106.402 105.234,108.653 106.889,105.289L105.75,105.284L106.138,104.536C104.703,104.755 104.937,104.301 105.002,103.025C103.716,103.483 102.442,103.294 104.251,102.467C103.409,102.081 103.939,101.201 103.697,100.768C103.099,99.704 102.927,101.649 102.375,101.52C101.568,99.791 100.097,98.306 100.115,96.256L100.86,97.005C100.467,95.656 99.56,93.657 98.61,92.49C98.532,93.46 98.98,94.351 99.01,95.31C99.057,96.795 99.196,102.504 98.995,103.529C98.927,103.879 98.093,103.631 98.213,104.331C98.388,105.347 99.617,105.435 98.23,106.788L99.361,106.806C98.975,107.488 99.441,108.201 99.395,108.871C99.345,109.612 98.623,109.363 98.614,109.652C98.542,111.971 97.674,111.596 97.579,112.667C97.525,113.268 97.551,114.506 97.524,115.284C97.52,115.389 98.633,116.235 98.606,116.949C95.626,116.034 97.882,117.425 97.862,118.267C97.849,118.807 97.093,119.245 97.096,119.775C97.098,120.029 97.476,121.643 97.538,122.754C97.566,123.258 97.857,125.082 97.795,125.187C97.707,125.336 96.774,125.461 96.733,125.792C96.665,126.355 98.779,128.294 97.102,128.43C97.924,129.265 99.027,129.94 97.472,130.313C97.428,130.69 98.55,130.196 98.226,131.06C97.899,131.931 96.656,130.558 97.103,132.381C100.455,131.23 97.102,133.699 97.475,134.256C97.514,134.314 98.456,134.407 98.599,134.825C98.178,136.43 97.159,135.681 97.103,135.77C96.728,136.38 97.366,140.468 97.333,141.539C97.277,143.357 96.324,148.146 96.504,149.503C96.552,149.86 97.064,150.115 97.116,150.632C97.136,150.837 96.095,150.54 96.342,152.132C96.703,154.456 97.259,150.892 97.849,150.824C98.241,151.699 97.093,152.731 97.169,153.195C97.256,153.721 98.327,154.649 97.851,155.715L96.349,154.213C96.15,155.279 96.866,156.138 97.034,157.014C97.054,157.114 96.622,159.443 97.474,158.728C97.612,158.612 97.165,157.827 97.849,157.977C97.697,159.984 98.31,163.884 97.862,165.636C97.753,166.063 97.097,165.714 97.096,166.066C98.867,166.558 97.357,167.928 97.275,168.704C97.181,169.599 98.193,171.147 97.849,172.274L97.473,171.147C95.989,171.69 97.521,172.384 97.764,173.306C98.032,174.324 97.33,175.848 98.603,175.668L98.604,176.036C97.497,175.836 97.427,176.387 96.911,177.167L96.352,176.419C96.284,176.71 95.626,180.41 94.844,179.427C95.193,178.138 94.159,176.877 94.108,175.823C94.049,174.599 95.372,173.473 93.339,173.785L94.087,174.342C93.527,176.199 93.148,176.142 91.456,175.659C91.282,175.491 92.459,174.304 92.451,173.97C92.445,173.766 91.435,172.614 92.212,171.901C93.005,171.174 93.102,173.669 93.344,172.083C92.702,171.025 91.795,170.768 91.827,169.268L90.706,171.898C90.106,170.865 91.347,168.94 91.343,168.691C91.334,168.137 90.01,168.144 91.827,167.009C91.427,168.175 93.01,168.92 92.953,167.948C92.924,167.449 90.966,166.596 90.764,166.005C90.58,165.468 90.571,160.735 90.709,160.053C90.958,158.83 91.751,159.079 92.103,158.651C92.165,158.575 92.035,157.373 92.212,157.221C92.257,157.182 93.014,157.534 93.337,157.598C94.3,160.208 94.585,157.69 94.467,157.604C94.328,157.503 93.653,157.661 93.337,157.598C93.127,157.03 92.721,154.901 92.963,154.59C93.636,153.722 93.624,155.569 94.086,155.338C93.287,153.629 94.463,153.995 94.512,153.286C94.657,151.207 95.102,143.899 94.874,142.327C94.751,141.484 93.568,142.085 94.472,140.665L93.335,140.659C94.55,139.376 94.815,136.866 94.477,135.194C94.286,134.253 93.578,134.428 93.423,134.203C93.332,134.07 93.977,132.613 92.961,132.383C92.918,133.184 92.579,133.952 92.57,134.43C92.567,134.552 93.844,134.785 93.333,135.768C93.097,135.535 91.848,134.557 91.848,134.458C91.847,134.357 92.402,134.024 92.485,133.646C92.617,133.039 91.585,132.071 92.961,132.383C92.993,131.782 92.854,129.516 92.964,129.373C93.045,129.268 93.624,129.711 93.941,129.722C95.747,129.782 93.421,125.01 93.407,123.845C93.395,122.888 94.896,122.776 93.335,122.425C93.845,120.899 95.302,120.451 93.341,119.962C93.707,120.819 92.719,121.114 92.677,121.287C92.554,121.796 93.216,124.417 91.834,124.102C91.492,123.064 92.221,122.388 92.397,121.643C92.463,121.364 92.155,120.91 92.216,120.61C92.241,120.484 93.53,118.683 94.09,119.207C93.963,118.042 92.285,118.922 92.222,118.837C92.144,118.732 91.88,117.106 91.852,116.752C91.78,115.867 91.871,111.775 91.965,110.923C92.009,110.523 92.302,110.241 92.583,109.988L91.832,109.799C93.034,108.699 91.916,108.416 91.927,107.431C91.944,105.774 91.98,105.639 91.861,103.947C91.598,100.2 92.249,96.882 92.085,93.267C92.045,92.399 91.706,91.512 91.835,90.61L92.966,91.169C93.105,89.846 91.324,88.31 91.439,87.412C91.46,87.247 92.182,87.175 92.216,87.036C92.485,85.952 91.608,86.158 91.532,85.91C91.438,85.607 91.808,84.642 91.758,84.395C91.719,84.204 90.725,84.299 91.069,82.932C91.155,82.593 92.193,82.936 91.828,81.949L91.076,82.133C91.602,81.253 90.818,80.668 90.737,79.853C90.543,77.899 90.888,75.484 90.698,73.489C90.289,69.201 88.888,65.649 88.987,61.046C89.008,60.099 90.303,59.907 88.816,59.56C90.475,57.484 90.186,60.267 90.512,60.122L91.089,59.183C89.616,58.828 90.899,57.272 89.76,56.363C89.741,56.861 88.902,58.633 88.448,57.296C88.18,56.505 90.392,56.196 91.005,55.346C91.18,55.104 91.227,54.463 91.455,54.107C91.075,54.026 90.101,54.217 89.95,54.101C89.082,53.432 90.931,53.437 90.701,52.978C88.377,52.424 89.167,55.508 87.88,52.981L88.068,54.475C87.198,54.371 85.747,54.756 85.041,54.292C84.698,54.067 84.714,53.379 84.673,53.35C84.453,53.194 84.096,53.984 83.746,53.986C83.525,53.988 83.204,53.486 82.937,53.475C81.122,53.4 80.298,54.071 78.852,54.061C75.448,54.036 71.731,53.454 68.325,53.334C61.113,53.081 52.67,53.409 46.116,52.309C44.361,52.014 42.605,52.837 40.817,52.619C38.302,52.313 35.511,51.493 32.871,51.225C32.093,51.146 31.075,52.101 31.235,50.718L30.867,50.719C31.434,51.658 28.754,51.234 28.101,51.089C27.801,51.022 27.868,50.375 27.69,50.382C18.056,50.798 8.071,49 -1.452,47.54C-1.902,47.47 -2.474,47.779 -2.754,47.722C-3.321,47.605 -3.602,45.113 -4.325,44.701L-5.456,45.822C-5.861,44.623 -5.9,45.134 -6.772,45.447C-6.706,45.406 -6.314,44.029 -6.397,43.944C-7.536,44.229 -7.88,44.856 -9.237,44.735C-10.145,44.654 -9.479,43.867 -10.155,43.943C-10.205,45.037 -10.482,44.784 -9.586,45.085C-9.317,45.175 -6.892,45.521 -6.772,45.447C-11.109,47.002 -25.604,44.444 -31.062,44.084C-32.572,43.985 -35.477,45.01 -35.939,43.56C-36.293,45.037 -37.548,44.066 -38.597,44.105C-39.491,44.139 -40.093,45.601 -40.271,43.189L-41.392,44.316C-40.852,42.134 -43.404,43.667 -43.613,43.525C-43.777,43.413 -43.819,42.415 -44.403,42.437C-43.539,44.368 -44.782,43.906 -45.353,44.711C-45.612,45.077 -45.2,45.819 -45.498,46.308C-45.814,46.827 -46.938,46.767 -46.661,47.704C-44.327,47.06 -46.066,51.805 -46.108,53.184C-46.174,55.369 -45.284,59.869 -45.595,61.833C-45.698,62.483 -46.289,62.808 -46.303,63.32C-46.309,63.551 -45.617,63.458 -45.535,63.749C-45.393,64.252 -46.147,73.551 -46.291,74.177C-46.402,74.662 -47.337,73.884 -46.662,75.555C-46.068,77.035 -45.865,78.274 -46.295,80.252C-46.562,81.483 -48.918,81.581 -47.227,83.08L-46.29,82.331C-45.769,84.518 -47.029,83.388 -47.038,83.455C-47.189,84.637 -46.39,84.018 -46.303,84.446C-46.11,85.392 -46.103,89.421 -47.792,88.73C-47.789,89.412 -46.513,89.251 -46.42,90.029C-46.363,90.503 -46.904,91.405 -46.957,92.024C-47.076,93.403 -45.729,93.808 -48.168,93.623C-48.298,94.388 -47.112,93.675 -47.016,94.198C-46.805,95.343 -47.547,101.772 -48.227,102.594C-48.276,102.654 -48.91,102.358 -49.299,102.652C-49.386,102.538 -49.215,101.97 -49.303,101.899C-49.508,101.733 -49.902,102.519 -50.238,102.549C-50.601,102.58 -51.715,101.373 -51.934,102.474C-52.063,103.129 -51.214,104.731 -51.553,105.661L-51.179,103.029C-50.552,102.863 -50.154,103.248 -49.675,103.404C-50.245,104.71 -49.312,103.951 -49.319,104.316C-49.37,107.178 -51.74,106.258 -52.118,107.149C-52.303,107.584 -51.564,109.504 -52.316,110.361C-51.757,110.882 -49.888,109.578 -49.727,110.731C-49.705,110.887 -50.412,113.001 -50.616,113.219C-51.076,113.71 -52.308,112.915 -52.684,114.509L-50.446,114.328C-49.732,115.038 -50.411,118.544 -50.815,118.83C-51.363,119.218 -52.207,117.66 -52.679,119.408C-53.019,120.669 -50.842,119.159 -50.43,119.588C-50.822,122.343 -50.235,126.298 -53.436,127.307C-53.622,128.48 -51.861,127.037 -51.561,127.114C-51.37,128.972 -51.716,130.652 -53.812,130.882C-53.621,131.981 -51.631,130.403 -51.561,130.501C-51.428,131.605 -51.703,133.476 -52.505,134.285C-53.196,134.982 -53.727,133.648 -54.189,135.208L-51.937,134.641C-52.291,136.416 -51.59,142.835 -52.491,144.064C-52.93,144.663 -54.117,143.974 -53.813,145.177C-53.353,145.335 -52.093,144.638 -51.936,144.804C-51.66,145.094 -52.746,146.228 -51.745,146.677C-51.032,144.977 -50.026,145.243 -50.055,147.064L-50.81,147.248C-49.523,147.799 -49.59,149.021 -51.18,148.193C-49.978,149.1 -50.121,149.316 -50.055,150.822C-50.696,151 -50.251,150.085 -50.589,150.099C-52.728,150.189 -51.71,151.609 -51.554,153.081C-51.094,153.184 -50.627,152.901 -50.429,152.516C-50.383,152.425 -52.19,151.541 -51.555,150.826C-51.23,150.46 -50.08,151.761 -50.061,151.849C-49.753,153.338 -50.271,153.571 -51.561,153.647C-50.436,153.878 -51.01,154.532 -50.775,155.034C-50.596,155.415 -50.153,155.351 -50.084,155.587C-49.997,155.889 -49.972,161.558 -50.041,161.865C-50.112,162.182 -50.816,162.076 -50.818,162.305C-50.826,163.025 -49.868,163.202 -50.054,163.994L-51.554,163.621C-50.929,165.134 -51.884,165.813 -52.31,166.823C-52.433,167.115 -51.654,166.878 -51.554,167.251C-51.112,168.894 -52.255,171.088 -51.466,172.746C-51.041,173.639 -50.082,173.719 -50.023,174.024C-49.849,174.915 -50.602,175.419 -50.646,175.861C-50.735,176.753 -49.84,178.713 -50.801,180.179C-49.678,179.699 -46.967,179.885 -45.778,180.171C-45.344,180.276 -45.701,180.946 -45.347,180.937C-44.985,180.928 -45.345,180.21 -44.934,180.147C-44.509,180.082 -43.477,180.558 -42.729,180.573C-40.098,180.626 -37.494,180.707 -34.874,180.79C-34.208,180.811 -33.34,180.375 -32.561,180.531C-32.127,180.618 -32.641,181.53 -32.132,181.701C-31.461,181.927 -29.838,182.213 -29.919,181.309C-29.184,181.565 -29.757,183.62 -28.225,182.627C-28.907,181.984 -29.466,181.164 -29.35,180.18L-25.966,180.182L-26.341,181.305L-25.213,181.305L-25.403,179.805C-25.101,180.683 -23.855,181.409 -24.462,182.058C-23.55,181.723 -22.296,182.469 -21.663,182.446C-21.558,182.442 -21.042,181.28 -19.944,181.68L-22.198,179.427C-21.344,179.846 -20.132,178.833 -20.315,180.176L-19.949,180.176L-19.703,179.417C-14.701,179.279 -9.697,178.399 -4.696,178.269C-3.726,178.244 -1.351,178.218 -1.496,179.425C-0.829,179.581 -1.444,178.314 -0.568,178.678C0.048,178.933 -0.352,179.606 -0.251,179.733C-0.125,179.89 0.31,179.741 0.379,179.803L0.381,179.052L1.506,179.052L1.506,179.801L0.379,179.803C0.46,179.875 0.058,180.51 0.928,180.598C1.26,180.632 4.03,180.292 4.144,180.177C5.306,179.006 1.505,178.529 3.211,178.282L5.268,179.801C5.119,177.928 5.062,177.877 6.955,177.919C7.354,177.928 7.091,178.707 7.157,179.048C7.751,179.167 7.534,178.334 7.896,178.085C8.677,177.549 10.225,178.311 9.791,179.424C10.401,179.618 10.015,178.772 10.349,178.664C11.901,178.162 10.809,180.623 12.798,180.176L11.672,179.044L12.63,178.3C16.527,178.097 20.377,178.21 24.286,178.117C28.865,178.008 33.927,177.77 38.605,177.359C41.538,177.101 44.832,175.969 48.007,176.205C48.383,176.233 48.705,176.927 48.916,176.784C48.999,176.727 48.65,176.14 49.468,176.007C50.168,175.893 51.414,175.787 51.192,176.788L51.557,176.789C51.348,175.711 56.391,174.903 57.048,174.941C57.869,174.99 58.051,175.817 58.71,176.039C57.802,174.144 59.127,175.376 60.593,174.913L60.222,176.415C60.523,176.134 61.311,176.081 61.351,176.037C61.551,175.824 60.681,175.037 61.162,174.907C62.89,175.472 64.446,175.091 66.071,175.118C68.232,175.155 70.591,175.331 72.893,175.516C73.557,175.57 74.204,174.959 74.711,175.672C75.02,176.107 74.658,177.378 75.604,176.601C75.353,174.921 78.181,174.708 79.585,174.925C80.118,175.007 80.498,175.543 80.805,175.594C81.282,175.675 82.284,174.498 83.174,174.914L82.05,176.414L82.795,175.667C82.58,176.99 83.679,175.476 83.556,176.785C85.003,177.197 83.723,175.475 84.677,175.289L86.001,177.166L86.19,176.041C86.83,175.868 86.354,176.811 86.785,176.83C87.205,176.847 87.608,176.475 87.901,176.452C87.984,176.446 88.3,177.353 89.194,177.174L89.948,175.665C89.046,178.27 90.586,176.832 92.211,176.789L92.39,176.043L91.812,178.648C90.239,178.804 89.122,178.643 87.693,179.429L87.321,178.301C87.542,179.38 86.329,178.936 86.183,179.054C86.106,179.115 86.832,180.334 86.186,180.929L87.318,180.929C86.4,180.223 87.983,179.74 88.06,179.802C88.153,179.877 88.907,181.979 88.819,182.059C87.266,182.603 85.239,181.42 84.098,181.316C83.931,181.301 83.984,182.003 83.679,182.072C83.011,182.223 80.698,181.778 79.789,182.058L79.604,180.934C78.904,183.038 78.123,181.065 77.91,181.309L78.283,182.434L76.399,182.439L76.405,180.556L77.905,180.93L76.402,180.177L76.591,178.676C75.968,179.211 71.881,181.029 74.708,181.318C74.784,181.326 75.327,179.839 76.023,180.558C76.16,180.698 75.856,182.344 75.397,182.45C74.527,182.652 72.948,182.707 72.826,181.68L72.636,182.435L70.948,181.681L71.136,182.434C68.753,182.362 65.903,183.257 65.483,180.181L64.36,181.683C64.557,180.818 64.838,179.086 63.42,179.216C63.169,179.24 62.89,179.636 62.615,179.671C61.14,179.856 60.031,178.754 60.976,181.682L61.351,179.805C62.07,179.68 61.499,180.556 61.798,180.873C61.992,181.078 63.047,180.541 63.064,182.039C63.078,183.25 62.112,182.459 61.273,182.304C60.891,182.234 60.296,182.437 60.265,182.397C59.906,181.927 60.052,180.364 58.339,180.558L59.84,182.812C59.099,183.085 58.247,182.5 57.745,182.477C57.633,182.472 57.19,182.812 55.899,183.007C47.012,184.349 36.165,185.842 27.244,186.032C25.011,186.079 10.141,186.129 9.393,185.639C9.067,185.427 9.097,184.756 9.028,184.698C8.939,184.624 8.483,184.761 8.282,184.695C8.3,185.099 8.801,185.391 8.107,185.698C6.464,186.424 5.379,183.745 8.282,184.695C8.225,183.37 9.138,184.679 10.159,183.559C9.529,182.685 9.284,182.309 8.285,182.818L9.032,183.562C7.966,183.905 7.763,184.097 7.523,182.817C6.107,182.515 7.345,184.244 6.216,183.946C5.836,183.845 6.135,183.397 5.978,183.266C5.851,183.161 5.256,183.605 4.797,183.503C4.437,183.423 3.781,182.489 3.392,182.816C2.651,183.438 4.183,183.64 4.147,183.748L3.016,185.071C3.727,183.541 2.717,182.883 1.516,182.066L0.757,183.186C3.238,182.785 0.722,185.386 0.189,186.199L-0.184,184.321C-1.416,185.786 -1.409,186.524 -3.461,185.808C-3.563,185.773 -4.272,184.522 -5.266,185.252C-6.057,185.833 -4.855,186.104 -4.89,186.573C-6.989,186.101 -9.083,186.874 -11.102,186.987C-11.92,187.033 -13.542,187.229 -14.027,187.227C-15.156,187.225 -15.915,186.355 -16.932,186.204L-16.557,187.326C-17.2,187.62 -17.821,186.408 -18.055,186.581C-18.08,186.6 -17.986,187.103 -18.168,187.2C-19.526,187.928 -21.982,187.636 -23.518,187.708C-24.144,187.22 -22.604,187.163 -22.584,186.766C-22.576,186.593 -23.37,186.216 -23.331,185.828C-20.476,186.083 -21.589,184.022 -24.214,184.695C-24.524,184.774 -24.431,185.483 -24.641,185.451C-25.471,185.327 -25.72,184.155 -26.337,183.946C-26.736,186.288 -26.866,184.977 -28.406,185.034C-29.745,185.084 -31.006,185.593 -32.361,185.452L-31.234,186.574L-32.361,186.949C-30.81,187.677 -31.428,186.702 -30.485,186.203C-30.354,186.585 -30.857,187.742 -30.105,187.706C-30.058,187.035 -29.657,186.02 -28.98,185.825C-28.878,186.875 -28.912,187.649 -30.105,187.706C-30.115,187.84 -29.496,188.406 -29.921,188.464C-35.315,188.205 -40.707,188.659 -46.098,188.08C-47.865,187.891 -50.151,187.595 -51.807,187.013C-56.208,185.466 -54.961,183.866 -56.816,180.185L-56.077,179.809C-57.515,179.764 -57.698,176.005 -56.076,176.035C-55.886,175.371 -56.96,175.866 -56.824,175.477C-56.503,174.552 -55.374,175.346 -55.324,175.289C-55.124,175.065 -55.2,172.453 -54.94,171.902L-54.185,172.458C-55.481,170.215 -55.081,167.206 -55.696,165.001C-55.788,164.67 -56.178,164.711 -56.446,164.743C-56.614,164.113 -55.874,164.493 -55.76,164.331C-55.042,163.308 -56.778,162.958 -56.853,162.614C-57.047,161.72 -56.296,161.057 -56.177,160.372C-56.037,159.563 -57.157,158.845 -55.692,158.539C-57.63,157.873 -56.185,156.095 -56.076,154.585L-56.826,154.774L-57.205,152.709C-54.569,152.631 -56.81,151.843 -56.843,151.713C-57.132,150.557 -55.82,149.721 -57.207,149.507L-56.119,148.71C-56.407,146.776 -55.703,144.478 -55.697,142.733C-55.695,142.093 -56.052,141.481 -56.072,140.846C-56.105,139.73 -55.843,137.616 -56.069,136.766C-56.171,136.382 -56.962,136.641 -56.825,136.338C-56.259,135.087 -55.923,134.49 -55.704,132.935C-55.557,131.887 -56.956,133.273 -56.445,132.201C-55.785,130.816 -54.843,124.204 -55.102,122.576C-55.172,122.133 -55.767,121.629 -55.702,121.288C-55.613,120.825 -54.005,120.849 -54.622,120C-54.71,119.878 -55.482,120.155 -55.305,119.424C-55.169,118.864 -54.361,118.34 -54.209,117.5C-53.706,114.722 -54.301,109.994 -53.425,107.435C-53.288,107.034 -52.717,107.189 -52.694,107.157C-52.576,106.994 -53.585,106.165 -53.646,105.492C-53.789,103.909 -53.11,101.402 -53.443,99.643L-54.196,100.198C-54.33,97.776 -53.646,95.426 -53.445,93.049C-53.285,91.158 -54.273,87.206 -52.311,86.838L-52.311,86.476C-54.166,86.135 -52.904,85.635 -52.741,84.396C-52.516,82.685 -53.408,82.3 -53.403,82.169C-53.347,80.756 -52.8,78.711 -52.69,77.244C-52.592,75.938 -52.75,74.604 -52.683,73.297L-51.561,73.672C-52.332,71.798 -51.178,71.729 -51.173,71.601C-51.132,70.492 -52.588,71.104 -52.637,70.487C-52.7,69.713 -51.681,67.625 -51.571,66.666C-51.255,63.922 -51.845,59.989 -51.564,56.951C-51.301,54.119 -50.419,51.328 -50.424,48.459L-50.048,49.963C-48.647,49.67 -49.867,47.983 -49.673,47.702L-48.918,47.89C-49.321,46.464 -49.008,45.723 -47.98,44.696C-47.904,46.227 -46.604,46.525 -45.914,45.254C-45.302,44.126 -47.449,45.633 -47.046,44.507C-47.01,44.406 -45.578,43.092 -45.56,42.947C-45.481,42.294 -46.025,41.366 -45.154,40.368C-45.265,39.133 -45.532,40.055 -45.789,40.488C-46.38,41.486 -46.933,41.385 -46.289,42.433L-47.414,42.059C-47.452,42.935 -47.52,44.932 -48.54,44.136C-48.264,43.77 -47.686,41.79 -47.792,41.685C-48.007,41.472 -49.09,42.164 -48.929,41.117C-48.751,39.97 -47.137,38.478 -47.036,37.168C-46.104,37.205 -46.857,39.045 -46.1,39.041C-46.049,39.041 -45.206,38.611 -45.236,38.481C-45.302,38.2 -45.591,37.921 -45.524,37.58C-42.822,36.615 -40.443,34.421 -37.889,33.334C-37.352,33.106 -34.905,32.138 -34.659,32.338C-34.48,32.483 -34.885,33.198 -34.249,33.026C-34.315,32.249 -34.296,32.166 -33.498,32.276L-32.74,34.153C-33.656,34.846 -34.05,32.764 -34.62,33.406C-34.721,33.519 -34.519,35.569 -33.723,35.249C-33.356,35.102 -33.05,34.623 -32.63,34.454C-32.088,34.237 -29.141,33.226 -28.975,33.02C-28.871,32.89 -29.187,32.031 -29.353,31.898C-29.304,31.961 -28.911,31.791 -28.834,31.894C-28.633,32.163 -28.575,32.677 -28.419,32.652C-28.196,32.618 -27.356,31.95 -27.096,31.708C-28.213,31.171 -28.535,32.138 -28.6,30.769C-27.378,30.687 -26.8,31.614 -26.531,30.395C-26.357,30.545 -26.166,30.876 -25.981,30.928C-25.301,31.118 -19.4,27.945 -18.323,27.309C-16.81,26.414 -9.477,21.718 -8.646,20.802C-8.304,20.425 -8.273,19.956 -8.273,19.481L-7.714,20.23C-6.997,19.491 -6.243,19.19 -7.277,18.343C-7.703,17.994 -7,17.601 -6.959,17.604C-6.643,17.629 -6.53,18.699 -6.155,18.759C-5.44,18.874 -4.524,17.99 -3.764,17.969C-3.577,17.429 -5.247,17.673 -4.51,16.845C-4.357,16.672 -3.191,17.863 -3.389,16.663C-4.16,16.234 -3.895,14.961 -4.514,14.963C-4.676,15.406 -4.351,16.29 -5.258,16.464L-6.016,15.344C-5.504,15.311 -5.03,14.964 -4.514,14.963C-4.138,13.935 -3.745,13.014 -3.198,14.585C-2.89,14.429 -2.487,12.771 -1.879,13.461C-1.638,13.735 -3.771,16.164 -2.26,16.467C-2.275,13.134 -0.015,14.833 1.513,14.436C2.714,14.124 3.476,12.633 3.836,12.42C3.963,12.345 4.215,12.708 4.895,12.328C5.671,11.895 5.856,11.718 6.024,10.823" style="fill-rule:nonzero;"/>
                </g>
                <g transform="matrix(1,0,0,1,1787.38,330.531)">
                    <path d="M0,-1.275C0.295,-0.89 1.034,-1.033 0.75,-0.148C0.236,0 -0.042,-0.413 -0.376,-0.522C-0.258,-0.793 -0.401,-0.973 0,-1.275" style="fill-rule:nonzero;"/>
                </g>
                <g transform="matrix(1,0,0,1,1808.08,257.186)">
                    <path d="M0,0.188C-0.222,0.203 -0.452,0.13 -0.658,0.269C-0.818,0.458 -0.838,1.208 -0.753,1.317C-1.054,1.076 -1.621,1.882 -1.32,0.561L-3.007,1.317L-3.007,-0.188C-2.853,-0.405 -2.107,0.729 -1.891,0.564C-1.726,0.439 -0.648,-1.537 -0.004,-1.694C0.025,-1.07 -0.03,-0.435 0,0.188" style="fill-rule:nonzero;"/>
                </g>
                <g transform="matrix(1,0,0,1,1953.72,388.81)">
                    <path d="M0,-1.973C-0.348,-1.603 -0.914,-1.273 -1.03,-1.119C-1.295,-0.767 -1.068,-0.157 -1.129,-0.091C-1.226,0.011 -3.839,0.376 -3.761,-0.464C-2.537,-0.064 -2.118,-1.857 -1.397,-2.102C-0.666,-2.349 -0.039,-1.915 0,-1.973" style="fill-rule:nonzero;"/>
                </g>
                <g transform="matrix(1,0,0,1,1970.66,271.243)">
                    <path d="M0,109.946C-0.184,109.223 -0.832,109.099 -1.503,109.201C-1.892,109.383 -0.49,110.099 0,109.946M8.276,91.883C5.465,92.028 8.707,92.817 7.901,93.766C7.758,93.933 6.877,93.261 6.778,93.391L6.778,94.894C7.834,94.084 8.609,93.342 8.276,91.883M6.02,36.56L6.018,35.433L4.895,36.376L6.02,36.56ZM6.021,35.053C6.027,34.586 4.581,33.856 4.52,33.928C3.986,34.55 5.358,35.118 6.021,35.053M4.891,24.893L4.706,23.768C4.308,24.111 4.02,24.338 4.142,24.893L4.891,24.893ZM1.501,-1.072C1.473,-1.1 0.707,-1.213 0.755,-0.887C1.476,1.072 2.312,-0.279 1.501,-1.072M3.387,102.799L1.692,101.295L1.502,102.423C-0.484,101.63 1.689,100.414 1.133,98.66L2.257,99.033L1.885,97.907C2.043,98.361 4.446,97.206 4.529,96.884C4.775,95.925 4.149,94.846 4.131,93.936C4.047,89.718 4.917,84.642 5.128,80.341C5.182,79.237 4.741,77.972 4.885,76.632C4.972,75.824 5.711,74.668 5.645,74.582C5.514,74.411 4.258,74.599 4.501,73.262L5.645,72.319C2.858,72.941 3.783,68.311 2.924,66.553C2.684,66.061 2.139,66.003 2.01,65.796C1.842,65.527 1.381,62.643 1.506,62.533C2.318,61.822 2.395,64.29 2.638,62.719C2.662,60.807 1.106,61.459 1.586,59.419C1.785,58.572 3.142,57.13 1.132,57.638C1.453,57.207 1.161,55.89 1.214,55.815C1.398,55.552 2.276,55.686 2.284,54.817C2.29,54.208 1.496,53.858 1.276,53.308C1.025,52.681 0.272,47.117 0.039,45.751C-0.936,40.039 -1.18,35.833 -1.217,30.004C-1.223,29.032 -1.807,27.727 -1.788,26.877C-1.772,26.162 -0.973,26.021 -1.132,25.272C-1.248,25.141 -2.076,25.809 -2.255,25.647C-3.071,24.906 -1.297,25.019 -1.51,24.525C-1.808,24.569 -2.09,24.568 -2.243,24.245C-2.476,23.751 -3.145,17.359 -3.02,16.857C-2.909,16.416 -2.098,16.861 -2.26,16.243C-2.563,16.184 -3.272,16.34 -3.389,16.237C-3.538,16.106 -3.056,12.781 -3.088,12.286C-3.241,9.902 -4.56,5.559 -4.143,3.257C-4.063,2.815 -2.497,4.197 -3.004,2.502C-3.132,2.074 -4.386,2.089 -4.511,1.914C-4.609,1.778 -3.936,-0.822 -4.516,-1.446C-3.35,-1.67 -4.088,-0.3 -2.635,-0.7C-2.361,-2.26 -2.233,-4.35 -4.138,-4.274L-3.389,-2.58C-4.238,-2.457 -4.631,-2.637 -4.986,-3.425C-5.223,-3.951 -5.935,-9.624 -6.015,-10.676C-6.087,-11.612 -5.994,-12.562 -6.018,-13.496L-5.271,-13.114C-6.169,-13.959 -4.35,-15.458 -3.582,-15.4C-3.312,-15.38 -3.498,-14.489 -3.202,-14.621C-2.694,-14.848 -2.425,-15.808 -1.355,-15.024C-0.82,-14.633 -1.598,-13.572 -0.377,-13.872L-0.566,-15.372L0.003,-13.87L1.878,-14.051C2.073,-12.933 1.211,-13.971 1.132,-13.873C0.475,-13.051 1.831,-13.146 1.861,-13.103C2.398,-12.346 1.42,-12.401 1.385,-12.359C0.428,-11.196 2.126,-11.916 2.281,-11.395C2.459,-10.797 2.782,-6.785 2.53,-6.421C2.39,-6.218 1.712,-6.632 1.877,-5.779C1.941,-5.448 2.446,-5.729 2.616,-5.311C2.741,-5.006 3.085,-3.046 3.007,-2.955C1.402,-3.988 -0.027,-1.7 0.373,-4.458C-0.796,-3.656 0.512,-1.994 1.319,-1.451L1.315,-2.953C1.766,-1.935 3.13,-0.744 3.464,0.162C3.603,0.537 4.387,5.176 4.378,5.52C4.363,6.046 3.815,6.412 3.761,6.65C3.708,6.885 4.463,6.62 4.551,7.364C4.923,10.515 4.054,16.57 4.597,19.442C4.619,19.562 5.788,20.583 5.645,21.504L4.52,20.381C4.46,21.337 4.259,21.757 5.268,22.071C3.624,23.683 5.611,21.981 5.927,24.448C5.993,24.961 6.393,27.933 6.322,28.103C6.215,28.361 5.624,28.171 5.633,28.475C5.647,29.005 6.271,29.331 6.379,29.998C6.557,31.101 6.12,33.237 6.224,34.359C6.824,40.771 8.829,47.423 9.065,53.684C9.192,57.053 8.387,60.613 9.029,64.033C8.444,64.173 8.754,63.479 8.398,63.252C8.013,63.007 7.25,63.197 6.778,62.903C7.379,65.707 5.133,64.581 4.889,66.478C5.955,66.161 6.413,65.321 7.291,66.661C8.561,68.601 5.475,69.506 5.647,70.239C5.999,71.736 6.923,69.33 7.9,69.304C7.438,70.374 8.414,71.539 8.466,72.123C8.626,73.919 7.171,75.38 9.032,76.827L7.907,77.203C8.632,77.303 9.878,78.415 9.405,79.089L7.906,78.337C7.599,80.027 7.419,81.778 7.308,83.49C7.193,85.264 6.795,87.095 7.909,88.494L8.652,87.747C8.541,88.312 8.833,89.657 8.652,90.005C8.609,90.089 7.198,89.676 6.775,90.007C6.853,90.846 7.664,90.376 7.819,90.496C9.204,91.578 8.864,95.94 7.153,96.594C6.907,97.593 8.045,96.955 8.276,97.162C8.336,97.216 8.266,98.706 8.24,98.783C8.023,99.412 5.897,100.522 8.278,101.48L6.402,100.541C7.013,102.48 7.16,103.47 6.392,105.436L5.648,105.055C5.296,105.604 7.025,106.87 4.334,108.473C3.96,108.695 3.447,108.453 3.422,108.492C3.279,108.713 3.573,109.311 3.167,109.614C2.76,109.918 1.93,109.525 1.901,109.582C1.782,109.821 1.997,110.448 1.854,110.667C1.82,110.718 1.319,110.42 1.131,110.547C-0.077,111.363 -1.586,113.178 -2.808,114.105C-4.872,115.672 -7.323,117.187 -9.261,118.576C-10.177,119.233 -11.038,118.477 -11.29,118.608C-11.389,118.66 -10.724,120.233 -12.417,120.109L-12.423,118.608C-12.901,118.385 -12.844,120.202 -13.547,119.356C-13.849,118.992 -12.808,117.849 -13.358,117.478C-13.92,117.776 -13.734,118.557 -14.03,118.876C-15.254,120.188 -19.041,121.623 -20.124,123.511L-23.331,125.754C-24.295,123.181 -19.885,121.31 -19.58,120.829C-19.362,120.485 -20.611,119.505 -19.196,119.731C-19.011,119.004 -20.03,119.731 -19.943,118.987C-19.052,118.862 -18.703,117.989 -18.065,117.477C-17.643,117.138 -16.537,116.129 -16.439,116.065C-15.729,115.598 -14.943,116.64 -15.811,114.469C-16.231,114.588 -16.554,115.19 -16.936,115.595C-16.846,115.46 -17.082,114.566 -16.759,114.081C-16.512,113.709 -13.777,112.695 -13.176,112.208C-12.754,113.828 -14.015,113.217 -14.584,113.801C-15.135,114.366 -15.306,115.73 -14.305,115.971C-14.692,114.581 -13.033,114.299 -12.872,114.017C-12.502,113.368 -13.222,111.684 -11.849,111.082L-11.1,113.335L-10.165,112.587C-9.969,111.909 -11.359,110.977 -10.911,110.323C-10.819,110.189 -10.352,110.94 -10.173,110.446C-10.089,110.215 -10.313,109.817 -9.938,109.537C-8.996,108.833 -7.592,109.304 -7.53,109.196C-7.477,109.104 -8.395,106.906 -6.783,108.254C-6.629,108.92 -10.792,111.286 -10.161,111.828C-9.435,112.451 -9.399,111.213 -9.338,111.179C-8.161,110.526 -6.306,109.574 -4.818,108.785C-4.416,108.573 -4.153,107.831 -3.572,107.692C-3.184,107.6 -3.683,108.623 -3.014,108.443C-3.743,105.078 1.257,105.376 2.263,103.179C2.633,102.793 2.688,104.737 3.386,103.928C3.505,103.79 3.285,102.898 3.387,102.799C3.499,102.691 4.45,103.032 4.525,102.612C4.889,100.573 2.39,99.501 3.387,102.799" style="fill-rule:nonzero;"/>
                </g>
                <g transform="matrix(1,0,0,1,1944.69,402.232)">
                    <path d="M0,-4.104C0.201,-2.451 -1.994,-1.249 0.747,-1.089C0.645,-0.335 -0.405,-1.118 0.361,0.015C-0.083,-0.115 -1.079,0.469 -1.13,0.411C-1.26,0.265 -0.174,-1.25 -1.985,-1.022C-3.052,-0.888 -5.136,0.052 -4.146,1.164C-5.568,-0.434 -5.974,2.255 -7.905,1.916C-8.391,0.163 -6.977,0.157 -6.518,-0.421C-6.438,-0.522 -6.724,-0.939 -6.413,-1.258C-5.913,-1.771 -4.883,-2.217 -4.14,-2.23L-4.522,-2.972C-1.676,-2.966 -0.356,-5.418 2.069,-6.359C2.78,-4.86 1.336,-2.54 0,-4.104" style="fill-rule:nonzero;"/>
                </g>
                <g transform="matrix(1,0,0,1,1970.28,379.649)">
                    <path d="M0,-5.227C-0.899,-3.068 -2.969,-2.853 -4.489,-1.239C-4.914,-0.787 -4.814,-0.191 -4.951,-0.021C-5.238,0.336 -6.81,-0.478 -6.394,-1.467C-5.192,-0.814 -4.917,-1.344 -4.879,-2.598C-3.856,-1.813 -4.232,-2.875 -3.6,-3.364C-3.231,-3.65 -2.678,-3.681 -2.291,-3.963C-1.662,-4.422 -1.456,-5.563 0,-5.227" style="fill-rule:nonzero;"/>
                </g>
                <g transform="matrix(1,0,0,1,1936.75,405.102)">
                    <path d="M0,0.12C-0.101,0.3 -2.354,1.914 -2.596,0.736C-2.795,-0.229 -0.646,-0.665 -0.712,-1.702C-0.168,-1.794 0.048,0.035 0,0.12" style="fill-rule:nonzero;"/>
                </g>
                <g transform="matrix(1,0,0,1,1838.18,239.267)">
                    <path d="M0,-1.46C0.068,-1.423 -0.353,-0.378 0.376,0.037L-1.503,0.416C-1.776,0.153 -0.754,-1.876 0,-1.46" style="fill-rule:nonzero;"/>
                </g>
                <g transform="matrix(1,0,0,1,1973.59,367.577)">
                    <path d="M0,-1.677C0.079,-1.638 0.059,-1.206 0.161,-1.167C0.343,-1.098 0.752,-1.543 0.833,-1.441C1.216,-0.957 0.698,-0.495 0.084,-0.683L0.086,-0.313C1.206,-0.401 0.925,-0.144 0.272,0.435C-0.574,-0.062 0.18,-1.601 -1.042,-1.445C-1.112,-2.112 -0.355,-1.855 0,-1.677" style="fill-rule:nonzero;"/>
                </g>
                <g transform="matrix(1,0,0,1,1923.99,229.557)">
                    <path d="M0,-0.404C0.652,0.291 0.101,0.162 -0.457,0.256C-1.621,0.451 -2.166,0.489 -1.878,-0.784C-1.776,-0.893 -0.1,-0.511 0,-0.404" style="fill-rule:nonzero;"/>
                </g>
                <g transform="matrix(1,0,0,1,1940.17,400.386)">
                    <path d="M0,-1.878L-2.254,0C-2.664,-1.369 -0.969,-1.646 0,-1.878" style="fill-rule:nonzero;"/>
                </g>
                <g transform="matrix(1,0,0,1,1810.72,410.655)">
                    <path d="M0,2.899C-0.09,2.864 0.329,1.784 -0.755,2.527C0.257,-0.509 1.3,3.408 0,2.899" style="fill-rule:nonzero;"/>
                </g>
                <g transform="matrix(1,0,0,1,1974.42,343.557)">
                    <path d="M0,1.88C-0.501,1.715 -1.503,0.498 -1.121,0C-0.364,0.277 0.158,1.05 0,1.88" style="fill-rule:nonzero;"/>
                </g>
                <g transform="matrix(1,0,0,1,1957.86,392.368)">
                    <path d="M0,-1.389C0.264,0 -0.858,-1.04 -1.877,-1.019L-1.878,-1.387L0,-1.389Z" style="fill-rule:nonzero;"/>
                </g>
                <g transform="matrix(-0.709446,-0.70476,-0.70476,0.709446,1936.03,400.476)">
                    <path d="M-1.264,-0.864C-1.271,-0.818 -0.951,-0.589 -0.949,-0.329C-0.948,-0.02 -1.27,0.173 -1.264,0.203C-1.117,0.876 0.248,0.108 -0.615,-1.266C-0.806,-1.52 -1.249,-0.959 -1.264,-0.864" style="fill-rule:nonzero;"/>
                </g>
                <g transform="matrix(1,0,0,1,1804.69,258.501)">
                    <path d="M0,-1.125L-0.184,0L-1.127,-1.123L0,-1.125Z" style="fill-rule:nonzero;"/>
                </g>
                <g transform="matrix(1,0,0,1,1925.88,405.657)">
                    <path d="M0,1.503L0,0L0.368,0C0.544,0.801 1.016,1.168 0,1.503" style="fill-rule:nonzero;"/>
                </g>
                <g transform="matrix(1,0,0,1,1929.63,407.913)">
                    <path d="M0,-1.127C0.116,-0.608 -0.203,-0.126 -0.747,0L-0.749,-1.127L0,-1.127Z" style="fill-rule:nonzero;"/>
                </g>
                <g transform="matrix(1,0,0,1,1787.38,335.464)">
                    <path d="M0,-0.186C1.097,-0.377 0.237,-1.526 0.375,-1.69C0.519,-1.861 1.273,-0.949 1.5,-0.749L0.751,-0.559L1.499,-0.185C0.808,2.469 0.057,-0.158 -0.188,-0.179C-0.331,-0.192 -1.572,0.924 -2.26,0.565C-2.793,-2.655 -0.554,-1.244 -0.407,-1.359C-0.248,-1.484 -0.654,-2.227 -0.008,-2.066L0,-0.186Z" style="fill-rule:nonzero;"/>
                </g>
                <g transform="matrix(1,0,0,1,1929.52,380.145)">
                    <path d="M0,-2.218C2.307,0.545 -1.728,0.269 -1.007,-2.717C-0.975,-2.763 -0.109,-2.349 0,-2.218" style="fill-rule:nonzero;"/>
                </g>
                <g transform="matrix(1,0,0,1,1928.12,384.166)">
                    <path d="M0,0.788C-0.894,1.506 -1.041,-0.718 0.379,-0.716C0.473,-0.598 0.06,0.739 0,0.788" style="fill-rule:nonzero;"/>
                </g>
                <g transform="matrix(1,0,0,1,1814.1,407.155)">
                    <path d="M0,-0.367L0,0C-1.913,0.815 -1.913,-1.182 0,-0.367" style="fill-rule:nonzero;"/>
                </g>
                <g transform="matrix(-1,0,0,1,1927.75,372.161)">
                    <path d="M-1.129,1.5L0,1.5L-0.38,0L-0.749,0L-1.129,1.5Z" style="fill-rule:nonzero;"/>
                </g>
                <g transform="matrix(1,0,0,1,1930.01,370.16)">
                    <path d="M0,-0.633L0,0.116L-1.127,0.114C-1.001,-0.43 -0.519,-0.749 0,-0.633" style="fill-rule:nonzero;"/>
                </g>
                <g transform="matrix(1,0,0,1,1928.13,400.76)">
                    <path d="M0,-1.125L-0.184,0C-0.583,-0.343 -0.871,-0.57 -0.749,-1.125L0,-1.125Z" style="fill-rule:nonzero;"/>
                </g>
                <g transform="matrix(1,0,0,1,0,-466.112)">
                    <path d="M1885.98,722.359L1885.61,722.359L1885.61,724.237L1885.98,724.237L1885.98,722.359ZM1888.99,723.862L1888.99,721.606C1888.77,721.131 1887.53,723.594 1888.99,723.862M1879.11,721.351C1878.83,721.201 1878.16,721.025 1878.08,721.414C1878.7,722.158 1879.6,722.366 1880.4,722.773C1880.7,722.922 1880.72,723.459 1880.97,723.489C1881.74,723.582 1883.45,723.095 1884.47,723.484C1884.3,721.614 1881.36,722.479 1880.02,722.128C1879.15,721.899 1879.2,721.399 1879.11,721.351M1894.64,717.842C1895.18,721.049 1898.54,720.804 1896.51,717.467L1896.14,718.968L1894.64,717.842ZM1879.53,717.784C1879.76,717.648 1879.98,716.36 1879.95,715.961L1878.08,717.655C1878.21,718.005 1879.32,717.907 1879.53,717.784M1881.84,713.7C1882.7,713.475 1882.63,712.521 1882.59,711.819C1881.79,712.001 1881.98,713.034 1881.84,713.7M1877.7,713.701C1878.09,713.36 1878.4,712.909 1879.01,712.948C1879.57,713.048 1879.03,714.971 1879.95,714.078C1880.02,714.02 1880.02,712.927 1880.33,712.444C1880.51,712.152 1881.04,712.207 1881.07,712.174C1881.54,711.384 1879.34,710.526 1879.3,709.455C1879.24,707.768 1880.31,708.225 1880.6,707.964C1881.51,707.135 1881.38,705.698 1881.48,704.874C1881.77,702.502 1883.66,704.352 1884.23,704.241C1884.76,704.139 1885.32,702.762 1886.36,703.166C1885.58,704.81 1886.5,704.056 1887.16,704.839C1887.45,705.186 1887.07,705.77 1887.11,705.795C1887.28,705.895 1887.81,705.505 1888.25,705.641C1888.77,705.8 1897.39,710.299 1897.79,710.661C1898.78,711.553 1897.63,710.9 1899.42,711.922C1901.22,712.942 1902.81,716.016 1903.51,717.814C1903.85,718.709 1905.58,719.916 1903.29,719.725C1903.15,719.805 1903.82,720.583 1903.66,720.815C1903.54,720.986 1899.82,723.092 1899.91,721.792C1901.11,720.859 1902.92,720.334 1903.67,718.973C1901.65,719.293 1898.99,719.826 1899.15,722.355L1898.4,721.606C1898.3,722.778 1899.41,723.467 1898.74,724.58C1896.06,724.315 1893.57,726.037 1891.03,726.466C1888.13,726.957 1885.05,726.471 1882.21,726.493C1882.95,724.779 1880.3,724.746 1879.29,724.358C1879.18,724.319 1877.58,723.212 1877.49,723.138C1876.9,722.616 1877.01,721.707 1876.92,721.629C1876.54,721.296 1874.97,722.362 1874.69,721.414C1874.59,721.06 1875.24,721.332 1875.36,721.182C1875.47,721.049 1875.03,720.465 1875.15,720.016C1875.31,719.405 1876.74,716.249 1876.54,715.984C1876.41,715.821 1875.67,716.245 1875.82,715.586C1876.98,715.824 1877.36,715.249 1878.08,714.83C1878.22,714.746 1878.76,714.922 1878.83,714.828C1879.14,714.417 1878.32,713.471 1877.7,713.701" style="fill-rule:nonzero;"/>
                </g>
                <g transform="matrix(1,0,0,1,1878.08,247.686)">
                    <path d="M0,1.032C-1.652,1.129 -1.404,0.791 -0.376,-0.097L0,1.032Z" style="fill-rule:nonzero;"/>
                </g>
                <g transform="matrix(-0.178425,-0.983954,-0.983954,0.178425,1859.41,267.328)">
                    <path d="M-1.76,-2.209C-2.935,-2.536 -2.478,0.128 -2.354,0.391C-2.239,0.633 -1.221,0.201 -1.76,1.995L-0.679,1.598L-1.76,-2.209Z" style="fill-rule:nonzero;"/>
                </g>
                <g transform="matrix(1,0,0,1,1815.53,264.058)">
                    <path d="M0,-0.558C0.099,-0.482 0.063,-0.095 0.075,0.087C0.786,0.225 0.066,-0.953 1.006,-0.665C1.415,-0.54 1.078,-0.1 1.202,0.09C1.807,0.277 1.433,-0.545 1.759,-0.672C2.35,-0.903 2.939,-0.724 2.702,0.085C1.721,0.324 0.582,0.731 -0.43,0.402C-1.683,-0.004 -0.954,-1.289 0,-0.558" style="fill-rule:nonzero;"/>
                </g>
                <g transform="matrix(1,0,0,1,1857.38,269.368)">
                    <path d="M0,-1.076C0.072,-1.025 -0.696,0.367 -0.945,0.425C-2.207,0.722 -1.959,-1.798 0,-1.076" style="fill-rule:nonzero;"/>
                </g>
                <g transform="matrix(1,0,0,1,1874.31,254.742)">
                    <path d="M0,1.503C-0.914,1.16 -1.005,0.581 -0.182,0L0,1.503Z" style="fill-rule:nonzero;"/>
                </g>
                <g transform="matrix(1,0,0,1,1833.67,248.813)">
                    <path d="M0,-0.846C0.58,-0.271 -1.063,0.356 -1.123,0.281C-1.498,-0.183 -0.359,-1.202 0,-0.846" style="fill-rule:nonzero;"/>
                </g>
                <g transform="matrix(1,0,0,1,1925.49,273.234)">
                    <path d="M0,1.449C-0.053,1.502 -0.246,1.43 -0.368,1.45C-0.47,0.778 -0.346,0.13 0.377,-0.053C0.417,0.242 0.086,1.364 0,1.449" style="fill-rule:nonzero;"/>
                </g>
                <g transform="matrix(1,0,0,1,1864.53,268.928)">
                    <path d="M0,0.861L-1.127,0.863L-1.127,0.114C-0.608,-0.002 -0.126,0.317 0,0.861" style="fill-rule:nonzero;"/>
                </g>
                <g transform="matrix(1,0,0,1,1937.54,269.905)">
                    <path d="M0,-0.861C-0.126,-0.317 -0.608,0.002 -1.127,-0.114L-1.127,-0.863L0,-0.861Z" style="fill-rule:nonzero;"/>
                </g>
                <g transform="matrix(1,0,0,1,1744.09,115.269)">
                    <path d="M0,145.114L-1.127,143.238C-0.003,143.932 -1.304,145.371 0,145.114M-71.504,140.22C-71.809,139.436 -72.536,138.952 -73.384,139.098C-73.039,139.712 -72.285,140.449 -71.504,140.22M8.658,136.456L7.533,135.331C7.405,136.017 7.946,136.58 8.658,136.456M11.665,133.447C11.557,132.565 12.403,131.497 11.296,131.191L11.296,133.447L11.665,133.447ZM14.681,128.93C14.613,128.869 14.724,128.392 14.676,128.181C14.151,128.037 14.377,128.55 14.051,128.879C13.814,129.117 12.825,130.225 12.784,130.332C12.577,130.864 12.665,131.42 12.423,131.941L14.301,131.943C13.432,129.864 15.305,130.761 15.814,130.436C15.909,130.375 15.329,128.771 15.805,128.182C15.187,128.124 15.527,129.684 14.681,128.93M-83.175,123.664L-83.357,122.161C-84.179,122.742 -84.088,123.321 -83.175,123.664M-85.429,119.897C-85.794,119.268 -85.75,118.252 -86.555,118.019C-86.442,118.796 -86.611,120.055 -85.429,119.897M44.787,108.614L44.037,108.612L44.039,110.114L44.407,110.113L44.787,108.614ZM52.313,95.436L52.128,94.311C51.729,94.654 51.442,94.881 51.564,95.436L52.313,95.436ZM47.418,93.556C47.519,92.854 47.421,92.252 46.673,92.051C46.572,92.753 46.67,93.355 47.418,93.556M45.915,89.789C45.875,89.749 44.805,89.651 44.789,89.979C45.373,92.242 48.286,91.589 47.418,90.546C47.257,90.352 46.518,91.59 45.918,91.296C45.85,90.937 46.022,89.898 45.915,89.789M44.411,88.284C44.482,88.223 43.752,86.777 43.286,86.782C43.221,87.446 43.788,88.818 44.411,88.284M44.413,87.533C44.772,87.889 45.912,86.87 45.536,86.406C45.476,86.33 43.833,86.958 44.413,87.533M48.172,85.278C48.038,85.164 46.427,85.834 45.918,85.657C45.757,86.281 46.5,85.859 46.605,86.204C46.706,86.534 46.201,88.191 46.299,88.278C46.442,88.405 47.663,87.967 47.429,89.036C48.057,88.448 49.467,87.572 48.741,86.784L47.423,87.907C47.771,87.335 47.344,86.706 47.409,86.277C47.444,86.049 48.897,85.897 48.172,85.278M-103.497,86.029C-103.122,85.565 -104.261,84.546 -104.621,84.902C-105.201,85.477 -103.558,86.104 -103.497,86.029M-97.098,59.687L-98.227,59.688C-98.267,62.101 -96.723,60.017 -97.098,59.687M-91.827,57.423C-91.645,57.27 -92.489,56.433 -92.954,56.676L-92.952,57.803L-91.827,57.423ZM-85.054,47.269L-87.309,47.269C-87.305,48.497 -84.447,47.546 -85.054,47.269M-74.511,45.384C-73.695,44.94 -73.025,44.454 -73.952,43.88L-74.511,45.384ZM43.286,44.255C44.302,43.92 43.83,43.553 43.654,42.752L43.286,42.751L43.286,44.255ZM-50.431,30.704L-50.615,29.579C-51.014,29.922 -51.301,30.149 -51.179,30.704L-50.431,30.704ZM-110.272,32.21C-110.111,32.068 -109.883,29.594 -110.641,29.579L-111.014,32.031C-111.066,32.346 -110.309,32.242 -110.272,32.21M-109.515,28.821L-110.641,26.191C-110.209,27.122 -111.135,28.89 -109.515,28.821M27.097,14.901L26.348,14.901L26.348,16.026L27.097,16.026L27.097,14.901ZM-21.452,12.269C-22.123,12.167 -22.771,12.291 -22.955,13.014C-22.465,13.167 -21.063,12.451 -21.452,12.269M-98.52,4.827L-100.198,6.525L-99.811,6.908L-98.133,5.209L-98.52,4.827ZM-106.132,6.245C-106.03,6.131 -105.662,3.893 -106.5,3.989L-107.255,4.361C-107.352,4.714 -106.8,5.336 -106.911,5.468C-107.046,5.63 -107.781,5.199 -107.631,5.863L-106.132,6.245ZM-101.612,2.099C-101.585,2.071 -101.472,1.305 -101.798,1.353C-103.757,2.074 -102.406,2.91 -101.612,2.099M-88.06,0.598C-87.044,0.263 -87.515,-0.104 -87.692,-0.905L-88.06,-0.905L-88.06,0.598ZM-56.074,-17.47C-56.506,-18.898 -56.917,-18.99 -57.201,-17.468L-56.074,-17.47ZM-44.409,-20.099C-44.66,-20.321 -46.288,-20.067 -46.288,-19.351L-44.41,-19.349C-44.427,-19.587 -44.359,-20.055 -44.409,-20.099M-9.407,-30.259C-10.059,-30.776 -10.899,-29.169 -10.532,-28.382L-10.163,-28.383C-10.411,-28.945 -9.328,-30.196 -9.407,-30.259M-3.763,-32.899L-3.765,-34.026L-4.89,-33.646C-5.072,-33.492 -4.229,-32.655 -3.763,-32.899M-11.667,-38.916C-11.998,-39.228 -13.068,-38.304 -13.17,-37.793C-12.521,-37.689 -11.087,-38.372 -11.667,-38.916M-9.03,-40.044C-9.417,-40.124 -11.33,-39.222 -11.286,-39.108C-10.847,-37.962 -9.154,-39.497 -9.03,-40.044M27.099,115.761C29.07,113.929 31.061,112.469 33.374,111.114C33.843,110.84 33.564,109.683 35.081,110.529C35.388,110.701 35.4,111.235 35.604,111.243C38.319,111.349 36.963,108.392 37.831,108.235C38.651,108.298 39.598,109.93 40.433,109.719C40.821,109.621 42.421,107.225 42.564,107.133C42.698,107.047 43.259,107.586 43.597,107.436C43.795,107.348 46.077,104.924 46.429,104.468C46.571,104.284 46.284,103.786 46.339,103.749C46.843,103.408 47.776,104.399 47.419,102.213L45.919,102.587L47.048,101.833C46.11,100.198 47.682,98.065 45.164,98.076L45.916,99.198C43.585,99.234 44.794,97.692 44.732,96.359C44.727,96.251 42.884,95.919 44.786,95.252C44.424,94.439 43.449,95.174 43.305,95.061C43.183,94.965 43.11,93.856 42.88,93.472C42.336,92.561 41.313,91.531 40.684,90.32C40.354,89.683 40.37,88.66 40.081,88.278C39.786,87.888 39.135,88.026 38.856,87.821C38.345,87.447 38.868,86.346 38.597,86.023C38.308,85.678 37.637,85.761 37.385,85.528C35.604,83.885 37.613,83.953 37.669,83.549C37.689,83.409 36.856,80.985 36.778,80.867C36.359,80.222 33.792,78.352 33.12,77.46C32.225,76.272 31.303,74.745 31.612,73.235L31.053,74.737C29.506,72.735 27.351,70.573 26.021,68.474C25.664,67.909 25.651,66.894 25.59,66.835C24.675,65.95 25.218,68.139 24.468,67.965C24.752,66.385 22.723,67.135 22.963,64.954L24.083,64.773C22.396,62.518 21.141,59.503 19.565,57.246C18.132,55.195 15.18,53.468 15.429,50.654C14.745,50.898 14.683,51.944 13.731,52.152C12.818,52.35 13.237,51.458 13.17,51.031C12.476,50.884 13.15,52.11 12.239,51.778C12.057,51.712 11.505,51.349 11.918,51.034C12.049,50.934 13.008,51.013 12.419,50.279C12.14,49.931 9,50.715 11.292,47.645C10.646,47.366 10.317,48.315 9.975,48.305C8.656,48.265 7.29,44.267 6.399,43.309L7.149,41.998C6.637,41.79 6.789,43.543 6.027,42.75C5.947,42.666 5.732,41.109 5.453,40.496C3.026,35.17 -0.182,32.132 -3.318,27.441C-5.263,24.532 -6.516,20.674 -9.406,18.473L-8.656,17.914C-10.736,18.262 -9.978,17.42 -10.563,16.319C-11.582,14.396 -10.826,14.858 -12.688,13.295C-13.06,12.982 -14.416,10.546 -14.873,10.027C-16.744,7.904 -18.799,11.886 -19.38,11.882C-19.461,11.881 -20.045,11.291 -19.945,11.143L-18.064,9.817C-19.24,9.322 -20.109,11.21 -21.072,11.702C-19.512,11.461 -19.467,11.709 -20.727,12.799C-22.407,14.253 -26.155,15.319 -28.038,16.779L-27.471,15.28C-28.345,14.975 -30.002,16.59 -30.188,16.661C-30.416,16.747 -30.87,16.44 -31.218,16.594C-33.149,17.444 -34.311,18.343 -35.749,19.982L-33.869,19.796C-33.776,19.87 -34.332,20.752 -34.525,20.934C-36.555,22.851 -41.527,24.676 -43.918,26.305C-44.347,26.598 -45.103,28.054 -46.107,28.444C-47.103,28.831 -46.476,27.127 -46.664,26.939C-46.728,26.875 -48.264,26.864 -48.488,27.003C-48.617,27.082 -49.258,29.165 -50.05,29.391L-48.551,28.824C-48.02,29.569 -50.275,31.473 -50.899,31.952C-53.858,34.221 -58.567,37.123 -61.843,39.05C-64.32,40.508 -66.926,41.263 -69.059,43.118C-70.888,41.684 -66.265,40.763 -65.862,39.921C-65.502,39.17 -66.595,39.324 -66.99,39.365L-66.612,40.106C-69.005,40.409 -70.613,42.388 -72.823,43.117C-73.093,45.758 -71.522,42.251 -70.753,43.127C-69.888,44.114 -71.723,44.407 -71.987,44.624C-72.57,45.104 -75.417,47.54 -75.875,47.609C-76.697,47.734 -77.022,46.42 -76.773,46.141C-76.682,46.039 -75.319,46.225 -75.268,45.387C-75.973,45.305 -76.345,45.843 -77.022,46.02C-77.3,46.092 -77.836,45.738 -77.881,45.771C-78.006,45.864 -78.047,46.903 -78.34,47.187C-78.383,47.228 -78.895,47.022 -79.223,47.235C-80.006,47.744 -80.4,48.1 -81.293,48.531C-81.686,48.721 -82.038,48.268 -81.662,49.331C-81.363,50.174 -79.618,49.66 -80.521,48.796C-79.244,48.719 -77.844,46.437 -77.529,48.771C-78.561,48.06 -78.173,49.008 -78.884,49.472C-79.642,49.966 -83.265,52.2 -83.733,52.16C-84.251,52.116 -83.871,50.649 -83.174,50.652L-82.799,51.402L-82.422,49.147C-83.333,50.734 -84.948,49.788 -85.05,49.901C-85.137,49.998 -84.552,51.486 -85.805,52.155C-82.652,51.035 -84.789,54.106 -86.932,54.038L-85.804,53.286C-86.431,50.576 -87.613,53.757 -88.814,54.229C-88.368,54.245 -86.156,54.148 -86.935,55.164C-86.975,55.216 -87.789,55.301 -88.19,55.596C-91.178,57.796 -94.291,59.757 -97.378,61.551C-98.455,62.177 -106.011,66.734 -106.501,66.082C-107.211,65.135 -105.046,65.03 -104.623,65.327C-104.425,63.895 -107.893,64.802 -108.01,64.958C-108.042,65 -107.594,65.645 -107.643,65.692C-108.369,66.68 -109.113,64.869 -109.513,65.332C-110.119,66.034 -107.396,66.893 -108.012,67.586C-108.633,68.286 -108.751,66.9 -109.041,66.837C-111.151,66.375 -109.745,66.508 -110.348,65.811C-110.582,65.541 -111.525,65.685 -111.772,65.14C-110.893,64.971 -111.137,64.145 -110.768,63.807C-110.163,63.253 -106.915,62.497 -108.046,60.849C-108.232,60.579 -109.585,60.763 -109.513,60.065C-107.802,60.549 -106.625,57.802 -105.18,57.423C-104.998,57.375 -105.071,58.731 -104.245,58.176C-104.196,58.143 -104.524,57.552 -104.439,57.425C-104.062,56.855 -103.323,57.425 -103.088,57.251C-102.75,56.999 -102.9,56.255 -102.487,55.892C-101.953,55.423 -98.694,54.225 -97.77,53.634C-95.831,52.394 -94.057,50.561 -91.958,49.544C-91.382,49.265 -90.898,49.458 -90.321,49.345C-89.284,48.52 -90.874,48.891 -90.697,48.584C-90.343,47.977 -86.796,46.156 -85.936,45.628C-85.649,45.451 -85.533,44.775 -84.958,44.518C-84.454,44.293 -83.635,44.732 -83.552,44.631C-83.463,44.523 -83.757,43.879 -83.311,43.473C-82.969,43.161 -75.929,38.85 -75.418,38.647C-74.582,38.315 -73.932,38.111 -73.007,38.23L-73.39,37.483C-72.209,37.766 -72.214,36.783 -71.411,36.264C-69.014,34.713 -65.955,33.62 -63.479,32.145C-60.772,30.532 -56.066,26.683 -53.406,25.652C-52.604,25.341 -51.612,25.701 -50.807,25.815L-50.801,24.31L-50.056,25.059C-50.258,22.945 -46.919,21.27 -45.275,20.242C-42.241,18.346 -38.802,16.513 -35.637,14.825C-31.893,12.828 -26.599,9.717 -22.601,8.647C-21.343,8.31 -22.037,9.382 -21.64,9.253C-20.91,9.016 -21.73,7.747 -20.885,7.379C-18.872,9.262 -19.986,7.352 -19.88,7.05C-19.842,6.94 -18.166,5.999 -18.061,5.594C-17.908,4.999 -18.175,4.152 -18.026,3.458C-15.839,-6.782 -14.822,-17.886 -12.161,-27.936C-11.978,-28.629 -11.831,-29.315 -11.581,-29.99C-11.458,-30.324 -9.901,-31.614 -11.108,-31.769C-11.785,-31.856 -21.744,-26.79 -23.453,-26.056C-31.87,-22.445 -40.71,-19.68 -48.742,-15.213L-49.298,-15.395C-48.106,-16.199 -49.026,-17.416 -48.55,-18.595C-49.713,-18.195 -48.928,-16.818 -49.304,-15.962C-50.214,-16.104 -49.751,-17.245 -50.028,-17.624C-50.704,-18.55 -52.792,-16.794 -51.189,-15.8C-50.946,-15.649 -49.471,-16.447 -50.979,-14.442L-67.217,-6.953C-68.065,-6.753 -67.356,-8.04 -68.492,-7.678C-67.379,-6.109 -71.833,-4.766 -73.005,-4.473C-75.815,-3.771 -75.625,-6.142 -76.204,-6.155C-76.51,-6.161 -80.865,-3.417 -80.541,-5.421L-80.909,-5.421C-80.549,-3.763 -82.401,-3.9 -82.721,-3.443C-82.926,-3.151 -82.722,-2.496 -82.796,-2.407C-82.833,-2.362 -83.617,-2.908 -83.941,-2.64C-84.453,-2.215 -83.868,-0.875 -85.427,-1.28C-85.446,-0.57 -84.251,-1.304 -85.059,-0.157L-83.927,0.405C-84.62,0.923 -87.872,2.532 -88.439,2.101C-88.322,1.462 -88.173,0.284 -88.427,-0.278C-88.61,-0.685 -89.109,-0.458 -89.243,-0.574C-89.612,-0.895 -89.544,-1.201 -89.758,-1.29C-90.777,-1.712 -89.853,0.02 -89.991,0.17C-90.504,0.73 -94.647,2.152 -95.59,1.354L-94.841,2.856C-96.03,2.1 -97.198,3.144 -98.223,3.799C-97.924,4.24 -96.113,4.225 -95.966,4.366C-95.828,4.497 -95.672,5.196 -96.436,5.025C-97.521,4.781 -97.555,4.254 -97.469,5.87L-96.72,6.238C-99.052,6.867 -101.288,7.796 -102.641,9.919L-106.884,38.612L-107.63,38.23C-106.879,39.837 -107.955,39.79 -107.957,39.906C-107.959,40.127 -107.62,40.498 -107.712,40.971C-107.949,42.183 -108.124,43.63 -109.512,43.884L-109.511,44.249C-107.952,44.215 -108.681,47.616 -110.264,45.76C-110.048,46.58 -110.839,47.043 -111.019,47.457C-111.14,47.734 -110.464,47.526 -110.286,47.918C-108.884,51.011 -110.895,50.157 -110.99,50.302C-111.515,51.102 -110.575,53.257 -111.769,52.915L-111.769,53.282C-110.959,52.85 -110.993,55.098 -111.029,55.709C-111.055,56.153 -111.551,56.521 -111.589,56.86C-111.65,57.391 -111.17,58.527 -111.4,58.932C-111.433,58.989 -112.253,58.401 -112.524,59.127C-111.732,60.27 -112.512,61.555 -112.425,62.466C-112.345,63.289 -111.283,63.693 -111.399,64.575L-113.234,63.023C-113.336,62.847 -112.583,61.882 -112.708,61.137C-112.844,60.315 -114.111,60.694 -113.275,58.746C-115.443,58.966 -113.275,57.691 -113.281,57.575C-113.361,55.859 -113.009,56.909 -112.893,56.489C-112.604,55.441 -113.469,55.604 -113.533,55.473C-113.633,55.268 -113.337,54.907 -113.405,54.677C-113.531,54.255 -114.132,53.811 -114.032,53.671C-113.996,53.621 -113.276,53.731 -112.974,53.036C-112.711,52.433 -112.775,51.192 -112.519,50.47C-112.567,50.043 -114.249,50.759 -113.651,49.149L-112.708,49.53C-112.575,48.015 -111.542,46.325 -111.592,44.824C-111.625,43.822 -112.194,42.686 -112.136,41.825C-112.072,40.869 -110.921,38.452 -110.826,37.672C-110.748,37.024 -111.232,36.001 -111.018,35.223L-109.516,35.595L-110.27,32.586L-111.024,34.469C-112.443,33.453 -111.326,30.678 -111.246,29.248C-110.873,22.527 -110.345,12.19 -108.586,5.853C-107.756,2.863 -105.965,2.988 -103.61,1.978C-103.45,1.91 -103.393,1.173 -102.471,1.034C-101.139,0.835 -101.281,1.444 -100.668,1.726C-100.366,1.865 -100.585,1.248 -100.366,1.115C-99.251,0.438 -98.283,0.941 -97.098,0.971L-98.223,0.412C-97.738,0.131 -97.454,-0.909 -97.108,-1.097C-96.823,-1.252 -96.395,-0.891 -96.203,-0.927C-95.882,-0.988 -96.005,-2.339 -95.209,-1.467L-95.404,0.596C-94.855,-0.007 -94.245,-0.545 -93.485,-0.871C-91.668,-1.651 -87.718,-2.794 -86.162,-3.736C-85.853,-3.922 -86.064,-4.508 -85.82,-4.865C-84.992,-6.079 -83.682,-5.393 -82.264,-5.814C-81.682,-5.987 -79.229,-6.99 -78.886,-7.264C-78.478,-7.589 -78.87,-9.701 -77.336,-10.314C-76.716,-8.95 -75.576,-9.19 -76.401,-10.685C-72.79,-11.979 -69.462,-13.995 -65.977,-15.558C-65.469,-15.786 -64.729,-16.168 -64.431,-16.291C-63.869,-16.523 -61.772,-17.458 -61.504,-17.485C-60.798,-17.556 -61.014,-16.698 -60.751,-16.687C-59.606,-16.639 -59.194,-17.564 -59.458,-18.595C-58.042,-17.846 -58.761,-18.394 -57.959,-18.97L-57.769,-18.22C-56.797,-19.807 -55.418,-20.485 -53.997,-18.977L-53.819,-19.722L-52.683,-19.722L-52.506,-18.977L-51.185,-20.477C-52.769,-19.539 -52.505,-20.553 -52.812,-20.724C-53.259,-20.974 -53.921,-20.592 -53.813,-21.225L-50.27,-22.314L-48.74,-20.481L-47.795,-21.978C-48.896,-22.214 -49.603,-22.161 -49.276,-23.46C-46.092,-24.719 -43.003,-26.117 -39.798,-27.348C-39.44,-27.486 -39.001,-28.001 -38.947,-27.999C-38.686,-27.986 -38.54,-27.153 -38.285,-26.981C-38.033,-26.812 -35.846,-26.412 -35.753,-26.501L-36.505,-29.129C-35.088,-29.213 -33.965,-30 -32.748,-30.464C-31.083,-31.099 -29.901,-31.662 -28.51,-32.255C-26.232,-33.227 -23.843,-34.036 -21.636,-35.152L-21.448,-34.022C-20.955,-34.273 -18.552,-34.677 -18.438,-34.782C-18.293,-34.916 -18.234,-35.714 -18.98,-35.512C-19.459,-35.383 -21.331,-33.946 -20.241,-35.842C-20.113,-36.067 -15.863,-38.167 -15.605,-38.143C-15.11,-38.097 -15.312,-36.589 -14.3,-37.04C-15.103,-39.66 -14.326,-38.576 -12.712,-39.328C-12.479,-39.436 -12.42,-39.841 -12.285,-39.904C-11.695,-40.182 -9.995,-40.996 -9.544,-41.133C-8.659,-41.401 -8.696,-39.474 -8.652,-38.917C-7.454,-38.593 -8.136,-39.674 -7.848,-39.968C-7.317,-40.508 -5.951,-39.604 -5.831,-40.804C-5.011,-39.601 -6.377,-39.725 -6.772,-38.922C-3.815,-38.679 -5.422,-39.138 -5.188,-40.709C-4.929,-42.445 -3.738,-39.343 -3.53,-38.96C-2.863,-37.735 -1.912,-38.273 -3.76,-37.223C-2.433,-36.917 -3.558,-36.467 -3.395,-35.416C-3.363,-35.214 -1.198,-32.644 -0.943,-32.135C-0.708,-31.667 -0.747,-31.137 -0.748,-30.636L-0.01,-31.011C0.478,-30.348 0.65,-27.535 0.825,-27.308C0.97,-27.122 1.462,-27.3 1.507,-27.251C1.38,-27.326 1.03,-28.096 1.135,-28.38L2.258,-27.438C2.307,-27.128 1.596,-27.2 1.507,-27.251C2.322,-26.378 2.441,-25.101 3.005,-24.388C3.48,-23.787 4.091,-24.275 4.119,-24.226C4.241,-24.01 4.162,-23.155 4.491,-22.506C4.883,-21.733 5.695,-21.459 5.805,-21.244C5.969,-20.924 5.623,-20.366 5.804,-20.094C6.191,-19.51 7.378,-19.841 7.53,-19.721C7.626,-19.646 6.786,-18.666 7.331,-17.828C7.658,-17.327 8.836,-17.874 7.906,-16.341L9.031,-17.465C8.706,-14.36 9.698,-16.245 10.12,-15.946C10.226,-15.871 11.553,-13.99 11.639,-13.829C11.849,-13.439 12.744,-11.706 12.782,-11.574C12.856,-11.314 12.48,-10.093 12.802,-9.565L13.547,-10.314L16.021,-5.055C17.85,-4.617 17.082,-3.979 17.88,-2.79L18.816,-3.918C17.863,-1.188 19.495,-2.085 19.896,-1.603C20.127,-1.326 19.785,-0.456 19.986,-0.199C20.126,-0.02 21.305,-0.118 21.749,0.309C22,0.55 21.974,1.161 22.203,1.449C24.63,4.507 27.109,7.474 28.979,10.95L27.854,11.509C29.198,11.544 31.196,13.36 29.734,14.519C32.621,15 32.78,19.85 29.916,14.903C28.488,15.202 30.22,16.392 30.395,16.669C30.739,17.215 31.033,18.033 31.246,18.66L31.616,17.537C32.436,16.968 35.368,21.661 34.946,22.368C34.855,22.52 32.948,22.996 34.641,23.753C35.234,24.018 35.94,23.083 35.76,24.304L36.504,23.557L35.383,25.812C36.026,25.972 35.547,25.196 35.934,25.138C36.057,25.12 37.218,25.007 37.258,25.059C37.897,25.904 36.587,26.108 36.51,26.562L38.388,27.133C36.583,28.432 38.207,28.265 39.031,28.738C40.707,29.701 42.563,33.389 43.282,35.222C43.234,35.176 42.505,35.25 42.339,34.848L42.157,36.349C43.03,36.084 41.908,35.76 43.09,35.909C43.456,35.956 43.315,35.254 43.282,35.222C43.823,36.601 43.684,37.658 44.265,38.948C44.867,40.287 46.367,41.217 46.92,42.115C47.842,43.613 47.312,46.005 50.432,45.764C48.443,47.548 50.588,49.998 51.754,51.78L52.125,50.654L54.535,53.505L54.202,54.218C52.553,52.341 52.344,53.814 52.314,55.545C50.424,55.118 48.308,50.522 47.422,48.771C47.623,49.266 47.294,50.19 46.673,50.276C45.949,49.01 47.045,47.843 47.422,48.771C46.97,47.879 47.009,46.7 46.081,45.773C45.589,45.281 42.683,45.146 42.157,44.061C41.7,43.118 43.717,42.321 43.657,42.187C42.551,40.91 41.558,39.466 40.638,38.055C40.313,37.558 38.972,34.877 38.77,35.226L38.584,35.979C36.889,35.489 38.66,34.887 37.454,34.85L36.512,36.351C35.962,35.481 37.296,32.611 37.264,32.409C37.055,31.076 36.579,32.315 36.135,32.586C36.425,31.047 35.181,29.832 34.436,28.45L33.498,29.951C34.886,28.31 31.812,23.112 30.302,23.558C29.605,23.764 30.078,25.111 29.361,25.059L29.354,22.803C27.725,23.883 27.723,21.711 27.475,20.545C27.867,20.392 27.677,19.65 28.224,19.794L29.357,21.294C28.768,20.289 27.319,18.953 28.98,18.477C28.211,18.206 26.484,17.149 26.481,18.287C26.48,18.409 26.72,18.533 26.723,18.663C26.628,18.642 26.225,19.256 25.772,18.664C25.487,18.291 26.045,17.457 25.876,17.235C25.464,16.694 23.647,14.541 23.427,14.047C23.258,13.668 23.209,11.658 23.332,11.138C22.647,10.989 23.094,11.771 22.956,11.889C22.425,12.34 17.685,3.395 16.563,3.043C17.852,3.253 18.129,1.549 17.612,0.672C17.454,0.403 15.933,0.056 15.999,-1.282C15.328,-1.048 15.63,0.195 15.902,0.504C16.292,0.946 17.344,0.657 17.312,1.347C16.906,1.219 15.91,1.746 15.849,1.701C15.249,1.263 14.942,-0.872 15.056,-1.66C15.358,-1.582 15.832,-1.707 16.185,-1.664L15.242,-2.787C14.855,-2.689 15.106,-2.005 15.056,-1.66C13.488,-2.062 13.93,-2.8 13.806,-3.077C13.76,-3.178 13.204,-3.111 13.182,-3.395C13.163,-3.632 13.55,-3.961 13.468,-4.244C13.448,-4.312 12.944,-4.279 12.89,-4.477C12.73,-5.067 12.691,-6.081 13.547,-5.805C13.662,-6.336 12.855,-6.248 12.397,-6.714C11.605,-7.52 11.128,-8.592 9.973,-9.185L9.414,-8.436C9.523,-8.984 9.639,-11.163 9.409,-11.445C8.726,-12.28 8.672,-10.339 8.288,-10.696C7.483,-11.443 6.76,-13.557 5.649,-14.269C7.522,-14.234 7.04,-16.445 5.651,-17.09L4.895,-15.589C4.786,-16.783 6.16,-18.275 4.898,-18.595L4.709,-17.092C3.479,-17.502 4.122,-17.87 3.782,-18.396C3.158,-19.361 0.1,-23.812 0.041,-24.483C-0.045,-25.441 1.171,-25.039 1.125,-25.741C0,-25.498 0.893,-26.607 0.188,-26.874C-0.191,-27.018 0.278,-25.705 -0.376,-26.307C-1.426,-27.271 -1.993,-29.254 -2.672,-30.331C-2.975,-30.811 -3.875,-32.227 -4.514,-32.141C-3.894,-30.745 -5.069,-29.158 -5.414,-27.794C-7.359,-20.096 -7.588,-11.19 -9.415,-3.799C-9.489,-3.498 -10.124,-3.556 -10.173,-3.293C-10.311,-2.565 -9.701,-1.655 -9.783,-0.754C-9.891,0.419 -10.958,2.582 -10.708,4.031C-10.206,6.934 -5.305,9.012 -6.022,12.263C-3.924,11.812 -5.547,13.507 -5.267,13.768C-5.222,13.81 -4.621,13.614 -4.119,14.022C-3.129,14.828 -3.408,16.67 -2.551,17.034C-2.336,17.126 -1.871,16.736 -1.516,16.951C-1.283,17.091 1.6,21.069 1.708,21.322C2.027,22.07 1.565,22.489 1.51,23.179C3.223,22.555 2.232,24.025 2.345,24.243C2.426,24.4 4.444,25.911 4.834,26.435C5.604,27.469 5.885,28.314 5.826,29.581L6.21,28.45C8.527,31.402 10.558,34.198 12.131,37.601C13.13,39.76 14.777,42.633 15.72,44.82C15.759,44.91 15.423,45.399 15.598,45.755C15.868,46.306 16.779,46.396 16.896,46.587C17.028,46.802 16.537,47.432 16.719,47.665C16.975,47.994 17.725,47.882 17.97,48.113C18.214,48.343 18.375,49.78 18.808,50.376C19.356,51.13 21.843,52.121 21.268,53.285C20.275,53.011 19.487,51.207 18.445,51.592C19.714,53.452 21.665,55.187 22.917,56.99C23.758,58.202 25.759,61.669 26.246,62.767C26.396,63.104 25.908,64.957 27.851,64.951L28.233,61.569C28.931,61.56 28.567,62.948 28.604,63.448C28.969,63.402 29.365,63.473 29.734,63.452C29.062,65.554 28.785,65.829 28.604,63.448C28.004,63.524 28.24,65.15 27.475,65.703L28.985,65.708C28.98,66.085 28.697,66.462 28.826,66.842C29.568,69.036 32.737,71.768 34.175,73.479C35.206,74.705 36.131,76.965 37.044,77.777C37.74,78.398 38.691,78.465 38.757,78.531C38.854,78.625 38.08,80.221 39.515,80.909C40.039,81.161 40.466,80.05 40.273,82.267L41.965,80.768C42.454,82.511 43.475,81.333 43.655,81.508C43.695,81.547 43.633,82.244 43.869,82.602C44.407,83.417 45.29,84.474 45.913,85.277C46.048,84.468 45.67,83.678 45.683,82.894C45.689,82.532 45.767,80.761 46.287,80.764C47.519,82.3 46.401,81.68 46.288,82.838C46.193,83.811 46.646,85.42 47.797,84.904C47.234,83.584 48.586,83.316 48.553,83.215C48.252,82.279 47.342,81.862 48.179,80.387L49.302,81.511L48.55,79.451C48.815,78.754 49.649,79.305 49.677,79.255C49.771,79.091 49.435,78.489 49.507,78.079C50.741,71.137 52.193,62.588 52.314,55.545C52.576,55.604 53.351,55.439 53.435,55.552C53.556,55.716 53.304,56.438 53.455,56.761C53.824,57.552 53.695,56.989 54.061,58.221C54.584,59.983 55.129,61.22 54.47,63.158C53.613,65.676 52.961,65.726 52.985,68.908C52.992,69.792 52.145,70.038 53.443,70.407C52.553,70.988 52.821,72.01 52.489,72.843C52.338,73.223 51.564,73.656 51.568,73.798C51.58,74.149 52.655,74.32 52.691,74.371C52.771,74.485 52.048,75.139 51.948,75.687C51.655,77.308 51.755,79.763 53.82,80.004L52.693,78.128L54.194,78.126C54.282,78.214 54.122,80.484 54.062,80.604C53.514,81.703 52.733,80.123 53.816,83.017L52.318,81.515C52.784,83.028 50.321,84.29 51.93,84.9C51.995,83.878 52.652,83.515 53.353,84.244C53.766,84.673 53.304,88.117 53.279,89.167C53.242,90.711 53.62,93.365 53.431,94.833C53.337,95.557 52.639,96.313 52.665,96.729C52.678,96.947 53.472,97.136 53.773,97.554C54.285,98.267 54.195,98.857 54.344,99.105C54.829,99.906 56.512,101.212 55.902,102.574C55.758,102.898 54.809,103.799 54.391,103.716C53.8,103.599 54.231,102.459 53.632,102.22C53.333,102.219 53.002,103.656 53.07,103.697C53.383,103.885 54.307,103.366 54.193,104.089C53.57,104.652 51.135,105.042 50.849,105.264C50.813,105.292 51.128,105.813 50.848,106.169C49.591,107.77 47.927,106.995 47.806,107.114C47.744,107.174 47.897,107.775 47.677,108.092C45.903,110.642 37.46,116.003 34.449,118.407C30.943,121.206 27.699,124.536 24.075,127.226C22.336,128.516 21.76,127.908 20.671,130.028C20.643,130.083 20.012,129.737 19.446,130.081C18.597,130.598 18.139,132.331 16.802,131.936C16.47,131.838 16.602,131.285 16.531,131.233C15.948,130.8 14.493,133.119 13.928,133.64C15.839,133.778 12.596,136.649 12.415,135.425C12.358,135.039 12.677,134.469 12.05,134.581C11.192,135.844 12.461,137.754 11.288,138.471C10.657,138.858 10.382,138.947 9.665,139.937C8.937,140.942 9.359,141.815 7.908,140.975C8.29,143.002 7.095,142.463 6.503,142.955C6.002,143.371 5.941,143.9 4.647,144.881C3.609,145.668 3.557,146.263 3.022,146.815C2.569,147.282 1.379,147.067 1.503,148.123L1.127,146.999L0.567,148.13L-0.751,147.001C-0.243,147.748 0.188,148.265 -0.001,149.255L-1.503,148.883C0.055,150.581 -1.735,150.203 -2.507,150.886C-12.12,159.385 -20.899,166.544 -31.05,174.466C-34.527,177.179 -37.802,180.882 -41.805,183.659C-43.996,185.18 -46.881,187.559 -49.121,185.019C-49.422,184.678 -51.613,181.824 -51.702,181.63C-51.854,181.298 -51.493,180.794 -51.891,180.297C-53.288,178.556 -54.132,179.11 -55.099,176.274C-55.559,174.923 -55.47,174.072 -56.453,172.484C-56.632,172.195 -60.341,167.914 -60.66,167.795C-60.933,167.693 -61.674,168.385 -62.091,167.496C-61.295,165.376 -61.965,166.584 -62.609,166.481C-63.106,166.402 -64.841,163.804 -65.265,163.151C-65.895,162.182 -67.758,159.318 -68.113,158.47C-68.184,158.3 -68.211,157.854 -67.931,157.914L-66.992,158.664L-67.745,156.409L-68.862,157.156C-70.11,154.063 -72.844,150.661 -73.677,147.472C-73.885,146.677 -73.013,145.446 -74.513,144.549C-72.921,143.933 -74.228,144.348 -74.513,143.614L-73.763,143.424C-75.025,143.144 -74.929,141.39 -75.43,140.699C-76.19,139.649 -78.199,139.004 -78.453,138.724C-79.579,137.488 -85.337,127.699 -85.289,126.474C-85.27,125.985 -84.286,125.909 -85.052,125.348C-85.26,125.195 -86.074,126.16 -85.809,124.419L-87.31,125.542C-86.386,124.072 -88.21,124.792 -87.488,122.909L-88.812,123.664C-88.346,121.24 -89.392,122.06 -90.301,121.203C-92.934,118.717 -95.491,111.903 -97.319,108.646C-98.231,107.021 -101.528,104.072 -100.461,102.117C-100.236,101.705 -99.629,101.934 -99.731,101.65C-100.234,100.263 -100.935,102.252 -101.046,102.211C-102.876,101.535 -101.969,98.923 -103.494,98.817L-102.741,97.7C-104.171,97.988 -105.11,95.389 -105.511,94.214C-105.69,93.691 -105.413,92.943 -105.479,92.865C-105.534,92.801 -106.708,92.801 -106.125,92.054C-105.83,91.675 -104.557,92.188 -104.248,91.864C-105.096,91.711 -105.305,90.599 -105.382,90.549C-105.63,90.387 -106.253,91.597 -106.878,91.298C-106.531,90.544 -108.467,88.522 -107.099,88.712C-106.31,88.822 -105.777,89.266 -105.754,87.913L-108.384,87.345C-107.196,87.37 -106.738,87.511 -106.884,86.03L-108.009,86.403L-108.015,84.527L-108.39,85.658C-109.323,85.261 -109.744,85.331 -109.511,84.149C-108.853,83.957 -109.331,85.055 -108.953,84.899C-108.042,84.524 -108.668,82.316 -109.104,81.738C-109.456,81.271 -110.738,81.842 -110.264,80.76C-110.237,80.698 -108.949,81.43 -109.141,80.01L-111.017,80.007C-109.995,78.091 -111.6,78.538 -111.737,77.919C-111.816,77.564 -111.258,76.857 -111.399,76.62C-111.425,76.578 -112.021,76.929 -112.17,76.812C-112.534,76.525 -112.397,75.882 -112.626,75.595C-112.927,75.217 -114.072,75.189 -114.406,74.549C-114.239,74.02 -113.406,74.893 -113.282,74.738C-112.926,74.294 -113.881,72.039 -115.163,72.856C-114.334,70.669 -115.358,71.32 -115.731,70.245C-116.38,68.374 -114.772,68.479 -115.537,67.215C-113.239,67.717 -114.169,66.001 -113.469,64.581C-111.843,65.368 -110.709,66.767 -109.141,67.781C-109.473,69.526 -110.028,67.561 -110.267,67.391C-110.55,67.189 -111.652,67.551 -112.146,66.835L-112.146,69.092C-111.529,69.193 -111.693,68.091 -111.205,67.964C-110.665,67.824 -110.235,68.638 -109.895,68.911L-111.393,70.222C-110.489,69.326 -109.139,70.546 -108.641,71.36C-107.892,72.583 -108.533,74.395 -106.882,74.929C-106.971,75.258 -107.897,75.184 -108.149,75.122C-108.573,75.019 -108.145,74.201 -108.759,74.364C-109.047,76.004 -108.334,75.203 -107.746,75.604C-107.5,75.772 -107.792,76.227 -107.445,76.249C-107.02,76.276 -107.576,75.325 -106.885,75.494C-107.056,76.376 -106.04,78.07 -106.105,78.67C-106.135,78.946 -107.199,78.71 -106.879,79.439C-105.761,79.647 -105.193,81.732 -104.809,81.888C-104.442,82.038 -104.804,81.001 -104.436,81.138C-103.379,81.532 -104.434,82.073 -104.527,82.512C-104.633,83.018 -104.196,83.65 -104.059,84.15L-103.866,83.019C-101.987,83.753 -103.247,84.902 -103.149,85.807C-103.111,86.16 -102.253,85.892 -102.366,86.215C-102.725,87.242 -104.462,85.261 -103.866,88.285C-103.263,88.421 -103.715,87.779 -103.211,87.557C-101.571,86.836 -100.885,87.393 -101.616,89.039C-103.374,86.306 -103.322,89.161 -102.573,90.445C-102.414,90.717 -101.594,91.107 -101.369,91.444C-101.16,91.757 -101.29,92.333 -101.215,92.414C-101.128,92.509 -100.487,92.171 -100.097,92.288C-98.913,92.645 -98.558,94.01 -97.846,94.88C-99.759,95.651 -97.143,96.153 -96.788,96.82C-96.521,97.324 -96.431,98.567 -96.347,99.201C-96.717,99.296 -98.671,95.223 -98.98,97.141C-99.003,97.281 -97.937,99.535 -97.803,99.72C-97.088,100.703 -95.39,100.905 -95.586,102.588C-93.831,101.612 -95.529,101.669 -95.591,100.896C-95.708,99.437 -94.331,100.883 -94.159,101.744C-94.056,102.262 -94.512,102.918 -94.467,102.962C-94.402,103.025 -93.421,102.879 -93.118,103.311C-92.737,103.853 -93.105,104.955 -92.953,105.226C-92.931,105.266 -92.445,104.81 -92.032,105.203C-91.108,106.082 -88.352,111.403 -87.609,112.883C-87.442,113.216 -87.67,113.697 -87.581,113.807C-87.409,114.02 -86.719,114.031 -86.578,114.486C-86.442,114.924 -86.978,115.7 -86.938,115.757C-86.891,115.826 -85.898,115.789 -85.406,116.403C-84.849,117.1 -84.41,119.78 -84.11,119.899C-83.728,120.05 -84.212,118.958 -83.551,119.15C-83.141,120.915 -84.363,120.018 -84.68,120.279C-84.752,120.339 -84.233,121.625 -84.673,122.158C-83.453,121.867 -82.984,119.74 -82.238,121.414C-81.864,122.251 -82.07,123.172 -82.045,124.043C-82.752,123.128 -83.235,124.713 -83.17,124.789C-82.894,125.109 -81.459,124.493 -81.479,125.545C-79.047,123.56 -80.205,125.49 -79.963,125.935C-79.606,126.593 -77.958,127.091 -77.903,127.241C-77.77,127.611 -78.801,127.246 -78.653,127.614C-78.513,127.963 -77.04,128.387 -76.388,129.113C-75.65,129.935 -70.615,138.537 -70.453,139.379C-70.342,139.953 -70.861,140.856 -70.75,140.973C-69.954,141.816 -70.103,139.428 -69.441,140.605C-68.05,143.079 -70.218,142.222 -70.38,144.361C-71.223,143.974 -70.899,142.44 -72.254,142.477L-71.508,141.736C-71.87,141.796 -73.279,140.053 -73.02,141.547C-72.86,142.469 -72.01,142.635 -71.735,143.224C-71.509,143.706 -71.961,144.987 -70.934,145.491L-68.87,143.991C-68.742,145.993 -70.944,144.662 -70.265,147.075C-69.737,148.95 -69.271,148.096 -68.752,148.246C-68.321,148.371 -67.911,148.981 -67.748,148.88C-67.69,148.844 -67.606,147.72 -66.992,147.75C-66.52,149.443 -67.674,149.182 -67.732,149.262C-68.28,150.023 -67.131,150.025 -67.097,150.083C-67.021,150.215 -67.314,150.514 -67.236,150.679C-67.184,150.79 -66.718,150.769 -66.679,150.949C-66.423,152.146 -67.927,151.844 -65.11,153.02L-65.102,151.89C-63.859,152.273 -64.844,153.286 -65.106,154.145L-63.973,152.643C-62.709,152.839 -63.194,154.687 -63.104,154.827C-62.92,155.115 -62.094,154.567 -62.845,156.406L-61.723,155.654C-61.063,157.058 -62.538,158.236 -60.587,157.915L-60.964,159.416C-60.849,159.544 -60.279,159.138 -60.021,159.191C-58.769,159.445 -47.844,176.539 -45.724,178.605C-44.157,177.13 -42.323,175.989 -40.639,174.664C-39.972,174.139 -39.173,172.905 -38.595,172.567C-37.886,172.152 -37.13,172.324 -36.894,172.19C-36.853,172.167 -37.218,171.643 -36.912,171.254C-36.484,170.707 -35.862,171.075 -35.812,171.009C-31.834,165.696 -25.028,162.148 -19.767,157.901C-14.128,153.35 -8.88,148.53 -3.184,144.377C-2.291,143.726 -2.487,142.433 -1.515,143.237C-1.596,141.925 -0.757,141.557 0.197,140.973C0.733,142.664 1.228,140.97 0.756,139.849C2.034,139.252 0.697,141.163 1.69,140.596C2.285,140.256 1.752,138.564 3.203,137.967L3.762,138.716C3.156,136.915 3.785,137.419 4.377,136.704C5.185,135.729 8.274,131.695 9.034,131.351C9.558,131.115 9.889,132.118 10.158,131.943L10.919,129.307L11.66,129.689C11.367,128.138 12.697,128.421 13.049,128.058C14.083,126.99 16.434,123.919 17.965,123.709C18.819,123.591 19.185,124.398 19.948,124.417C19.861,124.656 19.639,124.869 19.601,125.14C21.027,125.845 20.574,125.049 20.794,124.955C21.038,124.85 21.728,125.118 21.828,124.599C22.128,123.057 20.444,124.429 19.948,124.417C20.152,123.859 19.55,123.742 20.702,123.492C18.928,120.97 21.436,121.342 22.207,120.653C22.112,120.873 22.263,121.448 22.209,121.78L22.957,121.78L22.956,120.277C22.932,120.242 22.223,120.615 22.207,120.653C22.305,120.565 22.447,119.419 23.153,119.151L24.085,120.275C23.672,118.4 25.83,116.941 27.099,115.761C26.72,116.14 27.838,117.276 28.226,116.888C28.615,116.5 27.478,115.382 27.099,115.761" style="fill-rule:nonzero;"/>
                </g>
                <g transform="matrix(1,0,0,1,1771.57,133.993)">
                    <path d="M0,1.82C-0.158,1.882 -0.515,1.79 -0.751,1.822C-0.77,1.196 -0.739,0.565 -0.753,-0.062C0.271,0.16 -0.131,1.202 0,1.82" style="fill-rule:nonzero;"/>
                </g>
                <g transform="matrix(1,0,0,1,1684.26,136.609)">
                    <path d="M0,-22.996C-0.582,-22.064 0.461,-20.875 1.324,-21.181C1.633,-21.291 1.355,-21.981 1.692,-21.87C2.633,-21.559 1.668,-20.315 1.884,-20.001C2.171,-19.584 4.142,-20.208 3.012,-18.487C3.426,-18.167 4.606,-18.986 4.777,-19.336C5.065,-19.927 4.568,-20.804 5.265,-20.74C5.435,-18.629 4.411,-15.243 3.573,-13.218C2.141,-9.763 -1.105,-6.439 -2.862,-3.072L-1.505,-1.175C-3.661,-2.213 -4.199,-0.159 -5.083,-0.02C-5.952,0.117 -8.089,-0.149 -9.16,-0.021C-9.708,-3.443 -12.044,-0.907 -14.154,-3.573C-16.54,-6.588 -17.032,-13.818 -16.179,-17.478C-16.112,-17.768 -15.472,-17.691 -15.443,-17.961C-15.395,-18.417 -15.922,-19.253 -15.425,-19.987L-11.03,-17.612C-9.731,-16.273 -8.87,-14.072 -7.845,-12.708C-6.282,-10.626 -6.522,-14.418 -6.232,-15.495C-5.769,-17.209 -3.172,-20.656 -1.893,-21.987C-1.818,-22.064 -0.171,-23.113 0,-22.996" style="fill-rule:nonzero;"/>
                </g>
                <g transform="matrix(1,0,0,1,1630.44,150.116)">
                    <path d="M0,8.278C0.464,5.435 0.94,2.746 1.688,0C2.936,1.076 1.486,2.645 1.319,3.581C1.083,4.905 1.755,7.188 0,8.278" style="fill-rule:nonzero;"/>
                </g>
                <g transform="matrix(1,0,0,1,1687.78,115.152)">
                    <path d="M0,-0.189C0.874,0.503 1.096,0.163 0.61,1.465C0.24,1.368 -0.891,-0.096 -0.88,-0.228C-0.767,-1.654 -0.082,-0.254 0,-0.189" style="fill-rule:nonzero;"/>
                </g>
                <g transform="matrix(1,0,0,1,1797.91,189.046)">
                    <path d="M0,0.585C-0.401,-1.881 0.083,-1.487 0.752,0.581C0.505,0.607 0.245,0.557 0,0.585C0.124,1.348 0.576,2.239 -0.372,2.466L-0.75,0.587C-0.504,0.563 -0.245,0.613 0,0.585" style="fill-rule:nonzero;"/>
                </g>
                <g transform="matrix(1,0,0,1,1655.28,117.097)">
                    <path d="M0,1.024C-0.702,1.125 -1.304,1.027 -1.505,0.279L-0.38,-0.101L0,1.024Z" style="fill-rule:nonzero;"/>
                </g>
                <g transform="matrix(1,0,0,1,1650.01,112.858)">
                    <path d="M0,1.503C-0.914,1.16 -1.005,0.581 -0.183,0L0,1.503Z" style="fill-rule:nonzero;"/>
                </g>
                <g transform="matrix(1,0,0,1,1634.95,196.704)">
                    <path d="M0,1.957L-0.749,1.957L-0.747,0.456C-0.541,0 0.205,1.75 0,1.957" style="fill-rule:nonzero;"/>
                </g>
                <g transform="matrix(1,0,0,1,1650.01,119.256)">
                    <path d="M0,1.125L-0.749,1.125C-0.871,0.57 -0.583,0.343 -0.184,0L0,1.125Z" style="fill-rule:nonzero;"/>
                </g>
                <g transform="matrix(-0.969689,0.244341,0.244341,0.969689,1675.8,262.229)">
                    <path d="M-0.253,-0.29L0.529,-0.29C-1.324,0.997 0.892,0.781 1.367,0.043C1.407,-0.019 1.096,-1.363 1.024,-1.381C0.501,-1.508 -0.337,-0.91 -0.253,-0.29" style="fill-rule:nonzero;"/>
                </g>
                <g transform="matrix(1,0,0,1,1789.25,215.017)">
                    <path d="M0,1.334C-0.213,1.504 -0.969,0.651 -0.746,0.208L0.377,-0.17L0,1.334Z" style="fill-rule:nonzero;"/>
                </g>
                <g transform="matrix(1,0,0,1,1677.1,260.385)">
                    <path d="M0,1.505C-0.613,1.234 -1.245,0.679 -1.122,0C-0.509,0.271 0.124,0.826 0,1.505" style="fill-rule:nonzero;"/>
                </g>
                <g transform="matrix(1,0,0,1,1784.74,224.33)">
                    <path d="M0,-1.578C0.248,-1.294 0.062,0.05 -0.75,-0.455L-0.75,-1.576C-0.513,-1.561 -0.044,-1.628 0,-1.578" style="fill-rule:nonzero;"/>
                </g>
                <g transform="matrix(1,0,0,1,1643.23,204.687)">
                    <path d="M0,1.502L-0.368,1.501C-0.493,0.709 -0.998,0.536 -0.182,0L0,1.502Z" style="fill-rule:nonzero;"/>
                </g>
                <g transform="matrix(1,0,0,1,1765.17,150.26)">
                    <path d="M0,-14.449L-0.182,-15.951C-0.998,-15.415 -0.493,-15.242 -0.368,-14.45L0,-14.449ZM1.883,-17.456C1.891,-15.921 2.678,-14.403 2.264,-12.939L3.012,-13.321C3.156,-11.447 3.912,-9.675 4.106,-7.804C4.297,-5.958 3.917,-2.849 4.138,-1.114C4.225,-0.429 5.127,0.115 4.892,0.981L4.334,0.232C3.725,0.471 3.923,1.875 3.763,2.486L3.39,1.356C1.941,1.077 3.344,3.007 1.694,2.498C1.345,2.39 2.083,1.208 -0.177,2.49C-0.819,0.391 -1.205,1.499 -2.141,1.073C-4.007,0.225 -12.068,-7.276 -10.906,-8.802L-9.786,-8.05C-9.918,-9.297 -7.389,-12.197 -6.458,-11.73C-6.383,-11.693 -6.436,-11.141 -6.158,-11.076C-5.933,-11.022 -5.42,-11.355 -4.966,-11.187C-4.118,-10.873 -3.438,-10.309 -2.634,-9.931C-1.964,-10.815 -5.021,-13.35 -1.878,-13.322C-3.17,-14.962 -2.428,-14.059 -1.689,-14.808C-0.661,-15.851 0.147,-17.171 1.883,-17.456" style="fill-rule:nonzero;"/>
                </g>
                <g transform="matrix(1,0,0,1,1776.46,143.38)">
                    <path d="M0,-2.297C-0.002,-1.219 -0.795,0.187 -1.314,-1.549L-1.874,-0.794C-2.253,-2.484 -0.972,-1.855 0,-2.297" style="fill-rule:nonzero;"/>
                </g>
                <g transform="matrix(1,0,0,1,1770.97,176.673)">
                    <path d="M0,0.459C0.015,0.49 1.259,0.644 0.225,1.107C-0.484,1.425 -1.037,-0.454 -0.9,-0.966C0.089,-0.784 -0.183,0.083 0,0.459" style="fill-rule:nonzero;"/>
                </g>
                <g transform="matrix(1,0,0,1,1769.32,174.571)">
                    <path d="M0,-2.249C0.151,-2.069 -0.503,-1.217 -0.383,-1.125C1.054,-1.329 0.794,-0.85 0.747,0.381C-0.387,0.599 0.149,-0.443 -0.552,-1.154C-0.826,-1.432 -1.477,-1.464 -1.507,-1.506C-2.042,-2.235 -0.505,-2.848 0,-2.249" style="fill-rule:nonzero;"/>
                </g>
                <g transform="matrix(1,0,0,1,1776.83,185.598)">
                    <path d="M0,-0.857C0.066,-0.805 0.42,0.355 0.76,0.642C-0.788,0.874 -1.119,-1.731 0,-0.857" style="fill-rule:nonzero;"/>
                </g>
                <g transform="matrix(0.959018,0.283346,0.283346,-0.959018,1784.24,192.631)">
                    <rect x="-0.228" y="-1.578" width="0.78" height="1.499"/>
                </g>
                <g transform="matrix(1,0,0,1,1775.33,181.352)">
                    <path d="M0,1.505C-0.949,1.11 -1.347,1.178 -1.122,0C-0.627,0.113 0.305,1.111 0,1.505" style="fill-rule:nonzero;"/>
                </g>
                <g transform="matrix(1,0,0,1,1780.6,188.618)">
                    <path d="M0,1.388C-0.216,1.604 -1.12,1.075 -1.12,0.825C-1.119,-0.216 0.569,0.819 0,1.388" style="fill-rule:nonzero;"/>
                </g>
                <g transform="matrix(1,0,0,1,1781.36,190.511)">
                    <path d="M0,0.998L1.125,-0.127C1.25,0.585 0.686,1.125 0,0.998" style="fill-rule:nonzero;"/>
                </g>
                <g transform="matrix(1,0,0,1,1776.84,184.36)">
                    <path d="M0,-1.125L-0.184,0C-0.583,-0.343 -0.871,-0.57 -0.749,-1.125L0,-1.125Z" style="fill-rule:nonzero;"/>
                </g>
            </g>
        </g>
    </g>
</svg>
